%TF.GenerationSoftware,KiCad,Pcbnew,(6.0.9)*%
%TF.CreationDate,2022-12-15T18:11:33+09:00*%
%TF.ProjectId,Skeleton68rev2,536b656c-6574-46f6-9e36-38726576322e,rev?*%
%TF.SameCoordinates,Original*%
%TF.FileFunction,Paste,Bot*%
%TF.FilePolarity,Positive*%
%FSLAX46Y46*%
G04 Gerber Fmt 4.6, Leading zero omitted, Abs format (unit mm)*
G04 Created by KiCad (PCBNEW (6.0.9)) date 2022-12-15 18:11:33*
%MOMM*%
%LPD*%
G01*
G04 APERTURE LIST*
G04 Aperture macros list*
%AMRoundRect*
0 Rectangle with rounded corners*
0 $1 Rounding radius*
0 $2 $3 $4 $5 $6 $7 $8 $9 X,Y pos of 4 corners*
0 Add a 4 corners polygon primitive as box body*
4,1,4,$2,$3,$4,$5,$6,$7,$8,$9,$2,$3,0*
0 Add four circle primitives for the rounded corners*
1,1,$1+$1,$2,$3*
1,1,$1+$1,$4,$5*
1,1,$1+$1,$6,$7*
1,1,$1+$1,$8,$9*
0 Add four rect primitives between the rounded corners*
20,1,$1+$1,$2,$3,$4,$5,0*
20,1,$1+$1,$4,$5,$6,$7,0*
20,1,$1+$1,$6,$7,$8,$9,0*
20,1,$1+$1,$8,$9,$2,$3,0*%
%AMRotRect*
0 Rectangle, with rotation*
0 The origin of the aperture is its center*
0 $1 length*
0 $2 width*
0 $3 Rotation angle, in degrees counterclockwise*
0 Add horizontal line*
21,1,$1,$2,0,0,$3*%
G04 Aperture macros list end*
%ADD10R,0.420000X1.300000*%
%ADD11RotRect,0.900000X1.200000X12.000000*%
%ADD12R,0.900000X1.200000*%
%ADD13RoundRect,0.200000X1.269816X0.803550X-0.833201X1.250560X-1.269816X-0.803550X0.833201X-1.250560X0*%
%ADD14RoundRect,0.135000X0.185000X-0.135000X0.185000X0.135000X-0.185000X0.135000X-0.185000X-0.135000X0*%
%ADD15RoundRect,0.200000X1.075000X1.050000X-1.075000X1.050000X-1.075000X-1.050000X1.075000X-1.050000X0*%
%ADD16RotRect,0.900000X1.200000X348.000000*%
%ADD17R,1.300000X0.420000*%
%ADD18RotRect,0.420000X1.300000X348.000000*%
%ADD19R,1.800000X1.100000*%
%ADD20RoundRect,0.140000X-0.170000X0.140000X-0.170000X-0.140000X0.170000X-0.140000X0.170000X0.140000X0*%
%ADD21RoundRect,0.200000X0.833201X1.250560X-1.269816X0.803550X-0.833201X-1.250560X1.269816X-0.803550X0*%
%ADD22RotRect,0.900000X1.200000X168.000000*%
%ADD23RoundRect,0.140000X0.170000X-0.140000X0.170000X0.140000X-0.170000X0.140000X-0.170000X-0.140000X0*%
%ADD24RoundRect,0.135000X-0.185000X0.135000X-0.185000X-0.135000X0.185000X-0.135000X0.185000X0.135000X0*%
%ADD25RoundRect,0.150000X0.150000X-0.512500X0.150000X0.512500X-0.150000X0.512500X-0.150000X-0.512500X0*%
%ADD26RoundRect,0.150000X0.150000X-0.587500X0.150000X0.587500X-0.150000X0.587500X-0.150000X-0.587500X0*%
%ADD27RoundRect,0.249999X0.395001X0.395001X-0.395001X0.395001X-0.395001X-0.395001X0.395001X-0.395001X0*%
%ADD28RoundRect,0.050000X0.387500X0.050000X-0.387500X0.050000X-0.387500X-0.050000X0.387500X-0.050000X0*%
%ADD29RoundRect,0.050000X0.050000X0.387500X-0.050000X0.387500X-0.050000X-0.387500X0.050000X-0.387500X0*%
%ADD30RoundRect,0.140000X0.140000X0.170000X-0.140000X0.170000X-0.140000X-0.170000X0.140000X-0.170000X0*%
%ADD31R,0.600000X1.450000*%
%ADD32R,0.300000X1.450000*%
%ADD33RoundRect,0.150000X-0.150000X0.650000X-0.150000X-0.650000X0.150000X-0.650000X0.150000X0.650000X0*%
%ADD34RoundRect,0.200000X-0.275000X0.200000X-0.275000X-0.200000X0.275000X-0.200000X0.275000X0.200000X0*%
%ADD35R,1.400000X1.200000*%
%ADD36RotRect,0.420000X1.300000X12.000000*%
%ADD37RoundRect,0.250000X-0.625000X0.375000X-0.625000X-0.375000X0.625000X-0.375000X0.625000X0.375000X0*%
G04 APERTURE END LIST*
D10*
%TO.C,LED17*%
X166127699Y-97243372D03*
X165277699Y-97243372D03*
X164427699Y-97243372D03*
X163577699Y-97243372D03*
%TD*%
%TO.C,LED30*%
X124007724Y-24500017D03*
X124857724Y-24500017D03*
X125707724Y-24500017D03*
X126557724Y-24500017D03*
%TD*%
D11*
%TO.C,D9*%
X207936056Y-48920554D03*
X211163944Y-48234446D03*
%TD*%
D12*
%TO.C,D44*%
X339790000Y-75060000D03*
X343090000Y-75060000D03*
%TD*%
D13*
%TO.C,SW35*%
X117594480Y-78697531D03*
X130767090Y-78900710D03*
%TD*%
D14*
%TO.C,R7*%
X170520000Y-81760000D03*
X170520000Y-80740000D03*
%TD*%
D15*
%TO.C,SW41*%
X256403893Y-71162021D03*
X269330893Y-68622021D03*
%TD*%
D16*
%TO.C,D62*%
X147928556Y-115861946D03*
X151156444Y-116548054D03*
%TD*%
D17*
%TO.C,LED9*%
X355400005Y-76725001D03*
X355400005Y-77575001D03*
X355400005Y-78425001D03*
X355400005Y-79275001D03*
%TD*%
D11*
%TO.C,D64*%
X238966056Y-104073054D03*
X242193944Y-103386946D03*
%TD*%
D18*
%TO.C,LED19*%
X109229240Y-125495957D03*
X108397814Y-125319233D03*
X107566389Y-125142508D03*
X106734963Y-124965783D03*
%TD*%
D15*
%TO.C,SW55*%
X250961203Y-90212021D03*
X263888203Y-87672021D03*
%TD*%
D19*
%TO.C,TS1*%
X167050000Y-82672500D03*
X160850000Y-82672500D03*
X167050000Y-86372500D03*
X160850000Y-86372500D03*
%TD*%
D12*
%TO.C,D30*%
X337440000Y-44500000D03*
X340740000Y-44500000D03*
%TD*%
D20*
%TO.C,C1*%
X162460000Y-79990000D03*
X162460000Y-80950000D03*
%TD*%
D21*
%TO.C,SW24*%
X210698293Y-59456401D03*
X222814711Y-54284232D03*
%TD*%
%TO.C,SW8*%
X176044264Y-47346754D03*
X188160682Y-42174585D03*
%TD*%
%TO.C,SW53*%
X211218557Y-98296992D03*
X223334975Y-93124823D03*
%TD*%
D15*
%TO.C,SW68*%
X341448703Y-109262021D03*
X354375703Y-106722021D03*
%TD*%
D10*
%TO.C,LED3*%
X253775005Y-24500008D03*
X254625005Y-24500008D03*
X255475005Y-24500008D03*
X256325005Y-24500008D03*
%TD*%
D12*
%TO.C,D58*%
X331030000Y-81760000D03*
X334330000Y-81760000D03*
%TD*%
D15*
%TO.C,SW15*%
X337440005Y-30835000D03*
X350367005Y-28295000D03*
%TD*%
D10*
%TO.C,LED5*%
X311775005Y-24500004D03*
X312625005Y-24500004D03*
X313475005Y-24500004D03*
X314325005Y-24500004D03*
%TD*%
D22*
%TO.C,D21*%
X154966444Y-58445554D03*
X151738556Y-57759446D03*
%TD*%
%TO.C,D35*%
X134011444Y-90830554D03*
X130783556Y-90144446D03*
%TD*%
D11*
%TO.C,D40*%
X246746056Y-79783054D03*
X249973944Y-79096946D03*
%TD*%
D12*
%TO.C,D3*%
X90330000Y-40957500D03*
X87030000Y-40957500D03*
%TD*%
D23*
%TO.C,C2*%
X173480000Y-81710000D03*
X173480000Y-80750000D03*
%TD*%
D12*
%TO.C,D67*%
X326050000Y-101350000D03*
X329350000Y-101350000D03*
%TD*%
D21*
%TO.C,SW63*%
X194216349Y-121386511D03*
X206332767Y-116214342D03*
%TD*%
D17*
%TO.C,LED24*%
X21612111Y-93616139D03*
X21612111Y-92766139D03*
X21612111Y-91916139D03*
X21612111Y-91066139D03*
%TD*%
D12*
%TO.C,D45*%
X57847500Y-81915000D03*
X54547500Y-81915000D03*
%TD*%
D15*
%TO.C,SW44*%
X341440005Y-68935001D03*
X354367005Y-66395001D03*
%TD*%
%TO.C,SW60*%
X54739611Y-109262021D03*
X67666611Y-106722021D03*
%TD*%
D12*
%TO.C,D41*%
X266410000Y-79440000D03*
X269710000Y-79440000D03*
%TD*%
D23*
%TO.C,C7*%
X177340000Y-34700000D03*
X177340000Y-33740000D03*
%TD*%
D12*
%TO.C,D43*%
X316550000Y-79390000D03*
X319850000Y-79390000D03*
%TD*%
D23*
%TO.C,C5*%
X159250000Y-76730000D03*
X159250000Y-75770000D03*
%TD*%
D13*
%TO.C,SW48*%
X104316907Y-95350884D03*
X117489517Y-95554063D03*
%TD*%
D15*
%TO.C,SW56*%
X270011203Y-90212021D03*
X282938203Y-87672021D03*
%TD*%
D12*
%TO.C,D1*%
X50420000Y-39000000D03*
X47120000Y-39000000D03*
%TD*%
D11*
%TO.C,D10*%
X226033556Y-45110554D03*
X229261444Y-44424446D03*
%TD*%
D15*
%TO.C,SW32*%
X58821921Y-71162021D03*
X71748921Y-68622021D03*
%TD*%
%TO.C,SW65*%
X279536203Y-109262021D03*
X292463203Y-106722021D03*
%TD*%
D12*
%TO.C,D14*%
X310770000Y-41410000D03*
X314070000Y-41410000D03*
%TD*%
D22*
%TO.C,D33*%
X96863944Y-83210554D03*
X93636056Y-82524446D03*
%TD*%
D13*
%TO.C,SW6*%
X130174344Y-42420287D03*
X143346954Y-42623466D03*
%TD*%
D21*
%TO.C,SW38*%
X197940983Y-81643639D03*
X210057401Y-76471470D03*
%TD*%
D15*
%TO.C,SW27*%
X269490939Y-52112021D03*
X282417939Y-49572021D03*
%TD*%
D24*
%TO.C,R2*%
X169010000Y-91850000D03*
X169010000Y-92870000D03*
%TD*%
D12*
%TO.C,D15*%
X338970000Y-41460000D03*
X342270000Y-41460000D03*
%TD*%
D23*
%TO.C,C10*%
X183055000Y-34700000D03*
X183055000Y-33740000D03*
%TD*%
D10*
%TO.C,LED2*%
X224775005Y-24500011D03*
X225625005Y-24500011D03*
X226475005Y-24500011D03*
X227325005Y-24500011D03*
%TD*%
D23*
%TO.C,C13*%
X188770000Y-34700000D03*
X188770000Y-33740000D03*
%TD*%
D15*
%TO.C,SW43*%
X306410143Y-71162021D03*
X319337143Y-68622021D03*
%TD*%
%TO.C,SW1*%
X33722724Y-33062021D03*
X46649724Y-30522021D03*
%TD*%
D11*
%TO.C,D52*%
X201646056Y-91753054D03*
X204873944Y-91066946D03*
%TD*%
D23*
%TO.C,C16*%
X175857500Y-31347500D03*
X175857500Y-30387500D03*
%TD*%
D12*
%TO.C,D55*%
X257250000Y-81910000D03*
X260550000Y-81910000D03*
%TD*%
D10*
%TO.C,LED21*%
X62387111Y-118677021D03*
X61537111Y-118677021D03*
X60687111Y-118677021D03*
X59837111Y-118677021D03*
%TD*%
D13*
%TO.C,SW34*%
X98960769Y-74736813D03*
X112133379Y-74939992D03*
%TD*%
D17*
%TO.C,LED8*%
X353400005Y-57675001D03*
X353400005Y-58525001D03*
X353400005Y-59375001D03*
X353400005Y-60225001D03*
%TD*%
D13*
%TO.C,SW7*%
X148808056Y-46381005D03*
X161980666Y-46584184D03*
%TD*%
D22*
%TO.C,D7*%
X163538944Y-57493054D03*
X160311056Y-56806946D03*
%TD*%
%TO.C,D18*%
X99721444Y-47015554D03*
X96493556Y-46329446D03*
%TD*%
D21*
%TO.C,SW25*%
X229332005Y-55495683D03*
X241448423Y-50323514D03*
%TD*%
D15*
%TO.C,SW67*%
X322398703Y-109262021D03*
X335325703Y-106722021D03*
%TD*%
D11*
%TO.C,D23*%
X198906056Y-53683054D03*
X202133944Y-52996946D03*
%TD*%
D12*
%TO.C,D46*%
X81660000Y-81915000D03*
X78360000Y-81915000D03*
%TD*%
D11*
%TO.C,D24*%
X220318556Y-48920554D03*
X223546444Y-48234446D03*
%TD*%
%TO.C,D11*%
X243866056Y-40353054D03*
X247093944Y-39666946D03*
%TD*%
D15*
%TO.C,SW14*%
X300765885Y-33062021D03*
X313692885Y-30522021D03*
%TD*%
D22*
%TO.C,D20*%
X139693944Y-51663054D03*
X136466056Y-50976946D03*
%TD*%
D23*
%TO.C,C11*%
X184960000Y-34700000D03*
X184960000Y-33740000D03*
%TD*%
D13*
%TO.C,SW18*%
X79629347Y-51152205D03*
X92801957Y-51355384D03*
%TD*%
D10*
%TO.C,LED31*%
X153007724Y-24500015D03*
X153857724Y-24500015D03*
X154707724Y-24500015D03*
X155557724Y-24500015D03*
%TD*%
D11*
%TO.C,D38*%
X209416056Y-87843054D03*
X212643944Y-87156946D03*
%TD*%
D21*
%TO.C,SW10*%
X213311688Y-39425318D03*
X225428106Y-34253149D03*
%TD*%
D12*
%TO.C,D16*%
X49080000Y-42500000D03*
X45780000Y-42500000D03*
%TD*%
%TO.C,D27*%
X273622500Y-43815000D03*
X276922500Y-43815000D03*
%TD*%
D23*
%TO.C,C9*%
X181150000Y-34700000D03*
X181150000Y-33740000D03*
%TD*%
D15*
%TO.C,SW16*%
X34311712Y-52112021D03*
X47238712Y-49572021D03*
%TD*%
D17*
%TO.C,LED23*%
X21612111Y-118736610D03*
X21612111Y-117886610D03*
X21612111Y-117036610D03*
X21612111Y-116186610D03*
%TD*%
D21*
%TO.C,SW11*%
X231945400Y-35464601D03*
X244061818Y-30292432D03*
%TD*%
D11*
%TO.C,D53*%
X219576056Y-87933054D03*
X222803944Y-87246946D03*
%TD*%
D21*
%TO.C,SW51*%
X173951134Y-106218428D03*
X186067552Y-101046259D03*
%TD*%
D13*
%TO.C,SW4*%
X92906920Y-34498852D03*
X106079530Y-34702031D03*
%TD*%
D21*
%TO.C,SW22*%
X173430869Y-67377836D03*
X185547287Y-62205667D03*
%TD*%
D12*
%TO.C,D60*%
X71182500Y-100965000D03*
X67882500Y-100965000D03*
%TD*%
D21*
%TO.C,SW54*%
X229852269Y-94336274D03*
X241968687Y-89164105D03*
%TD*%
D15*
%TO.C,SW12*%
X253140885Y-32321430D03*
X266067885Y-29781430D03*
%TD*%
%TO.C,SW26*%
X250440939Y-51371430D03*
X263367939Y-48831430D03*
%TD*%
%TO.C,SW31*%
X32628172Y-71162021D03*
X45555172Y-68622021D03*
%TD*%
D22*
%TO.C,D48*%
X123013944Y-90830554D03*
X119786056Y-90144446D03*
%TD*%
D17*
%TO.C,LED25*%
X25694422Y-74269860D03*
X25694422Y-73419860D03*
X25694422Y-72569860D03*
X25694422Y-71719860D03*
%TD*%
D16*
%TO.C,D61*%
X128196056Y-108736946D03*
X131423944Y-109423054D03*
%TD*%
D10*
%TO.C,LED1*%
X195775005Y-24500012D03*
X196625005Y-24500012D03*
X197475005Y-24500012D03*
X198325005Y-24500012D03*
%TD*%
%TO.C,LED29*%
X95007724Y-24500019D03*
X95857724Y-24500019D03*
X96707724Y-24500019D03*
X97557724Y-24500019D03*
%TD*%
D18*
%TO.C,LED18*%
X136531785Y-131299292D03*
X135700359Y-131122568D03*
X134868934Y-130945843D03*
X134037508Y-130769118D03*
%TD*%
D13*
%TO.C,SW21*%
X135530482Y-63034358D03*
X148703092Y-63237537D03*
%TD*%
D24*
%TO.C,R3*%
X160200000Y-30060000D03*
X160200000Y-31080000D03*
%TD*%
D10*
%TO.C,LED27*%
X37007724Y-24500023D03*
X37857724Y-24500023D03*
X38707724Y-24500023D03*
X39557724Y-24500023D03*
%TD*%
D15*
%TO.C,SW28*%
X288540939Y-52112021D03*
X301467939Y-49572021D03*
%TD*%
D25*
%TO.C,U2*%
X168610000Y-30317500D03*
X167660000Y-30317500D03*
X166710000Y-30317500D03*
X166710000Y-28042500D03*
X167660000Y-28042500D03*
X168610000Y-28042500D03*
%TD*%
D12*
%TO.C,D32*%
X77850000Y-79057500D03*
X74550000Y-79057500D03*
%TD*%
D13*
%TO.C,SW36*%
X136228192Y-82658249D03*
X149400802Y-82861428D03*
%TD*%
D15*
%TO.C,SW29*%
X312353439Y-52112021D03*
X325280439Y-49572021D03*
%TD*%
D21*
%TO.C,SW37*%
X179307272Y-85604357D03*
X191423690Y-80432188D03*
%TD*%
D15*
%TO.C,SW17*%
X58124211Y-52112021D03*
X71051211Y-49572021D03*
%TD*%
D26*
%TO.C,U4*%
X174010000Y-33837500D03*
X172110000Y-33837500D03*
X173060000Y-31962500D03*
%TD*%
D23*
%TO.C,C12*%
X186865000Y-34700000D03*
X186865000Y-33740000D03*
%TD*%
D12*
%TO.C,D2*%
X71182500Y-40957500D03*
X67882500Y-40957500D03*
%TD*%
D11*
%TO.C,D63*%
X200226056Y-111823054D03*
X203453944Y-111136946D03*
%TD*%
D10*
%TO.C,LED13*%
X295608703Y-118677021D03*
X294758703Y-118677021D03*
X293908703Y-118677021D03*
X293058703Y-118677021D03*
%TD*%
D13*
%TO.C,SW62*%
X137623613Y-121906031D03*
X150796223Y-122109210D03*
%TD*%
D15*
%TO.C,SW46*%
X64264611Y-90212021D03*
X77191611Y-87672021D03*
%TD*%
D13*
%TO.C,SW33*%
X80327057Y-70776096D03*
X93499667Y-70979275D03*
%TD*%
D22*
%TO.C,D47*%
X104483944Y-87020554D03*
X101256056Y-86334446D03*
%TD*%
D15*
%TO.C,SW57*%
X296204953Y-90212021D03*
X309131953Y-87672021D03*
%TD*%
D10*
%TO.C,LED6*%
X340775005Y-24500002D03*
X341625005Y-24500002D03*
X342475005Y-24500002D03*
X343325005Y-24500002D03*
%TD*%
%TO.C,LED20*%
X88347769Y-101325387D03*
X87497769Y-101325387D03*
X86647769Y-101325387D03*
X85797769Y-101325387D03*
%TD*%
D12*
%TO.C,D26*%
X255525000Y-43140000D03*
X258825000Y-43140000D03*
%TD*%
D15*
%TO.C,SW45*%
X33308361Y-90212021D03*
X46235361Y-87672021D03*
%TD*%
D12*
%TO.C,D29*%
X330040000Y-40930000D03*
X333340000Y-40930000D03*
%TD*%
D11*
%TO.C,D25*%
X236006056Y-45743054D03*
X239233944Y-45056946D03*
%TD*%
D13*
%TO.C,SW49*%
X122950619Y-99311602D03*
X136123229Y-99514781D03*
%TD*%
D14*
%TO.C,R1*%
X158560000Y-83150000D03*
X158560000Y-82130000D03*
%TD*%
D12*
%TO.C,D56*%
X276280000Y-82080000D03*
X279580000Y-82080000D03*
%TD*%
D15*
%TO.C,SW30*%
X339440005Y-49885001D03*
X352367005Y-47345001D03*
%TD*%
D22*
%TO.C,D19*%
X118143944Y-50825554D03*
X114916056Y-50139446D03*
%TD*%
%TO.C,D5*%
X127783944Y-49743054D03*
X124556056Y-49056946D03*
%TD*%
D17*
%TO.C,LED11*%
X355408703Y-117052021D03*
X355408703Y-117902021D03*
X355408703Y-118752021D03*
X355408703Y-119602021D03*
%TD*%
D22*
%TO.C,D34*%
X114961444Y-87020554D03*
X111733556Y-86334446D03*
%TD*%
D21*
%TO.C,SW64*%
X233936905Y-113552974D03*
X246053323Y-108380805D03*
%TD*%
D11*
%TO.C,D39*%
X227896056Y-83643054D03*
X231123944Y-82956946D03*
%TD*%
D27*
%TO.C,U3*%
X162620000Y-67700000D03*
X164220000Y-69300000D03*
X162620000Y-69300000D03*
X164220000Y-67700000D03*
D28*
X166857500Y-65900000D03*
X166857500Y-66300000D03*
X166857500Y-66700000D03*
X166857500Y-67100000D03*
X166857500Y-67500000D03*
X166857500Y-67900000D03*
X166857500Y-68300000D03*
X166857500Y-68700000D03*
X166857500Y-69100000D03*
X166857500Y-69500000D03*
X166857500Y-69900000D03*
X166857500Y-70300000D03*
X166857500Y-70700000D03*
X166857500Y-71100000D03*
D29*
X166020000Y-71937500D03*
X165620000Y-71937500D03*
X165220000Y-71937500D03*
X164820000Y-71937500D03*
X164420000Y-71937500D03*
X164020000Y-71937500D03*
X163620000Y-71937500D03*
X163220000Y-71937500D03*
X162820000Y-71937500D03*
X162420000Y-71937500D03*
X162020000Y-71937500D03*
X161620000Y-71937500D03*
X161220000Y-71937500D03*
X160820000Y-71937500D03*
D28*
X159982500Y-71100000D03*
X159982500Y-70700000D03*
X159982500Y-70300000D03*
X159982500Y-69900000D03*
X159982500Y-69500000D03*
X159982500Y-69100000D03*
X159982500Y-68700000D03*
X159982500Y-68300000D03*
X159982500Y-67900000D03*
X159982500Y-67500000D03*
X159982500Y-67100000D03*
X159982500Y-66700000D03*
X159982500Y-66300000D03*
X159982500Y-65900000D03*
D29*
X160820000Y-65062500D03*
X161220000Y-65062500D03*
X161620000Y-65062500D03*
X162020000Y-65062500D03*
X162420000Y-65062500D03*
X162820000Y-65062500D03*
X163220000Y-65062500D03*
X163620000Y-65062500D03*
X164020000Y-65062500D03*
X164420000Y-65062500D03*
X164820000Y-65062500D03*
X165220000Y-65062500D03*
X165620000Y-65062500D03*
X166020000Y-65062500D03*
%TD*%
D15*
%TO.C,SW66*%
X303348703Y-109262021D03*
X316275703Y-106722021D03*
%TD*%
D22*
%TO.C,D36*%
X149583944Y-94093054D03*
X146356056Y-93406946D03*
%TD*%
D19*
%TO.C,TS2*%
X167050000Y-89090000D03*
X160850000Y-89090000D03*
X160850000Y-92790000D03*
X167050000Y-92790000D03*
%TD*%
D23*
%TO.C,C6*%
X161155000Y-76730000D03*
X161155000Y-75770000D03*
%TD*%
D12*
%TO.C,D66*%
X311190000Y-100960000D03*
X314490000Y-100960000D03*
%TD*%
D15*
%TO.C,SW59*%
X26164611Y-109262021D03*
X39091611Y-106722021D03*
%TD*%
D12*
%TO.C,D65*%
X287750000Y-101020000D03*
X291050000Y-101020000D03*
%TD*%
%TO.C,D28*%
X301245000Y-43870000D03*
X304545000Y-43870000D03*
%TD*%
D10*
%TO.C,LED28*%
X66007724Y-24500021D03*
X66857724Y-24500021D03*
X67707724Y-24500021D03*
X68557724Y-24500021D03*
%TD*%
D13*
%TO.C,SW50*%
X141584330Y-103272320D03*
X154756940Y-103475499D03*
%TD*%
D21*
%TO.C,SW52*%
X192584845Y-102257710D03*
X204701263Y-97085541D03*
%TD*%
D15*
%TO.C,SW42*%
X275453893Y-71162021D03*
X288380893Y-68622021D03*
%TD*%
D20*
%TO.C,C3*%
X172005000Y-80750000D03*
X172005000Y-81710000D03*
%TD*%
D12*
%TO.C,D17*%
X75945000Y-43815000D03*
X72645000Y-43815000D03*
%TD*%
D15*
%TO.C,SW58*%
X322398703Y-90212021D03*
X335325703Y-87672021D03*
%TD*%
D10*
%TO.C,LED12*%
X337333703Y-118677021D03*
X336483703Y-118677021D03*
X335633703Y-118677021D03*
X334783703Y-118677021D03*
%TD*%
D30*
%TO.C,C17*%
X173760000Y-35530000D03*
X172800000Y-35530000D03*
%TD*%
D21*
%TO.C,SW9*%
X194677976Y-43386036D03*
X206794394Y-38213867D03*
%TD*%
D17*
%TO.C,LED10*%
X336350005Y-98002021D03*
X336350005Y-98852021D03*
X336350005Y-99702021D03*
X336350005Y-100552021D03*
%TD*%
D31*
%TO.C,J1*%
X165830000Y-23605000D03*
X166630000Y-23605000D03*
D32*
X167830000Y-23605000D03*
X168830000Y-23605000D03*
X169330000Y-23605000D03*
X170330000Y-23605000D03*
D31*
X171530000Y-23605000D03*
X172330000Y-23605000D03*
X172330000Y-23605000D03*
X171530000Y-23605000D03*
D32*
X170830000Y-23605000D03*
X169830000Y-23605000D03*
X168330000Y-23605000D03*
X167330000Y-23605000D03*
D31*
X166630000Y-23605000D03*
X165830000Y-23605000D03*
%TD*%
D11*
%TO.C,D54*%
X238136056Y-83903054D03*
X241363944Y-83216946D03*
%TD*%
D33*
%TO.C,U1*%
X168595000Y-51270000D03*
X169865000Y-51270000D03*
X171135000Y-51270000D03*
X172405000Y-51270000D03*
X172405000Y-58470000D03*
X171135000Y-58470000D03*
X169865000Y-58470000D03*
X168595000Y-58470000D03*
%TD*%
D13*
%TO.C,SW19*%
X98263058Y-55112922D03*
X111435668Y-55316101D03*
%TD*%
D22*
%TO.C,D50*%
X155083944Y-97833054D03*
X151856056Y-97146946D03*
%TD*%
D34*
%TO.C,R6*%
X165230000Y-37665000D03*
X165230000Y-39315000D03*
%TD*%
D35*
%TO.C,Y1*%
X170920000Y-83880000D03*
X173120000Y-83880000D03*
X173120000Y-85580000D03*
X170920000Y-85580000D03*
%TD*%
D24*
%TO.C,R4*%
X170950000Y-28310000D03*
X170950000Y-29330000D03*
%TD*%
D12*
%TO.C,D12*%
X264097500Y-40540000D03*
X267397500Y-40540000D03*
%TD*%
D15*
%TO.C,SW13*%
X272190885Y-33062021D03*
X285117885Y-30522021D03*
%TD*%
D23*
%TO.C,C15*%
X192580000Y-34700000D03*
X192580000Y-33740000D03*
%TD*%
D17*
%TO.C,LED26*%
X29759212Y-49402021D03*
X29759212Y-48552021D03*
X29759212Y-47702021D03*
X29759212Y-46852021D03*
%TD*%
D23*
%TO.C,C4*%
X157345000Y-76730000D03*
X157345000Y-75770000D03*
%TD*%
D21*
%TO.C,SW23*%
X192064581Y-63417119D03*
X204180999Y-58244950D03*
%TD*%
D36*
%TO.C,LED15*%
X236527744Y-122627612D03*
X235696318Y-122804337D03*
X234864893Y-122981062D03*
X234033467Y-123157786D03*
%TD*%
D13*
%TO.C,SW47*%
X85683195Y-91390166D03*
X98855805Y-91593345D03*
%TD*%
D22*
%TO.C,D6*%
X146943944Y-51133054D03*
X143716056Y-50446946D03*
%TD*%
D12*
%TO.C,D59*%
X42790000Y-98520000D03*
X39490000Y-98520000D03*
%TD*%
D17*
%TO.C,LED7*%
X351400005Y-38625001D03*
X351400005Y-39475001D03*
X351400005Y-40325001D03*
X351400005Y-41175001D03*
%TD*%
D11*
%TO.C,D51*%
X182276056Y-95783054D03*
X185503944Y-95096946D03*
%TD*%
D15*
%TO.C,SW2*%
X52772724Y-33062021D03*
X65699724Y-30522021D03*
%TD*%
D23*
%TO.C,C8*%
X179245000Y-34700000D03*
X179245000Y-33740000D03*
%TD*%
D34*
%TO.C,R5*%
X167860000Y-37725000D03*
X167860000Y-39375000D03*
%TD*%
D10*
%TO.C,LED22*%
X35237111Y-118677021D03*
X34387111Y-118677021D03*
X33537111Y-118677021D03*
X32687111Y-118677021D03*
%TD*%
D12*
%TO.C,D68*%
X327490000Y-96960000D03*
X330790000Y-96960000D03*
%TD*%
D23*
%TO.C,C14*%
X190675000Y-34700000D03*
X190675000Y-33740000D03*
%TD*%
D10*
%TO.C,LED14*%
X263989910Y-99627021D03*
X263139910Y-99627021D03*
X262289910Y-99627021D03*
X261439910Y-99627021D03*
%TD*%
D12*
%TO.C,D57*%
X306500000Y-82090000D03*
X309800000Y-82090000D03*
%TD*%
D11*
%TO.C,D22*%
X180206056Y-57443054D03*
X183433944Y-56756946D03*
%TD*%
D21*
%TO.C,SW40*%
X235208407Y-73722204D03*
X247324825Y-68550035D03*
%TD*%
D11*
%TO.C,D37*%
X190886056Y-91713054D03*
X194113944Y-91026946D03*
%TD*%
D10*
%TO.C,LED4*%
X282775005Y-24500006D03*
X283625005Y-24500006D03*
X284475005Y-24500006D03*
X285325005Y-24500006D03*
%TD*%
D12*
%TO.C,D42*%
X285390000Y-79480000D03*
X288690000Y-79480000D03*
%TD*%
D11*
%TO.C,D8*%
X189586056Y-50893054D03*
X192813944Y-50206946D03*
%TD*%
D21*
%TO.C,SW39*%
X216574695Y-77682921D03*
X228691113Y-72510752D03*
%TD*%
D37*
%TO.C,F1*%
X162620000Y-28560000D03*
X162620000Y-31360000D03*
%TD*%
D36*
%TO.C,LED16*%
X200249045Y-129729560D03*
X199417619Y-129906285D03*
X198586194Y-130083010D03*
X197754768Y-130259734D03*
%TD*%
D22*
%TO.C,D4*%
X109246444Y-46063054D03*
X106018556Y-45376946D03*
%TD*%
D15*
%TO.C,SW3*%
X71822724Y-31747539D03*
X84749724Y-29207539D03*
%TD*%
D12*
%TO.C,D31*%
X57847500Y-79057500D03*
X54547500Y-79057500D03*
%TD*%
D13*
%TO.C,SW5*%
X111540632Y-38459569D03*
X124713242Y-38662748D03*
%TD*%
D12*
%TO.C,D13*%
X282195000Y-41360000D03*
X285495000Y-41360000D03*
%TD*%
D13*
%TO.C,SW20*%
X116896770Y-59073640D03*
X130069380Y-59276819D03*
%TD*%
D22*
%TO.C,D49*%
X141303944Y-94933054D03*
X138076056Y-94246946D03*
%TD*%
D13*
%TO.C,SW61*%
X107343831Y-115469865D03*
X120516441Y-115673044D03*
%TD*%
M02*
