M48
; DRILL file {KiCad (6.0.9)} date Wed Jan  4 06:44:43 2023
; FORMAT={-:-/ absolute / inch / decimal}
; #@! TF.CreationDate,2023-01-04T06:44:43+09:00
; #@! TF.GenerationSoftware,Kicad,Pcbnew,(6.0.9)
; #@! TF.FileFunction,NonPlated,1,2,NPTH
FMAT,2
INCH
; #@! TA.AperFunction,NonPlated,NPTH,ComponentDrill
T1C0.0256
; #@! TA.AperFunction,NonPlated,NPTH,ComponentDrill
T2C0.0670
; #@! TA.AperFunction,NonPlated,NPTH,ComponentDrill
T3C0.1181
; #@! TA.AperFunction,NonPlated,NPTH,ComponentDrill
T4C0.1200
; #@! TA.AperFunction,NonPlated,NPTH,ComponentDrill
T5C0.1570
%
G90
G05
T1
X6.5429Y-0.8724
X6.7705Y-0.8724
T2
X1.109Y-4.4017
X1.3635Y-2.9017
X1.3903Y-3.6517
X1.4066Y-1.4017
X1.4298Y-2.1517
X1.509Y-4.4017
X1.7635Y-2.9017
X1.7903Y-3.6517
X1.8066Y-1.4017
X1.8298Y-2.1517
X2.1566Y-1.4017
X2.234Y-4.4017
X2.3673Y-2.1517
X2.3948Y-2.9017
X2.5566Y-1.4017
X2.609Y-3.6517
X2.634Y-4.4017
X2.7673Y-2.1517
X2.7948Y-2.9017
X2.9066Y-1.3499
X3.009Y-3.6517
X3.1914Y-2.1281
X3.2189Y-2.9007
X3.3066Y-1.3499
X3.4298Y-3.7123
X3.5827Y-2.2113
X3.6102Y-2.9839
X3.7142Y-1.4724
X3.821Y-3.7954
X3.925Y-2.284
X3.9525Y-3.0566
X4.1054Y-1.5556
X4.1634Y-3.8682
X4.2826Y-4.6603
X4.3163Y-2.3672
X4.3438Y-3.1398
X4.4478Y-1.6284
X4.5546Y-3.9514
X4.6587Y-2.44
X4.6738Y-4.7434
X4.6861Y-3.2126
X4.839Y-1.7115
X4.897Y-4.0241
X5.0499Y-2.5231
X5.0774Y-3.2957
X5.1814Y-1.7843
X5.2883Y-4.1073
X5.3923Y-2.5959
X5.4197Y-3.3685
X5.4747Y-4.9137
X5.5727Y-1.8675
X5.6306Y-4.1801
X5.7835Y-2.6791
X5.811Y-3.4517
X5.8659Y-4.9968
X5.915Y-1.9403
X6.0219Y-4.2632
X6.3063Y-2.0234
X6.926Y-2.7341
X6.9465Y-4.2632
X7.0289Y-1.9454
X7.1573Y-3.4517
X7.3172Y-2.6509
X7.3377Y-4.1801
X7.4201Y-1.8623
X7.5486Y-3.3685
X7.6596Y-2.5781
X7.6801Y-4.1073
X7.7443Y-4.8604
X7.7625Y-1.7895
X7.891Y-3.2957
X8.0509Y-2.495
X8.0713Y-4.0241
X8.1356Y-4.7772
X8.1537Y-1.7064
X8.2822Y-3.2126
X8.3932Y-2.4222
X8.4137Y-3.9514
X8.4961Y-1.6336
X8.6246Y-3.1398
X8.7845Y-2.339
X8.805Y-3.8682
X8.8874Y-1.5504
X9.0158Y-3.0566
X9.1268Y-2.2663
X9.1473Y-3.7954
X9.2297Y-1.4776
X9.3081Y-4.552
X9.3582Y-2.9839
X9.5181Y-2.1831
X9.5386Y-3.7123
X9.621Y-1.3945
X9.6994Y-4.4688
X9.7494Y-2.9007
X9.9388Y-2.1225
X9.9593Y-3.6517
X10.0451Y-1.3725
X10.1736Y-2.9017
X10.3388Y-2.1225
X10.3593Y-3.6517
X10.4451Y-1.3725
X10.5736Y-2.9017
X10.6888Y-2.1517
X10.7093Y-3.6517
X10.7951Y-1.4017
X10.9236Y-2.9017
X11.0843Y-4.4017
X11.0888Y-2.1517
X11.1093Y-3.6517
X11.1951Y-1.4017
X11.3236Y-2.9017
X11.4388Y-2.1517
X11.4843Y-4.4017
X11.7406Y-3.6517
X11.8388Y-2.1517
X11.9201Y-1.4017
X12.0218Y-4.4017
X12.1406Y-3.6517
X12.1423Y-2.9017
X12.3201Y-1.4017
X12.3763Y-2.1517
X12.4218Y-4.4017
X12.5423Y-2.9017
X12.7718Y-3.6517
X12.7718Y-4.4017
X12.7763Y-2.1517
X13.1718Y-3.6517
X13.1718Y-4.4017
X13.364Y-1.314
X13.4427Y-2.064
X13.5215Y-2.814
X13.5218Y-4.4017
X13.764Y-1.314
X13.8427Y-2.064
X13.9215Y-2.814
X13.9218Y-4.4017
T3
X1.159Y-4.3017
X1.409Y-4.2017
X1.4135Y-2.8017
X1.4403Y-3.5517
X1.4566Y-1.3017
X1.4798Y-2.0517
X1.6635Y-2.7017
X1.6903Y-3.4517
X1.7066Y-1.2017
X1.7298Y-1.9517
X2.2066Y-1.3017
X2.284Y-4.3017
X2.4173Y-2.0517
X2.4448Y-2.8017
X2.4566Y-1.2017
X2.534Y-4.2017
X2.659Y-3.5517
X2.6673Y-1.9517
X2.6948Y-2.7017
X2.909Y-3.4517
X2.9566Y-1.2499
X3.2066Y-1.1499
X3.2611Y-2.0407
X3.2886Y-2.8133
X3.4995Y-3.6248
X3.5265Y-1.9948
X3.5539Y-2.7674
X3.7648Y-3.579
X3.7839Y-1.385
X3.9947Y-2.1966
X4.0222Y-2.9692
X4.0492Y-1.3392
X4.2331Y-3.7808
X4.2601Y-2.1508
X4.2875Y-2.9234
X4.3523Y-4.5729
X4.4984Y-3.7349
X4.5175Y-1.541
X4.6176Y-4.527
X4.7284Y-2.3525
X4.7558Y-3.1251
X4.7828Y-1.4951
X4.9667Y-3.9367
X4.9937Y-2.3067
X5.0212Y-3.0793
X5.232Y-3.8909
X5.2511Y-1.6969
X5.462Y-2.5085
X5.4894Y-3.2811
X5.5164Y-1.6511
X5.5444Y-4.8263
X5.7003Y-4.0926
X5.7273Y-2.4626
X5.7548Y-3.2352
X5.8097Y-4.7804
X5.9656Y-4.0468
X5.9847Y-1.8528
X6.25Y-1.807
X6.9541Y-2.6259
X6.9746Y-4.155
X7.057Y-1.8372
X7.1779Y-2.4761
X7.1855Y-3.3434
X7.1983Y-4.0052
X7.2807Y-1.6874
X7.4092Y-3.1937
X7.6877Y-2.4699
X7.7082Y-3.9991
X7.7724Y-4.7522
X7.7906Y-1.6813
X7.9115Y-2.3201
X7.9191Y-3.1875
X7.9319Y-3.8493
X7.9962Y-4.6024
X8.0144Y-1.5315
X8.1428Y-3.0377
X8.4213Y-2.314
X8.4418Y-3.8432
X8.5242Y-1.5254
X8.6451Y-2.1642
X8.6527Y-3.0316
X8.6656Y-3.6934
X8.748Y-1.3756
X8.8764Y-2.8818
X9.1549Y-2.1581
X9.1754Y-3.6872
X9.2578Y-1.3694
X9.3362Y-4.4438
X9.3787Y-2.0083
X9.3863Y-2.8756
X9.3992Y-3.5374
X9.4816Y-1.2196
X9.56Y-4.294
X9.61Y-2.7258
X9.9888Y-2.0225
X10.0093Y-3.5517
X10.0951Y-1.2725
X10.2236Y-2.8017
X10.2388Y-1.9225
X10.2593Y-3.4517
X10.3451Y-1.1725
X10.4736Y-2.7017
X10.7388Y-2.0517
X10.7593Y-3.5517
X10.8451Y-1.3017
X10.9736Y-2.8017
X10.9888Y-1.9517
X11.0093Y-3.4517
X11.0951Y-1.2017
X11.1343Y-4.3017
X11.2236Y-2.7017
X11.3843Y-4.2017
X11.4888Y-2.0517
X11.7388Y-1.9517
X11.7906Y-3.5517
X11.9701Y-1.3017
X12.0406Y-3.4517
X12.0718Y-4.3017
X12.1923Y-2.8017
X12.2201Y-1.2017
X12.3218Y-4.2017
X12.4263Y-2.0517
X12.4423Y-2.7017
X12.6763Y-1.9517
X12.8218Y-3.5517
X12.8218Y-4.3017
X13.0718Y-3.4517
X13.0718Y-4.2017
X13.414Y-1.214
X13.4927Y-1.964
X13.5715Y-2.714
X13.5718Y-4.3017
X13.664Y-1.114
X13.7427Y-1.864
X13.8215Y-2.614
X13.8218Y-4.2017
T4
X1.1203Y-3.3767
X2.0603Y-3.3767
X3.9613Y-4.8731
X4.8807Y-5.0686
X7.5374Y-5.1855
X8.4568Y-4.9901
X11.6501Y-1.1267
X11.8723Y-2.6267
X12.5901Y-1.1267
X12.8123Y-2.6267
T5
X1.1203Y-3.9767
X1.309Y-4.4017
X1.5635Y-2.9017
X1.5903Y-3.6517
X1.6066Y-1.4017
X1.6298Y-2.1517
X2.0603Y-3.9767
X2.3566Y-1.4017
X2.434Y-4.4017
X2.5673Y-2.1517
X2.5948Y-2.9017
X2.809Y-3.6517
X3.1066Y-1.3499
X3.3871Y-2.1697
X3.4145Y-2.9423
X3.6254Y-3.7538
X3.9098Y-1.514
X4.086Y-4.2862
X4.1207Y-2.3256
X4.1481Y-3.0982
X4.359Y-3.9098
X4.4782Y-4.7019
X4.6434Y-1.67
X4.8543Y-2.4815
X4.8818Y-3.2541
X5.0055Y-4.4817
X5.0926Y-4.0657
X5.377Y-1.8259
X5.5879Y-2.6375
X5.6154Y-3.4101
X5.6703Y-4.9553
X5.8262Y-4.2216
X6.1106Y-1.9818
X7.1216Y-2.6925
X7.1421Y-4.2216
X7.2245Y-1.9039
X7.353Y-3.4101
X7.4126Y-4.5986
X7.8552Y-2.5366
X7.8757Y-4.0657
X7.9399Y-4.8188
X7.9581Y-1.7479
X8.0866Y-3.2541
X8.3321Y-4.4032
X8.5888Y-2.3806
X8.6093Y-3.9098
X8.6917Y-1.592
X8.8202Y-3.0982
X9.3225Y-2.2247
X9.3429Y-3.7538
X9.4253Y-1.4361
X9.5037Y-4.5104
X9.5538Y-2.9423
X10.1388Y-2.1225
X10.1593Y-3.6517
X10.2451Y-1.3725
X10.3736Y-2.9017
X10.8888Y-2.1517
X10.9093Y-3.6517
X10.9951Y-1.4017
X11.1236Y-2.9017
X11.2843Y-4.4017
X11.6388Y-2.1517
X11.6501Y-1.7267
X11.8723Y-3.2267
X11.9406Y-3.6517
X12.1201Y-1.4017
X12.2218Y-4.4017
X12.3423Y-2.9017
X12.5763Y-2.1517
X12.5901Y-1.7267
X12.8123Y-3.2267
X12.9718Y-3.6517
X12.9718Y-4.4017
X13.564Y-1.314
X13.6427Y-2.064
X13.7215Y-2.814
X13.7218Y-4.4017
T0
M30
