%TF.GenerationSoftware,KiCad,Pcbnew,(6.0.9)*%
%TF.CreationDate,2022-12-15T18:11:33+09:00*%
%TF.ProjectId,Skeleton68rev2,536b656c-6574-46f6-9e36-38726576322e,rev?*%
%TF.SameCoordinates,Original*%
%TF.FileFunction,Legend,Top*%
%TF.FilePolarity,Positive*%
%FSLAX46Y46*%
G04 Gerber Fmt 4.6, Leading zero omitted, Abs format (unit mm)*
G04 Created by KiCad (PCBNEW (6.0.9)) date 2022-12-15 18:11:33*
%MOMM*%
%LPD*%
G01*
G04 APERTURE LIST*
%ADD10C,0.150000*%
%ADD11C,2.200000*%
%ADD12C,2.000000*%
%ADD13C,3.000000*%
%ADD14C,3.987800*%
%ADD15C,1.701800*%
%ADD16C,3.048000*%
%ADD17C,0.650000*%
%ADD18O,1.000000X2.100000*%
%ADD19O,1.000000X1.600000*%
G04 APERTURE END LIST*
D10*
%TO.C,H6*%
X224553710Y-104887490D02*
X224553710Y-103887490D01*
X224553710Y-104363681D02*
X225125138Y-104363681D01*
X225125138Y-104887490D02*
X225125138Y-103887490D01*
X226029900Y-103887490D02*
X225839424Y-103887490D01*
X225744186Y-103935110D01*
X225696567Y-103982729D01*
X225601329Y-104125586D01*
X225553710Y-104316062D01*
X225553710Y-104697014D01*
X225601329Y-104792252D01*
X225648948Y-104839871D01*
X225744186Y-104887490D01*
X225934662Y-104887490D01*
X226029900Y-104839871D01*
X226077519Y-104792252D01*
X226125138Y-104697014D01*
X226125138Y-104458919D01*
X226077519Y-104363681D01*
X226029900Y-104316062D01*
X225934662Y-104268443D01*
X225744186Y-104268443D01*
X225648948Y-104316062D01*
X225601329Y-104363681D01*
X225553710Y-104458919D01*
%TO.C,H4*%
X135927291Y-111818746D02*
X135927291Y-110818746D01*
X135927291Y-111294937D02*
X136498719Y-111294937D01*
X136498719Y-111818746D02*
X136498719Y-110818746D01*
X137403481Y-111152080D02*
X137403481Y-111818746D01*
X137165386Y-110771127D02*
X136927291Y-111485413D01*
X137546338Y-111485413D01*
%TO.C,H1*%
X54922307Y-42379401D02*
X54922307Y-41379401D01*
X54922307Y-41855592D02*
X55493735Y-41855592D01*
X55493735Y-42379401D02*
X55493735Y-41379401D01*
X56493735Y-42379401D02*
X55922307Y-42379401D01*
X56208021Y-42379401D02*
X56208021Y-41379401D01*
X56112783Y-41522259D01*
X56017545Y-41617497D01*
X55922307Y-41665116D01*
%TO.C,H7*%
X326138980Y-42379401D02*
X326138980Y-41379401D01*
X326138980Y-41855592D02*
X326710408Y-41855592D01*
X326710408Y-42379401D02*
X326710408Y-41379401D01*
X327091361Y-41379401D02*
X327758027Y-41379401D01*
X327329456Y-42379401D01*
%TO.C,FID3*%
X359358571Y-28138571D02*
X359025238Y-28138571D01*
X359025238Y-28662380D02*
X359025238Y-27662380D01*
X359501428Y-27662380D01*
X359882380Y-28662380D02*
X359882380Y-27662380D01*
X360358571Y-28662380D02*
X360358571Y-27662380D01*
X360596666Y-27662380D01*
X360739523Y-27710000D01*
X360834761Y-27805238D01*
X360882380Y-27900476D01*
X360930000Y-28090952D01*
X360930000Y-28233809D01*
X360882380Y-28424285D01*
X360834761Y-28519523D01*
X360739523Y-28614761D01*
X360596666Y-28662380D01*
X360358571Y-28662380D01*
X361263333Y-27662380D02*
X361882380Y-27662380D01*
X361549047Y-28043333D01*
X361691904Y-28043333D01*
X361787142Y-28090952D01*
X361834761Y-28138571D01*
X361882380Y-28233809D01*
X361882380Y-28471904D01*
X361834761Y-28567142D01*
X361787142Y-28614761D01*
X361691904Y-28662380D01*
X361406190Y-28662380D01*
X361310952Y-28614761D01*
X361263333Y-28567142D01*
%TO.C,FID2*%
X15598571Y-24188571D02*
X15265238Y-24188571D01*
X15265238Y-24712380D02*
X15265238Y-23712380D01*
X15741428Y-23712380D01*
X16122380Y-24712380D02*
X16122380Y-23712380D01*
X16598571Y-24712380D02*
X16598571Y-23712380D01*
X16836666Y-23712380D01*
X16979523Y-23760000D01*
X17074761Y-23855238D01*
X17122380Y-23950476D01*
X17170000Y-24140952D01*
X17170000Y-24283809D01*
X17122380Y-24474285D01*
X17074761Y-24569523D01*
X16979523Y-24664761D01*
X16836666Y-24712380D01*
X16598571Y-24712380D01*
X17550952Y-23807619D02*
X17598571Y-23760000D01*
X17693809Y-23712380D01*
X17931904Y-23712380D01*
X18027142Y-23760000D01*
X18074761Y-23807619D01*
X18122380Y-23902857D01*
X18122380Y-23998095D01*
X18074761Y-24140952D01*
X17503333Y-24712380D01*
X18122380Y-24712380D01*
%TO.C,H3*%
X133834160Y-52947072D02*
X133834160Y-51947072D01*
X133834160Y-52423263D02*
X134405588Y-52423263D01*
X134405588Y-52947072D02*
X134405588Y-51947072D01*
X134786541Y-51947072D02*
X135405588Y-51947072D01*
X135072255Y-52328025D01*
X135215112Y-52328025D01*
X135310350Y-52375644D01*
X135357969Y-52423263D01*
X135405588Y-52518501D01*
X135405588Y-52756596D01*
X135357969Y-52851834D01*
X135310350Y-52899453D01*
X135215112Y-52947072D01*
X134929398Y-52947072D01*
X134834160Y-52899453D01*
X134786541Y-52851834D01*
%TO.C,FID1*%
X15838571Y-119188571D02*
X15505238Y-119188571D01*
X15505238Y-119712380D02*
X15505238Y-118712380D01*
X15981428Y-118712380D01*
X16362380Y-119712380D02*
X16362380Y-118712380D01*
X16838571Y-119712380D02*
X16838571Y-118712380D01*
X17076666Y-118712380D01*
X17219523Y-118760000D01*
X17314761Y-118855238D01*
X17362380Y-118950476D01*
X17410000Y-119140952D01*
X17410000Y-119283809D01*
X17362380Y-119474285D01*
X17314761Y-119569523D01*
X17219523Y-119664761D01*
X17076666Y-119712380D01*
X16838571Y-119712380D01*
X18362380Y-119712380D02*
X17790952Y-119712380D01*
X18076666Y-119712380D02*
X18076666Y-118712380D01*
X17981428Y-118855238D01*
X17886190Y-118950476D01*
X17790952Y-118998095D01*
%TO.C,H5*%
X243364868Y-42462290D02*
X243364868Y-41462290D01*
X243364868Y-41938481D02*
X243936296Y-41938481D01*
X243936296Y-42462290D02*
X243936296Y-41462290D01*
X244888677Y-41462290D02*
X244412487Y-41462290D01*
X244364868Y-41938481D01*
X244412487Y-41890862D01*
X244507725Y-41843243D01*
X244745820Y-41843243D01*
X244841058Y-41890862D01*
X244888677Y-41938481D01*
X244936296Y-42033719D01*
X244936296Y-42271814D01*
X244888677Y-42367052D01*
X244841058Y-42414671D01*
X244745820Y-42462290D01*
X244507725Y-42462290D01*
X244412487Y-42414671D01*
X244364868Y-42367052D01*
%TO.C,FID4*%
X359408571Y-120498571D02*
X359075238Y-120498571D01*
X359075238Y-121022380D02*
X359075238Y-120022380D01*
X359551428Y-120022380D01*
X359932380Y-121022380D02*
X359932380Y-120022380D01*
X360408571Y-121022380D02*
X360408571Y-120022380D01*
X360646666Y-120022380D01*
X360789523Y-120070000D01*
X360884761Y-120165238D01*
X360932380Y-120260476D01*
X360980000Y-120450952D01*
X360980000Y-120593809D01*
X360932380Y-120784285D01*
X360884761Y-120879523D01*
X360789523Y-120974761D01*
X360646666Y-121022380D01*
X360408571Y-121022380D01*
X361837142Y-120355714D02*
X361837142Y-121022380D01*
X361599047Y-119974761D02*
X361360952Y-120689047D01*
X361980000Y-120689047D01*
%TO.C,H8*%
X319196798Y-99529401D02*
X319196798Y-98529401D01*
X319196798Y-99005592D02*
X319768226Y-99005592D01*
X319768226Y-99529401D02*
X319768226Y-98529401D01*
X320387274Y-98957973D02*
X320292036Y-98910354D01*
X320244417Y-98862735D01*
X320196798Y-98767497D01*
X320196798Y-98719878D01*
X320244417Y-98624640D01*
X320292036Y-98577021D01*
X320387274Y-98529401D01*
X320577750Y-98529401D01*
X320672988Y-98577021D01*
X320720607Y-98624640D01*
X320768226Y-98719878D01*
X320768226Y-98767497D01*
X320720607Y-98862735D01*
X320672988Y-98910354D01*
X320577750Y-98957973D01*
X320387274Y-98957973D01*
X320292036Y-99005592D01*
X320244417Y-99053211D01*
X320196798Y-99148449D01*
X320196798Y-99338925D01*
X320244417Y-99434163D01*
X320292036Y-99481782D01*
X320387274Y-99529401D01*
X320577750Y-99529401D01*
X320672988Y-99481782D01*
X320720607Y-99434163D01*
X320768226Y-99338925D01*
X320768226Y-99148449D01*
X320720607Y-99053211D01*
X320672988Y-99005592D01*
X320577750Y-98957973D01*
%TO.C,H2*%
X46775206Y-109054401D02*
X46775206Y-108054401D01*
X46775206Y-108530592D02*
X47346634Y-108530592D01*
X47346634Y-109054401D02*
X47346634Y-108054401D01*
X47775206Y-108149640D02*
X47822825Y-108102021D01*
X47918063Y-108054401D01*
X48156158Y-108054401D01*
X48251396Y-108102021D01*
X48299015Y-108149640D01*
X48346634Y-108244878D01*
X48346634Y-108340116D01*
X48299015Y-108482973D01*
X47727587Y-109054401D01*
X48346634Y-109054401D01*
%TD*%
%LPC*%
D11*
%TO.C,H6*%
X225315615Y-107635110D03*
%TD*%
%TO.C,H4*%
X136689196Y-114566366D03*
%TD*%
%TO.C,H1*%
X55684212Y-45127021D03*
%TD*%
%TO.C,H7*%
X326900885Y-45127021D03*
%TD*%
D12*
%TO.C,FID3*%
X359570000Y-30870000D03*
%TD*%
%TO.C,FID2*%
X17330000Y-26810000D03*
%TD*%
D11*
%TO.C,H3*%
X134596065Y-55694692D03*
%TD*%
D12*
%TO.C,FID1*%
X17470000Y-121720000D03*
%TD*%
D11*
%TO.C,H5*%
X244126773Y-45209910D03*
%TD*%
D12*
%TO.C,FID4*%
X359570000Y-123160000D03*
%TD*%
D11*
%TO.C,H8*%
X319958703Y-102277021D03*
%TD*%
%TO.C,H2*%
X47537111Y-111802021D03*
%TD*%
D13*
%TO.C,SW35*%
X120797913Y-79378442D03*
D14*
X123996560Y-82655080D03*
D15*
X119027570Y-81598889D03*
X128965550Y-83711271D03*
D13*
X127537246Y-78214186D03*
%TD*%
D14*
%TO.C,SW41*%
X263488893Y-73702021D03*
D15*
X268568893Y-73702021D03*
D13*
X259678893Y-71162021D03*
D15*
X258408893Y-73702021D03*
D13*
X266028893Y-68622021D03*
%TD*%
D14*
%TO.C,SW55*%
X258046203Y-92752021D03*
D13*
X260586203Y-87672021D03*
D15*
X263126203Y-92752021D03*
X252966203Y-92752021D03*
D13*
X254236203Y-90212021D03*
%TD*%
%TO.C,SW24*%
X219584868Y-54970756D03*
D15*
X213187574Y-61524033D03*
X223125554Y-59411651D03*
D14*
X218156564Y-60467842D03*
D13*
X213901726Y-58775491D03*
%TD*%
D15*
%TO.C,SW8*%
X188471525Y-47302004D03*
X178533545Y-49414386D03*
D13*
X179247697Y-46665844D03*
X184930839Y-42861109D03*
D14*
X183502535Y-48358195D03*
%TD*%
D15*
%TO.C,SW53*%
X213707838Y-100364624D03*
X223645818Y-98252242D03*
D14*
X218676828Y-99308433D03*
D13*
X214421990Y-97616082D03*
X220105132Y-93811347D03*
%TD*%
D15*
%TO.C,SW68*%
X353613703Y-111802021D03*
X343453703Y-111802021D03*
D14*
X348533703Y-111802021D03*
D13*
X344723703Y-109262021D03*
X351073703Y-106722021D03*
%TD*%
%TO.C,SW15*%
X347065005Y-28295000D03*
D14*
X344525005Y-33375000D03*
D13*
X340715005Y-30835000D03*
D15*
X339445005Y-33375000D03*
X349605005Y-33375000D03*
%TD*%
D14*
%TO.C,SW63*%
X211635435Y-111841294D03*
D16*
X191449757Y-131712363D03*
D15*
X196705630Y-123454143D03*
X206643610Y-121341761D03*
D16*
X214804009Y-126748263D03*
D13*
X197419782Y-120705601D03*
X203102924Y-116900866D03*
D14*
X201674620Y-122397952D03*
X188281183Y-116805393D03*
%TD*%
D15*
%TO.C,SW44*%
X353605005Y-71475001D03*
X343445005Y-71475001D03*
D13*
X351065005Y-66395001D03*
D14*
X348525005Y-71475001D03*
D13*
X344715005Y-68935001D03*
%TD*%
%TO.C,SW60*%
X64364611Y-106722021D03*
X58014611Y-109262021D03*
D15*
X66904611Y-111802021D03*
D14*
X61824611Y-111802021D03*
D15*
X56744611Y-111802021D03*
%TD*%
D13*
%TO.C,SW48*%
X114259673Y-94867539D03*
D14*
X110718987Y-99308433D03*
D15*
X105749997Y-98252242D03*
X115687977Y-100364624D03*
D13*
X107520340Y-96031795D03*
%TD*%
D15*
%TO.C,SW56*%
X282176203Y-92752021D03*
D13*
X273286203Y-90212021D03*
D15*
X272016203Y-92752021D03*
D14*
X277096203Y-92752021D03*
D13*
X279636203Y-87672021D03*
%TD*%
D15*
%TO.C,SW32*%
X70986921Y-73702021D03*
X60826921Y-73702021D03*
D13*
X68446921Y-68622021D03*
D14*
X65906921Y-73702021D03*
D13*
X62096921Y-71162021D03*
%TD*%
D15*
%TO.C,SW65*%
X281541203Y-111802021D03*
D13*
X282811203Y-109262021D03*
D14*
X286621203Y-111802021D03*
D13*
X289161203Y-106722021D03*
D15*
X291701203Y-111802021D03*
%TD*%
D13*
%TO.C,SW6*%
X140117110Y-41936942D03*
X133377777Y-43101198D03*
D15*
X131607434Y-45321645D03*
D14*
X136576424Y-46377836D03*
D15*
X141545414Y-47434027D03*
%TD*%
%TO.C,SW38*%
X200430264Y-83711271D03*
D13*
X206827558Y-77157994D03*
X201144416Y-80962729D03*
D15*
X210368244Y-81598889D03*
D14*
X205399254Y-82655080D03*
%TD*%
D13*
%TO.C,SW27*%
X279115939Y-49572021D03*
D14*
X276575939Y-54652021D03*
D15*
X281655939Y-54652021D03*
D13*
X272765939Y-52112021D03*
D15*
X271495939Y-54652021D03*
%TD*%
D14*
%TO.C,SW43*%
X313495143Y-73702021D03*
D16*
X325433143Y-66717021D03*
D13*
X309685143Y-71162021D03*
D15*
X308415143Y-73702021D03*
D16*
X301557143Y-66717021D03*
D14*
X325433143Y-81957021D03*
D15*
X318575143Y-73702021D03*
D14*
X301557143Y-81957021D03*
D13*
X316035143Y-68622021D03*
%TD*%
D15*
%TO.C,SW1*%
X45887724Y-35602021D03*
D13*
X43347724Y-30522021D03*
D14*
X40807724Y-35602021D03*
D13*
X36997724Y-33062021D03*
D15*
X35727724Y-35602021D03*
%TD*%
D13*
%TO.C,SW34*%
X102164202Y-75417724D03*
D15*
X100393859Y-77638171D03*
X110331839Y-79750553D03*
D13*
X108903535Y-74253468D03*
D14*
X105362849Y-78694362D03*
%TD*%
D13*
%TO.C,SW7*%
X158750822Y-45897660D03*
D15*
X160179126Y-51394745D03*
D14*
X155210136Y-50338554D03*
D15*
X150241146Y-49282363D03*
D13*
X152011489Y-47061916D03*
%TD*%
%TO.C,SW25*%
X238218580Y-51010038D03*
D14*
X236790276Y-56507124D03*
D15*
X241759266Y-55450933D03*
D13*
X232535438Y-54814773D03*
D15*
X231821286Y-57563315D03*
%TD*%
%TO.C,SW67*%
X324403703Y-111802021D03*
D13*
X325673703Y-109262021D03*
D14*
X329483703Y-111802021D03*
D15*
X334563703Y-111802021D03*
D13*
X332023703Y-106722021D03*
%TD*%
%TO.C,SW14*%
X304040885Y-33062021D03*
D16*
X319788885Y-28617021D03*
D14*
X319788885Y-43857021D03*
X295912885Y-43857021D03*
D15*
X302770885Y-35602021D03*
D13*
X310390885Y-30522021D03*
D15*
X312930885Y-35602021D03*
D16*
X295912885Y-28617021D03*
D14*
X307850885Y-35602021D03*
%TD*%
%TO.C,SW18*%
X86031427Y-55109754D03*
D13*
X82832780Y-51833116D03*
D15*
X91000417Y-56165945D03*
D13*
X89572113Y-50668860D03*
D15*
X81062437Y-54053563D03*
%TD*%
D13*
%TO.C,SW10*%
X216515121Y-38744408D03*
X222198263Y-34939673D03*
D15*
X215800969Y-41492950D03*
D14*
X220769959Y-40436759D03*
D15*
X225738949Y-39380568D03*
%TD*%
%TO.C,SW16*%
X46476712Y-54652021D03*
D13*
X37586712Y-52112021D03*
D14*
X41396712Y-54652021D03*
D15*
X36316712Y-54652021D03*
D13*
X43936712Y-49572021D03*
%TD*%
D15*
%TO.C,SW11*%
X234434681Y-37532233D03*
D13*
X235148833Y-34783691D03*
X240831975Y-30978956D03*
D14*
X239403671Y-36476042D03*
D15*
X244372661Y-35419851D03*
%TD*%
%TO.C,SW51*%
X186378395Y-106173678D03*
D13*
X177154567Y-105537518D03*
D14*
X181409405Y-107229869D03*
D13*
X182837709Y-101732783D03*
D15*
X176440415Y-108286060D03*
%TD*%
%TO.C,SW4*%
X104277990Y-39512592D03*
D13*
X96110353Y-35179763D03*
X102849686Y-34015507D03*
D14*
X99309000Y-38456401D03*
D15*
X94340010Y-37400210D03*
%TD*%
D13*
%TO.C,SW22*%
X176634302Y-66696926D03*
D14*
X180889140Y-68389277D03*
D15*
X185858130Y-67333086D03*
D13*
X182317444Y-62892191D03*
D15*
X175920150Y-69445468D03*
%TD*%
D13*
%TO.C,SW54*%
X238738844Y-89850629D03*
X233055702Y-93655364D03*
D15*
X242279530Y-94291524D03*
X232341550Y-96403906D03*
D14*
X237310540Y-95347715D03*
%TD*%
D13*
%TO.C,SW12*%
X262765885Y-29781430D03*
X256415885Y-32321430D03*
D14*
X260225885Y-34861430D03*
D15*
X255145885Y-34861430D03*
X265305885Y-34861430D03*
%TD*%
D13*
%TO.C,SW26*%
X253715939Y-51371430D03*
D15*
X262605939Y-53911430D03*
D13*
X260065939Y-48831430D03*
D14*
X257525939Y-53911430D03*
D15*
X252445939Y-53911430D03*
%TD*%
D13*
%TO.C,SW31*%
X42253172Y-68622021D03*
D15*
X44793172Y-73702021D03*
D13*
X35903172Y-71162021D03*
D15*
X34633172Y-73702021D03*
D14*
X39713172Y-73702021D03*
%TD*%
D15*
%TO.C,SW21*%
X146901552Y-68048098D03*
D14*
X141932562Y-66991907D03*
D13*
X145473248Y-62551013D03*
X138733915Y-63715269D03*
D15*
X136963572Y-65935716D03*
%TD*%
D14*
%TO.C,SW28*%
X295625939Y-54652021D03*
D15*
X290545939Y-54652021D03*
D13*
X298165939Y-49572021D03*
X291815939Y-52112021D03*
D15*
X300705939Y-54652021D03*
%TD*%
%TO.C,SW36*%
X137661282Y-85559607D03*
D14*
X142630272Y-86615798D03*
D13*
X146170958Y-82174904D03*
X139431625Y-83339160D03*
D15*
X147599262Y-87671989D03*
%TD*%
D13*
%TO.C,SW29*%
X315628439Y-52112021D03*
X321978439Y-49572021D03*
D15*
X324518439Y-54652021D03*
X314358439Y-54652021D03*
D14*
X319438439Y-54652021D03*
%TD*%
D15*
%TO.C,SW37*%
X181796553Y-87671989D03*
X191734533Y-85559607D03*
D13*
X182510705Y-84923447D03*
D14*
X186765543Y-86615798D03*
D13*
X188193847Y-81118712D03*
%TD*%
D14*
%TO.C,SW17*%
X65209211Y-54652021D03*
D15*
X60129211Y-54652021D03*
D13*
X61399211Y-52112021D03*
X67749211Y-49572021D03*
D15*
X70289211Y-54652021D03*
%TD*%
D14*
%TO.C,SW62*%
X144025693Y-125863580D03*
D13*
X147566379Y-121422686D03*
X140827046Y-122586942D03*
D15*
X148994683Y-126919771D03*
X139056703Y-124807389D03*
%TD*%
D14*
%TO.C,SW46*%
X71349611Y-92752021D03*
D15*
X76429611Y-92752021D03*
D13*
X73889611Y-87672021D03*
X67539611Y-90212021D03*
D15*
X66269611Y-92752021D03*
%TD*%
%TO.C,SW33*%
X91698127Y-75789836D03*
X81760147Y-73677454D03*
D13*
X83530490Y-71457007D03*
D14*
X86729137Y-74733645D03*
D13*
X90269823Y-70292751D03*
%TD*%
D15*
%TO.C,SW57*%
X298209953Y-92752021D03*
D14*
X303289953Y-92752021D03*
D13*
X305829953Y-87672021D03*
X299479953Y-90212021D03*
D15*
X308369953Y-92752021D03*
%TD*%
D14*
%TO.C,SW45*%
X52331361Y-101007021D03*
D13*
X36583361Y-90212021D03*
D16*
X52331361Y-85767021D03*
D15*
X45473361Y-92752021D03*
X35313361Y-92752021D03*
D13*
X42933361Y-87672021D03*
D14*
X28455361Y-101007021D03*
D16*
X28455361Y-85767021D03*
D14*
X40393361Y-92752021D03*
%TD*%
D13*
%TO.C,SW49*%
X126154052Y-99992513D03*
D15*
X124383709Y-102212960D03*
D13*
X132893385Y-98828257D03*
D14*
X129352699Y-103269151D03*
D15*
X134321689Y-104325342D03*
%TD*%
D13*
%TO.C,SW30*%
X342715005Y-49885001D03*
D15*
X341445005Y-52425001D03*
D14*
X346525005Y-52425001D03*
D13*
X349065005Y-47345001D03*
D15*
X351605005Y-52425001D03*
%TD*%
D13*
%TO.C,SW64*%
X237140338Y-112872064D03*
D14*
X241395176Y-114564415D03*
D15*
X236426186Y-115620606D03*
X246364166Y-113508224D03*
D13*
X242823480Y-109067329D03*
%TD*%
D15*
%TO.C,SW66*%
X305353703Y-111802021D03*
D13*
X306623703Y-109262021D03*
D14*
X310433703Y-111802021D03*
D13*
X312973703Y-106722021D03*
D15*
X315513703Y-111802021D03*
%TD*%
%TO.C,SW59*%
X28169611Y-111802021D03*
D14*
X33249611Y-111802021D03*
D13*
X35789611Y-106722021D03*
D15*
X38329611Y-111802021D03*
D13*
X29439611Y-109262021D03*
%TD*%
D15*
%TO.C,SW50*%
X152955400Y-108286060D03*
D13*
X151527096Y-102788975D03*
X144787763Y-103953231D03*
D14*
X147986410Y-107229869D03*
D15*
X143017420Y-106173678D03*
%TD*%
D13*
%TO.C,SW52*%
X201471420Y-97772065D03*
D15*
X195074126Y-104325342D03*
D13*
X195788278Y-101576800D03*
D14*
X200043116Y-103269151D03*
D15*
X205012106Y-102212960D03*
%TD*%
D13*
%TO.C,SW42*%
X278728893Y-71162021D03*
D15*
X277458893Y-73702021D03*
D14*
X282538893Y-73702021D03*
D15*
X287618893Y-73702021D03*
D13*
X285078893Y-68622021D03*
%TD*%
D15*
%TO.C,SW58*%
X334563703Y-92752021D03*
D14*
X329483703Y-92752021D03*
D13*
X325673703Y-90212021D03*
D15*
X324403703Y-92752021D03*
D13*
X332023703Y-87672021D03*
%TD*%
D15*
%TO.C,SW9*%
X207105237Y-43341286D03*
X197167257Y-45453668D03*
D13*
X203564551Y-38900391D03*
D14*
X202136247Y-44397477D03*
D13*
X197881409Y-42705126D03*
%TD*%
D17*
%TO.C,J1*%
X171970000Y-22160000D03*
X166190000Y-22160000D03*
D18*
X173400000Y-22690000D03*
D19*
X164760000Y-18510000D03*
D18*
X164760000Y-22690000D03*
D19*
X173400000Y-18510000D03*
%TD*%
D15*
%TO.C,SW19*%
X109634128Y-60126662D03*
D14*
X104665138Y-59070471D03*
D15*
X99696148Y-58014280D03*
D13*
X101466491Y-55793833D03*
X108205824Y-54629577D03*
%TD*%
D14*
%TO.C,SW13*%
X279275885Y-35602021D03*
D13*
X281815885Y-30522021D03*
D15*
X284355885Y-35602021D03*
X274195885Y-35602021D03*
D13*
X275465885Y-33062021D03*
%TD*%
%TO.C,SW23*%
X195268014Y-62736209D03*
D15*
X204491842Y-63372369D03*
D14*
X199522852Y-64428560D03*
D15*
X194553862Y-65484751D03*
D13*
X200951156Y-58931474D03*
%TD*%
%TO.C,SW47*%
X95625961Y-90906821D03*
X88886628Y-92071077D03*
D15*
X97054265Y-96403906D03*
D14*
X92085275Y-95347715D03*
D15*
X87116285Y-94291524D03*
%TD*%
%TO.C,SW2*%
X64937724Y-35602021D03*
D14*
X59857724Y-35602021D03*
D13*
X62397724Y-30522021D03*
X56047724Y-33062021D03*
D15*
X54777724Y-35602021D03*
%TD*%
D13*
%TO.C,SW40*%
X238411840Y-73041294D03*
D15*
X237697688Y-75789836D03*
D13*
X244094982Y-69236559D03*
D14*
X242666678Y-74733645D03*
D15*
X247635668Y-73677454D03*
%TD*%
%TO.C,SW39*%
X219063976Y-79750553D03*
X229001956Y-77638171D03*
D13*
X219778128Y-77002011D03*
X225461270Y-73197276D03*
D14*
X224032966Y-78694362D03*
%TD*%
D15*
%TO.C,SW3*%
X73827724Y-34287539D03*
X83987724Y-34287539D03*
D13*
X75097724Y-31747539D03*
D14*
X78907724Y-34287539D03*
D13*
X81447724Y-29207539D03*
%TD*%
D15*
%TO.C,SW5*%
X112973722Y-41360927D03*
D13*
X114744065Y-39140480D03*
X121483398Y-37976224D03*
D15*
X122911702Y-43473309D03*
D14*
X117942712Y-42417118D03*
%TD*%
D13*
%TO.C,SW20*%
X120100203Y-59754551D03*
D15*
X118329860Y-61974998D03*
D13*
X126839536Y-58590295D03*
D14*
X123298850Y-63031189D03*
D15*
X128267840Y-64087380D03*
%TD*%
D14*
%TO.C,SW61*%
X113745911Y-119427414D03*
D15*
X108776921Y-118371223D03*
D13*
X110547264Y-116150776D03*
X117286597Y-114986520D03*
D16*
X123970774Y-128741825D03*
D14*
X127139348Y-113834855D03*
X103785096Y-108870756D03*
D15*
X118714901Y-120483605D03*
D16*
X100616522Y-123777725D03*
%TD*%
M02*
