M48
; DRILL file {KiCad (6.0.9)} date Thu Dec 15 18:11:33 2022
; FORMAT={-:-/ absolute / inch / decimal}
; #@! TF.CreationDate,2022-12-15T18:11:33+09:00
; #@! TF.GenerationSoftware,Kicad,Pcbnew,(6.0.9)
; #@! TF.FileFunction,Plated,1,2,PTH
FMAT,2
INCH
; #@! TA.AperFunction,Plated,PTH,ViaDrill
T1C0.0157
; #@! TA.AperFunction,Plated,PTH,ComponentDrill
T2C0.0236
%
G90
G05
T1
X0.9195Y-4.512
X0.9217Y-3.6728
X1.1484Y-2.9654
X1.2106Y-4.1051
X1.2539Y-1.9252
X1.2591Y-3.4173
X1.2815Y-2.7059
X1.3394Y-2.389
X1.3598Y-1.9713
X1.3795Y-4.585
X1.4591Y-1.5189
X1.5091Y-1.0299
X2.1091Y-1.4693
X2.1091Y-1.9587
X2.1091Y-2.2154
X2.1177Y-4.1953
X2.2398Y-2.9413
X2.4201Y-3.4496
X2.4417Y-4.585
X2.6646Y-1.0299
X2.8244Y-1.35
X3.028Y-1.9063
X3.028Y-2.2874
X3.028Y-2.715
X3.2661Y-3.5697
X3.4709Y-3.915
X3.5299Y-3.9677
X3.6323Y-1.4374
X3.7614Y-3.9701
X3.7764Y-2.0858
X3.7764Y-2.4567
X3.7764Y-2.8594
X3.8016Y-1.0299
X3.963Y-3.6185
X3.963Y-4.5465
X4.2524Y-4.8835
X4.3539Y-1.598
X4.5004Y-2.2504
X4.5004Y-2.5717
X4.5004Y-2.9724
X4.7386Y-3.8598
X4.9441Y-1.0299
X5.0941Y-1.7701
X5.2528Y-2.3819
X5.2528Y-2.6957
X5.2528Y-3.2134
X5.324Y-5.0827
X5.4366Y-4.7067
X5.4587Y-4.0
X5.8331Y-1.9079
X5.9402Y-3.7262
X5.9969Y-1.0354
X6.1437Y-3.9079
X6.1461Y-2.5157
X6.1677Y-3.9437
X6.1769Y-2.3571
X6.2287Y-3.3961
X6.237Y-2.7492
X6.2445Y-3.1827
X6.2776Y-2.4976
X6.2998Y-3.1825
X6.3059Y-1.311
X6.363Y-2.4256
X6.4004Y-2.9303
X6.4181Y-2.5044
X6.426Y-2.8992
X6.4449Y-2.1823
X6.4654Y-3.1709
X6.4705Y-2.4299
X6.4709Y-1.2394
X6.4907Y-1.3134
X6.5035Y-3.776
X6.5917Y-2.9721
X6.6217Y-2.7358
X6.6311Y-2.5638
X6.6413Y-3.8976
X6.6559Y-3.5752
X6.7075Y-1.2457
X6.7094Y-2.5535
X6.7181Y-3.8169
X6.7437Y-3.1566
X6.7469Y-2.6154
X6.7634Y-2.1083
X6.8386Y-3.7563
X6.8398Y-3.7209
X6.863Y-4.0815
X6.8835Y-1.3969
X6.8882Y-3.8409
X6.9669Y-1.9575
X6.972Y-3.2772
X6.9879Y-2.0917
X6.9879Y-2.3054
X7.4665Y-2.4476
X7.4665Y-2.7244
X7.4894Y-3.9768
X7.5638Y-4.8146
X7.6508Y-0.9362
X7.6614Y-1.7992
X7.7028Y-3.1469
X7.8319Y-5.0335
X8.1906Y-2.274
X8.1906Y-2.4988
X8.3094Y-3.774
X8.3823Y-1.6524
X8.4319Y-2.9969
X8.8106Y-0.9362
X8.9142Y-2.0791
X8.9142Y-2.3126
X8.9472Y-3.6413
X9.1307Y-1.4937
X9.1457Y-4.3823
X9.1504Y-2.7969
X9.261Y-4.7949
X9.7374Y-1.9579
X9.7374Y-2.2209
X9.8713Y-1.3657
X9.8799Y-3.4575
X9.9469Y-0.9362
X9.9681Y-2.7209
X10.3598Y-3.8744
X10.4902Y-2.1878
X10.5293Y-1.9337
X10.5407Y-3.4624
X10.6165Y-1.3366
X10.7173Y-2.6969
X10.9961Y-4.1866
X11.0886Y-0.9362
X11.2752Y-1.9331
X11.2752Y-2.1559
X11.3567Y-1.3378
X11.5589Y-3.3978
X11.5831Y-4.6
X11.6669Y-2.7366
X11.8382Y-4.2449
X12.213Y-0.9362
X12.2898Y-2.1575
X12.5874Y-3.4594
X12.5913Y-4.2
X13.2114Y-1.3425
X13.2114Y-1.8197
X13.2114Y-2.261
X13.2114Y-2.6012
X13.222Y-4.6
X13.2667Y-3.739
X13.3157Y-4.2
X13.363Y-0.9362
X13.7591Y-1.5469
X13.8522Y-2.9876
X13.8902Y-2.2409
X13.9098Y-4.6071
T2
G00X6.4866Y-0.7169
M15
G01X6.4866Y-0.7406
M16
G05
G00X6.4866Y-0.8717
M15
G01X6.4866Y-0.915
M16
G05
G00X6.8268Y-0.7169
M15
G01X6.8268Y-0.7406
M16
G05
G00X6.8268Y-0.8717
M15
G01X6.8268Y-0.915
M16
G05
T0
M30
