M48
; DRILL file {KiCad (6.0.9)} date Wed Jan  4 06:44:43 2023
; FORMAT={-:-/ absolute / inch / decimal}
; #@! TF.CreationDate,2023-01-04T06:44:43+09:00
; #@! TF.GenerationSoftware,Kicad,Pcbnew,(6.0.9)
; #@! TF.FileFunction,Plated,1,2,PTH
FMAT,2
INCH
; #@! TA.AperFunction,Plated,PTH,ViaDrill
T1C0.0157
; #@! TA.AperFunction,Plated,PTH,ComponentDrill
T2C0.0157
; #@! TA.AperFunction,Plated,PTH,ComponentDrill
T3C0.0236
; #@! TA.AperFunction,Plated,PTH,ComponentDrill
T4C0.0866
%
G90
G05
T1
X1.0339Y-4.1913
X1.1142Y-4.6201
X1.1594Y-2.8035
X1.2173Y-3.5508
X1.2291Y-2.0539
X1.2291Y-2.5295
X1.2756Y-3.9622
X1.3272Y-1.376
X1.3846Y-2.4413
X1.4035Y-3.1339
X1.4276Y-1.6331
X1.4677Y-4.6307
X1.5697Y-1.0555
X1.7504Y-3.7878
X1.7571Y-2.2673
X1.8583Y-3.1335
X1.8598Y-1.6307
X2.0744Y-2.2224
X2.0748Y-1.3965
X2.1547Y-4.1878
X2.2063Y-2.4925
X2.2063Y-2.802
X2.2358Y-2.3209
X2.3402Y-3.5472
X2.4394Y-3.8244
X2.6098Y-1.6303
X2.6173Y-4.6154
X2.7416Y-3.1735
X2.7711Y-3.0732
X2.826Y-1.3327
X2.8396Y-3.1459
X3.0213Y-2.0114
X3.0213Y-2.4927
X3.0213Y-3.013
X3.1205Y-2.2875
X3.2909Y-3.6626
X3.3244Y-3.3197
X3.3575Y-4.0012
X3.3598Y-1.665
X3.4008Y-3.998
X3.4169Y-3.8783
X3.6574Y-1.4949
X3.7539Y-3.224
X3.7681Y-2.3622
X3.7681Y-2.5988
X3.7994Y-4.3358
X3.824Y-4.3071
X3.8921Y-2.4701
X3.9695Y-4.4919
X4.0724Y-1.9087
X4.1252Y-3.6783
X4.1303Y-4.0634
X4.1984Y-3.3878
X4.3882Y-1.8224
X4.515Y-2.5406
X4.515Y-2.752
X4.515Y-3.3079
X4.578Y-4.9854
X4.6445Y-2.6378
X4.7697Y-2.0303
X4.8205Y-3.6331
X4.8362Y-4.8409
X4.8465Y-3.8031
X4.8799Y-4.1846
X5.0819Y-1.0031
X5.1098Y-1.7602
X5.2508Y-2.6579
X5.2508Y-2.8677
X5.3058Y-3.3729
X5.335Y-4.6457
X5.439Y-4.6703
X5.4539Y-5.2161
X5.4752Y-2.1492
X5.5154Y-4.1858
X5.599Y-2.4892
X5.6296Y-4.2794
X5.7315Y-3.7028
X5.75Y-2.9543
X5.7638Y-5.0795
X5.7866Y-2.8496
X5.8528Y-1.9213
X5.9447Y-3.8002
X5.963Y-4.4358
X5.9701Y-5.0138
X5.9787Y-2.7756
X6.0398Y-3.052
X6.0413Y-3.6043
X6.0689Y-2.4287
X6.1189Y-2.7059
X6.1219Y-1.3171
X6.1539Y-3.5465
X6.172Y-3.8846
X6.187Y-2.6047
X6.2031Y-3.0008
X6.2126Y-3.6752
X6.2323Y-3.0807
X6.2449Y-2.1941
X6.3063Y-2.1177
X6.3091Y-2.9209
X6.3303Y-2.7343
X6.3348Y-3.2084
X6.3547Y-3.2606
X6.4021Y-3.1069
X6.4094Y-2.7343
X6.4494Y-3.0116
X6.4843Y-2.1185
X6.4909Y-2.1835
X6.5262Y-1.0006
X6.5512Y-1.2472
X6.5618Y-2.4425
X6.5634Y-3.0362
X6.5652Y-2.6281
X6.6163Y-1.0344
X6.6343Y-1.248
X6.6476Y-2.5685
X6.674Y-3.1268
X6.6752Y-3.1705
X6.6752Y-3.7567
X6.6783Y-2.7815
X6.6933Y-1.0319
X6.7197Y-1.3177
X6.7205Y-3.752
X6.7461Y-3.6165
X6.7528Y-1.0024
X6.8024Y-1.1535
X6.851Y-4.0854
X6.8563Y-2.7461
X6.8581Y-2.4947
X6.8969Y-3.0335
X6.9323Y-2.3327
X6.9369Y-4.5976
X6.9996Y-3.4819
X7.0004Y-2.9508
X7.0401Y-4.467
X7.0539Y-4.6921
X7.1193Y-2.202
X7.2374Y-3.6681
X7.2563Y-4.7892
X7.2641Y-2.7956
X7.3169Y-0.9461
X7.336Y-1.9592
X7.4305Y-4.3781
X7.4579Y-2.0819
X7.4828Y-3.6804
X7.5579Y-2.6091
X7.5654Y-3.9551
X7.5854Y-2.9138
X7.6467Y-2.7144
X7.6555Y-1.8059
X7.7402Y-4.2587
X7.7856Y-3.3994
X7.8197Y-5.078
X8.1006Y-2.0034
X8.1701Y-5.0142
X8.2323Y-2.4165
X8.2465Y-3.5008
X8.3409Y-2.763
X8.3446Y-3.7591
X8.4035Y-1.6433
X8.445Y-2.5682
X8.4579Y-4.1209
X8.5161Y-3.2252
X8.9626Y-3.3858
X8.9701Y-2.2811
X8.9701Y-2.6323
X8.9827Y-1.8205
X8.9846Y-3.8594
X9.0469Y-2.3831
X9.128Y-1.4969
X9.148Y-4.378
X9.1622Y-3.9465
X9.1815Y-2.8996
X9.6768Y-1.6197
X9.7039Y-3.6425
X9.7161Y-2.1587
X9.7193Y-4.7
X9.7244Y-3.1976
X9.7622Y-2.4524
X9.8114Y-3.3587
X9.8524Y-3.3878
X9.9313Y-2.2671
X9.9461Y-3.8047
X9.961Y-1.3665
X10.0142Y-2.8772
X10.5087Y-3.1941
X10.5193Y-1.6622
X10.5252Y-2.2614
X10.5669Y-2.4772
X10.5915Y-3.6915
X10.7091Y-1.3917
X10.7579Y-3.0492
X10.7587Y-3.7894
X10.8209Y-4.1252
X10.8512Y-4.4614
X10.9122Y-4.2193
X11.1244Y-2.3075
X11.1939Y-1.7305
X11.2449Y-3.1776
X11.3172Y-2.1773
X11.4465Y-4.602
X11.5579Y-3.5555
X11.6075Y-2.5156
X11.7008Y-3.8106
X11.7165Y-1.2976
X11.8681Y-4.2996
X11.9201Y-2.811
X12.0891Y-2.3014
X12.2106Y-2.0563
X12.2106Y-2.4929
X12.2183Y-1.7077
X12.2602Y-3.2165
X12.3685Y-4.6669
X12.6004Y-3.5835
X12.7122Y-4.1945
X12.723Y-3.8431
X12.95Y-3.1449
X13.1157Y-1.7555
X13.1157Y-2.2303
X13.1634Y-4.6358
X13.1917Y-1.2146
X13.1941Y-1.9705
X13.3126Y-2.537
X13.3224Y-4.4142
X13.3415Y-2.7108
X13.3717Y-4.2213
X13.3843Y-4.1134
X13.4183Y-4.2171
X13.8Y-2.402
X13.8366Y-4.5268
X13.8752Y-2.9795
T2
X1.8066Y-4.4017
X1.8256Y-4.3557
X1.8256Y-4.4476
X1.8715Y-4.3367
X1.8715Y-4.4666
X1.9175Y-4.3557
X1.9175Y-4.4476
X1.9365Y-4.4017
X2.1273Y-1.7767
X2.1464Y-1.7307
X2.1464Y-1.8226
X2.1923Y-1.7117
X2.1923Y-1.8416
X2.2382Y-1.7307
X2.2382Y-1.8226
X2.2573Y-1.7767
X5.2341Y-2.1927
X5.2531Y-2.1468
X5.2531Y-2.2386
X5.2991Y-2.1277
X5.2991Y-2.2577
X5.3165Y-4.5105
X5.3355Y-4.4646
X5.3355Y-4.5564
X5.345Y-2.1468
X5.345Y-2.2386
X5.364Y-2.1927
X5.3815Y-4.4455
X5.3815Y-4.5754
X5.4274Y-4.4646
X5.4274Y-4.5564
X5.4464Y-4.5105
X8.8057Y-4.2376
X8.8248Y-4.1917
X8.8248Y-4.2835
X8.8707Y-4.1726
X8.8707Y-4.3026
X8.9166Y-4.1917
X8.9166Y-4.2835
X8.9357Y-4.2376
X9.5463Y-1.7799
X9.5654Y-1.734
X9.5654Y-1.8259
X9.6113Y-1.715
X9.6113Y-1.8449
X9.6572Y-1.734
X9.6572Y-1.8259
X9.6763Y-1.7799
X12.5318Y-4.0267
X12.5509Y-3.9807
X12.5509Y-4.0726
X12.5968Y-3.9617
X12.5968Y-4.0916
X12.6427Y-3.9807
X12.6427Y-4.0726
X12.6618Y-4.0267
X12.8052Y-1.7767
X12.8242Y-1.7307
X12.8242Y-1.8226
X12.8701Y-1.7117
X12.8701Y-1.8416
X12.916Y-1.7307
X12.916Y-1.8226
X12.9351Y-1.7767
T4
X1.8715Y-4.4017
X2.1923Y-1.7767
X5.2991Y-2.1927
X5.3815Y-4.5105
X8.8707Y-4.2376
X9.6113Y-1.7799
X12.5968Y-4.0267
X12.8701Y-1.7767
T3
G00X6.4866Y-0.7169
M15
G01X6.4866Y-0.7406
M16
G05
G00X6.4866Y-0.8717
M15
G01X6.4866Y-0.915
M16
G05
G00X6.8268Y-0.7169
M15
G01X6.8268Y-0.7406
M16
G05
G00X6.8268Y-0.8717
M15
G01X6.8268Y-0.915
M16
G05
T0
M30
