%TF.GenerationSoftware,KiCad,Pcbnew,(6.0.9)*%
%TF.CreationDate,2023-01-04T06:44:43+09:00*%
%TF.ProjectId,Skeleton68rev2,536b656c-6574-46f6-9e36-38726576322e,rev?*%
%TF.SameCoordinates,Original*%
%TF.FileFunction,Legend,Top*%
%TF.FilePolarity,Positive*%
%FSLAX46Y46*%
G04 Gerber Fmt 4.6, Leading zero omitted, Abs format (unit mm)*
G04 Created by KiCad (PCBNEW (6.0.9)) date 2023-01-04 06:44:43*
%MOMM*%
%LPD*%
G01*
G04 APERTURE LIST*
%ADD10C,0.150000*%
%ADD11C,4.400000*%
%ADD12C,0.700000*%
%ADD13C,2.000000*%
%ADD14C,3.000000*%
%ADD15C,3.987800*%
%ADD16C,1.701800*%
%ADD17C,3.048000*%
%ADD18C,0.650000*%
%ADD19O,1.000000X2.100000*%
%ADD20O,1.000000X1.600000*%
G04 APERTURE END LIST*
D10*
%TO.C,H6*%
X224553695Y-104887480D02*
X224553695Y-103887480D01*
X224553695Y-104363671D02*
X225125123Y-104363671D01*
X225125123Y-104887480D02*
X225125123Y-103887480D01*
X226029885Y-103887480D02*
X225839409Y-103887480D01*
X225744171Y-103935100D01*
X225696552Y-103982719D01*
X225601314Y-104125576D01*
X225553695Y-104316052D01*
X225553695Y-104697004D01*
X225601314Y-104792242D01*
X225648933Y-104839861D01*
X225744171Y-104887480D01*
X225934647Y-104887480D01*
X226029885Y-104839861D01*
X226077504Y-104792242D01*
X226125123Y-104697004D01*
X226125123Y-104458909D01*
X226077504Y-104363671D01*
X226029885Y-104316052D01*
X225934647Y-104268433D01*
X225744171Y-104268433D01*
X225648933Y-104316052D01*
X225601314Y-104363671D01*
X225553695Y-104458909D01*
%TO.C,H4*%
X135927295Y-111818780D02*
X135927295Y-110818780D01*
X135927295Y-111294971D02*
X136498723Y-111294971D01*
X136498723Y-111818780D02*
X136498723Y-110818780D01*
X137403485Y-111152114D02*
X137403485Y-111818780D01*
X137165390Y-110771161D02*
X136927295Y-111485447D01*
X137546342Y-111485447D01*
%TO.C,H1*%
X54922295Y-42379380D02*
X54922295Y-41379380D01*
X54922295Y-41855571D02*
X55493723Y-41855571D01*
X55493723Y-42379380D02*
X55493723Y-41379380D01*
X56493723Y-42379380D02*
X55922295Y-42379380D01*
X56208009Y-42379380D02*
X56208009Y-41379380D01*
X56112771Y-41522238D01*
X56017533Y-41617476D01*
X55922295Y-41665095D01*
%TO.C,H7*%
X326138995Y-42379380D02*
X326138995Y-41379380D01*
X326138995Y-41855571D02*
X326710423Y-41855571D01*
X326710423Y-42379380D02*
X326710423Y-41379380D01*
X327091376Y-41379380D02*
X327758042Y-41379380D01*
X327329471Y-42379380D01*
%TO.C,FID3*%
X359358571Y-28138571D02*
X359025238Y-28138571D01*
X359025238Y-28662380D02*
X359025238Y-27662380D01*
X359501428Y-27662380D01*
X359882380Y-28662380D02*
X359882380Y-27662380D01*
X360358571Y-28662380D02*
X360358571Y-27662380D01*
X360596666Y-27662380D01*
X360739523Y-27710000D01*
X360834761Y-27805238D01*
X360882380Y-27900476D01*
X360930000Y-28090952D01*
X360930000Y-28233809D01*
X360882380Y-28424285D01*
X360834761Y-28519523D01*
X360739523Y-28614761D01*
X360596666Y-28662380D01*
X360358571Y-28662380D01*
X361263333Y-27662380D02*
X361882380Y-27662380D01*
X361549047Y-28043333D01*
X361691904Y-28043333D01*
X361787142Y-28090952D01*
X361834761Y-28138571D01*
X361882380Y-28233809D01*
X361882380Y-28471904D01*
X361834761Y-28567142D01*
X361787142Y-28614761D01*
X361691904Y-28662380D01*
X361406190Y-28662380D01*
X361310952Y-28614761D01*
X361263333Y-28567142D01*
%TO.C,FID2*%
X15598571Y-24188571D02*
X15265238Y-24188571D01*
X15265238Y-24712380D02*
X15265238Y-23712380D01*
X15741428Y-23712380D01*
X16122380Y-24712380D02*
X16122380Y-23712380D01*
X16598571Y-24712380D02*
X16598571Y-23712380D01*
X16836666Y-23712380D01*
X16979523Y-23760000D01*
X17074761Y-23855238D01*
X17122380Y-23950476D01*
X17170000Y-24140952D01*
X17170000Y-24283809D01*
X17122380Y-24474285D01*
X17074761Y-24569523D01*
X16979523Y-24664761D01*
X16836666Y-24712380D01*
X16598571Y-24712380D01*
X17550952Y-23807619D02*
X17598571Y-23760000D01*
X17693809Y-23712380D01*
X17931904Y-23712380D01*
X18027142Y-23760000D01*
X18074761Y-23807619D01*
X18122380Y-23902857D01*
X18122380Y-23998095D01*
X18074761Y-24140952D01*
X17503333Y-24712380D01*
X18122380Y-24712380D01*
%TO.C,H3*%
X130598095Y-53472380D02*
X130598095Y-52472380D01*
X130598095Y-52948571D02*
X131169523Y-52948571D01*
X131169523Y-53472380D02*
X131169523Y-52472380D01*
X131550476Y-52472380D02*
X132169523Y-52472380D01*
X131836190Y-52853333D01*
X131979047Y-52853333D01*
X132074285Y-52900952D01*
X132121904Y-52948571D01*
X132169523Y-53043809D01*
X132169523Y-53281904D01*
X132121904Y-53377142D01*
X132074285Y-53424761D01*
X131979047Y-53472380D01*
X131693333Y-53472380D01*
X131598095Y-53424761D01*
X131550476Y-53377142D01*
%TO.C,FID1*%
X15908571Y-119208571D02*
X15575238Y-119208571D01*
X15575238Y-119732380D02*
X15575238Y-118732380D01*
X16051428Y-118732380D01*
X16432380Y-119732380D02*
X16432380Y-118732380D01*
X16908571Y-119732380D02*
X16908571Y-118732380D01*
X17146666Y-118732380D01*
X17289523Y-118780000D01*
X17384761Y-118875238D01*
X17432380Y-118970476D01*
X17480000Y-119160952D01*
X17480000Y-119303809D01*
X17432380Y-119494285D01*
X17384761Y-119589523D01*
X17289523Y-119684761D01*
X17146666Y-119732380D01*
X16908571Y-119732380D01*
X18432380Y-119732380D02*
X17860952Y-119732380D01*
X18146666Y-119732380D02*
X18146666Y-118732380D01*
X18051428Y-118875238D01*
X17956190Y-118970476D01*
X17860952Y-119018095D01*
%TO.C,H5*%
X239678095Y-45582380D02*
X239678095Y-44582380D01*
X239678095Y-45058571D02*
X240249523Y-45058571D01*
X240249523Y-45582380D02*
X240249523Y-44582380D01*
X241201904Y-44582380D02*
X240725714Y-44582380D01*
X240678095Y-45058571D01*
X240725714Y-45010952D01*
X240820952Y-44963333D01*
X241059047Y-44963333D01*
X241154285Y-45010952D01*
X241201904Y-45058571D01*
X241249523Y-45153809D01*
X241249523Y-45391904D01*
X241201904Y-45487142D01*
X241154285Y-45534761D01*
X241059047Y-45582380D01*
X240820952Y-45582380D01*
X240725714Y-45534761D01*
X240678095Y-45487142D01*
%TO.C,FID4*%
X359408571Y-120498571D02*
X359075238Y-120498571D01*
X359075238Y-121022380D02*
X359075238Y-120022380D01*
X359551428Y-120022380D01*
X359932380Y-121022380D02*
X359932380Y-120022380D01*
X360408571Y-121022380D02*
X360408571Y-120022380D01*
X360646666Y-120022380D01*
X360789523Y-120070000D01*
X360884761Y-120165238D01*
X360932380Y-120260476D01*
X360980000Y-120450952D01*
X360980000Y-120593809D01*
X360932380Y-120784285D01*
X360884761Y-120879523D01*
X360789523Y-120974761D01*
X360646666Y-121022380D01*
X360408571Y-121022380D01*
X361837142Y-120355714D02*
X361837142Y-121022380D01*
X361599047Y-119974761D02*
X361360952Y-120689047D01*
X361980000Y-120689047D01*
%TO.C,H8*%
X319196795Y-99529380D02*
X319196795Y-98529380D01*
X319196795Y-99005571D02*
X319768223Y-99005571D01*
X319768223Y-99529380D02*
X319768223Y-98529380D01*
X320387271Y-98957952D02*
X320292033Y-98910333D01*
X320244414Y-98862714D01*
X320196795Y-98767476D01*
X320196795Y-98719857D01*
X320244414Y-98624619D01*
X320292033Y-98577000D01*
X320387271Y-98529380D01*
X320577747Y-98529380D01*
X320672985Y-98577000D01*
X320720604Y-98624619D01*
X320768223Y-98719857D01*
X320768223Y-98767476D01*
X320720604Y-98862714D01*
X320672985Y-98910333D01*
X320577747Y-98957952D01*
X320387271Y-98957952D01*
X320292033Y-99005571D01*
X320244414Y-99053190D01*
X320196795Y-99148428D01*
X320196795Y-99338904D01*
X320244414Y-99434142D01*
X320292033Y-99481761D01*
X320387271Y-99529380D01*
X320577747Y-99529380D01*
X320672985Y-99481761D01*
X320720604Y-99434142D01*
X320768223Y-99338904D01*
X320768223Y-99148428D01*
X320720604Y-99053190D01*
X320672985Y-99005571D01*
X320577747Y-98957952D01*
%TO.C,H2*%
X46775195Y-109054380D02*
X46775195Y-108054380D01*
X46775195Y-108530571D02*
X47346623Y-108530571D01*
X47346623Y-109054380D02*
X47346623Y-108054380D01*
X47775195Y-108149619D02*
X47822814Y-108102000D01*
X47918052Y-108054380D01*
X48156147Y-108054380D01*
X48251385Y-108102000D01*
X48299004Y-108149619D01*
X48346623Y-108244857D01*
X48346623Y-108340095D01*
X48299004Y-108482952D01*
X47727576Y-109054380D01*
X48346623Y-109054380D01*
%TD*%
%LPC*%
D11*
%TO.C,H6*%
X225315600Y-107635100D03*
D12*
X226965600Y-107635100D03*
X225315600Y-109285100D03*
X226482326Y-106468374D03*
X225315600Y-105985100D03*
X226482326Y-108801826D03*
X223665600Y-107635100D03*
X224148874Y-106468374D03*
X224148874Y-108801826D03*
%TD*%
%TO.C,H4*%
X136689200Y-112916400D03*
X135522474Y-113399674D03*
X138339200Y-114566400D03*
X136689200Y-116216400D03*
X137855926Y-113399674D03*
X135522474Y-115733126D03*
D11*
X136689200Y-114566400D03*
D12*
X135039200Y-114566400D03*
X137855926Y-115733126D03*
%TD*%
%TO.C,H1*%
X55684200Y-43477000D03*
X57334200Y-45127000D03*
X56850926Y-46293726D03*
X54517474Y-46293726D03*
X54517474Y-43960274D03*
D11*
X55684200Y-45127000D03*
D12*
X54034200Y-45127000D03*
X55684200Y-46777000D03*
X56850926Y-43960274D03*
%TD*%
%TO.C,H7*%
X325250900Y-45127000D03*
X326900900Y-43477000D03*
X328550900Y-45127000D03*
D11*
X326900900Y-45127000D03*
D12*
X328067626Y-46293726D03*
X326900900Y-46777000D03*
X325734174Y-46293726D03*
X325734174Y-43960274D03*
X328067626Y-43960274D03*
%TD*%
D13*
%TO.C,FID3*%
X359570000Y-30870000D03*
%TD*%
%TO.C,FID2*%
X17330000Y-26810000D03*
%TD*%
D12*
%TO.C,H3*%
X132946100Y-55694700D03*
X135762826Y-54527974D03*
X133429374Y-54527974D03*
X135762826Y-56861426D03*
X133429374Y-56861426D03*
X134596100Y-54044700D03*
X136246100Y-55694700D03*
X134596100Y-57344700D03*
D11*
X134596100Y-55694700D03*
%TD*%
D13*
%TO.C,FID1*%
X17540000Y-121740000D03*
%TD*%
D12*
%TO.C,H5*%
X245776800Y-45209900D03*
X242476800Y-45209900D03*
X242960074Y-46376626D03*
D11*
X244126800Y-45209900D03*
D12*
X244126800Y-43559900D03*
X245293526Y-46376626D03*
X244126800Y-46859900D03*
X245293526Y-44043174D03*
X242960074Y-44043174D03*
%TD*%
D13*
%TO.C,FID4*%
X359570000Y-123160000D03*
%TD*%
D12*
%TO.C,H8*%
X318791974Y-101110274D03*
X319958700Y-100627000D03*
X321125426Y-101110274D03*
X318791974Y-103443726D03*
X318308700Y-102277000D03*
D11*
X319958700Y-102277000D03*
D12*
X319958700Y-103927000D03*
X321608700Y-102277000D03*
X321125426Y-103443726D03*
%TD*%
%TO.C,H2*%
X48703826Y-110635274D03*
X46370374Y-110635274D03*
X49187100Y-111802000D03*
X45887100Y-111802000D03*
X47537100Y-110152000D03*
D11*
X47537100Y-111802000D03*
D12*
X46370374Y-112968726D03*
X47537100Y-113452000D03*
X48703826Y-112968726D03*
%TD*%
D14*
%TO.C,SW35*%
X120797953Y-79378462D03*
D15*
X123996600Y-82655100D03*
D16*
X119027610Y-81598909D03*
X128965590Y-83711291D03*
D14*
X127537286Y-78214206D03*
%TD*%
D15*
%TO.C,SW41*%
X263488900Y-73702000D03*
D16*
X268568900Y-73702000D03*
D14*
X259678900Y-71162000D03*
D16*
X258408900Y-73702000D03*
D14*
X266028900Y-68622000D03*
%TD*%
D15*
%TO.C,SW55*%
X258046200Y-92752000D03*
D14*
X260586200Y-87672000D03*
D16*
X263126200Y-92752000D03*
X252966200Y-92752000D03*
D14*
X254236200Y-90212000D03*
%TD*%
%TO.C,SW24*%
X219584904Y-54970714D03*
D16*
X213187610Y-61523991D03*
X223125590Y-59411609D03*
D15*
X218156600Y-60467800D03*
D14*
X213901762Y-58775449D03*
%TD*%
D16*
%TO.C,SW8*%
X188471490Y-47302009D03*
X178533510Y-49414391D03*
D14*
X179247662Y-46665849D03*
X184930804Y-42861114D03*
D15*
X183502500Y-48358200D03*
%TD*%
D16*
%TO.C,SW53*%
X213707810Y-100364591D03*
X223645790Y-98252209D03*
D15*
X218676800Y-99308400D03*
D14*
X214421962Y-97616049D03*
X220105104Y-93811314D03*
%TD*%
D16*
%TO.C,SW68*%
X353613700Y-111802000D03*
X343453700Y-111802000D03*
D15*
X348533700Y-111802000D03*
D14*
X344723700Y-109262000D03*
X351073700Y-106722000D03*
%TD*%
%TO.C,SW15*%
X347065000Y-28295000D03*
D15*
X344525000Y-33375000D03*
D14*
X340715000Y-30835000D03*
D16*
X339445000Y-33375000D03*
X349605000Y-33375000D03*
%TD*%
D15*
%TO.C,SW63*%
X211635415Y-111841342D03*
D17*
X191449737Y-131712411D03*
D16*
X196705610Y-123454191D03*
X206643590Y-121341809D03*
D17*
X214803989Y-126748311D03*
D14*
X197419762Y-120705649D03*
X203102904Y-116900914D03*
D15*
X201674600Y-122398000D03*
X188281163Y-116805441D03*
%TD*%
D16*
%TO.C,SW44*%
X353605000Y-71475000D03*
X343445000Y-71475000D03*
D14*
X351065000Y-66395000D03*
D15*
X348525000Y-71475000D03*
D14*
X344715000Y-68935000D03*
%TD*%
%TO.C,SW60*%
X64364600Y-106722000D03*
X58014600Y-109262000D03*
D16*
X66904600Y-111802000D03*
D15*
X61824600Y-111802000D03*
D16*
X56744600Y-111802000D03*
%TD*%
D14*
%TO.C,SW48*%
X114259686Y-94867506D03*
D15*
X110719000Y-99308400D03*
D16*
X105750010Y-98252209D03*
X115687990Y-100364591D03*
D14*
X107520353Y-96031762D03*
%TD*%
D16*
%TO.C,SW56*%
X282176200Y-92752000D03*
D14*
X273286200Y-90212000D03*
D16*
X272016200Y-92752000D03*
D15*
X277096200Y-92752000D03*
D14*
X279636200Y-87672000D03*
%TD*%
D16*
%TO.C,SW32*%
X70986900Y-73702000D03*
X60826900Y-73702000D03*
D14*
X68446900Y-68622000D03*
D15*
X65906900Y-73702000D03*
D14*
X62096900Y-71162000D03*
%TD*%
D16*
%TO.C,SW65*%
X281541200Y-111802000D03*
D14*
X282811200Y-109262000D03*
D15*
X286621200Y-111802000D03*
D14*
X289161200Y-106722000D03*
D16*
X291701200Y-111802000D03*
%TD*%
D14*
%TO.C,SW6*%
X140117086Y-41936906D03*
X133377753Y-43101162D03*
D16*
X131607410Y-45321609D03*
D15*
X136576400Y-46377800D03*
D16*
X141545390Y-47433991D03*
%TD*%
%TO.C,SW38*%
X200430310Y-83711291D03*
D14*
X206827604Y-77158014D03*
X201144462Y-80962749D03*
D16*
X210368290Y-81598909D03*
D15*
X205399300Y-82655100D03*
%TD*%
D14*
%TO.C,SW27*%
X279115900Y-49572000D03*
D15*
X276575900Y-54652000D03*
D16*
X281655900Y-54652000D03*
D14*
X272765900Y-52112000D03*
D16*
X271495900Y-54652000D03*
%TD*%
D15*
%TO.C,SW43*%
X313495100Y-73702000D03*
D17*
X325433100Y-66717000D03*
D14*
X309685100Y-71162000D03*
D16*
X308415100Y-73702000D03*
D17*
X301557100Y-66717000D03*
D15*
X325433100Y-81957000D03*
D16*
X318575100Y-73702000D03*
D15*
X301557100Y-81957000D03*
D14*
X316035100Y-68622000D03*
%TD*%
D16*
%TO.C,SW1*%
X45887700Y-35602000D03*
D14*
X43347700Y-30522000D03*
D15*
X40807700Y-35602000D03*
D14*
X36997700Y-33062000D03*
D16*
X35727700Y-35602000D03*
%TD*%
D14*
%TO.C,SW34*%
X102164153Y-75417762D03*
D16*
X100393810Y-77638209D03*
X110331790Y-79750591D03*
D14*
X108903486Y-74253506D03*
D15*
X105362800Y-78694400D03*
%TD*%
D14*
%TO.C,SW7*%
X158750786Y-45897706D03*
D16*
X160179090Y-51394791D03*
D15*
X155210100Y-50338600D03*
D16*
X150241110Y-49282409D03*
D14*
X152011453Y-47061962D03*
%TD*%
%TO.C,SW25*%
X238218604Y-51010014D03*
D15*
X236790300Y-56507100D03*
D16*
X241759290Y-55450909D03*
D14*
X232535462Y-54814749D03*
D16*
X231821310Y-57563291D03*
%TD*%
%TO.C,SW67*%
X324403700Y-111802000D03*
D14*
X325673700Y-109262000D03*
D15*
X329483700Y-111802000D03*
D16*
X334563700Y-111802000D03*
D14*
X332023700Y-106722000D03*
%TD*%
%TO.C,SW14*%
X304040900Y-33062000D03*
D17*
X319788900Y-28617000D03*
D15*
X319788900Y-43857000D03*
X295912900Y-43857000D03*
D16*
X302770900Y-35602000D03*
D14*
X310390900Y-30522000D03*
D16*
X312930900Y-35602000D03*
D17*
X295912900Y-28617000D03*
D15*
X307850900Y-35602000D03*
%TD*%
%TO.C,SW18*%
X86031400Y-55109800D03*
D14*
X82832753Y-51833162D03*
D16*
X91000390Y-56165991D03*
D14*
X89572086Y-50668906D03*
D16*
X81062410Y-54053609D03*
%TD*%
D14*
%TO.C,SW10*%
X216515162Y-38744449D03*
X222198304Y-34939714D03*
D16*
X215801010Y-41492991D03*
D15*
X220770000Y-40436800D03*
D16*
X225738990Y-39380609D03*
%TD*%
%TO.C,SW16*%
X46476700Y-54652000D03*
D14*
X37586700Y-52112000D03*
D15*
X41396700Y-54652000D03*
D16*
X36316700Y-54652000D03*
D14*
X43936700Y-49572000D03*
%TD*%
D16*
%TO.C,SW11*%
X234434710Y-37532191D03*
D14*
X235148862Y-34783649D03*
X240832004Y-30978914D03*
D15*
X239403700Y-36476000D03*
D16*
X244372690Y-35419809D03*
%TD*%
%TO.C,SW51*%
X186378390Y-106173709D03*
D14*
X177154562Y-105537549D03*
D15*
X181409400Y-107229900D03*
D14*
X182837704Y-101732814D03*
D16*
X176440410Y-108286091D03*
%TD*%
%TO.C,SW4*%
X104277990Y-39512591D03*
D14*
X96110353Y-35179762D03*
X102849686Y-34015506D03*
D15*
X99309000Y-38456400D03*
D16*
X94340010Y-37400209D03*
%TD*%
D14*
%TO.C,SW22*%
X176634262Y-66696949D03*
D15*
X180889100Y-68389300D03*
D16*
X185858090Y-67333109D03*
D14*
X182317404Y-62892214D03*
D16*
X175920110Y-69445491D03*
%TD*%
D14*
%TO.C,SW54*%
X238738804Y-89850614D03*
X233055662Y-93655349D03*
D16*
X242279490Y-94291509D03*
X232341510Y-96403891D03*
D15*
X237310500Y-95347700D03*
%TD*%
D14*
%TO.C,SW12*%
X262765900Y-29781400D03*
X256415900Y-32321400D03*
D15*
X260225900Y-34861400D03*
D16*
X255145900Y-34861400D03*
X265305900Y-34861400D03*
%TD*%
D14*
%TO.C,SW26*%
X253715900Y-51371400D03*
D16*
X262605900Y-53911400D03*
D14*
X260065900Y-48831400D03*
D15*
X257525900Y-53911400D03*
D16*
X252445900Y-53911400D03*
%TD*%
D14*
%TO.C,SW31*%
X42253200Y-68622000D03*
D16*
X44793200Y-73702000D03*
D14*
X35903200Y-71162000D03*
D16*
X34633200Y-73702000D03*
D15*
X39713200Y-73702000D03*
%TD*%
D16*
%TO.C,SW21*%
X146901590Y-68048091D03*
D15*
X141932600Y-66991900D03*
D14*
X145473286Y-62551006D03*
X138733953Y-63715262D03*
D16*
X136963610Y-65935709D03*
%TD*%
D15*
%TO.C,SW28*%
X295625900Y-54652000D03*
D16*
X290545900Y-54652000D03*
D14*
X298165900Y-49572000D03*
X291815900Y-52112000D03*
D16*
X300705900Y-54652000D03*
%TD*%
%TO.C,SW36*%
X137661310Y-85559609D03*
D15*
X142630300Y-86615800D03*
D14*
X146170986Y-82174906D03*
X139431653Y-83339162D03*
D16*
X147599290Y-87671991D03*
%TD*%
D14*
%TO.C,SW29*%
X315628400Y-52112000D03*
X321978400Y-49572000D03*
D16*
X324518400Y-54652000D03*
X314358400Y-54652000D03*
D15*
X319438400Y-54652000D03*
%TD*%
D16*
%TO.C,SW37*%
X181796510Y-87671991D03*
X191734490Y-85559609D03*
D14*
X182510662Y-84923449D03*
D15*
X186765500Y-86615800D03*
D14*
X188193804Y-81118714D03*
%TD*%
D15*
%TO.C,SW17*%
X65209200Y-54652000D03*
D16*
X60129200Y-54652000D03*
D14*
X61399200Y-52112000D03*
X67749200Y-49572000D03*
D16*
X70289200Y-54652000D03*
%TD*%
D15*
%TO.C,SW62*%
X144025700Y-125863600D03*
D14*
X147566386Y-121422706D03*
X140827053Y-122586962D03*
D16*
X148994690Y-126919791D03*
X139056710Y-124807409D03*
%TD*%
D15*
%TO.C,SW46*%
X71349600Y-92752000D03*
D16*
X76429600Y-92752000D03*
D14*
X73889600Y-87672000D03*
X67539600Y-90212000D03*
D16*
X66269600Y-92752000D03*
%TD*%
%TO.C,SW33*%
X91698090Y-75789791D03*
X81760110Y-73677409D03*
D14*
X83530453Y-71456962D03*
D15*
X86729100Y-74733600D03*
D14*
X90269786Y-70292706D03*
%TD*%
D16*
%TO.C,SW57*%
X298210000Y-92752000D03*
D15*
X303290000Y-92752000D03*
D14*
X305830000Y-87672000D03*
X299480000Y-90212000D03*
D16*
X308370000Y-92752000D03*
%TD*%
D15*
%TO.C,SW45*%
X52331400Y-101007000D03*
D14*
X36583400Y-90212000D03*
D17*
X52331400Y-85767000D03*
D16*
X45473400Y-92752000D03*
X35313400Y-92752000D03*
D14*
X42933400Y-87672000D03*
D15*
X28455400Y-101007000D03*
D17*
X28455400Y-85767000D03*
D15*
X40393400Y-92752000D03*
%TD*%
D14*
%TO.C,SW49*%
X126154053Y-99992562D03*
D16*
X124383710Y-102213009D03*
D14*
X132893386Y-98828306D03*
D15*
X129352700Y-103269200D03*
D16*
X134321690Y-104325391D03*
%TD*%
D14*
%TO.C,SW30*%
X342715000Y-49885000D03*
D16*
X341445000Y-52425000D03*
D15*
X346525000Y-52425000D03*
D14*
X349065000Y-47345000D03*
D16*
X351605000Y-52425000D03*
%TD*%
D14*
%TO.C,SW64*%
X237140362Y-112872049D03*
D15*
X241395200Y-114564400D03*
D16*
X236426210Y-115620591D03*
X246364190Y-113508209D03*
D14*
X242823504Y-109067314D03*
%TD*%
D16*
%TO.C,SW66*%
X305353700Y-111802000D03*
D14*
X306623700Y-109262000D03*
D15*
X310433700Y-111802000D03*
D14*
X312973700Y-106722000D03*
D16*
X315513700Y-111802000D03*
%TD*%
%TO.C,SW59*%
X28169600Y-111802000D03*
D15*
X33249600Y-111802000D03*
D14*
X35789600Y-106722000D03*
D16*
X38329600Y-111802000D03*
D14*
X29439600Y-109262000D03*
%TD*%
D16*
%TO.C,SW50*%
X152955390Y-108286091D03*
D14*
X151527086Y-102789006D03*
X144787753Y-103953262D03*
D15*
X147986400Y-107229900D03*
D16*
X143017410Y-106173709D03*
%TD*%
D14*
%TO.C,SW52*%
X201471404Y-97772114D03*
D16*
X195074110Y-104325391D03*
D14*
X195788262Y-101576849D03*
D15*
X200043100Y-103269200D03*
D16*
X205012090Y-102213009D03*
%TD*%
D14*
%TO.C,SW42*%
X278728900Y-71162000D03*
D16*
X277458900Y-73702000D03*
D15*
X282538900Y-73702000D03*
D16*
X287618900Y-73702000D03*
D14*
X285078900Y-68622000D03*
%TD*%
D16*
%TO.C,SW58*%
X334563700Y-92752000D03*
D15*
X329483700Y-92752000D03*
D14*
X325673700Y-90212000D03*
D16*
X324403700Y-92752000D03*
D14*
X332023700Y-87672000D03*
%TD*%
D16*
%TO.C,SW9*%
X207105190Y-43341309D03*
X197167210Y-45453691D03*
D14*
X203564504Y-38900414D03*
D15*
X202136200Y-44397500D03*
D14*
X197881362Y-42705149D03*
%TD*%
D18*
%TO.C,J1*%
X171970000Y-22160000D03*
X166190000Y-22160000D03*
D19*
X173400000Y-22690000D03*
D20*
X164760000Y-18510000D03*
D19*
X164760000Y-22690000D03*
D20*
X173400000Y-18510000D03*
%TD*%
D16*
%TO.C,SW19*%
X109634090Y-60126691D03*
D15*
X104665100Y-59070500D03*
D16*
X99696110Y-58014309D03*
D14*
X101466453Y-55793862D03*
X108205786Y-54629606D03*
%TD*%
D15*
%TO.C,SW13*%
X279275900Y-35602000D03*
D14*
X281815900Y-30522000D03*
D16*
X284355900Y-35602000D03*
X274195900Y-35602000D03*
D14*
X275465900Y-33062000D03*
%TD*%
%TO.C,SW23*%
X195268062Y-62736249D03*
D16*
X204491890Y-63372409D03*
D15*
X199522900Y-64428600D03*
D16*
X194553910Y-65484791D03*
D14*
X200951204Y-58931514D03*
%TD*%
%TO.C,SW47*%
X95625986Y-90906806D03*
X88886653Y-92071062D03*
D16*
X97054290Y-96403891D03*
D15*
X92085300Y-95347700D03*
D16*
X87116310Y-94291509D03*
%TD*%
%TO.C,SW2*%
X64937700Y-35602000D03*
D15*
X59857700Y-35602000D03*
D14*
X62397700Y-30522000D03*
X56047700Y-33062000D03*
D16*
X54777700Y-35602000D03*
%TD*%
D14*
%TO.C,SW40*%
X238411862Y-73041249D03*
D16*
X237697710Y-75789791D03*
D14*
X244095004Y-69236514D03*
D15*
X242666700Y-74733600D03*
D16*
X247635690Y-73677409D03*
%TD*%
%TO.C,SW39*%
X219064010Y-79750591D03*
X229001990Y-77638209D03*
D14*
X219778162Y-77002049D03*
X225461304Y-73197314D03*
D15*
X224033000Y-78694400D03*
%TD*%
D16*
%TO.C,SW3*%
X73827700Y-34287500D03*
X83987700Y-34287500D03*
D14*
X75097700Y-31747500D03*
D15*
X78907700Y-34287500D03*
D14*
X81447700Y-29207500D03*
%TD*%
D16*
%TO.C,SW5*%
X112973710Y-41360909D03*
D14*
X114744053Y-39140462D03*
X121483386Y-37976206D03*
D16*
X122911690Y-43473291D03*
D15*
X117942700Y-42417100D03*
%TD*%
D14*
%TO.C,SW20*%
X120100253Y-59754562D03*
D16*
X118329910Y-61975009D03*
D14*
X126839586Y-58590306D03*
D15*
X123298900Y-63031200D03*
D16*
X128267890Y-64087391D03*
%TD*%
D15*
%TO.C,SW61*%
X113745900Y-119427400D03*
D16*
X108776910Y-118371209D03*
D14*
X110547253Y-116150762D03*
X117286586Y-114986506D03*
D17*
X123970763Y-128741811D03*
D15*
X127139337Y-113834841D03*
X103785085Y-108870742D03*
D16*
X118714890Y-120483591D03*
D17*
X100616511Y-123777711D03*
%TD*%
M02*
