%TF.GenerationSoftware,KiCad,Pcbnew,(6.0.9)*%
%TF.CreationDate,2022-12-15T18:11:33+09:00*%
%TF.ProjectId,Skeleton68rev2,536b656c-6574-46f6-9e36-38726576322e,rev?*%
%TF.SameCoordinates,Original*%
%TF.FileFunction,Soldermask,Bot*%
%TF.FilePolarity,Negative*%
%FSLAX46Y46*%
G04 Gerber Fmt 4.6, Leading zero omitted, Abs format (unit mm)*
G04 Created by KiCad (PCBNEW (6.0.9)) date 2022-12-15 18:11:33*
%MOMM*%
%LPD*%
G01*
G04 APERTURE LIST*
G04 Aperture macros list*
%AMRoundRect*
0 Rectangle with rounded corners*
0 $1 Rounding radius*
0 $2 $3 $4 $5 $6 $7 $8 $9 X,Y pos of 4 corners*
0 Add a 4 corners polygon primitive as box body*
4,1,4,$2,$3,$4,$5,$6,$7,$8,$9,$2,$3,0*
0 Add four circle primitives for the rounded corners*
1,1,$1+$1,$2,$3*
1,1,$1+$1,$4,$5*
1,1,$1+$1,$6,$7*
1,1,$1+$1,$8,$9*
0 Add four rect primitives between the rounded corners*
20,1,$1+$1,$2,$3,$4,$5,0*
20,1,$1+$1,$4,$5,$6,$7,0*
20,1,$1+$1,$6,$7,$8,$9,0*
20,1,$1+$1,$8,$9,$2,$3,0*%
%AMRotRect*
0 Rectangle, with rotation*
0 The origin of the aperture is its center*
0 $1 length*
0 $2 width*
0 $3 Rotation angle, in degrees counterclockwise*
0 Add horizontal line*
21,1,$1,$2,0,0,$3*%
G04 Aperture macros list end*
%ADD10C,2.200000*%
%ADD11R,0.420000X1.300000*%
%ADD12RotRect,0.900000X1.200000X12.000000*%
%ADD13R,0.900000X1.200000*%
%ADD14C,3.000000*%
%ADD15C,3.987800*%
%ADD16C,1.701800*%
%ADD17RoundRect,0.200000X1.269816X0.803550X-0.833201X1.250560X-1.269816X-0.803550X0.833201X-1.250560X0*%
%ADD18RoundRect,0.135000X0.185000X-0.135000X0.185000X0.135000X-0.185000X0.135000X-0.185000X-0.135000X0*%
%ADD19RoundRect,0.200000X1.075000X1.050000X-1.075000X1.050000X-1.075000X-1.050000X1.075000X-1.050000X0*%
%ADD20RotRect,0.900000X1.200000X348.000000*%
%ADD21R,1.300000X0.420000*%
%ADD22RotRect,0.420000X1.300000X348.000000*%
%ADD23R,1.800000X1.100000*%
%ADD24RoundRect,0.140000X-0.170000X0.140000X-0.170000X-0.140000X0.170000X-0.140000X0.170000X0.140000X0*%
%ADD25RoundRect,0.200000X0.833201X1.250560X-1.269816X0.803550X-0.833201X-1.250560X1.269816X-0.803550X0*%
%ADD26RotRect,0.900000X1.200000X168.000000*%
%ADD27RoundRect,0.140000X0.170000X-0.140000X0.170000X0.140000X-0.170000X0.140000X-0.170000X-0.140000X0*%
%ADD28C,3.048000*%
%ADD29RoundRect,0.135000X-0.185000X0.135000X-0.185000X-0.135000X0.185000X-0.135000X0.185000X0.135000X0*%
%ADD30RoundRect,0.150000X0.150000X-0.512500X0.150000X0.512500X-0.150000X0.512500X-0.150000X-0.512500X0*%
%ADD31RoundRect,0.150000X0.150000X-0.587500X0.150000X0.587500X-0.150000X0.587500X-0.150000X-0.587500X0*%
%ADD32RoundRect,0.050000X0.387500X0.050000X-0.387500X0.050000X-0.387500X-0.050000X0.387500X-0.050000X0*%
%ADD33RoundRect,0.050000X0.050000X0.387500X-0.050000X0.387500X-0.050000X-0.387500X0.050000X-0.387500X0*%
%ADD34R,3.200000X3.200000*%
%ADD35RoundRect,0.140000X0.140000X0.170000X-0.140000X0.170000X-0.140000X-0.170000X0.140000X-0.170000X0*%
%ADD36C,0.650000*%
%ADD37R,0.600000X1.450000*%
%ADD38R,0.300000X1.450000*%
%ADD39O,1.000000X2.100000*%
%ADD40O,1.000000X1.600000*%
%ADD41RoundRect,0.150000X-0.150000X0.650000X-0.150000X-0.650000X0.150000X-0.650000X0.150000X0.650000X0*%
%ADD42RoundRect,0.200000X-0.275000X0.200000X-0.275000X-0.200000X0.275000X-0.200000X0.275000X0.200000X0*%
%ADD43R,1.400000X1.200000*%
%ADD44RotRect,0.420000X1.300000X12.000000*%
%ADD45RoundRect,0.250000X-0.625000X0.375000X-0.625000X-0.375000X0.625000X-0.375000X0.625000X0.375000X0*%
G04 APERTURE END LIST*
D10*
%TO.C,H6*%
X225315615Y-107635110D03*
%TD*%
%TO.C,H4*%
X136689196Y-114566366D03*
%TD*%
%TO.C,H1*%
X55684212Y-45127021D03*
%TD*%
%TO.C,H7*%
X326900885Y-45127021D03*
%TD*%
%TO.C,H3*%
X134596065Y-55694692D03*
%TD*%
%TO.C,H5*%
X244126773Y-45209910D03*
%TD*%
%TO.C,H8*%
X319958703Y-102277021D03*
%TD*%
%TO.C,H2*%
X47537111Y-111802021D03*
%TD*%
D11*
%TO.C,LED17*%
X166127699Y-97243372D03*
X165277699Y-97243372D03*
X164427699Y-97243372D03*
X163577699Y-97243372D03*
%TD*%
%TO.C,LED30*%
X124007724Y-24500017D03*
X124857724Y-24500017D03*
X125707724Y-24500017D03*
X126557724Y-24500017D03*
%TD*%
D12*
%TO.C,D9*%
X207936056Y-48920554D03*
X211163944Y-48234446D03*
%TD*%
D13*
%TO.C,D44*%
X339790000Y-75060000D03*
X343090000Y-75060000D03*
%TD*%
D14*
%TO.C,SW35*%
X120797913Y-79378442D03*
D15*
X123996560Y-82655080D03*
D16*
X119027570Y-81598889D03*
X128965550Y-83711271D03*
D14*
X127537246Y-78214186D03*
D17*
X117594480Y-78697531D03*
X130767090Y-78900710D03*
%TD*%
D18*
%TO.C,R7*%
X170520000Y-81760000D03*
X170520000Y-80740000D03*
%TD*%
D15*
%TO.C,SW41*%
X263488893Y-73702021D03*
D16*
X268568893Y-73702021D03*
D14*
X259678893Y-71162021D03*
D16*
X258408893Y-73702021D03*
D14*
X266028893Y-68622021D03*
D19*
X256403893Y-71162021D03*
X269330893Y-68622021D03*
%TD*%
D20*
%TO.C,D62*%
X147928556Y-115861946D03*
X151156444Y-116548054D03*
%TD*%
D21*
%TO.C,LED9*%
X355400005Y-76725001D03*
X355400005Y-77575001D03*
X355400005Y-78425001D03*
X355400005Y-79275001D03*
%TD*%
D12*
%TO.C,D64*%
X238966056Y-104073054D03*
X242193944Y-103386946D03*
%TD*%
D22*
%TO.C,LED19*%
X109229240Y-125495957D03*
X108397814Y-125319233D03*
X107566389Y-125142508D03*
X106734963Y-124965783D03*
%TD*%
D15*
%TO.C,SW55*%
X258046203Y-92752021D03*
D14*
X260586203Y-87672021D03*
D16*
X263126203Y-92752021D03*
X252966203Y-92752021D03*
D14*
X254236203Y-90212021D03*
D19*
X250961203Y-90212021D03*
X263888203Y-87672021D03*
%TD*%
D23*
%TO.C,TS1*%
X167050000Y-82672500D03*
X160850000Y-82672500D03*
X167050000Y-86372500D03*
X160850000Y-86372500D03*
%TD*%
D13*
%TO.C,D30*%
X337440000Y-44500000D03*
X340740000Y-44500000D03*
%TD*%
D24*
%TO.C,C1*%
X162460000Y-79990000D03*
X162460000Y-80950000D03*
%TD*%
D14*
%TO.C,SW24*%
X219584868Y-54970756D03*
D16*
X213187574Y-61524033D03*
X223125554Y-59411651D03*
D15*
X218156564Y-60467842D03*
D14*
X213901726Y-58775491D03*
D25*
X210698293Y-59456401D03*
X222814711Y-54284232D03*
%TD*%
D16*
%TO.C,SW8*%
X188471525Y-47302004D03*
X178533545Y-49414386D03*
D14*
X179247697Y-46665844D03*
X184930839Y-42861109D03*
D15*
X183502535Y-48358195D03*
D25*
X176044264Y-47346754D03*
X188160682Y-42174585D03*
%TD*%
D16*
%TO.C,SW53*%
X213707838Y-100364624D03*
X223645818Y-98252242D03*
D15*
X218676828Y-99308433D03*
D14*
X214421990Y-97616082D03*
X220105132Y-93811347D03*
D25*
X211218557Y-98296992D03*
X223334975Y-93124823D03*
%TD*%
D16*
%TO.C,SW68*%
X353613703Y-111802021D03*
X343453703Y-111802021D03*
D15*
X348533703Y-111802021D03*
D14*
X344723703Y-109262021D03*
X351073703Y-106722021D03*
D19*
X341448703Y-109262021D03*
X354375703Y-106722021D03*
%TD*%
D11*
%TO.C,LED3*%
X253775005Y-24500008D03*
X254625005Y-24500008D03*
X255475005Y-24500008D03*
X256325005Y-24500008D03*
%TD*%
D13*
%TO.C,D58*%
X331030000Y-81760000D03*
X334330000Y-81760000D03*
%TD*%
D14*
%TO.C,SW15*%
X347065005Y-28295000D03*
D15*
X344525005Y-33375000D03*
D14*
X340715005Y-30835000D03*
D16*
X339445005Y-33375000D03*
X349605005Y-33375000D03*
D19*
X337440005Y-30835000D03*
X350367005Y-28295000D03*
%TD*%
D11*
%TO.C,LED5*%
X311775005Y-24500004D03*
X312625005Y-24500004D03*
X313475005Y-24500004D03*
X314325005Y-24500004D03*
%TD*%
D26*
%TO.C,D21*%
X154966444Y-58445554D03*
X151738556Y-57759446D03*
%TD*%
%TO.C,D35*%
X134011444Y-90830554D03*
X130783556Y-90144446D03*
%TD*%
D12*
%TO.C,D40*%
X246746056Y-79783054D03*
X249973944Y-79096946D03*
%TD*%
D13*
%TO.C,D3*%
X90330000Y-40957500D03*
X87030000Y-40957500D03*
%TD*%
D27*
%TO.C,C2*%
X173480000Y-81710000D03*
X173480000Y-80750000D03*
%TD*%
D13*
%TO.C,D67*%
X326050000Y-101350000D03*
X329350000Y-101350000D03*
%TD*%
D15*
%TO.C,SW63*%
X211635435Y-111841294D03*
D28*
X191449757Y-131712363D03*
D16*
X196705630Y-123454143D03*
X206643610Y-121341761D03*
D28*
X214804009Y-126748263D03*
D14*
X197419782Y-120705601D03*
X203102924Y-116900866D03*
D15*
X201674620Y-122397952D03*
X188281183Y-116805393D03*
D25*
X194216349Y-121386511D03*
X206332767Y-116214342D03*
%TD*%
D21*
%TO.C,LED24*%
X21612111Y-93616139D03*
X21612111Y-92766139D03*
X21612111Y-91916139D03*
X21612111Y-91066139D03*
%TD*%
D13*
%TO.C,D45*%
X57847500Y-81915000D03*
X54547500Y-81915000D03*
%TD*%
D16*
%TO.C,SW44*%
X353605005Y-71475001D03*
X343445005Y-71475001D03*
D14*
X351065005Y-66395001D03*
D15*
X348525005Y-71475001D03*
D14*
X344715005Y-68935001D03*
D19*
X341440005Y-68935001D03*
X354367005Y-66395001D03*
%TD*%
D14*
%TO.C,SW60*%
X64364611Y-106722021D03*
X58014611Y-109262021D03*
D16*
X66904611Y-111802021D03*
D15*
X61824611Y-111802021D03*
D16*
X56744611Y-111802021D03*
D19*
X54739611Y-109262021D03*
X67666611Y-106722021D03*
%TD*%
D13*
%TO.C,D41*%
X266410000Y-79440000D03*
X269710000Y-79440000D03*
%TD*%
D27*
%TO.C,C7*%
X177340000Y-34700000D03*
X177340000Y-33740000D03*
%TD*%
D13*
%TO.C,D43*%
X316550000Y-79390000D03*
X319850000Y-79390000D03*
%TD*%
D27*
%TO.C,C5*%
X159250000Y-76730000D03*
X159250000Y-75770000D03*
%TD*%
D14*
%TO.C,SW48*%
X114259673Y-94867539D03*
D15*
X110718987Y-99308433D03*
D16*
X105749997Y-98252242D03*
X115687977Y-100364624D03*
D14*
X107520340Y-96031795D03*
D17*
X104316907Y-95350884D03*
X117489517Y-95554063D03*
%TD*%
D16*
%TO.C,SW56*%
X282176203Y-92752021D03*
D14*
X273286203Y-90212021D03*
D16*
X272016203Y-92752021D03*
D15*
X277096203Y-92752021D03*
D14*
X279636203Y-87672021D03*
D19*
X270011203Y-90212021D03*
X282938203Y-87672021D03*
%TD*%
D13*
%TO.C,D1*%
X50420000Y-39000000D03*
X47120000Y-39000000D03*
%TD*%
D12*
%TO.C,D10*%
X226033556Y-45110554D03*
X229261444Y-44424446D03*
%TD*%
D16*
%TO.C,SW32*%
X70986921Y-73702021D03*
X60826921Y-73702021D03*
D14*
X68446921Y-68622021D03*
D15*
X65906921Y-73702021D03*
D14*
X62096921Y-71162021D03*
D19*
X58821921Y-71162021D03*
X71748921Y-68622021D03*
%TD*%
D16*
%TO.C,SW65*%
X281541203Y-111802021D03*
D14*
X282811203Y-109262021D03*
D15*
X286621203Y-111802021D03*
D14*
X289161203Y-106722021D03*
D16*
X291701203Y-111802021D03*
D19*
X279536203Y-109262021D03*
X292463203Y-106722021D03*
%TD*%
D13*
%TO.C,D14*%
X310770000Y-41410000D03*
X314070000Y-41410000D03*
%TD*%
D26*
%TO.C,D33*%
X96863944Y-83210554D03*
X93636056Y-82524446D03*
%TD*%
D14*
%TO.C,SW6*%
X140117110Y-41936942D03*
X133377777Y-43101198D03*
D16*
X131607434Y-45321645D03*
D15*
X136576424Y-46377836D03*
D16*
X141545414Y-47434027D03*
D17*
X130174344Y-42420287D03*
X143346954Y-42623466D03*
%TD*%
D16*
%TO.C,SW38*%
X200430264Y-83711271D03*
D14*
X206827558Y-77157994D03*
X201144416Y-80962729D03*
D16*
X210368244Y-81598889D03*
D15*
X205399254Y-82655080D03*
D25*
X197940983Y-81643639D03*
X210057401Y-76471470D03*
%TD*%
D14*
%TO.C,SW27*%
X279115939Y-49572021D03*
D15*
X276575939Y-54652021D03*
D16*
X281655939Y-54652021D03*
D14*
X272765939Y-52112021D03*
D16*
X271495939Y-54652021D03*
D19*
X269490939Y-52112021D03*
X282417939Y-49572021D03*
%TD*%
D29*
%TO.C,R2*%
X169010000Y-91850000D03*
X169010000Y-92870000D03*
%TD*%
D13*
%TO.C,D15*%
X338970000Y-41460000D03*
X342270000Y-41460000D03*
%TD*%
D27*
%TO.C,C10*%
X183055000Y-34700000D03*
X183055000Y-33740000D03*
%TD*%
D11*
%TO.C,LED2*%
X224775005Y-24500011D03*
X225625005Y-24500011D03*
X226475005Y-24500011D03*
X227325005Y-24500011D03*
%TD*%
D27*
%TO.C,C13*%
X188770000Y-34700000D03*
X188770000Y-33740000D03*
%TD*%
D15*
%TO.C,SW43*%
X313495143Y-73702021D03*
D28*
X325433143Y-66717021D03*
D14*
X309685143Y-71162021D03*
D16*
X308415143Y-73702021D03*
D28*
X301557143Y-66717021D03*
D15*
X325433143Y-81957021D03*
D16*
X318575143Y-73702021D03*
D15*
X301557143Y-81957021D03*
D14*
X316035143Y-68622021D03*
D19*
X306410143Y-71162021D03*
X319337143Y-68622021D03*
%TD*%
D16*
%TO.C,SW1*%
X45887724Y-35602021D03*
D14*
X43347724Y-30522021D03*
D15*
X40807724Y-35602021D03*
D14*
X36997724Y-33062021D03*
D16*
X35727724Y-35602021D03*
D19*
X33722724Y-33062021D03*
X46649724Y-30522021D03*
%TD*%
D12*
%TO.C,D52*%
X201646056Y-91753054D03*
X204873944Y-91066946D03*
%TD*%
D27*
%TO.C,C16*%
X175857500Y-31347500D03*
X175857500Y-30387500D03*
%TD*%
D13*
%TO.C,D55*%
X257250000Y-81910000D03*
X260550000Y-81910000D03*
%TD*%
D11*
%TO.C,LED21*%
X62387111Y-118677021D03*
X61537111Y-118677021D03*
X60687111Y-118677021D03*
X59837111Y-118677021D03*
%TD*%
D14*
%TO.C,SW34*%
X102164202Y-75417724D03*
D16*
X100393859Y-77638171D03*
X110331839Y-79750553D03*
D14*
X108903535Y-74253468D03*
D15*
X105362849Y-78694362D03*
D17*
X98960769Y-74736813D03*
X112133379Y-74939992D03*
%TD*%
D21*
%TO.C,LED8*%
X353400005Y-57675001D03*
X353400005Y-58525001D03*
X353400005Y-59375001D03*
X353400005Y-60225001D03*
%TD*%
D14*
%TO.C,SW7*%
X158750822Y-45897660D03*
D16*
X160179126Y-51394745D03*
D15*
X155210136Y-50338554D03*
D16*
X150241146Y-49282363D03*
D14*
X152011489Y-47061916D03*
D17*
X148808056Y-46381005D03*
X161980666Y-46584184D03*
%TD*%
D26*
%TO.C,D7*%
X163538944Y-57493054D03*
X160311056Y-56806946D03*
%TD*%
%TO.C,D18*%
X99721444Y-47015554D03*
X96493556Y-46329446D03*
%TD*%
D14*
%TO.C,SW25*%
X238218580Y-51010038D03*
D15*
X236790276Y-56507124D03*
D16*
X241759266Y-55450933D03*
D14*
X232535438Y-54814773D03*
D16*
X231821286Y-57563315D03*
D25*
X229332005Y-55495683D03*
X241448423Y-50323514D03*
%TD*%
D16*
%TO.C,SW67*%
X324403703Y-111802021D03*
D14*
X325673703Y-109262021D03*
D15*
X329483703Y-111802021D03*
D16*
X334563703Y-111802021D03*
D14*
X332023703Y-106722021D03*
D19*
X322398703Y-109262021D03*
X335325703Y-106722021D03*
%TD*%
D12*
%TO.C,D23*%
X198906056Y-53683054D03*
X202133944Y-52996946D03*
%TD*%
D13*
%TO.C,D46*%
X81660000Y-81915000D03*
X78360000Y-81915000D03*
%TD*%
D12*
%TO.C,D24*%
X220318556Y-48920554D03*
X223546444Y-48234446D03*
%TD*%
%TO.C,D11*%
X243866056Y-40353054D03*
X247093944Y-39666946D03*
%TD*%
D14*
%TO.C,SW14*%
X304040885Y-33062021D03*
D28*
X319788885Y-28617021D03*
D15*
X319788885Y-43857021D03*
X295912885Y-43857021D03*
D16*
X302770885Y-35602021D03*
D14*
X310390885Y-30522021D03*
D16*
X312930885Y-35602021D03*
D28*
X295912885Y-28617021D03*
D15*
X307850885Y-35602021D03*
D19*
X300765885Y-33062021D03*
X313692885Y-30522021D03*
%TD*%
D26*
%TO.C,D20*%
X139693944Y-51663054D03*
X136466056Y-50976946D03*
%TD*%
D27*
%TO.C,C11*%
X184960000Y-34700000D03*
X184960000Y-33740000D03*
%TD*%
D15*
%TO.C,SW18*%
X86031427Y-55109754D03*
D14*
X82832780Y-51833116D03*
D16*
X91000417Y-56165945D03*
D14*
X89572113Y-50668860D03*
D16*
X81062437Y-54053563D03*
D17*
X79629347Y-51152205D03*
X92801957Y-51355384D03*
%TD*%
D11*
%TO.C,LED31*%
X153007724Y-24500015D03*
X153857724Y-24500015D03*
X154707724Y-24500015D03*
X155557724Y-24500015D03*
%TD*%
D12*
%TO.C,D38*%
X209416056Y-87843054D03*
X212643944Y-87156946D03*
%TD*%
D14*
%TO.C,SW10*%
X216515121Y-38744408D03*
X222198263Y-34939673D03*
D16*
X215800969Y-41492950D03*
D15*
X220769959Y-40436759D03*
D16*
X225738949Y-39380568D03*
D25*
X213311688Y-39425318D03*
X225428106Y-34253149D03*
%TD*%
D13*
%TO.C,D16*%
X49080000Y-42500000D03*
X45780000Y-42500000D03*
%TD*%
%TO.C,D27*%
X273622500Y-43815000D03*
X276922500Y-43815000D03*
%TD*%
D27*
%TO.C,C9*%
X181150000Y-34700000D03*
X181150000Y-33740000D03*
%TD*%
D16*
%TO.C,SW16*%
X46476712Y-54652021D03*
D14*
X37586712Y-52112021D03*
D15*
X41396712Y-54652021D03*
D16*
X36316712Y-54652021D03*
D14*
X43936712Y-49572021D03*
D19*
X34311712Y-52112021D03*
X47238712Y-49572021D03*
%TD*%
D21*
%TO.C,LED23*%
X21612111Y-118736610D03*
X21612111Y-117886610D03*
X21612111Y-117036610D03*
X21612111Y-116186610D03*
%TD*%
D16*
%TO.C,SW11*%
X234434681Y-37532233D03*
D14*
X235148833Y-34783691D03*
X240831975Y-30978956D03*
D15*
X239403671Y-36476042D03*
D16*
X244372661Y-35419851D03*
D25*
X231945400Y-35464601D03*
X244061818Y-30292432D03*
%TD*%
D12*
%TO.C,D53*%
X219576056Y-87933054D03*
X222803944Y-87246946D03*
%TD*%
D16*
%TO.C,SW51*%
X186378395Y-106173678D03*
D14*
X177154567Y-105537518D03*
D15*
X181409405Y-107229869D03*
D14*
X182837709Y-101732783D03*
D16*
X176440415Y-108286060D03*
D25*
X173951134Y-106218428D03*
X186067552Y-101046259D03*
%TD*%
D16*
%TO.C,SW4*%
X104277990Y-39512592D03*
D14*
X96110353Y-35179763D03*
X102849686Y-34015507D03*
D15*
X99309000Y-38456401D03*
D16*
X94340010Y-37400210D03*
D17*
X92906920Y-34498852D03*
X106079530Y-34702031D03*
%TD*%
D14*
%TO.C,SW22*%
X176634302Y-66696926D03*
D15*
X180889140Y-68389277D03*
D16*
X185858130Y-67333086D03*
D14*
X182317444Y-62892191D03*
D16*
X175920150Y-69445468D03*
D25*
X173430869Y-67377836D03*
X185547287Y-62205667D03*
%TD*%
D13*
%TO.C,D60*%
X71182500Y-100965000D03*
X67882500Y-100965000D03*
%TD*%
D14*
%TO.C,SW54*%
X238738844Y-89850629D03*
X233055702Y-93655364D03*
D16*
X242279530Y-94291524D03*
X232341550Y-96403906D03*
D15*
X237310540Y-95347715D03*
D25*
X229852269Y-94336274D03*
X241968687Y-89164105D03*
%TD*%
D14*
%TO.C,SW12*%
X262765885Y-29781430D03*
X256415885Y-32321430D03*
D15*
X260225885Y-34861430D03*
D16*
X255145885Y-34861430D03*
X265305885Y-34861430D03*
D19*
X253140885Y-32321430D03*
X266067885Y-29781430D03*
%TD*%
D14*
%TO.C,SW26*%
X253715939Y-51371430D03*
D16*
X262605939Y-53911430D03*
D14*
X260065939Y-48831430D03*
D15*
X257525939Y-53911430D03*
D16*
X252445939Y-53911430D03*
D19*
X250440939Y-51371430D03*
X263367939Y-48831430D03*
%TD*%
D14*
%TO.C,SW31*%
X42253172Y-68622021D03*
D16*
X44793172Y-73702021D03*
D14*
X35903172Y-71162021D03*
D16*
X34633172Y-73702021D03*
D15*
X39713172Y-73702021D03*
D19*
X32628172Y-71162021D03*
X45555172Y-68622021D03*
%TD*%
D26*
%TO.C,D48*%
X123013944Y-90830554D03*
X119786056Y-90144446D03*
%TD*%
D21*
%TO.C,LED25*%
X25694422Y-74269860D03*
X25694422Y-73419860D03*
X25694422Y-72569860D03*
X25694422Y-71719860D03*
%TD*%
D20*
%TO.C,D61*%
X128196056Y-108736946D03*
X131423944Y-109423054D03*
%TD*%
D11*
%TO.C,LED1*%
X195775005Y-24500012D03*
X196625005Y-24500012D03*
X197475005Y-24500012D03*
X198325005Y-24500012D03*
%TD*%
%TO.C,LED29*%
X95007724Y-24500019D03*
X95857724Y-24500019D03*
X96707724Y-24500019D03*
X97557724Y-24500019D03*
%TD*%
D22*
%TO.C,LED18*%
X136531785Y-131299292D03*
X135700359Y-131122568D03*
X134868934Y-130945843D03*
X134037508Y-130769118D03*
%TD*%
D16*
%TO.C,SW21*%
X146901552Y-68048098D03*
D15*
X141932562Y-66991907D03*
D14*
X145473248Y-62551013D03*
X138733915Y-63715269D03*
D16*
X136963572Y-65935716D03*
D17*
X135530482Y-63034358D03*
X148703092Y-63237537D03*
%TD*%
D29*
%TO.C,R3*%
X160200000Y-30060000D03*
X160200000Y-31080000D03*
%TD*%
D11*
%TO.C,LED27*%
X37007724Y-24500023D03*
X37857724Y-24500023D03*
X38707724Y-24500023D03*
X39557724Y-24500023D03*
%TD*%
D15*
%TO.C,SW28*%
X295625939Y-54652021D03*
D16*
X290545939Y-54652021D03*
D14*
X298165939Y-49572021D03*
X291815939Y-52112021D03*
D16*
X300705939Y-54652021D03*
D19*
X288540939Y-52112021D03*
X301467939Y-49572021D03*
%TD*%
D30*
%TO.C,U2*%
X168610000Y-30317500D03*
X167660000Y-30317500D03*
X166710000Y-30317500D03*
X166710000Y-28042500D03*
X167660000Y-28042500D03*
X168610000Y-28042500D03*
%TD*%
D13*
%TO.C,D32*%
X77850000Y-79057500D03*
X74550000Y-79057500D03*
%TD*%
D16*
%TO.C,SW36*%
X137661282Y-85559607D03*
D15*
X142630272Y-86615798D03*
D14*
X146170958Y-82174904D03*
X139431625Y-83339160D03*
D16*
X147599262Y-87671989D03*
D17*
X136228192Y-82658249D03*
X149400802Y-82861428D03*
%TD*%
D14*
%TO.C,SW29*%
X315628439Y-52112021D03*
X321978439Y-49572021D03*
D16*
X324518439Y-54652021D03*
X314358439Y-54652021D03*
D15*
X319438439Y-54652021D03*
D19*
X312353439Y-52112021D03*
X325280439Y-49572021D03*
%TD*%
D16*
%TO.C,SW37*%
X181796553Y-87671989D03*
X191734533Y-85559607D03*
D14*
X182510705Y-84923447D03*
D15*
X186765543Y-86615798D03*
D14*
X188193847Y-81118712D03*
D25*
X179307272Y-85604357D03*
X191423690Y-80432188D03*
%TD*%
D15*
%TO.C,SW17*%
X65209211Y-54652021D03*
D16*
X60129211Y-54652021D03*
D14*
X61399211Y-52112021D03*
X67749211Y-49572021D03*
D16*
X70289211Y-54652021D03*
D19*
X58124211Y-52112021D03*
X71051211Y-49572021D03*
%TD*%
D31*
%TO.C,U4*%
X174010000Y-33837500D03*
X172110000Y-33837500D03*
X173060000Y-31962500D03*
%TD*%
D27*
%TO.C,C12*%
X186865000Y-34700000D03*
X186865000Y-33740000D03*
%TD*%
D13*
%TO.C,D2*%
X71182500Y-40957500D03*
X67882500Y-40957500D03*
%TD*%
D12*
%TO.C,D63*%
X200226056Y-111823054D03*
X203453944Y-111136946D03*
%TD*%
D11*
%TO.C,LED13*%
X295608703Y-118677021D03*
X294758703Y-118677021D03*
X293908703Y-118677021D03*
X293058703Y-118677021D03*
%TD*%
D15*
%TO.C,SW62*%
X144025693Y-125863580D03*
D14*
X147566379Y-121422686D03*
X140827046Y-122586942D03*
D16*
X148994683Y-126919771D03*
X139056703Y-124807389D03*
D17*
X137623613Y-121906031D03*
X150796223Y-122109210D03*
%TD*%
D15*
%TO.C,SW46*%
X71349611Y-92752021D03*
D16*
X76429611Y-92752021D03*
D14*
X73889611Y-87672021D03*
X67539611Y-90212021D03*
D16*
X66269611Y-92752021D03*
D19*
X64264611Y-90212021D03*
X77191611Y-87672021D03*
%TD*%
D16*
%TO.C,SW33*%
X91698127Y-75789836D03*
X81760147Y-73677454D03*
D14*
X83530490Y-71457007D03*
D15*
X86729137Y-74733645D03*
D14*
X90269823Y-70292751D03*
D17*
X80327057Y-70776096D03*
X93499667Y-70979275D03*
%TD*%
D26*
%TO.C,D47*%
X104483944Y-87020554D03*
X101256056Y-86334446D03*
%TD*%
D16*
%TO.C,SW57*%
X298209953Y-92752021D03*
D15*
X303289953Y-92752021D03*
D14*
X305829953Y-87672021D03*
X299479953Y-90212021D03*
D16*
X308369953Y-92752021D03*
D19*
X296204953Y-90212021D03*
X309131953Y-87672021D03*
%TD*%
D11*
%TO.C,LED6*%
X340775005Y-24500002D03*
X341625005Y-24500002D03*
X342475005Y-24500002D03*
X343325005Y-24500002D03*
%TD*%
%TO.C,LED20*%
X88347769Y-101325387D03*
X87497769Y-101325387D03*
X86647769Y-101325387D03*
X85797769Y-101325387D03*
%TD*%
D13*
%TO.C,D26*%
X255525000Y-43140000D03*
X258825000Y-43140000D03*
%TD*%
D15*
%TO.C,SW45*%
X52331361Y-101007021D03*
D14*
X36583361Y-90212021D03*
D28*
X52331361Y-85767021D03*
D16*
X45473361Y-92752021D03*
X35313361Y-92752021D03*
D14*
X42933361Y-87672021D03*
D15*
X28455361Y-101007021D03*
D28*
X28455361Y-85767021D03*
D15*
X40393361Y-92752021D03*
D19*
X33308361Y-90212021D03*
X46235361Y-87672021D03*
%TD*%
D13*
%TO.C,D29*%
X330040000Y-40930000D03*
X333340000Y-40930000D03*
%TD*%
D12*
%TO.C,D25*%
X236006056Y-45743054D03*
X239233944Y-45056946D03*
%TD*%
D14*
%TO.C,SW49*%
X126154052Y-99992513D03*
D16*
X124383709Y-102212960D03*
D14*
X132893385Y-98828257D03*
D15*
X129352699Y-103269151D03*
D16*
X134321689Y-104325342D03*
D17*
X122950619Y-99311602D03*
X136123229Y-99514781D03*
%TD*%
D18*
%TO.C,R1*%
X158560000Y-83150000D03*
X158560000Y-82130000D03*
%TD*%
D13*
%TO.C,D56*%
X276280000Y-82080000D03*
X279580000Y-82080000D03*
%TD*%
D14*
%TO.C,SW30*%
X342715005Y-49885001D03*
D16*
X341445005Y-52425001D03*
D15*
X346525005Y-52425001D03*
D14*
X349065005Y-47345001D03*
D16*
X351605005Y-52425001D03*
D19*
X339440005Y-49885001D03*
X352367005Y-47345001D03*
%TD*%
D26*
%TO.C,D19*%
X118143944Y-50825554D03*
X114916056Y-50139446D03*
%TD*%
%TO.C,D5*%
X127783944Y-49743054D03*
X124556056Y-49056946D03*
%TD*%
D21*
%TO.C,LED11*%
X355408703Y-117052021D03*
X355408703Y-117902021D03*
X355408703Y-118752021D03*
X355408703Y-119602021D03*
%TD*%
D26*
%TO.C,D34*%
X114961444Y-87020554D03*
X111733556Y-86334446D03*
%TD*%
D14*
%TO.C,SW64*%
X237140338Y-112872064D03*
D15*
X241395176Y-114564415D03*
D16*
X236426186Y-115620606D03*
X246364166Y-113508224D03*
D14*
X242823480Y-109067329D03*
D25*
X233936905Y-113552974D03*
X246053323Y-108380805D03*
%TD*%
D12*
%TO.C,D39*%
X227896056Y-83643054D03*
X231123944Y-82956946D03*
%TD*%
D32*
%TO.C,U3*%
X166857500Y-65900000D03*
X166857500Y-66300000D03*
X166857500Y-66700000D03*
X166857500Y-67100000D03*
X166857500Y-67500000D03*
X166857500Y-67900000D03*
X166857500Y-68300000D03*
X166857500Y-68700000D03*
X166857500Y-69100000D03*
X166857500Y-69500000D03*
X166857500Y-69900000D03*
X166857500Y-70300000D03*
X166857500Y-70700000D03*
X166857500Y-71100000D03*
D33*
X166020000Y-71937500D03*
X165620000Y-71937500D03*
X165220000Y-71937500D03*
X164820000Y-71937500D03*
X164420000Y-71937500D03*
X164020000Y-71937500D03*
X163620000Y-71937500D03*
X163220000Y-71937500D03*
X162820000Y-71937500D03*
X162420000Y-71937500D03*
X162020000Y-71937500D03*
X161620000Y-71937500D03*
X161220000Y-71937500D03*
X160820000Y-71937500D03*
D32*
X159982500Y-71100000D03*
X159982500Y-70700000D03*
X159982500Y-70300000D03*
X159982500Y-69900000D03*
X159982500Y-69500000D03*
X159982500Y-69100000D03*
X159982500Y-68700000D03*
X159982500Y-68300000D03*
X159982500Y-67900000D03*
X159982500Y-67500000D03*
X159982500Y-67100000D03*
X159982500Y-66700000D03*
X159982500Y-66300000D03*
X159982500Y-65900000D03*
D33*
X160820000Y-65062500D03*
X161220000Y-65062500D03*
X161620000Y-65062500D03*
X162020000Y-65062500D03*
X162420000Y-65062500D03*
X162820000Y-65062500D03*
X163220000Y-65062500D03*
X163620000Y-65062500D03*
X164020000Y-65062500D03*
X164420000Y-65062500D03*
X164820000Y-65062500D03*
X165220000Y-65062500D03*
X165620000Y-65062500D03*
X166020000Y-65062500D03*
D34*
X163420000Y-68500000D03*
%TD*%
D16*
%TO.C,SW66*%
X305353703Y-111802021D03*
D14*
X306623703Y-109262021D03*
D15*
X310433703Y-111802021D03*
D14*
X312973703Y-106722021D03*
D16*
X315513703Y-111802021D03*
D19*
X303348703Y-109262021D03*
X316275703Y-106722021D03*
%TD*%
D26*
%TO.C,D36*%
X149583944Y-94093054D03*
X146356056Y-93406946D03*
%TD*%
D23*
%TO.C,TS2*%
X167050000Y-89090000D03*
X160850000Y-89090000D03*
X160850000Y-92790000D03*
X167050000Y-92790000D03*
%TD*%
D27*
%TO.C,C6*%
X161155000Y-76730000D03*
X161155000Y-75770000D03*
%TD*%
D13*
%TO.C,D66*%
X311190000Y-100960000D03*
X314490000Y-100960000D03*
%TD*%
D16*
%TO.C,SW59*%
X28169611Y-111802021D03*
D15*
X33249611Y-111802021D03*
D14*
X35789611Y-106722021D03*
D16*
X38329611Y-111802021D03*
D14*
X29439611Y-109262021D03*
D19*
X26164611Y-109262021D03*
X39091611Y-106722021D03*
%TD*%
D13*
%TO.C,D65*%
X287750000Y-101020000D03*
X291050000Y-101020000D03*
%TD*%
%TO.C,D28*%
X301245000Y-43870000D03*
X304545000Y-43870000D03*
%TD*%
D11*
%TO.C,LED28*%
X66007724Y-24500021D03*
X66857724Y-24500021D03*
X67707724Y-24500021D03*
X68557724Y-24500021D03*
%TD*%
D16*
%TO.C,SW50*%
X152955400Y-108286060D03*
D14*
X151527096Y-102788975D03*
X144787763Y-103953231D03*
D15*
X147986410Y-107229869D03*
D16*
X143017420Y-106173678D03*
D17*
X141584330Y-103272320D03*
X154756940Y-103475499D03*
%TD*%
D14*
%TO.C,SW52*%
X201471420Y-97772065D03*
D16*
X195074126Y-104325342D03*
D14*
X195788278Y-101576800D03*
D15*
X200043116Y-103269151D03*
D16*
X205012106Y-102212960D03*
D25*
X192584845Y-102257710D03*
X204701263Y-97085541D03*
%TD*%
D14*
%TO.C,SW42*%
X278728893Y-71162021D03*
D16*
X277458893Y-73702021D03*
D15*
X282538893Y-73702021D03*
D16*
X287618893Y-73702021D03*
D14*
X285078893Y-68622021D03*
D19*
X275453893Y-71162021D03*
X288380893Y-68622021D03*
%TD*%
D24*
%TO.C,C3*%
X172005000Y-80750000D03*
X172005000Y-81710000D03*
%TD*%
D13*
%TO.C,D17*%
X75945000Y-43815000D03*
X72645000Y-43815000D03*
%TD*%
D16*
%TO.C,SW58*%
X334563703Y-92752021D03*
D15*
X329483703Y-92752021D03*
D14*
X325673703Y-90212021D03*
D16*
X324403703Y-92752021D03*
D14*
X332023703Y-87672021D03*
D19*
X322398703Y-90212021D03*
X335325703Y-87672021D03*
%TD*%
D11*
%TO.C,LED12*%
X337333703Y-118677021D03*
X336483703Y-118677021D03*
X335633703Y-118677021D03*
X334783703Y-118677021D03*
%TD*%
D35*
%TO.C,C17*%
X173760000Y-35530000D03*
X172800000Y-35530000D03*
%TD*%
D16*
%TO.C,SW9*%
X207105237Y-43341286D03*
X197167257Y-45453668D03*
D14*
X203564551Y-38900391D03*
D15*
X202136247Y-44397477D03*
D14*
X197881409Y-42705126D03*
D25*
X194677976Y-43386036D03*
X206794394Y-38213867D03*
%TD*%
D21*
%TO.C,LED10*%
X336350005Y-98002021D03*
X336350005Y-98852021D03*
X336350005Y-99702021D03*
X336350005Y-100552021D03*
%TD*%
D36*
%TO.C,J1*%
X171970000Y-22160000D03*
X166190000Y-22160000D03*
D37*
X165830000Y-23605000D03*
X166630000Y-23605000D03*
D38*
X167830000Y-23605000D03*
X168830000Y-23605000D03*
X169330000Y-23605000D03*
X170330000Y-23605000D03*
D37*
X171530000Y-23605000D03*
X172330000Y-23605000D03*
X172330000Y-23605000D03*
X171530000Y-23605000D03*
D38*
X170830000Y-23605000D03*
X169830000Y-23605000D03*
X168330000Y-23605000D03*
X167330000Y-23605000D03*
D37*
X166630000Y-23605000D03*
X165830000Y-23605000D03*
D39*
X173400000Y-22690000D03*
D40*
X164760000Y-18510000D03*
D39*
X164760000Y-22690000D03*
D40*
X173400000Y-18510000D03*
%TD*%
D12*
%TO.C,D54*%
X238136056Y-83903054D03*
X241363944Y-83216946D03*
%TD*%
D41*
%TO.C,U1*%
X168595000Y-51270000D03*
X169865000Y-51270000D03*
X171135000Y-51270000D03*
X172405000Y-51270000D03*
X172405000Y-58470000D03*
X171135000Y-58470000D03*
X169865000Y-58470000D03*
X168595000Y-58470000D03*
%TD*%
D16*
%TO.C,SW19*%
X109634128Y-60126662D03*
D15*
X104665138Y-59070471D03*
D16*
X99696148Y-58014280D03*
D14*
X101466491Y-55793833D03*
X108205824Y-54629577D03*
D17*
X98263058Y-55112922D03*
X111435668Y-55316101D03*
%TD*%
D26*
%TO.C,D50*%
X155083944Y-97833054D03*
X151856056Y-97146946D03*
%TD*%
D42*
%TO.C,R6*%
X165230000Y-37665000D03*
X165230000Y-39315000D03*
%TD*%
D43*
%TO.C,Y1*%
X170920000Y-83880000D03*
X173120000Y-83880000D03*
X173120000Y-85580000D03*
X170920000Y-85580000D03*
%TD*%
D29*
%TO.C,R4*%
X170950000Y-28310000D03*
X170950000Y-29330000D03*
%TD*%
D13*
%TO.C,D12*%
X264097500Y-40540000D03*
X267397500Y-40540000D03*
%TD*%
D15*
%TO.C,SW13*%
X279275885Y-35602021D03*
D14*
X281815885Y-30522021D03*
D16*
X284355885Y-35602021D03*
X274195885Y-35602021D03*
D14*
X275465885Y-33062021D03*
D19*
X272190885Y-33062021D03*
X285117885Y-30522021D03*
%TD*%
D27*
%TO.C,C15*%
X192580000Y-34700000D03*
X192580000Y-33740000D03*
%TD*%
D21*
%TO.C,LED26*%
X29759212Y-49402021D03*
X29759212Y-48552021D03*
X29759212Y-47702021D03*
X29759212Y-46852021D03*
%TD*%
D27*
%TO.C,C4*%
X157345000Y-76730000D03*
X157345000Y-75770000D03*
%TD*%
D14*
%TO.C,SW23*%
X195268014Y-62736209D03*
D16*
X204491842Y-63372369D03*
D15*
X199522852Y-64428560D03*
D16*
X194553862Y-65484751D03*
D14*
X200951156Y-58931474D03*
D25*
X192064581Y-63417119D03*
X204180999Y-58244950D03*
%TD*%
D44*
%TO.C,LED15*%
X236527744Y-122627612D03*
X235696318Y-122804337D03*
X234864893Y-122981062D03*
X234033467Y-123157786D03*
%TD*%
D14*
%TO.C,SW47*%
X95625961Y-90906821D03*
X88886628Y-92071077D03*
D16*
X97054265Y-96403906D03*
D15*
X92085275Y-95347715D03*
D16*
X87116285Y-94291524D03*
D17*
X85683195Y-91390166D03*
X98855805Y-91593345D03*
%TD*%
D26*
%TO.C,D6*%
X146943944Y-51133054D03*
X143716056Y-50446946D03*
%TD*%
D13*
%TO.C,D59*%
X42790000Y-98520000D03*
X39490000Y-98520000D03*
%TD*%
D21*
%TO.C,LED7*%
X351400005Y-38625001D03*
X351400005Y-39475001D03*
X351400005Y-40325001D03*
X351400005Y-41175001D03*
%TD*%
D12*
%TO.C,D51*%
X182276056Y-95783054D03*
X185503944Y-95096946D03*
%TD*%
D16*
%TO.C,SW2*%
X64937724Y-35602021D03*
D15*
X59857724Y-35602021D03*
D14*
X62397724Y-30522021D03*
X56047724Y-33062021D03*
D16*
X54777724Y-35602021D03*
D19*
X52772724Y-33062021D03*
X65699724Y-30522021D03*
%TD*%
D27*
%TO.C,C8*%
X179245000Y-34700000D03*
X179245000Y-33740000D03*
%TD*%
D42*
%TO.C,R5*%
X167860000Y-37725000D03*
X167860000Y-39375000D03*
%TD*%
D11*
%TO.C,LED22*%
X35237111Y-118677021D03*
X34387111Y-118677021D03*
X33537111Y-118677021D03*
X32687111Y-118677021D03*
%TD*%
D13*
%TO.C,D68*%
X327490000Y-96960000D03*
X330790000Y-96960000D03*
%TD*%
D27*
%TO.C,C14*%
X190675000Y-34700000D03*
X190675000Y-33740000D03*
%TD*%
D11*
%TO.C,LED14*%
X263989910Y-99627021D03*
X263139910Y-99627021D03*
X262289910Y-99627021D03*
X261439910Y-99627021D03*
%TD*%
D13*
%TO.C,D57*%
X306500000Y-82090000D03*
X309800000Y-82090000D03*
%TD*%
D12*
%TO.C,D22*%
X180206056Y-57443054D03*
X183433944Y-56756946D03*
%TD*%
D14*
%TO.C,SW40*%
X238411840Y-73041294D03*
D16*
X237697688Y-75789836D03*
D14*
X244094982Y-69236559D03*
D15*
X242666678Y-74733645D03*
D16*
X247635668Y-73677454D03*
D25*
X235208407Y-73722204D03*
X247324825Y-68550035D03*
%TD*%
D12*
%TO.C,D37*%
X190886056Y-91713054D03*
X194113944Y-91026946D03*
%TD*%
D11*
%TO.C,LED4*%
X282775005Y-24500006D03*
X283625005Y-24500006D03*
X284475005Y-24500006D03*
X285325005Y-24500006D03*
%TD*%
D13*
%TO.C,D42*%
X285390000Y-79480000D03*
X288690000Y-79480000D03*
%TD*%
D12*
%TO.C,D8*%
X189586056Y-50893054D03*
X192813944Y-50206946D03*
%TD*%
D16*
%TO.C,SW39*%
X219063976Y-79750553D03*
X229001956Y-77638171D03*
D14*
X219778128Y-77002011D03*
X225461270Y-73197276D03*
D15*
X224032966Y-78694362D03*
D25*
X216574695Y-77682921D03*
X228691113Y-72510752D03*
%TD*%
D45*
%TO.C,F1*%
X162620000Y-28560000D03*
X162620000Y-31360000D03*
%TD*%
D44*
%TO.C,LED16*%
X200249045Y-129729560D03*
X199417619Y-129906285D03*
X198586194Y-130083010D03*
X197754768Y-130259734D03*
%TD*%
D26*
%TO.C,D4*%
X109246444Y-46063054D03*
X106018556Y-45376946D03*
%TD*%
D16*
%TO.C,SW3*%
X73827724Y-34287539D03*
X83987724Y-34287539D03*
D14*
X75097724Y-31747539D03*
D15*
X78907724Y-34287539D03*
D14*
X81447724Y-29207539D03*
D19*
X71822724Y-31747539D03*
X84749724Y-29207539D03*
%TD*%
D13*
%TO.C,D31*%
X57847500Y-79057500D03*
X54547500Y-79057500D03*
%TD*%
D16*
%TO.C,SW5*%
X112973722Y-41360927D03*
D14*
X114744065Y-39140480D03*
X121483398Y-37976224D03*
D16*
X122911702Y-43473309D03*
D15*
X117942712Y-42417118D03*
D17*
X111540632Y-38459569D03*
X124713242Y-38662748D03*
%TD*%
D13*
%TO.C,D13*%
X282195000Y-41360000D03*
X285495000Y-41360000D03*
%TD*%
D14*
%TO.C,SW20*%
X120100203Y-59754551D03*
D16*
X118329860Y-61974998D03*
D14*
X126839536Y-58590295D03*
D15*
X123298850Y-63031189D03*
D16*
X128267840Y-64087380D03*
D17*
X116896770Y-59073640D03*
X130069380Y-59276819D03*
%TD*%
D26*
%TO.C,D49*%
X141303944Y-94933054D03*
X138076056Y-94246946D03*
%TD*%
D15*
%TO.C,SW61*%
X113745911Y-119427414D03*
D16*
X108776921Y-118371223D03*
D14*
X110547264Y-116150776D03*
X117286597Y-114986520D03*
D28*
X123970774Y-128741825D03*
D15*
X127139348Y-113834855D03*
X103785096Y-108870756D03*
D16*
X118714901Y-120483605D03*
D28*
X100616522Y-123777725D03*
D17*
X107343831Y-115469865D03*
X120516441Y-115673044D03*
%TD*%
M02*
