%TF.GenerationSoftware,KiCad,Pcbnew,(6.0.9)*%
%TF.CreationDate,2023-01-04T06:44:43+09:00*%
%TF.ProjectId,Skeleton68rev2,536b656c-6574-46f6-9e36-38726576322e,rev?*%
%TF.SameCoordinates,Original*%
%TF.FileFunction,Soldermask,Top*%
%TF.FilePolarity,Negative*%
%FSLAX46Y46*%
G04 Gerber Fmt 4.6, Leading zero omitted, Abs format (unit mm)*
G04 Created by KiCad (PCBNEW (6.0.9)) date 2023-01-04 06:44:43*
%MOMM*%
%LPD*%
G01*
G04 APERTURE LIST*
%ADD10C,4.400000*%
%ADD11C,0.700000*%
%ADD12C,2.000000*%
%ADD13C,3.000000*%
%ADD14C,3.987800*%
%ADD15C,1.701800*%
%ADD16C,3.048000*%
%ADD17C,0.650000*%
%ADD18O,1.000000X2.100000*%
%ADD19O,1.000000X1.600000*%
G04 APERTURE END LIST*
D10*
%TO.C,H6*%
X225315600Y-107635100D03*
D11*
X226965600Y-107635100D03*
X225315600Y-109285100D03*
X226482326Y-106468374D03*
X225315600Y-105985100D03*
X226482326Y-108801826D03*
X223665600Y-107635100D03*
X224148874Y-106468374D03*
X224148874Y-108801826D03*
%TD*%
%TO.C,H4*%
X136689200Y-112916400D03*
X135522474Y-113399674D03*
X138339200Y-114566400D03*
X136689200Y-116216400D03*
X137855926Y-113399674D03*
X135522474Y-115733126D03*
D10*
X136689200Y-114566400D03*
D11*
X135039200Y-114566400D03*
X137855926Y-115733126D03*
%TD*%
%TO.C,H1*%
X55684200Y-43477000D03*
X57334200Y-45127000D03*
X56850926Y-46293726D03*
X54517474Y-46293726D03*
X54517474Y-43960274D03*
D10*
X55684200Y-45127000D03*
D11*
X54034200Y-45127000D03*
X55684200Y-46777000D03*
X56850926Y-43960274D03*
%TD*%
%TO.C,H7*%
X325250900Y-45127000D03*
X326900900Y-43477000D03*
X328550900Y-45127000D03*
D10*
X326900900Y-45127000D03*
D11*
X328067626Y-46293726D03*
X326900900Y-46777000D03*
X325734174Y-46293726D03*
X325734174Y-43960274D03*
X328067626Y-43960274D03*
%TD*%
D12*
%TO.C,FID3*%
X359570000Y-30870000D03*
%TD*%
%TO.C,FID2*%
X17330000Y-26810000D03*
%TD*%
D11*
%TO.C,H3*%
X132946100Y-55694700D03*
X135762826Y-54527974D03*
X133429374Y-54527974D03*
X135762826Y-56861426D03*
X133429374Y-56861426D03*
X134596100Y-54044700D03*
X136246100Y-55694700D03*
X134596100Y-57344700D03*
D10*
X134596100Y-55694700D03*
%TD*%
D12*
%TO.C,FID1*%
X17540000Y-121740000D03*
%TD*%
D11*
%TO.C,H5*%
X245776800Y-45209900D03*
X242476800Y-45209900D03*
X242960074Y-46376626D03*
D10*
X244126800Y-45209900D03*
D11*
X244126800Y-43559900D03*
X245293526Y-46376626D03*
X244126800Y-46859900D03*
X245293526Y-44043174D03*
X242960074Y-44043174D03*
%TD*%
D12*
%TO.C,FID4*%
X359570000Y-123160000D03*
%TD*%
D11*
%TO.C,H8*%
X318791974Y-101110274D03*
X319958700Y-100627000D03*
X321125426Y-101110274D03*
X318791974Y-103443726D03*
X318308700Y-102277000D03*
D10*
X319958700Y-102277000D03*
D11*
X319958700Y-103927000D03*
X321608700Y-102277000D03*
X321125426Y-103443726D03*
%TD*%
%TO.C,H2*%
X48703826Y-110635274D03*
X46370374Y-110635274D03*
X49187100Y-111802000D03*
X45887100Y-111802000D03*
X47537100Y-110152000D03*
D10*
X47537100Y-111802000D03*
D11*
X46370374Y-112968726D03*
X47537100Y-113452000D03*
X48703826Y-112968726D03*
%TD*%
D13*
%TO.C,SW35*%
X120797953Y-79378462D03*
D14*
X123996600Y-82655100D03*
D15*
X119027610Y-81598909D03*
X128965590Y-83711291D03*
D13*
X127537286Y-78214206D03*
%TD*%
D14*
%TO.C,SW41*%
X263488900Y-73702000D03*
D15*
X268568900Y-73702000D03*
D13*
X259678900Y-71162000D03*
D15*
X258408900Y-73702000D03*
D13*
X266028900Y-68622000D03*
%TD*%
D14*
%TO.C,SW55*%
X258046200Y-92752000D03*
D13*
X260586200Y-87672000D03*
D15*
X263126200Y-92752000D03*
X252966200Y-92752000D03*
D13*
X254236200Y-90212000D03*
%TD*%
%TO.C,SW24*%
X219584904Y-54970714D03*
D15*
X213187610Y-61523991D03*
X223125590Y-59411609D03*
D14*
X218156600Y-60467800D03*
D13*
X213901762Y-58775449D03*
%TD*%
D15*
%TO.C,SW8*%
X188471490Y-47302009D03*
X178533510Y-49414391D03*
D13*
X179247662Y-46665849D03*
X184930804Y-42861114D03*
D14*
X183502500Y-48358200D03*
%TD*%
D15*
%TO.C,SW53*%
X213707810Y-100364591D03*
X223645790Y-98252209D03*
D14*
X218676800Y-99308400D03*
D13*
X214421962Y-97616049D03*
X220105104Y-93811314D03*
%TD*%
D15*
%TO.C,SW68*%
X353613700Y-111802000D03*
X343453700Y-111802000D03*
D14*
X348533700Y-111802000D03*
D13*
X344723700Y-109262000D03*
X351073700Y-106722000D03*
%TD*%
%TO.C,SW15*%
X347065000Y-28295000D03*
D14*
X344525000Y-33375000D03*
D13*
X340715000Y-30835000D03*
D15*
X339445000Y-33375000D03*
X349605000Y-33375000D03*
%TD*%
D14*
%TO.C,SW63*%
X211635415Y-111841342D03*
D16*
X191449737Y-131712411D03*
D15*
X196705610Y-123454191D03*
X206643590Y-121341809D03*
D16*
X214803989Y-126748311D03*
D13*
X197419762Y-120705649D03*
X203102904Y-116900914D03*
D14*
X201674600Y-122398000D03*
X188281163Y-116805441D03*
%TD*%
D15*
%TO.C,SW44*%
X353605000Y-71475000D03*
X343445000Y-71475000D03*
D13*
X351065000Y-66395000D03*
D14*
X348525000Y-71475000D03*
D13*
X344715000Y-68935000D03*
%TD*%
%TO.C,SW60*%
X64364600Y-106722000D03*
X58014600Y-109262000D03*
D15*
X66904600Y-111802000D03*
D14*
X61824600Y-111802000D03*
D15*
X56744600Y-111802000D03*
%TD*%
D13*
%TO.C,SW48*%
X114259686Y-94867506D03*
D14*
X110719000Y-99308400D03*
D15*
X105750010Y-98252209D03*
X115687990Y-100364591D03*
D13*
X107520353Y-96031762D03*
%TD*%
D15*
%TO.C,SW56*%
X282176200Y-92752000D03*
D13*
X273286200Y-90212000D03*
D15*
X272016200Y-92752000D03*
D14*
X277096200Y-92752000D03*
D13*
X279636200Y-87672000D03*
%TD*%
D15*
%TO.C,SW32*%
X70986900Y-73702000D03*
X60826900Y-73702000D03*
D13*
X68446900Y-68622000D03*
D14*
X65906900Y-73702000D03*
D13*
X62096900Y-71162000D03*
%TD*%
D15*
%TO.C,SW65*%
X281541200Y-111802000D03*
D13*
X282811200Y-109262000D03*
D14*
X286621200Y-111802000D03*
D13*
X289161200Y-106722000D03*
D15*
X291701200Y-111802000D03*
%TD*%
D13*
%TO.C,SW6*%
X140117086Y-41936906D03*
X133377753Y-43101162D03*
D15*
X131607410Y-45321609D03*
D14*
X136576400Y-46377800D03*
D15*
X141545390Y-47433991D03*
%TD*%
%TO.C,SW38*%
X200430310Y-83711291D03*
D13*
X206827604Y-77158014D03*
X201144462Y-80962749D03*
D15*
X210368290Y-81598909D03*
D14*
X205399300Y-82655100D03*
%TD*%
D13*
%TO.C,SW27*%
X279115900Y-49572000D03*
D14*
X276575900Y-54652000D03*
D15*
X281655900Y-54652000D03*
D13*
X272765900Y-52112000D03*
D15*
X271495900Y-54652000D03*
%TD*%
D14*
%TO.C,SW43*%
X313495100Y-73702000D03*
D16*
X325433100Y-66717000D03*
D13*
X309685100Y-71162000D03*
D15*
X308415100Y-73702000D03*
D16*
X301557100Y-66717000D03*
D14*
X325433100Y-81957000D03*
D15*
X318575100Y-73702000D03*
D14*
X301557100Y-81957000D03*
D13*
X316035100Y-68622000D03*
%TD*%
D15*
%TO.C,SW1*%
X45887700Y-35602000D03*
D13*
X43347700Y-30522000D03*
D14*
X40807700Y-35602000D03*
D13*
X36997700Y-33062000D03*
D15*
X35727700Y-35602000D03*
%TD*%
D13*
%TO.C,SW34*%
X102164153Y-75417762D03*
D15*
X100393810Y-77638209D03*
X110331790Y-79750591D03*
D13*
X108903486Y-74253506D03*
D14*
X105362800Y-78694400D03*
%TD*%
D13*
%TO.C,SW7*%
X158750786Y-45897706D03*
D15*
X160179090Y-51394791D03*
D14*
X155210100Y-50338600D03*
D15*
X150241110Y-49282409D03*
D13*
X152011453Y-47061962D03*
%TD*%
%TO.C,SW25*%
X238218604Y-51010014D03*
D14*
X236790300Y-56507100D03*
D15*
X241759290Y-55450909D03*
D13*
X232535462Y-54814749D03*
D15*
X231821310Y-57563291D03*
%TD*%
%TO.C,SW67*%
X324403700Y-111802000D03*
D13*
X325673700Y-109262000D03*
D14*
X329483700Y-111802000D03*
D15*
X334563700Y-111802000D03*
D13*
X332023700Y-106722000D03*
%TD*%
%TO.C,SW14*%
X304040900Y-33062000D03*
D16*
X319788900Y-28617000D03*
D14*
X319788900Y-43857000D03*
X295912900Y-43857000D03*
D15*
X302770900Y-35602000D03*
D13*
X310390900Y-30522000D03*
D15*
X312930900Y-35602000D03*
D16*
X295912900Y-28617000D03*
D14*
X307850900Y-35602000D03*
%TD*%
%TO.C,SW18*%
X86031400Y-55109800D03*
D13*
X82832753Y-51833162D03*
D15*
X91000390Y-56165991D03*
D13*
X89572086Y-50668906D03*
D15*
X81062410Y-54053609D03*
%TD*%
D13*
%TO.C,SW10*%
X216515162Y-38744449D03*
X222198304Y-34939714D03*
D15*
X215801010Y-41492991D03*
D14*
X220770000Y-40436800D03*
D15*
X225738990Y-39380609D03*
%TD*%
%TO.C,SW16*%
X46476700Y-54652000D03*
D13*
X37586700Y-52112000D03*
D14*
X41396700Y-54652000D03*
D15*
X36316700Y-54652000D03*
D13*
X43936700Y-49572000D03*
%TD*%
D15*
%TO.C,SW11*%
X234434710Y-37532191D03*
D13*
X235148862Y-34783649D03*
X240832004Y-30978914D03*
D14*
X239403700Y-36476000D03*
D15*
X244372690Y-35419809D03*
%TD*%
%TO.C,SW51*%
X186378390Y-106173709D03*
D13*
X177154562Y-105537549D03*
D14*
X181409400Y-107229900D03*
D13*
X182837704Y-101732814D03*
D15*
X176440410Y-108286091D03*
%TD*%
%TO.C,SW4*%
X104277990Y-39512591D03*
D13*
X96110353Y-35179762D03*
X102849686Y-34015506D03*
D14*
X99309000Y-38456400D03*
D15*
X94340010Y-37400209D03*
%TD*%
D13*
%TO.C,SW22*%
X176634262Y-66696949D03*
D14*
X180889100Y-68389300D03*
D15*
X185858090Y-67333109D03*
D13*
X182317404Y-62892214D03*
D15*
X175920110Y-69445491D03*
%TD*%
D13*
%TO.C,SW54*%
X238738804Y-89850614D03*
X233055662Y-93655349D03*
D15*
X242279490Y-94291509D03*
X232341510Y-96403891D03*
D14*
X237310500Y-95347700D03*
%TD*%
D13*
%TO.C,SW12*%
X262765900Y-29781400D03*
X256415900Y-32321400D03*
D14*
X260225900Y-34861400D03*
D15*
X255145900Y-34861400D03*
X265305900Y-34861400D03*
%TD*%
D13*
%TO.C,SW26*%
X253715900Y-51371400D03*
D15*
X262605900Y-53911400D03*
D13*
X260065900Y-48831400D03*
D14*
X257525900Y-53911400D03*
D15*
X252445900Y-53911400D03*
%TD*%
D13*
%TO.C,SW31*%
X42253200Y-68622000D03*
D15*
X44793200Y-73702000D03*
D13*
X35903200Y-71162000D03*
D15*
X34633200Y-73702000D03*
D14*
X39713200Y-73702000D03*
%TD*%
D15*
%TO.C,SW21*%
X146901590Y-68048091D03*
D14*
X141932600Y-66991900D03*
D13*
X145473286Y-62551006D03*
X138733953Y-63715262D03*
D15*
X136963610Y-65935709D03*
%TD*%
D14*
%TO.C,SW28*%
X295625900Y-54652000D03*
D15*
X290545900Y-54652000D03*
D13*
X298165900Y-49572000D03*
X291815900Y-52112000D03*
D15*
X300705900Y-54652000D03*
%TD*%
%TO.C,SW36*%
X137661310Y-85559609D03*
D14*
X142630300Y-86615800D03*
D13*
X146170986Y-82174906D03*
X139431653Y-83339162D03*
D15*
X147599290Y-87671991D03*
%TD*%
D13*
%TO.C,SW29*%
X315628400Y-52112000D03*
X321978400Y-49572000D03*
D15*
X324518400Y-54652000D03*
X314358400Y-54652000D03*
D14*
X319438400Y-54652000D03*
%TD*%
D15*
%TO.C,SW37*%
X181796510Y-87671991D03*
X191734490Y-85559609D03*
D13*
X182510662Y-84923449D03*
D14*
X186765500Y-86615800D03*
D13*
X188193804Y-81118714D03*
%TD*%
D14*
%TO.C,SW17*%
X65209200Y-54652000D03*
D15*
X60129200Y-54652000D03*
D13*
X61399200Y-52112000D03*
X67749200Y-49572000D03*
D15*
X70289200Y-54652000D03*
%TD*%
D14*
%TO.C,SW62*%
X144025700Y-125863600D03*
D13*
X147566386Y-121422706D03*
X140827053Y-122586962D03*
D15*
X148994690Y-126919791D03*
X139056710Y-124807409D03*
%TD*%
D14*
%TO.C,SW46*%
X71349600Y-92752000D03*
D15*
X76429600Y-92752000D03*
D13*
X73889600Y-87672000D03*
X67539600Y-90212000D03*
D15*
X66269600Y-92752000D03*
%TD*%
%TO.C,SW33*%
X91698090Y-75789791D03*
X81760110Y-73677409D03*
D13*
X83530453Y-71456962D03*
D14*
X86729100Y-74733600D03*
D13*
X90269786Y-70292706D03*
%TD*%
D15*
%TO.C,SW57*%
X298210000Y-92752000D03*
D14*
X303290000Y-92752000D03*
D13*
X305830000Y-87672000D03*
X299480000Y-90212000D03*
D15*
X308370000Y-92752000D03*
%TD*%
D14*
%TO.C,SW45*%
X52331400Y-101007000D03*
D13*
X36583400Y-90212000D03*
D16*
X52331400Y-85767000D03*
D15*
X45473400Y-92752000D03*
X35313400Y-92752000D03*
D13*
X42933400Y-87672000D03*
D14*
X28455400Y-101007000D03*
D16*
X28455400Y-85767000D03*
D14*
X40393400Y-92752000D03*
%TD*%
D13*
%TO.C,SW49*%
X126154053Y-99992562D03*
D15*
X124383710Y-102213009D03*
D13*
X132893386Y-98828306D03*
D14*
X129352700Y-103269200D03*
D15*
X134321690Y-104325391D03*
%TD*%
D13*
%TO.C,SW30*%
X342715000Y-49885000D03*
D15*
X341445000Y-52425000D03*
D14*
X346525000Y-52425000D03*
D13*
X349065000Y-47345000D03*
D15*
X351605000Y-52425000D03*
%TD*%
D13*
%TO.C,SW64*%
X237140362Y-112872049D03*
D14*
X241395200Y-114564400D03*
D15*
X236426210Y-115620591D03*
X246364190Y-113508209D03*
D13*
X242823504Y-109067314D03*
%TD*%
D15*
%TO.C,SW66*%
X305353700Y-111802000D03*
D13*
X306623700Y-109262000D03*
D14*
X310433700Y-111802000D03*
D13*
X312973700Y-106722000D03*
D15*
X315513700Y-111802000D03*
%TD*%
%TO.C,SW59*%
X28169600Y-111802000D03*
D14*
X33249600Y-111802000D03*
D13*
X35789600Y-106722000D03*
D15*
X38329600Y-111802000D03*
D13*
X29439600Y-109262000D03*
%TD*%
D15*
%TO.C,SW50*%
X152955390Y-108286091D03*
D13*
X151527086Y-102789006D03*
X144787753Y-103953262D03*
D14*
X147986400Y-107229900D03*
D15*
X143017410Y-106173709D03*
%TD*%
D13*
%TO.C,SW52*%
X201471404Y-97772114D03*
D15*
X195074110Y-104325391D03*
D13*
X195788262Y-101576849D03*
D14*
X200043100Y-103269200D03*
D15*
X205012090Y-102213009D03*
%TD*%
D13*
%TO.C,SW42*%
X278728900Y-71162000D03*
D15*
X277458900Y-73702000D03*
D14*
X282538900Y-73702000D03*
D15*
X287618900Y-73702000D03*
D13*
X285078900Y-68622000D03*
%TD*%
D15*
%TO.C,SW58*%
X334563700Y-92752000D03*
D14*
X329483700Y-92752000D03*
D13*
X325673700Y-90212000D03*
D15*
X324403700Y-92752000D03*
D13*
X332023700Y-87672000D03*
%TD*%
D15*
%TO.C,SW9*%
X207105190Y-43341309D03*
X197167210Y-45453691D03*
D13*
X203564504Y-38900414D03*
D14*
X202136200Y-44397500D03*
D13*
X197881362Y-42705149D03*
%TD*%
D17*
%TO.C,J1*%
X171970000Y-22160000D03*
X166190000Y-22160000D03*
D18*
X173400000Y-22690000D03*
D19*
X164760000Y-18510000D03*
D18*
X164760000Y-22690000D03*
D19*
X173400000Y-18510000D03*
%TD*%
D15*
%TO.C,SW19*%
X109634090Y-60126691D03*
D14*
X104665100Y-59070500D03*
D15*
X99696110Y-58014309D03*
D13*
X101466453Y-55793862D03*
X108205786Y-54629606D03*
%TD*%
D14*
%TO.C,SW13*%
X279275900Y-35602000D03*
D13*
X281815900Y-30522000D03*
D15*
X284355900Y-35602000D03*
X274195900Y-35602000D03*
D13*
X275465900Y-33062000D03*
%TD*%
%TO.C,SW23*%
X195268062Y-62736249D03*
D15*
X204491890Y-63372409D03*
D14*
X199522900Y-64428600D03*
D15*
X194553910Y-65484791D03*
D13*
X200951204Y-58931514D03*
%TD*%
%TO.C,SW47*%
X95625986Y-90906806D03*
X88886653Y-92071062D03*
D15*
X97054290Y-96403891D03*
D14*
X92085300Y-95347700D03*
D15*
X87116310Y-94291509D03*
%TD*%
%TO.C,SW2*%
X64937700Y-35602000D03*
D14*
X59857700Y-35602000D03*
D13*
X62397700Y-30522000D03*
X56047700Y-33062000D03*
D15*
X54777700Y-35602000D03*
%TD*%
D13*
%TO.C,SW40*%
X238411862Y-73041249D03*
D15*
X237697710Y-75789791D03*
D13*
X244095004Y-69236514D03*
D14*
X242666700Y-74733600D03*
D15*
X247635690Y-73677409D03*
%TD*%
%TO.C,SW39*%
X219064010Y-79750591D03*
X229001990Y-77638209D03*
D13*
X219778162Y-77002049D03*
X225461304Y-73197314D03*
D14*
X224033000Y-78694400D03*
%TD*%
D15*
%TO.C,SW3*%
X73827700Y-34287500D03*
X83987700Y-34287500D03*
D13*
X75097700Y-31747500D03*
D14*
X78907700Y-34287500D03*
D13*
X81447700Y-29207500D03*
%TD*%
D15*
%TO.C,SW5*%
X112973710Y-41360909D03*
D13*
X114744053Y-39140462D03*
X121483386Y-37976206D03*
D15*
X122911690Y-43473291D03*
D14*
X117942700Y-42417100D03*
%TD*%
D13*
%TO.C,SW20*%
X120100253Y-59754562D03*
D15*
X118329910Y-61975009D03*
D13*
X126839586Y-58590306D03*
D14*
X123298900Y-63031200D03*
D15*
X128267890Y-64087391D03*
%TD*%
D14*
%TO.C,SW61*%
X113745900Y-119427400D03*
D15*
X108776910Y-118371209D03*
D13*
X110547253Y-116150762D03*
X117286586Y-114986506D03*
D16*
X123970763Y-128741811D03*
D14*
X127139337Y-113834841D03*
X103785085Y-108870742D03*
D15*
X118714890Y-120483591D03*
D16*
X100616511Y-123777711D03*
%TD*%
M02*
