%TF.GenerationSoftware,KiCad,Pcbnew,(6.0.9)*%
%TF.CreationDate,2023-01-04T06:44:43+09:00*%
%TF.ProjectId,Skeleton68rev2,536b656c-6574-46f6-9e36-38726576322e,rev?*%
%TF.SameCoordinates,Original*%
%TF.FileFunction,Other,Comment*%
%FSLAX46Y46*%
G04 Gerber Fmt 4.6, Leading zero omitted, Abs format (unit mm)*
G04 Created by KiCad (PCBNEW (6.0.9)) date 2023-01-04 06:44:43*
%MOMM*%
%LPD*%
G01*
G04 APERTURE LIST*
%ADD10C,0.030000*%
%ADD11C,0.150000*%
%ADD12C,0.120000*%
G04 APERTURE END LIST*
D10*
%TO.C,TS1*%
X165819047Y-86900476D02*
X165819047Y-86700476D01*
X165933333Y-86900476D01*
X165933333Y-86700476D01*
X166057142Y-86900476D02*
X166038095Y-86890952D01*
X166028571Y-86881428D01*
X166019047Y-86862380D01*
X166019047Y-86805238D01*
X166028571Y-86786190D01*
X166038095Y-86776666D01*
X166057142Y-86767142D01*
X166085714Y-86767142D01*
X166104761Y-86776666D01*
X166114285Y-86786190D01*
X166123809Y-86805238D01*
X166123809Y-86862380D01*
X166114285Y-86881428D01*
X166104761Y-86890952D01*
X166085714Y-86900476D01*
X166057142Y-86900476D01*
X166428571Y-86795714D02*
X166361904Y-86795714D01*
X166361904Y-86900476D02*
X166361904Y-86700476D01*
X166457142Y-86700476D01*
X166533333Y-86881428D02*
X166542857Y-86890952D01*
X166533333Y-86900476D01*
X166523809Y-86890952D01*
X166533333Y-86881428D01*
X166533333Y-86900476D01*
X166742857Y-86881428D02*
X166733333Y-86890952D01*
X166704761Y-86900476D01*
X166685714Y-86900476D01*
X166657142Y-86890952D01*
X166638095Y-86871904D01*
X166628571Y-86852857D01*
X166619047Y-86814761D01*
X166619047Y-86786190D01*
X166628571Y-86748095D01*
X166638095Y-86729047D01*
X166657142Y-86710000D01*
X166685714Y-86700476D01*
X166704761Y-86700476D01*
X166733333Y-86710000D01*
X166742857Y-86719523D01*
X166914285Y-86767142D02*
X166914285Y-86900476D01*
X166828571Y-86767142D02*
X166828571Y-86871904D01*
X166838095Y-86890952D01*
X166857142Y-86900476D01*
X166885714Y-86900476D01*
X166904761Y-86890952D01*
X166914285Y-86881428D01*
X167133333Y-86767142D02*
X167209523Y-86767142D01*
X167161904Y-86700476D02*
X167161904Y-86871904D01*
X167171428Y-86890952D01*
X167190476Y-86900476D01*
X167209523Y-86900476D01*
X167276190Y-86900476D02*
X167276190Y-86767142D01*
X167276190Y-86805238D02*
X167285714Y-86786190D01*
X167295238Y-86776666D01*
X167314285Y-86767142D01*
X167333333Y-86767142D01*
X167485714Y-86900476D02*
X167485714Y-86795714D01*
X167476190Y-86776666D01*
X167457142Y-86767142D01*
X167419047Y-86767142D01*
X167400000Y-86776666D01*
X167485714Y-86890952D02*
X167466666Y-86900476D01*
X167419047Y-86900476D01*
X167400000Y-86890952D01*
X167390476Y-86871904D01*
X167390476Y-86852857D01*
X167400000Y-86833809D01*
X167419047Y-86824285D01*
X167466666Y-86824285D01*
X167485714Y-86814761D01*
X167666666Y-86890952D02*
X167647619Y-86900476D01*
X167609523Y-86900476D01*
X167590476Y-86890952D01*
X167580952Y-86881428D01*
X167571428Y-86862380D01*
X167571428Y-86805238D01*
X167580952Y-86786190D01*
X167590476Y-86776666D01*
X167609523Y-86767142D01*
X167647619Y-86767142D01*
X167666666Y-86776666D01*
X167752380Y-86900476D02*
X167752380Y-86700476D01*
X167771428Y-86824285D02*
X167828571Y-86900476D01*
X167828571Y-86767142D02*
X167752380Y-86843333D01*
X167904761Y-86890952D02*
X167923809Y-86900476D01*
X167961904Y-86900476D01*
X167980952Y-86890952D01*
X167990476Y-86871904D01*
X167990476Y-86862380D01*
X167980952Y-86843333D01*
X167961904Y-86833809D01*
X167933333Y-86833809D01*
X167914285Y-86824285D01*
X167904761Y-86805238D01*
X167904761Y-86795714D01*
X167914285Y-86776666D01*
X167933333Y-86767142D01*
X167961904Y-86767142D01*
X167980952Y-86776666D01*
X160685714Y-86500476D02*
X160685714Y-86300476D01*
X160800000Y-86500476D02*
X160714285Y-86386190D01*
X160800000Y-86300476D02*
X160685714Y-86414761D01*
X160885714Y-86395714D02*
X160952380Y-86395714D01*
X160980952Y-86500476D02*
X160885714Y-86500476D01*
X160885714Y-86300476D01*
X160980952Y-86300476D01*
X161066666Y-86395714D02*
X161133333Y-86395714D01*
X161161904Y-86500476D02*
X161066666Y-86500476D01*
X161066666Y-86300476D01*
X161161904Y-86300476D01*
X161247619Y-86500476D02*
X161247619Y-86300476D01*
X161323809Y-86300476D01*
X161342857Y-86310000D01*
X161352380Y-86319523D01*
X161361904Y-86338571D01*
X161361904Y-86367142D01*
X161352380Y-86386190D01*
X161342857Y-86395714D01*
X161323809Y-86405238D01*
X161247619Y-86405238D01*
X161447619Y-86424285D02*
X161600000Y-86424285D01*
X161733333Y-86300476D02*
X161771428Y-86300476D01*
X161790476Y-86310000D01*
X161809523Y-86329047D01*
X161819047Y-86367142D01*
X161819047Y-86433809D01*
X161809523Y-86471904D01*
X161790476Y-86490952D01*
X161771428Y-86500476D01*
X161733333Y-86500476D01*
X161714285Y-86490952D01*
X161695238Y-86471904D01*
X161685714Y-86433809D01*
X161685714Y-86367142D01*
X161695238Y-86329047D01*
X161714285Y-86310000D01*
X161733333Y-86300476D01*
X161904761Y-86300476D02*
X161904761Y-86462380D01*
X161914285Y-86481428D01*
X161923809Y-86490952D01*
X161942857Y-86500476D01*
X161980952Y-86500476D01*
X162000000Y-86490952D01*
X162009523Y-86481428D01*
X162019047Y-86462380D01*
X162019047Y-86300476D01*
X162085714Y-86300476D02*
X162200000Y-86300476D01*
X162142857Y-86500476D02*
X162142857Y-86300476D01*
X162400000Y-86300476D02*
X162533333Y-86300476D01*
X162400000Y-86500476D01*
X162533333Y-86500476D01*
X162647619Y-86300476D02*
X162685714Y-86300476D01*
X162704761Y-86310000D01*
X162723809Y-86329047D01*
X162733333Y-86367142D01*
X162733333Y-86433809D01*
X162723809Y-86471904D01*
X162704761Y-86490952D01*
X162685714Y-86500476D01*
X162647619Y-86500476D01*
X162628571Y-86490952D01*
X162609523Y-86471904D01*
X162600000Y-86433809D01*
X162600000Y-86367142D01*
X162609523Y-86329047D01*
X162628571Y-86310000D01*
X162647619Y-86300476D01*
X162819047Y-86500476D02*
X162819047Y-86300476D01*
X162933333Y-86500476D01*
X162933333Y-86300476D01*
X163028571Y-86395714D02*
X163095238Y-86395714D01*
X163123809Y-86500476D02*
X163028571Y-86500476D01*
X163028571Y-86300476D01*
X163123809Y-86300476D01*
X165685714Y-86500476D02*
X165685714Y-86300476D01*
X165800000Y-86500476D02*
X165714285Y-86386190D01*
X165800000Y-86300476D02*
X165685714Y-86414761D01*
X165885714Y-86395714D02*
X165952380Y-86395714D01*
X165980952Y-86500476D02*
X165885714Y-86500476D01*
X165885714Y-86300476D01*
X165980952Y-86300476D01*
X166066666Y-86395714D02*
X166133333Y-86395714D01*
X166161904Y-86500476D02*
X166066666Y-86500476D01*
X166066666Y-86300476D01*
X166161904Y-86300476D01*
X166247619Y-86500476D02*
X166247619Y-86300476D01*
X166323809Y-86300476D01*
X166342857Y-86310000D01*
X166352380Y-86319523D01*
X166361904Y-86338571D01*
X166361904Y-86367142D01*
X166352380Y-86386190D01*
X166342857Y-86395714D01*
X166323809Y-86405238D01*
X166247619Y-86405238D01*
X166447619Y-86424285D02*
X166600000Y-86424285D01*
X166733333Y-86300476D02*
X166771428Y-86300476D01*
X166790476Y-86310000D01*
X166809523Y-86329047D01*
X166819047Y-86367142D01*
X166819047Y-86433809D01*
X166809523Y-86471904D01*
X166790476Y-86490952D01*
X166771428Y-86500476D01*
X166733333Y-86500476D01*
X166714285Y-86490952D01*
X166695238Y-86471904D01*
X166685714Y-86433809D01*
X166685714Y-86367142D01*
X166695238Y-86329047D01*
X166714285Y-86310000D01*
X166733333Y-86300476D01*
X166904761Y-86300476D02*
X166904761Y-86462380D01*
X166914285Y-86481428D01*
X166923809Y-86490952D01*
X166942857Y-86500476D01*
X166980952Y-86500476D01*
X167000000Y-86490952D01*
X167009523Y-86481428D01*
X167019047Y-86462380D01*
X167019047Y-86300476D01*
X167085714Y-86300476D02*
X167200000Y-86300476D01*
X167142857Y-86500476D02*
X167142857Y-86300476D01*
X167400000Y-86300476D02*
X167533333Y-86300476D01*
X167400000Y-86500476D01*
X167533333Y-86500476D01*
X167647619Y-86300476D02*
X167685714Y-86300476D01*
X167704761Y-86310000D01*
X167723809Y-86329047D01*
X167733333Y-86367142D01*
X167733333Y-86433809D01*
X167723809Y-86471904D01*
X167704761Y-86490952D01*
X167685714Y-86500476D01*
X167647619Y-86500476D01*
X167628571Y-86490952D01*
X167609523Y-86471904D01*
X167600000Y-86433809D01*
X167600000Y-86367142D01*
X167609523Y-86329047D01*
X167628571Y-86310000D01*
X167647619Y-86300476D01*
X167819047Y-86500476D02*
X167819047Y-86300476D01*
X167933333Y-86500476D01*
X167933333Y-86300476D01*
X168028571Y-86395714D02*
X168095238Y-86395714D01*
X168123809Y-86500476D02*
X168028571Y-86500476D01*
X168028571Y-86300476D01*
X168123809Y-86300476D01*
X160819047Y-86900476D02*
X160819047Y-86700476D01*
X160933333Y-86900476D01*
X160933333Y-86700476D01*
X161057142Y-86900476D02*
X161038095Y-86890952D01*
X161028571Y-86881428D01*
X161019047Y-86862380D01*
X161019047Y-86805238D01*
X161028571Y-86786190D01*
X161038095Y-86776666D01*
X161057142Y-86767142D01*
X161085714Y-86767142D01*
X161104761Y-86776666D01*
X161114285Y-86786190D01*
X161123809Y-86805238D01*
X161123809Y-86862380D01*
X161114285Y-86881428D01*
X161104761Y-86890952D01*
X161085714Y-86900476D01*
X161057142Y-86900476D01*
X161428571Y-86795714D02*
X161361904Y-86795714D01*
X161361904Y-86900476D02*
X161361904Y-86700476D01*
X161457142Y-86700476D01*
X161533333Y-86881428D02*
X161542857Y-86890952D01*
X161533333Y-86900476D01*
X161523809Y-86890952D01*
X161533333Y-86881428D01*
X161533333Y-86900476D01*
X161742857Y-86881428D02*
X161733333Y-86890952D01*
X161704761Y-86900476D01*
X161685714Y-86900476D01*
X161657142Y-86890952D01*
X161638095Y-86871904D01*
X161628571Y-86852857D01*
X161619047Y-86814761D01*
X161619047Y-86786190D01*
X161628571Y-86748095D01*
X161638095Y-86729047D01*
X161657142Y-86710000D01*
X161685714Y-86700476D01*
X161704761Y-86700476D01*
X161733333Y-86710000D01*
X161742857Y-86719523D01*
X161914285Y-86767142D02*
X161914285Y-86900476D01*
X161828571Y-86767142D02*
X161828571Y-86871904D01*
X161838095Y-86890952D01*
X161857142Y-86900476D01*
X161885714Y-86900476D01*
X161904761Y-86890952D01*
X161914285Y-86881428D01*
X162133333Y-86767142D02*
X162209523Y-86767142D01*
X162161904Y-86700476D02*
X162161904Y-86871904D01*
X162171428Y-86890952D01*
X162190476Y-86900476D01*
X162209523Y-86900476D01*
X162276190Y-86900476D02*
X162276190Y-86767142D01*
X162276190Y-86805238D02*
X162285714Y-86786190D01*
X162295238Y-86776666D01*
X162314285Y-86767142D01*
X162333333Y-86767142D01*
X162485714Y-86900476D02*
X162485714Y-86795714D01*
X162476190Y-86776666D01*
X162457142Y-86767142D01*
X162419047Y-86767142D01*
X162400000Y-86776666D01*
X162485714Y-86890952D02*
X162466666Y-86900476D01*
X162419047Y-86900476D01*
X162400000Y-86890952D01*
X162390476Y-86871904D01*
X162390476Y-86852857D01*
X162400000Y-86833809D01*
X162419047Y-86824285D01*
X162466666Y-86824285D01*
X162485714Y-86814761D01*
X162666666Y-86890952D02*
X162647619Y-86900476D01*
X162609523Y-86900476D01*
X162590476Y-86890952D01*
X162580952Y-86881428D01*
X162571428Y-86862380D01*
X162571428Y-86805238D01*
X162580952Y-86786190D01*
X162590476Y-86776666D01*
X162609523Y-86767142D01*
X162647619Y-86767142D01*
X162666666Y-86776666D01*
X162752380Y-86900476D02*
X162752380Y-86700476D01*
X162771428Y-86824285D02*
X162828571Y-86900476D01*
X162828571Y-86767142D02*
X162752380Y-86843333D01*
X162904761Y-86890952D02*
X162923809Y-86900476D01*
X162961904Y-86900476D01*
X162980952Y-86890952D01*
X162990476Y-86871904D01*
X162990476Y-86862380D01*
X162980952Y-86843333D01*
X162961904Y-86833809D01*
X162933333Y-86833809D01*
X162914285Y-86824285D01*
X162904761Y-86805238D01*
X162904761Y-86795714D01*
X162914285Y-86776666D01*
X162933333Y-86767142D01*
X162961904Y-86767142D01*
X162980952Y-86776666D01*
%TO.C,TS2*%
X160685714Y-95587976D02*
X160685714Y-95387976D01*
X160800000Y-95587976D02*
X160714285Y-95473690D01*
X160800000Y-95387976D02*
X160685714Y-95502261D01*
X160885714Y-95483214D02*
X160952380Y-95483214D01*
X160980952Y-95587976D02*
X160885714Y-95587976D01*
X160885714Y-95387976D01*
X160980952Y-95387976D01*
X161066666Y-95483214D02*
X161133333Y-95483214D01*
X161161904Y-95587976D02*
X161066666Y-95587976D01*
X161066666Y-95387976D01*
X161161904Y-95387976D01*
X161247619Y-95587976D02*
X161247619Y-95387976D01*
X161323809Y-95387976D01*
X161342857Y-95397500D01*
X161352380Y-95407023D01*
X161361904Y-95426071D01*
X161361904Y-95454642D01*
X161352380Y-95473690D01*
X161342857Y-95483214D01*
X161323809Y-95492738D01*
X161247619Y-95492738D01*
X161447619Y-95511785D02*
X161600000Y-95511785D01*
X161733333Y-95387976D02*
X161771428Y-95387976D01*
X161790476Y-95397500D01*
X161809523Y-95416547D01*
X161819047Y-95454642D01*
X161819047Y-95521309D01*
X161809523Y-95559404D01*
X161790476Y-95578452D01*
X161771428Y-95587976D01*
X161733333Y-95587976D01*
X161714285Y-95578452D01*
X161695238Y-95559404D01*
X161685714Y-95521309D01*
X161685714Y-95454642D01*
X161695238Y-95416547D01*
X161714285Y-95397500D01*
X161733333Y-95387976D01*
X161904761Y-95387976D02*
X161904761Y-95549880D01*
X161914285Y-95568928D01*
X161923809Y-95578452D01*
X161942857Y-95587976D01*
X161980952Y-95587976D01*
X162000000Y-95578452D01*
X162009523Y-95568928D01*
X162019047Y-95549880D01*
X162019047Y-95387976D01*
X162085714Y-95387976D02*
X162200000Y-95387976D01*
X162142857Y-95587976D02*
X162142857Y-95387976D01*
X162400000Y-95387976D02*
X162533333Y-95387976D01*
X162400000Y-95587976D01*
X162533333Y-95587976D01*
X162647619Y-95387976D02*
X162685714Y-95387976D01*
X162704761Y-95397500D01*
X162723809Y-95416547D01*
X162733333Y-95454642D01*
X162733333Y-95521309D01*
X162723809Y-95559404D01*
X162704761Y-95578452D01*
X162685714Y-95587976D01*
X162647619Y-95587976D01*
X162628571Y-95578452D01*
X162609523Y-95559404D01*
X162600000Y-95521309D01*
X162600000Y-95454642D01*
X162609523Y-95416547D01*
X162628571Y-95397500D01*
X162647619Y-95387976D01*
X162819047Y-95587976D02*
X162819047Y-95387976D01*
X162933333Y-95587976D01*
X162933333Y-95387976D01*
X163028571Y-95483214D02*
X163095238Y-95483214D01*
X163123809Y-95587976D02*
X163028571Y-95587976D01*
X163028571Y-95387976D01*
X163123809Y-95387976D01*
X160819047Y-95987976D02*
X160819047Y-95787976D01*
X160933333Y-95987976D01*
X160933333Y-95787976D01*
X161057142Y-95987976D02*
X161038095Y-95978452D01*
X161028571Y-95968928D01*
X161019047Y-95949880D01*
X161019047Y-95892738D01*
X161028571Y-95873690D01*
X161038095Y-95864166D01*
X161057142Y-95854642D01*
X161085714Y-95854642D01*
X161104761Y-95864166D01*
X161114285Y-95873690D01*
X161123809Y-95892738D01*
X161123809Y-95949880D01*
X161114285Y-95968928D01*
X161104761Y-95978452D01*
X161085714Y-95987976D01*
X161057142Y-95987976D01*
X161428571Y-95883214D02*
X161361904Y-95883214D01*
X161361904Y-95987976D02*
X161361904Y-95787976D01*
X161457142Y-95787976D01*
X161533333Y-95968928D02*
X161542857Y-95978452D01*
X161533333Y-95987976D01*
X161523809Y-95978452D01*
X161533333Y-95968928D01*
X161533333Y-95987976D01*
X161742857Y-95968928D02*
X161733333Y-95978452D01*
X161704761Y-95987976D01*
X161685714Y-95987976D01*
X161657142Y-95978452D01*
X161638095Y-95959404D01*
X161628571Y-95940357D01*
X161619047Y-95902261D01*
X161619047Y-95873690D01*
X161628571Y-95835595D01*
X161638095Y-95816547D01*
X161657142Y-95797500D01*
X161685714Y-95787976D01*
X161704761Y-95787976D01*
X161733333Y-95797500D01*
X161742857Y-95807023D01*
X161914285Y-95854642D02*
X161914285Y-95987976D01*
X161828571Y-95854642D02*
X161828571Y-95959404D01*
X161838095Y-95978452D01*
X161857142Y-95987976D01*
X161885714Y-95987976D01*
X161904761Y-95978452D01*
X161914285Y-95968928D01*
X162133333Y-95854642D02*
X162209523Y-95854642D01*
X162161904Y-95787976D02*
X162161904Y-95959404D01*
X162171428Y-95978452D01*
X162190476Y-95987976D01*
X162209523Y-95987976D01*
X162276190Y-95987976D02*
X162276190Y-95854642D01*
X162276190Y-95892738D02*
X162285714Y-95873690D01*
X162295238Y-95864166D01*
X162314285Y-95854642D01*
X162333333Y-95854642D01*
X162485714Y-95987976D02*
X162485714Y-95883214D01*
X162476190Y-95864166D01*
X162457142Y-95854642D01*
X162419047Y-95854642D01*
X162400000Y-95864166D01*
X162485714Y-95978452D02*
X162466666Y-95987976D01*
X162419047Y-95987976D01*
X162400000Y-95978452D01*
X162390476Y-95959404D01*
X162390476Y-95940357D01*
X162400000Y-95921309D01*
X162419047Y-95911785D01*
X162466666Y-95911785D01*
X162485714Y-95902261D01*
X162666666Y-95978452D02*
X162647619Y-95987976D01*
X162609523Y-95987976D01*
X162590476Y-95978452D01*
X162580952Y-95968928D01*
X162571428Y-95949880D01*
X162571428Y-95892738D01*
X162580952Y-95873690D01*
X162590476Y-95864166D01*
X162609523Y-95854642D01*
X162647619Y-95854642D01*
X162666666Y-95864166D01*
X162752380Y-95987976D02*
X162752380Y-95787976D01*
X162771428Y-95911785D02*
X162828571Y-95987976D01*
X162828571Y-95854642D02*
X162752380Y-95930833D01*
X162904761Y-95978452D02*
X162923809Y-95987976D01*
X162961904Y-95987976D01*
X162980952Y-95978452D01*
X162990476Y-95959404D01*
X162990476Y-95949880D01*
X162980952Y-95930833D01*
X162961904Y-95921309D01*
X162933333Y-95921309D01*
X162914285Y-95911785D01*
X162904761Y-95892738D01*
X162904761Y-95883214D01*
X162914285Y-95864166D01*
X162933333Y-95854642D01*
X162961904Y-95854642D01*
X162980952Y-95864166D01*
X165819047Y-95987976D02*
X165819047Y-95787976D01*
X165933333Y-95987976D01*
X165933333Y-95787976D01*
X166057142Y-95987976D02*
X166038095Y-95978452D01*
X166028571Y-95968928D01*
X166019047Y-95949880D01*
X166019047Y-95892738D01*
X166028571Y-95873690D01*
X166038095Y-95864166D01*
X166057142Y-95854642D01*
X166085714Y-95854642D01*
X166104761Y-95864166D01*
X166114285Y-95873690D01*
X166123809Y-95892738D01*
X166123809Y-95949880D01*
X166114285Y-95968928D01*
X166104761Y-95978452D01*
X166085714Y-95987976D01*
X166057142Y-95987976D01*
X166428571Y-95883214D02*
X166361904Y-95883214D01*
X166361904Y-95987976D02*
X166361904Y-95787976D01*
X166457142Y-95787976D01*
X166533333Y-95968928D02*
X166542857Y-95978452D01*
X166533333Y-95987976D01*
X166523809Y-95978452D01*
X166533333Y-95968928D01*
X166533333Y-95987976D01*
X166742857Y-95968928D02*
X166733333Y-95978452D01*
X166704761Y-95987976D01*
X166685714Y-95987976D01*
X166657142Y-95978452D01*
X166638095Y-95959404D01*
X166628571Y-95940357D01*
X166619047Y-95902261D01*
X166619047Y-95873690D01*
X166628571Y-95835595D01*
X166638095Y-95816547D01*
X166657142Y-95797500D01*
X166685714Y-95787976D01*
X166704761Y-95787976D01*
X166733333Y-95797500D01*
X166742857Y-95807023D01*
X166914285Y-95854642D02*
X166914285Y-95987976D01*
X166828571Y-95854642D02*
X166828571Y-95959404D01*
X166838095Y-95978452D01*
X166857142Y-95987976D01*
X166885714Y-95987976D01*
X166904761Y-95978452D01*
X166914285Y-95968928D01*
X167133333Y-95854642D02*
X167209523Y-95854642D01*
X167161904Y-95787976D02*
X167161904Y-95959404D01*
X167171428Y-95978452D01*
X167190476Y-95987976D01*
X167209523Y-95987976D01*
X167276190Y-95987976D02*
X167276190Y-95854642D01*
X167276190Y-95892738D02*
X167285714Y-95873690D01*
X167295238Y-95864166D01*
X167314285Y-95854642D01*
X167333333Y-95854642D01*
X167485714Y-95987976D02*
X167485714Y-95883214D01*
X167476190Y-95864166D01*
X167457142Y-95854642D01*
X167419047Y-95854642D01*
X167400000Y-95864166D01*
X167485714Y-95978452D02*
X167466666Y-95987976D01*
X167419047Y-95987976D01*
X167400000Y-95978452D01*
X167390476Y-95959404D01*
X167390476Y-95940357D01*
X167400000Y-95921309D01*
X167419047Y-95911785D01*
X167466666Y-95911785D01*
X167485714Y-95902261D01*
X167666666Y-95978452D02*
X167647619Y-95987976D01*
X167609523Y-95987976D01*
X167590476Y-95978452D01*
X167580952Y-95968928D01*
X167571428Y-95949880D01*
X167571428Y-95892738D01*
X167580952Y-95873690D01*
X167590476Y-95864166D01*
X167609523Y-95854642D01*
X167647619Y-95854642D01*
X167666666Y-95864166D01*
X167752380Y-95987976D02*
X167752380Y-95787976D01*
X167771428Y-95911785D02*
X167828571Y-95987976D01*
X167828571Y-95854642D02*
X167752380Y-95930833D01*
X167904761Y-95978452D02*
X167923809Y-95987976D01*
X167961904Y-95987976D01*
X167980952Y-95978452D01*
X167990476Y-95959404D01*
X167990476Y-95949880D01*
X167980952Y-95930833D01*
X167961904Y-95921309D01*
X167933333Y-95921309D01*
X167914285Y-95911785D01*
X167904761Y-95892738D01*
X167904761Y-95883214D01*
X167914285Y-95864166D01*
X167933333Y-95854642D01*
X167961904Y-95854642D01*
X167980952Y-95864166D01*
X165685714Y-95587976D02*
X165685714Y-95387976D01*
X165800000Y-95587976D02*
X165714285Y-95473690D01*
X165800000Y-95387976D02*
X165685714Y-95502261D01*
X165885714Y-95483214D02*
X165952380Y-95483214D01*
X165980952Y-95587976D02*
X165885714Y-95587976D01*
X165885714Y-95387976D01*
X165980952Y-95387976D01*
X166066666Y-95483214D02*
X166133333Y-95483214D01*
X166161904Y-95587976D02*
X166066666Y-95587976D01*
X166066666Y-95387976D01*
X166161904Y-95387976D01*
X166247619Y-95587976D02*
X166247619Y-95387976D01*
X166323809Y-95387976D01*
X166342857Y-95397500D01*
X166352380Y-95407023D01*
X166361904Y-95426071D01*
X166361904Y-95454642D01*
X166352380Y-95473690D01*
X166342857Y-95483214D01*
X166323809Y-95492738D01*
X166247619Y-95492738D01*
X166447619Y-95511785D02*
X166600000Y-95511785D01*
X166733333Y-95387976D02*
X166771428Y-95387976D01*
X166790476Y-95397500D01*
X166809523Y-95416547D01*
X166819047Y-95454642D01*
X166819047Y-95521309D01*
X166809523Y-95559404D01*
X166790476Y-95578452D01*
X166771428Y-95587976D01*
X166733333Y-95587976D01*
X166714285Y-95578452D01*
X166695238Y-95559404D01*
X166685714Y-95521309D01*
X166685714Y-95454642D01*
X166695238Y-95416547D01*
X166714285Y-95397500D01*
X166733333Y-95387976D01*
X166904761Y-95387976D02*
X166904761Y-95549880D01*
X166914285Y-95568928D01*
X166923809Y-95578452D01*
X166942857Y-95587976D01*
X166980952Y-95587976D01*
X167000000Y-95578452D01*
X167009523Y-95568928D01*
X167019047Y-95549880D01*
X167019047Y-95387976D01*
X167085714Y-95387976D02*
X167200000Y-95387976D01*
X167142857Y-95587976D02*
X167142857Y-95387976D01*
X167400000Y-95387976D02*
X167533333Y-95387976D01*
X167400000Y-95587976D01*
X167533333Y-95587976D01*
X167647619Y-95387976D02*
X167685714Y-95387976D01*
X167704761Y-95397500D01*
X167723809Y-95416547D01*
X167733333Y-95454642D01*
X167733333Y-95521309D01*
X167723809Y-95559404D01*
X167704761Y-95578452D01*
X167685714Y-95587976D01*
X167647619Y-95587976D01*
X167628571Y-95578452D01*
X167609523Y-95559404D01*
X167600000Y-95521309D01*
X167600000Y-95454642D01*
X167609523Y-95416547D01*
X167628571Y-95397500D01*
X167647619Y-95387976D01*
X167819047Y-95587976D02*
X167819047Y-95387976D01*
X167933333Y-95587976D01*
X167933333Y-95387976D01*
X168028571Y-95483214D02*
X168095238Y-95483214D01*
X168123809Y-95587976D02*
X168028571Y-95587976D01*
X168028571Y-95387976D01*
X168123809Y-95387976D01*
D11*
%TO.C,H6*%
X227515600Y-107635100D02*
G75*
G03*
X227515600Y-107635100I-2200000J0D01*
G01*
%TO.C,H4*%
X138889200Y-114566400D02*
G75*
G03*
X138889200Y-114566400I-2200000J0D01*
G01*
%TO.C,H1*%
X57884200Y-45127000D02*
G75*
G03*
X57884200Y-45127000I-2200000J0D01*
G01*
%TO.C,H7*%
X329100900Y-45127000D02*
G75*
G03*
X329100900Y-45127000I-2200000J0D01*
G01*
%TO.C,H3*%
X136796100Y-55694700D02*
G75*
G03*
X136796100Y-55694700I-2200000J0D01*
G01*
%TO.C,H5*%
X246326800Y-45209900D02*
G75*
G03*
X246326800Y-45209900I-2200000J0D01*
G01*
%TO.C,H8*%
X322158700Y-102277000D02*
G75*
G03*
X322158700Y-102277000I-2200000J0D01*
G01*
%TO.C,H2*%
X49737100Y-111802000D02*
G75*
G03*
X49737100Y-111802000I-2200000J0D01*
G01*
D12*
%TO.C,LED30*%
X200874687Y-126330152D02*
X201456840Y-129068965D01*
X201456840Y-129068965D02*
X204586913Y-128403648D01*
X204004760Y-125664835D02*
X200874687Y-126330152D01*
X204586913Y-128403648D02*
X204004760Y-125664835D01*
%TO.C,LED15*%
X64306900Y-80182000D02*
X67506900Y-80182000D01*
X67506900Y-80182000D02*
X67506900Y-77382000D01*
X67506900Y-77382000D02*
X64306900Y-77382000D01*
X64306900Y-77382000D02*
X64306900Y-80182000D01*
%TO.C,LED43*%
X180609487Y-111162152D02*
X181191640Y-113900965D01*
X181191640Y-113900965D02*
X184321713Y-113235648D01*
X184321713Y-113235648D02*
X183739560Y-110496835D01*
X183739560Y-110496835D02*
X180609487Y-111162152D01*
%TO.C,LED25*%
X38793400Y-96432000D02*
X38793400Y-99232000D01*
X41993400Y-96432000D02*
X38793400Y-96432000D01*
X41993400Y-99232000D02*
X41993400Y-96432000D01*
X38793400Y-99232000D02*
X41993400Y-99232000D01*
%TO.C,LED12*%
X63609200Y-61132000D02*
X66809200Y-61132000D01*
X66809200Y-61132000D02*
X66809200Y-58332000D01*
X63609200Y-58332000D02*
X63609200Y-61132000D01*
X66809200Y-58332000D02*
X63609200Y-58332000D01*
%TO.C,LED64*%
X242316013Y-42481748D02*
X241733860Y-39742935D01*
X241733860Y-39742935D02*
X238603787Y-40408252D01*
X238603787Y-40408252D02*
X239185940Y-43147065D01*
X239185940Y-43147065D02*
X242316013Y-42481748D01*
%TO.C,LED7*%
X156010013Y-54270752D02*
X152879940Y-53605435D01*
X152297787Y-56344248D02*
X155427860Y-57009565D01*
X152879940Y-53605435D02*
X152297787Y-56344248D01*
X155427860Y-57009565D02*
X156010013Y-54270752D01*
%TO.C,LED9*%
X120968740Y-66298135D02*
X120386587Y-69036948D01*
X124098813Y-66963452D02*
X120968740Y-66298135D01*
X120386587Y-69036948D02*
X123516660Y-69702265D01*
X123516660Y-69702265D02*
X124098813Y-66963452D01*
%TO.C,LED36*%
X331083700Y-96432000D02*
X327883700Y-96432000D01*
X331083700Y-99232000D02*
X331083700Y-96432000D01*
X327883700Y-96432000D02*
X327883700Y-99232000D01*
X327883700Y-99232000D02*
X331083700Y-99232000D01*
%TO.C,LED40*%
X236510587Y-99279952D02*
X237092740Y-102018765D01*
X237092740Y-102018765D02*
X240222813Y-101353448D01*
X239640660Y-98614635D02*
X236510587Y-99279952D01*
X240222813Y-101353448D02*
X239640660Y-98614635D01*
%TO.C,LED37*%
X304890000Y-96432000D02*
X301690000Y-96432000D01*
X301690000Y-99232000D02*
X304890000Y-99232000D01*
X301690000Y-96432000D02*
X301690000Y-99232000D01*
X304890000Y-99232000D02*
X304890000Y-96432000D01*
%TO.C,LED13*%
X39796700Y-61132000D02*
X42996700Y-61132000D01*
X39796700Y-58332000D02*
X39796700Y-61132000D01*
X42996700Y-61132000D02*
X42996700Y-58332000D01*
X42996700Y-58332000D02*
X39796700Y-58332000D01*
%TO.C,LED58*%
X220486760Y-63734735D02*
X217356687Y-64400052D01*
X217938840Y-67138865D02*
X221068913Y-66473548D01*
X221068913Y-66473548D02*
X220486760Y-63734735D01*
X217356687Y-64400052D02*
X217938840Y-67138865D01*
%TO.C,LED34*%
X327883700Y-115482000D02*
X327883700Y-118282000D01*
X331083700Y-115482000D02*
X327883700Y-115482000D01*
X327883700Y-118282000D02*
X331083700Y-118282000D01*
X331083700Y-118282000D02*
X331083700Y-115482000D01*
%TO.C,LED24*%
X72949600Y-96432000D02*
X69749600Y-96432000D01*
X69749600Y-99232000D02*
X72949600Y-99232000D01*
X69749600Y-96432000D02*
X69749600Y-99232000D01*
X72949600Y-99232000D02*
X72949600Y-96432000D01*
%TO.C,LED31*%
X243725360Y-117831335D02*
X240595287Y-118496652D01*
X244307513Y-120570148D02*
X243725360Y-117831335D01*
X241177440Y-121235465D02*
X244307513Y-120570148D01*
X240595287Y-118496652D02*
X241177440Y-121235465D01*
%TO.C,LED53*%
X321038400Y-61132000D02*
X321038400Y-58332000D01*
X317838400Y-58332000D02*
X317838400Y-61132000D01*
X317838400Y-61132000D02*
X321038400Y-61132000D01*
X321038400Y-58332000D02*
X317838400Y-58332000D01*
%TO.C,LED42*%
X199243187Y-107201352D02*
X199825340Y-109940165D01*
X199825340Y-109940165D02*
X202955413Y-109274848D01*
X202955413Y-109274848D02*
X202373260Y-106536035D01*
X202373260Y-106536035D02*
X199243187Y-107201352D01*
%TO.C,LED65*%
X258625900Y-38541400D02*
X258625900Y-41341400D01*
X258625900Y-41341400D02*
X261825900Y-41341400D01*
X261825900Y-41341400D02*
X261825900Y-38541400D01*
X261825900Y-38541400D02*
X258625900Y-38541400D01*
%TO.C,LED49*%
X284138900Y-77382000D02*
X280938900Y-77382000D01*
X284138900Y-80182000D02*
X284138900Y-77382000D01*
X280938900Y-77382000D02*
X280938900Y-80182000D01*
X280938900Y-80182000D02*
X284138900Y-80182000D01*
%TO.C,LED18*%
X121666440Y-85922035D02*
X121084287Y-88660848D01*
X124214360Y-89326165D02*
X124796513Y-86587352D01*
X121084287Y-88660848D02*
X124214360Y-89326165D01*
X124796513Y-86587352D02*
X121666440Y-85922035D01*
%TO.C,LED2*%
X58257700Y-39282000D02*
X58257700Y-42082000D01*
X58257700Y-42082000D02*
X61457700Y-42082000D01*
X61457700Y-39282000D02*
X58257700Y-39282000D01*
X61457700Y-42082000D02*
X61457700Y-39282000D01*
%TO.C,LED1*%
X39207700Y-39282000D02*
X39207700Y-42082000D01*
X39207700Y-42082000D02*
X42407700Y-42082000D01*
X42407700Y-42082000D02*
X42407700Y-39282000D01*
X42407700Y-39282000D02*
X39207700Y-39282000D01*
%TO.C,LED66*%
X280875900Y-42082000D02*
X280875900Y-39282000D01*
X277675900Y-39282000D02*
X277675900Y-42082000D01*
X277675900Y-42082000D02*
X280875900Y-42082000D01*
X280875900Y-39282000D02*
X277675900Y-39282000D01*
%TO.C,LED63*%
X223682313Y-46442448D02*
X223100160Y-43703635D01*
X223100160Y-43703635D02*
X219970087Y-44368952D01*
X220552240Y-47107765D02*
X223682313Y-46442448D01*
X219970087Y-44368952D02*
X220552240Y-47107765D01*
%TO.C,LED56*%
X259125900Y-57591400D02*
X255925900Y-57591400D01*
X255925900Y-57591400D02*
X255925900Y-60391400D01*
X255925900Y-60391400D02*
X259125900Y-60391400D01*
X259125900Y-60391400D02*
X259125900Y-57591400D01*
%TO.C,LED39*%
X259646200Y-99232000D02*
X259646200Y-96432000D01*
X259646200Y-96432000D02*
X256446200Y-96432000D01*
X256446200Y-96432000D02*
X256446200Y-99232000D01*
X256446200Y-99232000D02*
X259646200Y-99232000D01*
%TO.C,LED11*%
X83701240Y-58376635D02*
X83119087Y-61115448D01*
X86249160Y-61780765D02*
X86831313Y-59041952D01*
X83119087Y-61115448D02*
X86249160Y-61780765D01*
X86831313Y-59041952D02*
X83701240Y-58376635D01*
%TO.C,LED28*%
X110833587Y-125433148D02*
X113963660Y-126098465D01*
X114545813Y-123359652D02*
X111415740Y-122694335D01*
X113963660Y-126098465D02*
X114545813Y-123359652D01*
X111415740Y-122694335D02*
X110833587Y-125433148D01*
%TO.C,LED26*%
X31649600Y-118282000D02*
X34849600Y-118282000D01*
X34849600Y-115482000D02*
X31649600Y-115482000D01*
X31649600Y-115482000D02*
X31649600Y-118282000D01*
X34849600Y-118282000D02*
X34849600Y-115482000D01*
%TO.C,LED52*%
X348125000Y-56105000D02*
X344925000Y-56105000D01*
X344925000Y-58905000D02*
X348125000Y-58905000D01*
X344925000Y-56105000D02*
X344925000Y-58905000D01*
X348125000Y-58905000D02*
X348125000Y-56105000D01*
%TO.C,LED51*%
X346925000Y-75155000D02*
X346925000Y-77955000D01*
X346925000Y-77955000D02*
X350125000Y-77955000D01*
X350125000Y-77955000D02*
X350125000Y-75155000D01*
X350125000Y-75155000D02*
X346925000Y-75155000D01*
%TO.C,LED5*%
X118160460Y-49088165D02*
X118742613Y-46349352D01*
X115612540Y-45684035D02*
X115030387Y-48422848D01*
X115030387Y-48422848D02*
X118160460Y-49088165D01*
X118742613Y-46349352D02*
X115612540Y-45684035D01*
%TO.C,LED46*%
X223233087Y-82626652D02*
X223815240Y-85365465D01*
X226945313Y-84700148D02*
X226363160Y-81961335D01*
X226363160Y-81961335D02*
X223233087Y-82626652D01*
X223815240Y-85365465D02*
X226945313Y-84700148D01*
%TO.C,LED3*%
X80507700Y-40767500D02*
X80507700Y-37967500D01*
X77307700Y-40767500D02*
X80507700Y-40767500D01*
X77307700Y-37967500D02*
X77307700Y-40767500D01*
X80507700Y-37967500D02*
X77307700Y-37967500D01*
%TO.C,LED44*%
X185965587Y-90548052D02*
X186547740Y-93286865D01*
X186547740Y-93286865D02*
X189677813Y-92621548D01*
X189095660Y-89882735D02*
X185965587Y-90548052D01*
X189677813Y-92621548D02*
X189095660Y-89882735D01*
%TO.C,LED19*%
X140300140Y-89882735D02*
X139717987Y-92621548D01*
X142848060Y-93286865D02*
X143430213Y-90548052D01*
X143430213Y-90548052D02*
X140300140Y-89882735D01*
X139717987Y-92621548D02*
X142848060Y-93286865D01*
%TO.C,LED67*%
X306250900Y-39282000D02*
X306250900Y-42082000D01*
X309450900Y-42082000D02*
X309450900Y-39282000D01*
X309450900Y-39282000D02*
X306250900Y-39282000D01*
X306250900Y-42082000D02*
X309450900Y-42082000D01*
%TO.C,LED41*%
X221006960Y-102575335D02*
X217876887Y-103240652D01*
X221589113Y-105314148D02*
X221006960Y-102575335D01*
X217876887Y-103240652D02*
X218459040Y-105979465D01*
X218459040Y-105979465D02*
X221589113Y-105314148D01*
%TO.C,LED27*%
X60224600Y-118282000D02*
X63424600Y-118282000D01*
X63424600Y-118282000D02*
X63424600Y-115482000D01*
X63424600Y-115482000D02*
X60224600Y-115482000D01*
X60224600Y-115482000D02*
X60224600Y-118282000D01*
%TO.C,LED50*%
X315095100Y-80182000D02*
X315095100Y-77382000D01*
X311895100Y-77382000D02*
X311895100Y-80182000D01*
X315095100Y-77382000D02*
X311895100Y-77382000D01*
X311895100Y-80182000D02*
X315095100Y-80182000D01*
%TO.C,LED4*%
X96978840Y-41723335D02*
X96396687Y-44462148D01*
X100108913Y-42388652D02*
X96978840Y-41723335D01*
X99526760Y-45127465D02*
X100108913Y-42388652D01*
X96396687Y-44462148D02*
X99526760Y-45127465D01*
%TO.C,LED60*%
X183801413Y-74395048D02*
X183219260Y-71656235D01*
X180671340Y-75060365D02*
X183801413Y-74395048D01*
X183219260Y-71656235D02*
X180089187Y-72321552D01*
X180089187Y-72321552D02*
X180671340Y-75060365D01*
%TO.C,LED61*%
X185832660Y-51625135D02*
X182702587Y-52290452D01*
X182702587Y-52290452D02*
X183284740Y-55029265D01*
X183284740Y-55029265D02*
X186414813Y-54363948D01*
X186414813Y-54363948D02*
X185832660Y-51625135D01*
%TO.C,LED57*%
X235990387Y-60439352D02*
X236572540Y-63178165D01*
X239702613Y-62512848D02*
X239120460Y-59774035D01*
X236572540Y-63178165D02*
X239702613Y-62512848D01*
X239120460Y-59774035D02*
X235990387Y-60439352D01*
%TO.C,LED20*%
X145656240Y-110496835D02*
X145074087Y-113235648D01*
X145074087Y-113235648D02*
X148204160Y-113900965D01*
X148786313Y-111162152D02*
X145656240Y-110496835D01*
X148204160Y-113900965D02*
X148786313Y-111162152D01*
%TO.C,LED48*%
X265088900Y-80182000D02*
X265088900Y-77382000D01*
X265088900Y-77382000D02*
X261888900Y-77382000D01*
X261888900Y-80182000D02*
X265088900Y-80182000D01*
X261888900Y-77382000D02*
X261888900Y-80182000D01*
%TO.C,LED29*%
X141695540Y-129130535D02*
X141113387Y-131869348D01*
X144243460Y-132534665D02*
X144825613Y-129795852D01*
X144825613Y-129795852D02*
X141695540Y-129130535D01*
X141113387Y-131869348D02*
X144243460Y-132534665D01*
%TO.C,LED38*%
X275496200Y-96432000D02*
X275496200Y-99232000D01*
X278696200Y-96432000D02*
X275496200Y-96432000D01*
X278696200Y-99232000D02*
X278696200Y-96432000D01*
X275496200Y-99232000D02*
X278696200Y-99232000D01*
%TO.C,LED33*%
X308833700Y-115482000D02*
X308833700Y-118282000D01*
X312033700Y-115482000D02*
X308833700Y-115482000D01*
X308833700Y-118282000D02*
X312033700Y-118282000D01*
X312033700Y-118282000D02*
X312033700Y-115482000D01*
%TO.C,LED35*%
X346933700Y-115482000D02*
X346933700Y-118282000D01*
X350133700Y-115482000D02*
X346933700Y-115482000D01*
X346933700Y-118282000D02*
X350133700Y-118282000D01*
X350133700Y-118282000D02*
X350133700Y-115482000D01*
%TO.C,LED16*%
X83816787Y-80739348D02*
X86946860Y-81404665D01*
X87529013Y-78665852D02*
X84398940Y-78000535D01*
X84398940Y-78000535D02*
X83816787Y-80739348D01*
X86946860Y-81404665D02*
X87529013Y-78665852D01*
%TO.C,LED62*%
X201918440Y-51068565D02*
X205048513Y-50403248D01*
X204466360Y-47664435D02*
X201336287Y-48329752D01*
X205048513Y-50403248D02*
X204466360Y-47664435D01*
X201336287Y-48329752D02*
X201918440Y-51068565D01*
%TO.C,LED23*%
X89172987Y-101353448D02*
X92303060Y-102018765D01*
X92303060Y-102018765D02*
X92885213Y-99279952D01*
X89755140Y-98614635D02*
X89172987Y-101353448D01*
X92885213Y-99279952D02*
X89755140Y-98614635D01*
%TO.C,LED10*%
X105465013Y-63002752D02*
X102334940Y-62337435D01*
X101752787Y-65076248D02*
X104882860Y-65741565D01*
X104882860Y-65741565D02*
X105465013Y-63002752D01*
X102334940Y-62337435D02*
X101752787Y-65076248D01*
%TO.C,LED17*%
X105580660Y-85365465D02*
X106162813Y-82626652D01*
X106162813Y-82626652D02*
X103032740Y-81961335D01*
X102450587Y-84700148D02*
X105580660Y-85365465D01*
X103032740Y-81961335D02*
X102450587Y-84700148D01*
%TO.C,LED54*%
X297225900Y-58332000D02*
X294025900Y-58332000D01*
X294025900Y-58332000D02*
X294025900Y-61132000D01*
X294025900Y-61132000D02*
X297225900Y-61132000D01*
X297225900Y-61132000D02*
X297225900Y-58332000D01*
%TO.C,LED68*%
X342925000Y-37055000D02*
X342925000Y-39855000D01*
X346125000Y-39855000D02*
X346125000Y-37055000D01*
X346125000Y-37055000D02*
X342925000Y-37055000D01*
X342925000Y-39855000D02*
X346125000Y-39855000D01*
%TO.C,LED22*%
X110936760Y-105979465D02*
X111518913Y-103240652D01*
X111518913Y-103240652D02*
X108388840Y-102575335D01*
X108388840Y-102575335D02*
X107806687Y-105314148D01*
X107806687Y-105314148D02*
X110936760Y-105979465D01*
%TO.C,LED6*%
X134246240Y-49644735D02*
X133664087Y-52383548D01*
X136794160Y-53048865D02*
X137376313Y-50310052D01*
X133664087Y-52383548D02*
X136794160Y-53048865D01*
X137376313Y-50310052D02*
X134246240Y-49644735D01*
%TO.C,LED32*%
X285021200Y-118282000D02*
X288221200Y-118282000D01*
X285021200Y-115482000D02*
X285021200Y-118282000D01*
X288221200Y-115482000D02*
X285021200Y-115482000D01*
X288221200Y-118282000D02*
X288221200Y-115482000D01*
%TO.C,LED55*%
X274975900Y-58332000D02*
X274975900Y-61132000D01*
X278175900Y-58332000D02*
X274975900Y-58332000D01*
X274975900Y-61132000D02*
X278175900Y-61132000D01*
X278175900Y-61132000D02*
X278175900Y-58332000D01*
%TO.C,LED8*%
X142732513Y-70924152D02*
X139602440Y-70258835D01*
X142150360Y-73662965D02*
X142732513Y-70924152D01*
X139602440Y-70258835D02*
X139020287Y-72997648D01*
X139020287Y-72997648D02*
X142150360Y-73662965D01*
%TO.C,LED45*%
X205181440Y-89326165D02*
X208311513Y-88660848D01*
X204599287Y-86587352D02*
X205181440Y-89326165D01*
X207729360Y-85922035D02*
X204599287Y-86587352D01*
X208311513Y-88660848D02*
X207729360Y-85922035D01*
%TO.C,LED14*%
X38113200Y-80182000D02*
X41313200Y-80182000D01*
X41313200Y-80182000D02*
X41313200Y-77382000D01*
X41313200Y-77382000D02*
X38113200Y-77382000D01*
X38113200Y-77382000D02*
X38113200Y-80182000D01*
%TO.C,LED21*%
X126440387Y-109274848D02*
X129570460Y-109940165D01*
X130152613Y-107201352D02*
X127022540Y-106536035D01*
X129570460Y-109940165D02*
X130152613Y-107201352D01*
X127022540Y-106536035D02*
X126440387Y-109274848D01*
%TO.C,LED59*%
X198722887Y-68360752D02*
X199305040Y-71099565D01*
X202435113Y-70434248D02*
X201852960Y-67695435D01*
X199305040Y-71099565D02*
X202435113Y-70434248D01*
X201852960Y-67695435D02*
X198722887Y-68360752D01*
%TO.C,LED47*%
X242448940Y-81404665D02*
X245579013Y-80739348D01*
X245579013Y-80739348D02*
X244996860Y-78000535D01*
X241866787Y-78665852D02*
X242448940Y-81404665D01*
X244996860Y-78000535D02*
X241866787Y-78665852D01*
%TD*%
M02*
