%TF.GenerationSoftware,KiCad,Pcbnew,(6.0.9)*%
%TF.CreationDate,2022-12-15T18:11:33+09:00*%
%TF.ProjectId,Skeleton68rev2,536b656c-6574-46f6-9e36-38726576322e,rev?*%
%TF.SameCoordinates,Original*%
%TF.FileFunction,Profile,NP*%
%FSLAX46Y46*%
G04 Gerber Fmt 4.6, Leading zero omitted, Abs format (unit mm)*
G04 Created by KiCad (PCBNEW (6.0.9)) date 2022-12-15 18:11:33*
%MOMM*%
%LPD*%
G01*
G04 APERTURE LIST*
%TA.AperFunction,Profile*%
%ADD10C,0.100000*%
%TD*%
%TA.AperFunction,Profile*%
%ADD11C,0.500000*%
%TD*%
%ADD12C,0.150000*%
G04 APERTURE END LIST*
D10*
X358056446Y-137056446D02*
X365056446Y-137056446D01*
X161793460Y-21849440D02*
X31780467Y-21849449D01*
X31280467Y-23849449D02*
X31280467Y-43626446D01*
X18959854Y-120826446D02*
G75*
G03*
X19459854Y-121326446I500046J46D01*
G01*
X160496044Y-99892797D02*
X168895257Y-99892797D01*
X94449187Y-107121390D02*
G75*
G03*
X93293866Y-105342308I-1467187J311890D01*
G01*
X339006446Y-100776446D02*
X339006446Y-82499426D01*
X339006354Y-100776446D02*
G75*
G03*
X340506446Y-102276446I1500046J46D01*
G01*
X163293460Y-16634449D02*
X163293460Y-20349440D01*
X18959854Y-137056446D02*
X18959854Y-120826446D01*
X25606955Y-64176446D02*
X23542165Y-64176446D01*
X11959854Y-137056446D02*
X18959854Y-137056446D01*
X31280467Y-22349449D02*
X31280467Y-23849449D01*
X272831446Y-121326446D02*
X357556446Y-121326446D01*
X358056446Y-120826446D02*
X358056446Y-137056446D01*
X358056446Y-16134446D02*
X358047748Y-62449426D01*
X161793460Y-21849360D02*
G75*
G03*
X163293460Y-20349440I40J1499960D01*
G01*
X365056446Y-137056446D02*
X365056446Y-16134446D01*
D11*
X358056446Y-16134446D02*
X358056446Y-137056446D01*
D10*
X174223460Y-16134449D02*
X163793460Y-16134449D01*
X272331446Y-103776446D02*
X272331446Y-120826446D01*
X356047748Y-60449426D02*
X356047748Y-43399426D01*
X90904362Y-123798822D02*
G75*
G03*
X91289443Y-124391843I489038J-103978D01*
G01*
X163793460Y-16134460D02*
G75*
G03*
X163293460Y-16634449I40J-500040D01*
G01*
X357547748Y-80999348D02*
G75*
G03*
X358047748Y-80499426I52J499948D01*
G01*
X31780467Y-21849367D02*
G75*
G03*
X31280467Y-22349449I33J-500033D01*
G01*
X18959854Y-16134446D02*
X11959854Y-16134446D01*
X170362522Y-101080920D02*
G75*
G03*
X168895257Y-99892797I-1467222J-311880D01*
G01*
X77609854Y-102276354D02*
G75*
G03*
X76109854Y-103776446I46J-1500046D01*
G01*
X94449220Y-107121397D02*
X90904325Y-123798814D01*
X76109854Y-120826446D02*
X76109854Y-103776446D01*
X340506446Y-80999426D02*
X357547748Y-80999426D01*
X229241089Y-126732272D02*
G75*
G03*
X229620392Y-126803962I275311J417372D01*
G01*
X77609854Y-102276446D02*
X79758297Y-102276446D01*
X19459854Y-121326446D02*
X75609854Y-121326446D01*
X29780467Y-45126446D02*
X27606955Y-45126446D01*
X340506446Y-80999446D02*
G75*
G03*
X339006446Y-82499426I-46J-1499954D01*
G01*
X27606955Y-45126355D02*
G75*
G03*
X27106955Y-45626446I45J-500045D01*
G01*
X354047674Y-22349426D02*
G75*
G03*
X353547748Y-21849426I-499974J26D01*
G01*
X29780467Y-45126447D02*
G75*
G03*
X31280467Y-43626446I3J1499997D01*
G01*
X272331354Y-120826446D02*
G75*
G03*
X272831446Y-121326446I500046J46D01*
G01*
X358047674Y-62449426D02*
G75*
G03*
X357547748Y-61949426I-499974J26D01*
G01*
X256859482Y-121014091D02*
G75*
G03*
X257244605Y-120421084I-103982J489091D01*
G01*
X151463889Y-136671146D02*
X159028823Y-101080929D01*
X80701576Y-102610160D02*
G75*
G03*
X80912047Y-102710471I314424J388760D01*
G01*
X255240189Y-102276446D02*
X270831446Y-102276446D01*
X356047674Y-43399426D02*
G75*
G03*
X355547748Y-42899426I-499974J26D01*
G01*
X174723551Y-16634449D02*
G75*
G03*
X174223460Y-16134449I-500051J-51D01*
G01*
X358056354Y-102776446D02*
G75*
G03*
X357556446Y-102276446I-499954J46D01*
G01*
X150870854Y-137056289D02*
G75*
G03*
X151463889Y-136671146I103946J489089D01*
G01*
X354047748Y-41399426D02*
X354047748Y-22349426D01*
X25606955Y-64176455D02*
G75*
G03*
X27106955Y-62676446I-5J1500005D01*
G01*
X80701571Y-102610166D02*
G75*
G03*
X79758297Y-102276446I-943271J-1166234D01*
G01*
X357556446Y-121326446D02*
G75*
G03*
X358056446Y-120826446I-46J500046D01*
G01*
X257244605Y-120421084D02*
X253772968Y-104088314D01*
X19459854Y-83226354D02*
G75*
G03*
X18959854Y-83726446I46J-500046D01*
G01*
X177927435Y-136671141D02*
G75*
G03*
X178520442Y-137056264I489065J103941D01*
G01*
X229241100Y-126732256D02*
G75*
G03*
X228103234Y-126517116I-826000J-1252044D01*
G01*
X27106955Y-45626446D02*
X27106955Y-62676446D01*
D11*
X18959854Y-16134446D02*
X18959854Y-137056446D01*
D10*
X11959854Y-16134446D02*
X11959854Y-137056446D01*
X21542165Y-83226455D02*
G75*
G03*
X23042165Y-81726446I-5J1500005D01*
G01*
X358047748Y-80499426D02*
X358056446Y-102776446D01*
X170362478Y-101080929D02*
X177927412Y-136671146D01*
X174723460Y-20349439D02*
X174723460Y-16634449D01*
X18959854Y-83726446D02*
X18959854Y-16134446D01*
X255240189Y-102276380D02*
G75*
G03*
X253772968Y-104088314I11J-1500020D01*
G01*
X23042165Y-64676446D02*
X23042165Y-81726446D01*
X160496044Y-99892843D02*
G75*
G03*
X159028823Y-101080929I-44J-1499957D01*
G01*
X357556446Y-102276446D02*
X340506446Y-102276446D01*
X178520442Y-137056264D02*
X228103234Y-126517116D01*
X91289443Y-124391843D02*
X150870859Y-137056264D01*
X353547748Y-21849426D02*
X176223460Y-21849439D01*
X365056446Y-16134446D02*
X358056446Y-16134446D01*
X23542165Y-64176365D02*
G75*
G03*
X23042165Y-64676446I35J-500035D01*
G01*
X356047674Y-60449426D02*
G75*
G03*
X357547748Y-61949426I1500026J26D01*
G01*
X174723461Y-20349439D02*
G75*
G03*
X176223460Y-21849439I1500039J39D01*
G01*
X272331354Y-103776446D02*
G75*
G03*
X270831446Y-102276446I-1499954J46D01*
G01*
X354047674Y-41399426D02*
G75*
G03*
X355547748Y-42899426I1500026J26D01*
G01*
X229620392Y-126803962D02*
X256859487Y-121014114D01*
X80912047Y-102710471D02*
X93293866Y-105342308D01*
X21542165Y-83226446D02*
X19459854Y-83226446D01*
X75609854Y-121326354D02*
G75*
G03*
X76109854Y-120826446I46J499954D01*
G01*
D12*
X358334285Y-139618571D02*
X358048571Y-138856666D01*
X357762857Y-139618571D01*
X358667619Y-139951904D02*
X357667619Y-140285238D01*
X358667619Y-140618571D01*
X358048571Y-140951904D02*
X358048571Y-141713809D01*
X357762857Y-142761428D02*
X357715238Y-142713809D01*
X357667619Y-142570952D01*
X357667619Y-142475714D01*
X357715238Y-142332857D01*
X357810476Y-142237619D01*
X357905714Y-142190000D01*
X358096190Y-142142380D01*
X358239047Y-142142380D01*
X358429523Y-142190000D01*
X358524761Y-142237619D01*
X358620000Y-142332857D01*
X358667619Y-142475714D01*
X358667619Y-142570952D01*
X358620000Y-142713809D01*
X358572380Y-142761428D01*
X358667619Y-143190000D02*
X357858095Y-143190000D01*
X357762857Y-143237619D01*
X357715238Y-143285238D01*
X357667619Y-143380476D01*
X357667619Y-143570952D01*
X357715238Y-143666190D01*
X357762857Y-143713809D01*
X357858095Y-143761428D01*
X358667619Y-143761428D01*
X358667619Y-144094761D02*
X358667619Y-144666190D01*
X357667619Y-144380476D02*
X358667619Y-144380476D01*
X19284285Y-139738571D02*
X18998571Y-138976666D01*
X18712857Y-139738571D01*
X19617619Y-140071904D02*
X18617619Y-140405238D01*
X19617619Y-140738571D01*
X18998571Y-141071904D02*
X18998571Y-141833809D01*
X18712857Y-142881428D02*
X18665238Y-142833809D01*
X18617619Y-142690952D01*
X18617619Y-142595714D01*
X18665238Y-142452857D01*
X18760476Y-142357619D01*
X18855714Y-142310000D01*
X19046190Y-142262380D01*
X19189047Y-142262380D01*
X19379523Y-142310000D01*
X19474761Y-142357619D01*
X19570000Y-142452857D01*
X19617619Y-142595714D01*
X19617619Y-142690952D01*
X19570000Y-142833809D01*
X19522380Y-142881428D01*
X19617619Y-143310000D02*
X18808095Y-143310000D01*
X18712857Y-143357619D01*
X18665238Y-143405238D01*
X18617619Y-143500476D01*
X18617619Y-143690952D01*
X18665238Y-143786190D01*
X18712857Y-143833809D01*
X18808095Y-143881428D01*
X19617619Y-143881428D01*
X19617619Y-144214761D02*
X19617619Y-144786190D01*
X18617619Y-144500476D02*
X19617619Y-144500476D01*
M02*
