%TF.GenerationSoftware,KiCad,Pcbnew,(6.0.9)*%
%TF.CreationDate,2023-01-04T06:44:43+09:00*%
%TF.ProjectId,Skeleton68rev2,536b656c-6574-46f6-9e36-38726576322e,rev?*%
%TF.SameCoordinates,Original*%
%TF.FileFunction,Profile,NP*%
%FSLAX46Y46*%
G04 Gerber Fmt 4.6, Leading zero omitted, Abs format (unit mm)*
G04 Created by KiCad (PCBNEW (6.0.9)) date 2023-01-04 06:44:43*
%MOMM*%
%LPD*%
G01*
G04 APERTURE LIST*
%ADD10C,0.150000*%
%TA.AperFunction,Profile*%
%ADD11C,0.100000*%
%TD*%
%TA.AperFunction,Profile*%
%ADD12C,0.500000*%
%TD*%
%TA.AperFunction,Profile*%
%ADD13C,0.120000*%
%TD*%
G04 APERTURE END LIST*
D10*
X386881537Y-72078445D02*
X386881492Y-71507017D01*
X386881515Y-71792731D02*
X387881515Y-71792651D01*
X387738650Y-71697424D01*
X387643404Y-71602194D01*
X387595777Y-71506959D01*
X387786330Y-72459325D02*
X387833953Y-72506940D01*
X387881579Y-72602175D01*
X387881598Y-72840270D01*
X387833987Y-72935512D01*
X387786372Y-72983135D01*
X387691137Y-73030761D01*
X387595899Y-73030769D01*
X387453038Y-72983161D01*
X386881564Y-72411779D01*
X386881614Y-73030826D01*
X387548349Y-73887916D02*
X386881682Y-73887969D01*
X387929282Y-73649790D02*
X387214978Y-73411752D01*
X387215027Y-74030799D01*
X386976962Y-74411771D02*
X386929347Y-74459394D01*
X386881724Y-74411779D01*
X386929339Y-74364156D01*
X386976962Y-74411771D01*
X386881724Y-74411779D01*
X386881766Y-74935588D02*
X386881781Y-75126064D01*
X386929408Y-75221299D01*
X386977031Y-75268914D01*
X387119896Y-75364140D01*
X387310376Y-75411744D01*
X387691328Y-75411714D01*
X387786562Y-75364087D01*
X387834178Y-75316464D01*
X387881789Y-75221222D01*
X387881774Y-75030746D01*
X387834147Y-74935512D01*
X387786524Y-74887897D01*
X387691282Y-74840285D01*
X387453187Y-74840304D01*
X387357953Y-74887931D01*
X387310338Y-74935554D01*
X387262726Y-75030796D01*
X387262741Y-75221272D01*
X387310368Y-75316506D01*
X387357991Y-75364121D01*
X387453233Y-75411733D01*
X387881831Y-75745032D02*
X387881880Y-76364079D01*
X387500901Y-76030777D01*
X387500913Y-76173634D01*
X387453301Y-76268876D01*
X387405686Y-76316498D01*
X387310452Y-76364125D01*
X387072357Y-76364144D01*
X386977115Y-76316533D01*
X386929492Y-76268918D01*
X386881865Y-76173683D01*
X386881842Y-75887969D01*
X386929454Y-75792727D01*
X386977069Y-75745104D01*
X387786673Y-76745039D02*
X387834296Y-76792655D01*
X387881922Y-76887889D01*
X387881941Y-77125984D01*
X387834330Y-77221226D01*
X387786715Y-77268849D01*
X387691481Y-77316476D01*
X387596242Y-77316483D01*
X387453381Y-77268876D01*
X386881907Y-76697493D01*
X386881957Y-77316540D01*
X387882006Y-77935508D02*
X387882014Y-78030746D01*
X387834402Y-78125988D01*
X387786787Y-78173611D01*
X387691553Y-78221238D01*
X387501081Y-78268872D01*
X387262985Y-78268891D01*
X387072505Y-78221287D01*
X386977263Y-78173676D01*
X386929641Y-78126060D01*
X386882014Y-78030826D01*
X386882006Y-77935588D01*
X386929618Y-77840346D01*
X386977233Y-77792723D01*
X387072467Y-77745097D01*
X387262940Y-77697462D01*
X387501035Y-77697443D01*
X387691515Y-77745047D01*
X387786757Y-77792658D01*
X387834380Y-77840274D01*
X387882006Y-77935508D01*
X386882128Y-79459398D02*
X387548795Y-79459344D01*
X387453557Y-79459352D02*
X387501180Y-79506967D01*
X387548806Y-79602201D01*
X387548818Y-79745058D01*
X387501206Y-79840300D01*
X387405972Y-79887927D01*
X386882163Y-79887969D01*
X387405972Y-79887927D02*
X387501214Y-79935538D01*
X387548841Y-80030773D01*
X387548852Y-80173630D01*
X387501241Y-80268872D01*
X387406006Y-80316498D01*
X386882197Y-80316540D01*
X386882235Y-80792731D02*
X387548902Y-80792678D01*
X387453664Y-80792685D02*
X387501286Y-80840300D01*
X387548913Y-80935535D01*
X387548925Y-81078392D01*
X387501313Y-81173634D01*
X387406079Y-81221260D01*
X386882269Y-81221302D01*
X387406079Y-81221260D02*
X387501321Y-81268872D01*
X387548947Y-81364106D01*
X387548959Y-81506963D01*
X387501347Y-81602205D01*
X387406113Y-81649832D01*
X386882304Y-81649874D01*
D11*
X365560000Y-139069960D02*
X386775701Y-139068262D01*
X365550000Y-14137963D02*
X386765701Y-14136265D01*
X386189281Y-139068309D02*
X386179281Y-14136312D01*
X386189281Y-139068309D02*
X386179281Y-14136312D01*
X386189281Y-139068309D02*
X386775612Y-137941758D01*
X386189281Y-139068309D02*
X385602770Y-137941852D01*
X386179281Y-14136312D02*
X385592950Y-15262863D01*
X386179281Y-14136312D02*
X386765792Y-15262769D01*
D10*
X183358846Y-164482380D02*
X183977894Y-164482380D01*
X183644561Y-164863333D01*
X183787418Y-164863333D01*
X183882656Y-164910952D01*
X183930275Y-164958571D01*
X183977894Y-165053809D01*
X183977894Y-165291904D01*
X183930275Y-165387142D01*
X183882656Y-165434761D01*
X183787418Y-165482380D01*
X183501704Y-165482380D01*
X183406465Y-165434761D01*
X183358846Y-165387142D01*
X184882656Y-164482380D02*
X184406465Y-164482380D01*
X184358846Y-164958571D01*
X184406465Y-164910952D01*
X184501704Y-164863333D01*
X184739799Y-164863333D01*
X184835037Y-164910952D01*
X184882656Y-164958571D01*
X184930275Y-165053809D01*
X184930275Y-165291904D01*
X184882656Y-165387142D01*
X184835037Y-165434761D01*
X184739799Y-165482380D01*
X184501704Y-165482380D01*
X184406465Y-165434761D01*
X184358846Y-165387142D01*
X185263608Y-164482380D02*
X185882656Y-164482380D01*
X185549323Y-164863333D01*
X185692180Y-164863333D01*
X185787418Y-164910952D01*
X185835037Y-164958571D01*
X185882656Y-165053809D01*
X185882656Y-165291904D01*
X185835037Y-165387142D01*
X185787418Y-165434761D01*
X185692180Y-165482380D01*
X185406465Y-165482380D01*
X185311227Y-165434761D01*
X185263608Y-165387142D01*
X186311227Y-165387142D02*
X186358846Y-165434761D01*
X186311227Y-165482380D01*
X186263608Y-165434761D01*
X186311227Y-165387142D01*
X186311227Y-165482380D01*
X186977894Y-164482380D02*
X187073132Y-164482380D01*
X187168370Y-164530000D01*
X187215989Y-164577619D01*
X187263608Y-164672857D01*
X187311227Y-164863333D01*
X187311227Y-165101428D01*
X187263608Y-165291904D01*
X187215989Y-165387142D01*
X187168370Y-165434761D01*
X187073132Y-165482380D01*
X186977894Y-165482380D01*
X186882656Y-165434761D01*
X186835037Y-165387142D01*
X186787418Y-165291904D01*
X186739799Y-165101428D01*
X186739799Y-164863333D01*
X186787418Y-164672857D01*
X186835037Y-164577619D01*
X186882656Y-164530000D01*
X186977894Y-164482380D01*
X187787418Y-165482380D02*
X187977894Y-165482380D01*
X188073132Y-165434761D01*
X188120751Y-165387142D01*
X188215989Y-165244285D01*
X188263608Y-165053809D01*
X188263608Y-164672857D01*
X188215989Y-164577619D01*
X188168370Y-164530000D01*
X188073132Y-164482380D01*
X187882656Y-164482380D01*
X187787418Y-164530000D01*
X187739799Y-164577619D01*
X187692180Y-164672857D01*
X187692180Y-164910952D01*
X187739799Y-165006190D01*
X187787418Y-165053809D01*
X187882656Y-165101428D01*
X188073132Y-165101428D01*
X188168370Y-165053809D01*
X188215989Y-165006190D01*
X188263608Y-164910952D01*
X189120751Y-164482380D02*
X188930275Y-164482380D01*
X188835037Y-164530000D01*
X188787418Y-164577619D01*
X188692180Y-164720476D01*
X188644561Y-164910952D01*
X188644561Y-165291904D01*
X188692180Y-165387142D01*
X188739799Y-165434761D01*
X188835037Y-165482380D01*
X189025513Y-165482380D01*
X189120751Y-165434761D01*
X189168370Y-165387142D01*
X189215989Y-165291904D01*
X189215989Y-165053809D01*
X189168370Y-164958571D01*
X189120751Y-164910952D01*
X189025513Y-164863333D01*
X188835037Y-164863333D01*
X188739799Y-164910952D01*
X188692180Y-164958571D01*
X188644561Y-165053809D01*
X190073132Y-164482380D02*
X189882656Y-164482380D01*
X189787418Y-164530000D01*
X189739799Y-164577619D01*
X189644561Y-164720476D01*
X189596942Y-164910952D01*
X189596942Y-165291904D01*
X189644561Y-165387142D01*
X189692180Y-165434761D01*
X189787418Y-165482380D01*
X189977894Y-165482380D01*
X190073132Y-165434761D01*
X190120751Y-165387142D01*
X190168370Y-165291904D01*
X190168370Y-165053809D01*
X190120751Y-164958571D01*
X190073132Y-164910952D01*
X189977894Y-164863333D01*
X189787418Y-164863333D01*
X189692180Y-164910952D01*
X189644561Y-164958571D01*
X189596942Y-165053809D01*
X191358846Y-165482380D02*
X191358846Y-164815714D01*
X191358846Y-164910952D02*
X191406465Y-164863333D01*
X191501704Y-164815714D01*
X191644561Y-164815714D01*
X191739799Y-164863333D01*
X191787418Y-164958571D01*
X191787418Y-165482380D01*
X191787418Y-164958571D02*
X191835037Y-164863333D01*
X191930275Y-164815714D01*
X192073132Y-164815714D01*
X192168370Y-164863333D01*
X192215989Y-164958571D01*
X192215989Y-165482380D01*
X192692180Y-165482380D02*
X192692180Y-164815714D01*
X192692180Y-164910952D02*
X192739799Y-164863333D01*
X192835037Y-164815714D01*
X192977894Y-164815714D01*
X193073132Y-164863333D01*
X193120751Y-164958571D01*
X193120751Y-165482380D01*
X193120751Y-164958571D02*
X193168370Y-164863333D01*
X193263608Y-164815714D01*
X193406465Y-164815714D01*
X193501704Y-164863333D01*
X193549323Y-164958571D01*
X193549323Y-165482380D01*
D11*
X11953408Y-139559818D02*
X11953408Y-166766420D01*
X365050000Y-139559818D02*
X365050000Y-166766420D01*
X11953408Y-166180000D02*
X365050000Y-166180000D01*
X11953408Y-166180000D02*
X365050000Y-166180000D01*
X11953408Y-166180000D02*
X13079912Y-166766421D01*
X11953408Y-166180000D02*
X13079912Y-165593579D01*
X365050000Y-166180000D02*
X363923496Y-165593579D01*
X365050000Y-166180000D02*
X363923496Y-166766421D01*
X77603408Y-102280008D02*
G75*
G03*
X76103408Y-103780000I-8J-1499992D01*
G01*
X80905601Y-102714025D02*
X93287420Y-105345862D01*
X161787014Y-21853014D02*
G75*
G03*
X163287014Y-20352994I-14J1500014D01*
G01*
X19453408Y-83230008D02*
G75*
G03*
X18953408Y-83730000I-8J-499992D01*
G01*
X163787014Y-16138014D02*
G75*
G03*
X163287014Y-16638003I-14J-499986D01*
G01*
X357541302Y-81003002D02*
G75*
G03*
X358041302Y-80502980I-2J500002D01*
G01*
X229234677Y-126735775D02*
G75*
G03*
X228096788Y-126520670I-825977J-1252125D01*
G01*
X18953400Y-120830000D02*
G75*
G03*
X19453408Y-121330000I500000J0D01*
G01*
X170356032Y-101084483D02*
X177920966Y-136674700D01*
D12*
X18953408Y-14160000D02*
X18953408Y-139059818D01*
D11*
X29774021Y-45130021D02*
G75*
G03*
X31274021Y-43630000I-21J1500021D01*
G01*
X19453408Y-121330000D02*
X75603408Y-121330000D01*
X358041302Y-139059818D02*
X365050000Y-139059818D01*
X80695150Y-102613690D02*
G75*
G03*
X79751851Y-102280000I-943250J-1166310D01*
G01*
X354041302Y-41402980D02*
X354041302Y-22352980D01*
X358041302Y-14138003D02*
X365050000Y-14138003D01*
X340500000Y-81002980D02*
X357541302Y-81002980D01*
X255233743Y-102280042D02*
G75*
G03*
X253766522Y-104091868I-43J-1499958D01*
G01*
X340500000Y-81003000D02*
G75*
G03*
X339000000Y-82502980I0J-1500000D01*
G01*
X358050000Y-102780000D02*
G75*
G03*
X357550000Y-102280000I-500000J0D01*
G01*
X160489598Y-99896351D02*
X168888811Y-99896351D01*
X18953408Y-14160000D02*
X18953408Y-83730000D01*
X94442829Y-107124963D02*
G75*
G03*
X93287420Y-105345862I-1467229J311863D01*
G01*
X356041320Y-43402980D02*
G75*
G03*
X355541302Y-42902980I-500020J-20D01*
G01*
X25600509Y-64180009D02*
G75*
G03*
X27100509Y-62680000I-9J1500009D01*
G01*
X178513996Y-137059818D02*
X228096788Y-126520670D01*
X356041302Y-60452980D02*
X356041302Y-43402980D01*
X354041320Y-22352980D02*
G75*
G03*
X353541302Y-21852980I-500020J-20D01*
G01*
X150864428Y-137059749D02*
G75*
G03*
X151457443Y-136674700I103972J489049D01*
G01*
X339000000Y-100780000D02*
G75*
G03*
X340500000Y-102280000I1500000J0D01*
G01*
X170356060Y-101084477D02*
G75*
G03*
X168888811Y-99896351I-1467260J-311923D01*
G01*
X161787014Y-21852994D02*
X31774021Y-21853003D01*
X31274021Y-23853003D02*
X31274021Y-43630000D01*
X256853040Y-121017664D02*
G75*
G03*
X257238159Y-120424638I-103940J489064D01*
G01*
X75603408Y-121330008D02*
G75*
G03*
X76103408Y-120830000I-8J500008D01*
G01*
X31274021Y-22353003D02*
X31274021Y-23853003D01*
X229613946Y-126807516D02*
X256853041Y-121017668D01*
X18953408Y-14160000D02*
X11953408Y-14160000D01*
X11953408Y-14160000D02*
X11953408Y-139059818D01*
X23035719Y-64680000D02*
X23035719Y-81730000D01*
X174717014Y-20352993D02*
X174717014Y-16638003D01*
X18953408Y-139059818D02*
X11953408Y-139059818D01*
X31774021Y-21853021D02*
G75*
G03*
X31274021Y-22353003I-21J-499979D01*
G01*
X29774021Y-45130000D02*
X27600509Y-45130000D01*
X90897888Y-123802370D02*
G75*
G03*
X91282997Y-124395397I489112J-103930D01*
G01*
X272325000Y-103780000D02*
X272325000Y-120830000D01*
X229234658Y-126735804D02*
G75*
G03*
X229613946Y-126807516I275342J417404D01*
G01*
X27600509Y-45130009D02*
G75*
G03*
X27100509Y-45630000I-9J-499991D01*
G01*
X255233743Y-102280000D02*
X270825000Y-102280000D01*
X18953408Y-139059818D02*
X18953408Y-120830000D01*
X357550000Y-121330000D02*
G75*
G03*
X358050000Y-120830000I0J500000D01*
G01*
X358041302Y-139059818D02*
X358050000Y-120830000D01*
X358050000Y-102780000D02*
X358041302Y-80502980D01*
X357550000Y-102280000D02*
X340500000Y-102280000D01*
D12*
X358041302Y-14138003D02*
X358041302Y-139059818D01*
D11*
X272825000Y-121330000D02*
X357550000Y-121330000D01*
X174217014Y-16138003D02*
X163787014Y-16138003D01*
X365050000Y-14138003D02*
X365050000Y-139059818D01*
X354041320Y-41402980D02*
G75*
G03*
X355541302Y-42902980I1499980J-20D01*
G01*
X339000000Y-100780000D02*
X339000000Y-82502980D01*
X91282997Y-124395397D02*
X150864413Y-137059818D01*
X94442774Y-107124951D02*
X90897879Y-123802368D01*
X358041320Y-62452980D02*
G75*
G03*
X357541302Y-61952980I-500020J-20D01*
G01*
X23535719Y-64180019D02*
G75*
G03*
X23035719Y-64680000I-19J-499981D01*
G01*
X257238159Y-120424638D02*
X253766522Y-104091868D01*
X356041320Y-60452980D02*
G75*
G03*
X357541302Y-61952980I1499980J-20D01*
G01*
X177920886Y-136674717D02*
G75*
G03*
X178513996Y-137059818I489114J104017D01*
G01*
X80695148Y-102613691D02*
G75*
G03*
X80905601Y-102714025I314452J388691D01*
G01*
X76103408Y-120830000D02*
X76103408Y-103780000D01*
X163287014Y-16638003D02*
X163287014Y-20352994D01*
X25600509Y-64180000D02*
X23535719Y-64180000D01*
X272325000Y-103780000D02*
G75*
G03*
X270825000Y-102280000I-1500000J0D01*
G01*
X21535719Y-83230019D02*
G75*
G03*
X23035719Y-81730000I-19J1500019D01*
G01*
X353541302Y-21852980D02*
X176217014Y-21852993D01*
X174716997Y-16638003D02*
G75*
G03*
X174217014Y-16138003I-499997J3D01*
G01*
X358041302Y-62452980D02*
X358041302Y-14138003D01*
X21535719Y-83230000D02*
X19453408Y-83230000D01*
X160489598Y-99896388D02*
G75*
G03*
X159022377Y-101084483I2J-1500012D01*
G01*
X272325000Y-120830000D02*
G75*
G03*
X272825000Y-121330000I500000J0D01*
G01*
X27100509Y-45630000D02*
X27100509Y-62680000D01*
X151457443Y-136674700D02*
X159022377Y-101084483D01*
X77603408Y-102280000D02*
X79751851Y-102280000D01*
X174717007Y-20352993D02*
G75*
G03*
X176217014Y-21852993I1499993J-7D01*
G01*
D10*
X349950476Y-137622380D02*
X350283809Y-138622380D01*
X350617142Y-137622380D01*
X350950476Y-138241428D02*
X351712380Y-138241428D01*
X352760000Y-138527142D02*
X352712380Y-138574761D01*
X352569523Y-138622380D01*
X352474285Y-138622380D01*
X352331428Y-138574761D01*
X352236190Y-138479523D01*
X352188571Y-138384285D01*
X352140952Y-138193809D01*
X352140952Y-138050952D01*
X352188571Y-137860476D01*
X352236190Y-137765238D01*
X352331428Y-137670000D01*
X352474285Y-137622380D01*
X352569523Y-137622380D01*
X352712380Y-137670000D01*
X352760000Y-137717619D01*
X353617142Y-137955714D02*
X353617142Y-138622380D01*
X353188571Y-137955714D02*
X353188571Y-138479523D01*
X353236190Y-138574761D01*
X353331428Y-138622380D01*
X353474285Y-138622380D01*
X353569523Y-138574761D01*
X353617142Y-138527142D01*
X353950476Y-137955714D02*
X354331428Y-137955714D01*
X354093333Y-137622380D02*
X354093333Y-138479523D01*
X354140952Y-138574761D01*
X354236190Y-138622380D01*
X354331428Y-138622380D01*
X355426666Y-138241428D02*
X356188571Y-138241428D01*
X356664761Y-137955714D02*
X357426666Y-138241428D01*
X356664761Y-138527142D01*
X20395238Y-137965714D02*
X19633333Y-138251428D01*
X20395238Y-138537142D01*
X20871428Y-138251428D02*
X21633333Y-138251428D01*
X22728571Y-137632380D02*
X23061904Y-138632380D01*
X23395238Y-137632380D01*
X23728571Y-138251428D02*
X24490476Y-138251428D01*
X25538095Y-138537142D02*
X25490476Y-138584761D01*
X25347619Y-138632380D01*
X25252380Y-138632380D01*
X25109523Y-138584761D01*
X25014285Y-138489523D01*
X24966666Y-138394285D01*
X24919047Y-138203809D01*
X24919047Y-138060952D01*
X24966666Y-137870476D01*
X25014285Y-137775238D01*
X25109523Y-137680000D01*
X25252380Y-137632380D01*
X25347619Y-137632380D01*
X25490476Y-137680000D01*
X25538095Y-137727619D01*
X26395238Y-137965714D02*
X26395238Y-138632380D01*
X25966666Y-137965714D02*
X25966666Y-138489523D01*
X26014285Y-138584761D01*
X26109523Y-138632380D01*
X26252380Y-138632380D01*
X26347619Y-138584761D01*
X26395238Y-138537142D01*
X26728571Y-137965714D02*
X27109523Y-137965714D01*
X26871428Y-137632380D02*
X26871428Y-138489523D01*
X26919047Y-138584761D01*
X27014285Y-138632380D01*
X27109523Y-138632380D01*
D13*
%TO.C,LED30*%
X201379817Y-129187571D02*
X204705518Y-128480672D01*
X204081783Y-125546229D02*
X200756082Y-126253128D01*
X200756082Y-126253128D02*
X201379817Y-129187571D01*
X204705518Y-128480672D02*
X204081783Y-125546229D01*
%TO.C,LED15*%
X67606900Y-77282000D02*
X64206900Y-77282000D01*
X64206900Y-80282000D02*
X67606900Y-80282000D01*
X67606900Y-80282000D02*
X67606900Y-77282000D01*
X64206900Y-77282000D02*
X64206900Y-80282000D01*
%TO.C,LED43*%
X184440318Y-113312672D02*
X183816583Y-110378229D01*
X180490882Y-111085128D02*
X181114617Y-114019571D01*
X183816583Y-110378229D02*
X180490882Y-111085128D01*
X181114617Y-114019571D02*
X184440318Y-113312672D01*
%TO.C,LED25*%
X42093400Y-99332000D02*
X42093400Y-96332000D01*
X38693400Y-96332000D02*
X38693400Y-99332000D01*
X38693400Y-99332000D02*
X42093400Y-99332000D01*
X42093400Y-96332000D02*
X38693400Y-96332000D01*
%TO.C,LED12*%
X66909200Y-58232000D02*
X63509200Y-58232000D01*
X66909200Y-61232000D02*
X66909200Y-58232000D01*
X63509200Y-61232000D02*
X66909200Y-61232000D01*
X63509200Y-58232000D02*
X63509200Y-61232000D01*
%TO.C,LED64*%
X241810883Y-39624329D02*
X238485182Y-40331228D01*
X242434618Y-42558772D02*
X241810883Y-39624329D01*
X238485182Y-40331228D02*
X239108917Y-43265671D01*
X239108917Y-43265671D02*
X242434618Y-42558772D01*
%TO.C,LED7*%
X152802917Y-53486829D02*
X152179182Y-56421272D01*
X156128618Y-54193728D02*
X152802917Y-53486829D01*
X155504883Y-57128171D02*
X156128618Y-54193728D01*
X152179182Y-56421272D02*
X155504883Y-57128171D01*
%TO.C,LED9*%
X120267982Y-69113972D02*
X123593683Y-69820871D01*
X124217418Y-66886428D02*
X120891717Y-66179529D01*
X120891717Y-66179529D02*
X120267982Y-69113972D01*
X123593683Y-69820871D02*
X124217418Y-66886428D01*
%TO.C,LED36*%
X331183700Y-96332000D02*
X327783700Y-96332000D01*
X327783700Y-96332000D02*
X327783700Y-99332000D01*
X331183700Y-99332000D02*
X331183700Y-96332000D01*
X327783700Y-99332000D02*
X331183700Y-99332000D01*
%TO.C,LED40*%
X239717683Y-98496029D02*
X236391982Y-99202928D01*
X240341418Y-101430472D02*
X239717683Y-98496029D01*
X236391982Y-99202928D02*
X237015717Y-102137371D01*
X237015717Y-102137371D02*
X240341418Y-101430472D01*
%TO.C,LED37*%
X301590000Y-96332000D02*
X301590000Y-99332000D01*
X304990000Y-99332000D02*
X304990000Y-96332000D01*
X301590000Y-99332000D02*
X304990000Y-99332000D01*
X304990000Y-96332000D02*
X301590000Y-96332000D01*
%TO.C,LED13*%
X43096700Y-61232000D02*
X43096700Y-58232000D01*
X43096700Y-58232000D02*
X39696700Y-58232000D01*
X39696700Y-61232000D02*
X43096700Y-61232000D01*
X39696700Y-58232000D02*
X39696700Y-61232000D01*
%TO.C,LED58*%
X217861817Y-67257471D02*
X221187518Y-66550572D01*
X220563783Y-63616129D02*
X217238082Y-64323028D01*
X221187518Y-66550572D02*
X220563783Y-63616129D01*
X217238082Y-64323028D02*
X217861817Y-67257471D01*
%TO.C,LED34*%
X327783700Y-118382000D02*
X331183700Y-118382000D01*
X327783700Y-115382000D02*
X327783700Y-118382000D01*
X331183700Y-115382000D02*
X327783700Y-115382000D01*
X331183700Y-118382000D02*
X331183700Y-115382000D01*
%TO.C,LED24*%
X69649600Y-96332000D02*
X69649600Y-99332000D01*
X73049600Y-96332000D02*
X69649600Y-96332000D01*
X73049600Y-99332000D02*
X73049600Y-96332000D01*
X69649600Y-99332000D02*
X73049600Y-99332000D01*
%TO.C,LED31*%
X241100417Y-121354071D02*
X244426118Y-120647172D01*
X244426118Y-120647172D02*
X243802383Y-117712729D01*
X243802383Y-117712729D02*
X240476682Y-118419628D01*
X240476682Y-118419628D02*
X241100417Y-121354071D01*
%TO.C,LED53*%
X317738400Y-58232000D02*
X317738400Y-61232000D01*
X317738400Y-61232000D02*
X321138400Y-61232000D01*
X321138400Y-58232000D02*
X317738400Y-58232000D01*
X321138400Y-61232000D02*
X321138400Y-58232000D01*
%TO.C,LED42*%
X202450283Y-106417429D02*
X199124582Y-107124328D01*
X203074018Y-109351872D02*
X202450283Y-106417429D01*
X199124582Y-107124328D02*
X199748317Y-110058771D01*
X199748317Y-110058771D02*
X203074018Y-109351872D01*
%TO.C,LED65*%
X258525900Y-41441400D02*
X261925900Y-41441400D01*
X261925900Y-38441400D02*
X258525900Y-38441400D01*
X261925900Y-41441400D02*
X261925900Y-38441400D01*
X258525900Y-38441400D02*
X258525900Y-41441400D01*
%TO.C,LED49*%
X284238900Y-77282000D02*
X280838900Y-77282000D01*
X284238900Y-80282000D02*
X284238900Y-77282000D01*
X280838900Y-80282000D02*
X284238900Y-80282000D01*
X280838900Y-77282000D02*
X280838900Y-80282000D01*
%TO.C,LED18*%
X121589417Y-85803429D02*
X120965682Y-88737872D01*
X124291383Y-89444771D02*
X124915118Y-86510328D01*
X124915118Y-86510328D02*
X121589417Y-85803429D01*
X120965682Y-88737872D02*
X124291383Y-89444771D01*
%TO.C,LED2*%
X61557700Y-42182000D02*
X61557700Y-39182000D01*
X58157700Y-42182000D02*
X61557700Y-42182000D01*
X58157700Y-39182000D02*
X58157700Y-42182000D01*
X61557700Y-39182000D02*
X58157700Y-39182000D01*
%TO.C,LED1*%
X42507700Y-42182000D02*
X42507700Y-39182000D01*
X39107700Y-42182000D02*
X42507700Y-42182000D01*
X39107700Y-39182000D02*
X39107700Y-42182000D01*
X42507700Y-39182000D02*
X39107700Y-39182000D01*
%TO.C,LED66*%
X280975900Y-39182000D02*
X277575900Y-39182000D01*
X277575900Y-42182000D02*
X280975900Y-42182000D01*
X277575900Y-39182000D02*
X277575900Y-42182000D01*
X280975900Y-42182000D02*
X280975900Y-39182000D01*
%TO.C,LED63*%
X219851482Y-44291928D02*
X220475217Y-47226371D01*
X223177183Y-43585029D02*
X219851482Y-44291928D01*
X223800918Y-46519472D02*
X223177183Y-43585029D01*
X220475217Y-47226371D02*
X223800918Y-46519472D01*
%TO.C,LED56*%
X259225900Y-57491400D02*
X255825900Y-57491400D01*
X255825900Y-60491400D02*
X259225900Y-60491400D01*
X259225900Y-60491400D02*
X259225900Y-57491400D01*
X255825900Y-57491400D02*
X255825900Y-60491400D01*
%TO.C,LED39*%
X259746200Y-99332000D02*
X259746200Y-96332000D01*
X259746200Y-96332000D02*
X256346200Y-96332000D01*
X256346200Y-99332000D02*
X259746200Y-99332000D01*
X256346200Y-96332000D02*
X256346200Y-99332000D01*
%TO.C,LED11*%
X86949918Y-58964928D02*
X83624217Y-58258029D01*
X83000482Y-61192472D02*
X86326183Y-61899371D01*
X83624217Y-58258029D02*
X83000482Y-61192472D01*
X86326183Y-61899371D02*
X86949918Y-58964928D01*
%TO.C,LED28*%
X110714982Y-125510172D02*
X114040683Y-126217071D01*
X114040683Y-126217071D02*
X114664418Y-123282628D01*
X111338717Y-122575729D02*
X110714982Y-125510172D01*
X114664418Y-123282628D02*
X111338717Y-122575729D01*
%TO.C,LED26*%
X34949600Y-118382000D02*
X34949600Y-115382000D01*
X34949600Y-115382000D02*
X31549600Y-115382000D01*
X31549600Y-118382000D02*
X34949600Y-118382000D01*
X31549600Y-115382000D02*
X31549600Y-118382000D01*
%TO.C,LED52*%
X348225000Y-59005000D02*
X348225000Y-56005000D01*
X348225000Y-56005000D02*
X344825000Y-56005000D01*
X344825000Y-59005000D02*
X348225000Y-59005000D01*
X344825000Y-56005000D02*
X344825000Y-59005000D01*
%TO.C,LED51*%
X346825000Y-75055000D02*
X346825000Y-78055000D01*
X346825000Y-78055000D02*
X350225000Y-78055000D01*
X350225000Y-75055000D02*
X346825000Y-75055000D01*
X350225000Y-78055000D02*
X350225000Y-75055000D01*
%TO.C,LED5*%
X114911782Y-48499872D02*
X118237483Y-49206771D01*
X115535517Y-45565429D02*
X114911782Y-48499872D01*
X118237483Y-49206771D02*
X118861218Y-46272328D01*
X118861218Y-46272328D02*
X115535517Y-45565429D01*
%TO.C,LED46*%
X223114482Y-82549628D02*
X223738217Y-85484071D01*
X227063918Y-84777172D02*
X226440183Y-81842729D01*
X223738217Y-85484071D02*
X227063918Y-84777172D01*
X226440183Y-81842729D02*
X223114482Y-82549628D01*
%TO.C,LED3*%
X80607700Y-40867500D02*
X80607700Y-37867500D01*
X77207700Y-37867500D02*
X77207700Y-40867500D01*
X77207700Y-40867500D02*
X80607700Y-40867500D01*
X80607700Y-37867500D02*
X77207700Y-37867500D01*
%TO.C,LED44*%
X185846982Y-90471028D02*
X186470717Y-93405471D01*
X186470717Y-93405471D02*
X189796418Y-92698572D01*
X189796418Y-92698572D02*
X189172683Y-89764129D01*
X189172683Y-89764129D02*
X185846982Y-90471028D01*
%TO.C,LED19*%
X139599382Y-92698572D02*
X142925083Y-93405471D01*
X143548818Y-90471028D02*
X140223117Y-89764129D01*
X142925083Y-93405471D02*
X143548818Y-90471028D01*
X140223117Y-89764129D02*
X139599382Y-92698572D01*
%TO.C,LED67*%
X309550900Y-42182000D02*
X309550900Y-39182000D01*
X309550900Y-39182000D02*
X306150900Y-39182000D01*
X306150900Y-42182000D02*
X309550900Y-42182000D01*
X306150900Y-39182000D02*
X306150900Y-42182000D01*
%TO.C,LED41*%
X218382017Y-106098071D02*
X221707718Y-105391172D01*
X217758282Y-103163628D02*
X218382017Y-106098071D01*
X221083983Y-102456729D02*
X217758282Y-103163628D01*
X221707718Y-105391172D02*
X221083983Y-102456729D01*
%TO.C,LED27*%
X60124600Y-115382000D02*
X60124600Y-118382000D01*
X60124600Y-118382000D02*
X63524600Y-118382000D01*
X63524600Y-115382000D02*
X60124600Y-115382000D01*
X63524600Y-118382000D02*
X63524600Y-115382000D01*
%TO.C,LED50*%
X311795100Y-80282000D02*
X315195100Y-80282000D01*
X315195100Y-77282000D02*
X311795100Y-77282000D01*
X311795100Y-77282000D02*
X311795100Y-80282000D01*
X315195100Y-80282000D02*
X315195100Y-77282000D01*
%TO.C,LED4*%
X96278082Y-44539172D02*
X99603783Y-45246071D01*
X96901817Y-41604729D02*
X96278082Y-44539172D01*
X99603783Y-45246071D02*
X100227518Y-42311628D01*
X100227518Y-42311628D02*
X96901817Y-41604729D01*
%TO.C,LED60*%
X183920018Y-74472072D02*
X183296283Y-71537629D01*
X180594317Y-75178971D02*
X183920018Y-74472072D01*
X183296283Y-71537629D02*
X179970582Y-72244528D01*
X179970582Y-72244528D02*
X180594317Y-75178971D01*
%TO.C,LED61*%
X185909683Y-51506529D02*
X182583982Y-52213428D01*
X186533418Y-54440972D02*
X185909683Y-51506529D01*
X183207717Y-55147871D02*
X186533418Y-54440972D01*
X182583982Y-52213428D02*
X183207717Y-55147871D01*
%TO.C,LED57*%
X236495517Y-63296771D02*
X239821218Y-62589872D01*
X239821218Y-62589872D02*
X239197483Y-59655429D01*
X239197483Y-59655429D02*
X235871782Y-60362328D01*
X235871782Y-60362328D02*
X236495517Y-63296771D01*
%TO.C,LED20*%
X145579217Y-110378229D02*
X144955482Y-113312672D01*
X144955482Y-113312672D02*
X148281183Y-114019571D01*
X148904918Y-111085128D02*
X145579217Y-110378229D01*
X148281183Y-114019571D02*
X148904918Y-111085128D01*
%TO.C,LED48*%
X265188900Y-80282000D02*
X265188900Y-77282000D01*
X265188900Y-77282000D02*
X261788900Y-77282000D01*
X261788900Y-80282000D02*
X265188900Y-80282000D01*
X261788900Y-77282000D02*
X261788900Y-80282000D01*
%TO.C,LED29*%
X144944218Y-129718828D02*
X141618517Y-129011929D01*
X141618517Y-129011929D02*
X140994782Y-131946372D01*
X140994782Y-131946372D02*
X144320483Y-132653271D01*
X144320483Y-132653271D02*
X144944218Y-129718828D01*
%TO.C,LED38*%
X278796200Y-96332000D02*
X275396200Y-96332000D01*
X275396200Y-99332000D02*
X278796200Y-99332000D01*
X275396200Y-96332000D02*
X275396200Y-99332000D01*
X278796200Y-99332000D02*
X278796200Y-96332000D01*
%TO.C,LED33*%
X308733700Y-115382000D02*
X308733700Y-118382000D01*
X312133700Y-118382000D02*
X312133700Y-115382000D01*
X308733700Y-118382000D02*
X312133700Y-118382000D01*
X312133700Y-115382000D02*
X308733700Y-115382000D01*
%TO.C,LED35*%
X346833700Y-115382000D02*
X346833700Y-118382000D01*
X346833700Y-118382000D02*
X350233700Y-118382000D01*
X350233700Y-118382000D02*
X350233700Y-115382000D01*
X350233700Y-115382000D02*
X346833700Y-115382000D01*
%TO.C,LED16*%
X87023883Y-81523271D02*
X87647618Y-78588828D01*
X87647618Y-78588828D02*
X84321917Y-77881929D01*
X84321917Y-77881929D02*
X83698182Y-80816372D01*
X83698182Y-80816372D02*
X87023883Y-81523271D01*
%TO.C,LED62*%
X204543383Y-47545829D02*
X201217682Y-48252728D01*
X205167118Y-50480272D02*
X204543383Y-47545829D01*
X201841417Y-51187171D02*
X205167118Y-50480272D01*
X201217682Y-48252728D02*
X201841417Y-51187171D01*
%TO.C,LED23*%
X89678117Y-98496029D02*
X89054382Y-101430472D01*
X89054382Y-101430472D02*
X92380083Y-102137371D01*
X92380083Y-102137371D02*
X93003818Y-99202928D01*
X93003818Y-99202928D02*
X89678117Y-98496029D01*
%TO.C,LED10*%
X101634182Y-65153272D02*
X104959883Y-65860171D01*
X105583618Y-62925728D02*
X102257917Y-62218829D01*
X104959883Y-65860171D02*
X105583618Y-62925728D01*
X102257917Y-62218829D02*
X101634182Y-65153272D01*
%TO.C,LED17*%
X102955717Y-81842729D02*
X102331982Y-84777172D01*
X106281418Y-82549628D02*
X102955717Y-81842729D01*
X105657683Y-85484071D02*
X106281418Y-82549628D01*
X102331982Y-84777172D02*
X105657683Y-85484071D01*
%TO.C,LED54*%
X293925900Y-61232000D02*
X297325900Y-61232000D01*
X297325900Y-58232000D02*
X293925900Y-58232000D01*
X293925900Y-58232000D02*
X293925900Y-61232000D01*
X297325900Y-61232000D02*
X297325900Y-58232000D01*
%TO.C,LED68*%
X342825000Y-39955000D02*
X346225000Y-39955000D01*
X346225000Y-36955000D02*
X342825000Y-36955000D01*
X342825000Y-36955000D02*
X342825000Y-39955000D01*
X346225000Y-39955000D02*
X346225000Y-36955000D01*
%TO.C,LED22*%
X107688082Y-105391172D02*
X111013783Y-106098071D01*
X111013783Y-106098071D02*
X111637518Y-103163628D01*
X111637518Y-103163628D02*
X108311817Y-102456729D01*
X108311817Y-102456729D02*
X107688082Y-105391172D01*
%TO.C,LED6*%
X137494918Y-50233028D02*
X134169217Y-49526129D01*
X134169217Y-49526129D02*
X133545482Y-52460572D01*
X133545482Y-52460572D02*
X136871183Y-53167471D01*
X136871183Y-53167471D02*
X137494918Y-50233028D01*
%TO.C,LED32*%
X284921200Y-118382000D02*
X288321200Y-118382000D01*
X288321200Y-118382000D02*
X288321200Y-115382000D01*
X284921200Y-115382000D02*
X284921200Y-118382000D01*
X288321200Y-115382000D02*
X284921200Y-115382000D01*
%TO.C,LED55*%
X278275900Y-58232000D02*
X274875900Y-58232000D01*
X278275900Y-61232000D02*
X278275900Y-58232000D01*
X274875900Y-58232000D02*
X274875900Y-61232000D01*
X274875900Y-61232000D02*
X278275900Y-61232000D01*
%TO.C,LED8*%
X138901682Y-73074672D02*
X142227383Y-73781571D01*
X142227383Y-73781571D02*
X142851118Y-70847128D01*
X139525417Y-70140229D02*
X138901682Y-73074672D01*
X142851118Y-70847128D02*
X139525417Y-70140229D01*
%TO.C,LED45*%
X207806383Y-85803429D02*
X204480682Y-86510328D01*
X205104417Y-89444771D02*
X208430118Y-88737872D01*
X204480682Y-86510328D02*
X205104417Y-89444771D01*
X208430118Y-88737872D02*
X207806383Y-85803429D01*
%TO.C,LED14*%
X41413200Y-77282000D02*
X38013200Y-77282000D01*
X38013200Y-77282000D02*
X38013200Y-80282000D01*
X41413200Y-80282000D02*
X41413200Y-77282000D01*
X38013200Y-80282000D02*
X41413200Y-80282000D01*
%TO.C,LED21*%
X126321782Y-109351872D02*
X129647483Y-110058771D01*
X126945517Y-106417429D02*
X126321782Y-109351872D01*
X129647483Y-110058771D02*
X130271218Y-107124328D01*
X130271218Y-107124328D02*
X126945517Y-106417429D01*
%TO.C,LED59*%
X202553718Y-70511272D02*
X201929983Y-67576829D01*
X199228017Y-71218171D02*
X202553718Y-70511272D01*
X201929983Y-67576829D02*
X198604282Y-68283728D01*
X198604282Y-68283728D02*
X199228017Y-71218171D01*
%TO.C,LED47*%
X245073883Y-77881929D02*
X241748182Y-78588828D01*
X241748182Y-78588828D02*
X242371917Y-81523271D01*
X242371917Y-81523271D02*
X245697618Y-80816372D01*
X245697618Y-80816372D02*
X245073883Y-77881929D01*
%TD*%
M02*
