%TF.GenerationSoftware,KiCad,Pcbnew,(6.0.9)*%
%TF.CreationDate,2023-01-04T06:44:43+09:00*%
%TF.ProjectId,Skeleton68rev2,536b656c-6574-46f6-9e36-38726576322e,rev?*%
%TF.SameCoordinates,Original*%
%TF.FileFunction,Soldermask,Bot*%
%TF.FilePolarity,Negative*%
%FSLAX46Y46*%
G04 Gerber Fmt 4.6, Leading zero omitted, Abs format (unit mm)*
G04 Created by KiCad (PCBNEW (6.0.9)) date 2023-01-04 06:44:43*
%MOMM*%
%LPD*%
G01*
G04 APERTURE LIST*
G04 Aperture macros list*
%AMRoundRect*
0 Rectangle with rounded corners*
0 $1 Rounding radius*
0 $2 $3 $4 $5 $6 $7 $8 $9 X,Y pos of 4 corners*
0 Add a 4 corners polygon primitive as box body*
4,1,4,$2,$3,$4,$5,$6,$7,$8,$9,$2,$3,0*
0 Add four circle primitives for the rounded corners*
1,1,$1+$1,$2,$3*
1,1,$1+$1,$4,$5*
1,1,$1+$1,$6,$7*
1,1,$1+$1,$8,$9*
0 Add four rect primitives between the rounded corners*
20,1,$1+$1,$2,$3,$4,$5,0*
20,1,$1+$1,$4,$5,$6,$7,0*
20,1,$1+$1,$6,$7,$8,$9,0*
20,1,$1+$1,$8,$9,$2,$3,0*%
%AMRotRect*
0 Rectangle, with rotation*
0 The origin of the aperture is its center*
0 $1 length*
0 $2 width*
0 $3 Rotation angle, in degrees counterclockwise*
0 Add horizontal line*
21,1,$1,$2,0,0,$3*%
G04 Aperture macros list end*
%ADD10C,4.400000*%
%ADD11C,0.700000*%
%ADD12RotRect,0.900000X1.200000X102.000000*%
%ADD13RotRect,1.700000X0.820000X192.000000*%
%ADD14RoundRect,0.205000X0.588283X0.334623X-0.673527X0.066417X-0.588283X-0.334623X0.673527X-0.066417X0*%
%ADD15R,1.200000X0.900000*%
%ADD16C,3.000000*%
%ADD17C,3.987800*%
%ADD18C,1.701800*%
%ADD19RoundRect,0.200000X1.269816X0.803550X-0.833201X1.250560X-1.269816X-0.803550X0.833201X-1.250560X0*%
%ADD20R,1.700000X0.820000*%
%ADD21RoundRect,0.205000X0.645000X0.205000X-0.645000X0.205000X-0.645000X-0.205000X0.645000X-0.205000X0*%
%ADD22RoundRect,0.135000X0.185000X-0.135000X0.185000X0.135000X-0.185000X0.135000X-0.185000X-0.135000X0*%
%ADD23RoundRect,0.200000X1.075000X1.050000X-1.075000X1.050000X-1.075000X-1.050000X1.075000X-1.050000X0*%
%ADD24RotRect,0.900000X1.200000X78.000000*%
%ADD25RotRect,1.700000X0.820000X12.000000*%
%ADD26RoundRect,0.205000X-0.588283X-0.334623X0.673527X-0.066417X0.588283X0.334623X-0.673527X0.066417X0*%
%ADD27R,1.800000X1.100000*%
%ADD28RoundRect,0.205000X-0.645000X-0.205000X0.645000X-0.205000X0.645000X0.205000X-0.645000X0.205000X0*%
%ADD29RoundRect,0.140000X-0.170000X0.140000X-0.170000X-0.140000X0.170000X-0.140000X0.170000X0.140000X0*%
%ADD30RoundRect,0.200000X0.833201X1.250560X-1.269816X0.803550X-0.833201X-1.250560X1.269816X-0.803550X0*%
%ADD31RotRect,1.700000X0.820000X168.000000*%
%ADD32RoundRect,0.205000X0.673527X0.066417X-0.588283X0.334623X-0.673527X-0.066417X0.588283X-0.334623X0*%
%ADD33RotRect,1.700000X0.820000X348.000000*%
%ADD34RoundRect,0.205000X-0.673527X-0.066417X0.588283X-0.334623X0.673527X0.066417X-0.588283X0.334623X0*%
%ADD35RoundRect,0.200000X-0.275000X0.200000X-0.275000X-0.200000X0.275000X-0.200000X0.275000X0.200000X0*%
%ADD36RoundRect,0.140000X0.170000X-0.140000X0.170000X0.140000X-0.170000X0.140000X-0.170000X-0.140000X0*%
%ADD37C,3.048000*%
%ADD38RoundRect,0.135000X-0.185000X0.135000X-0.185000X-0.135000X0.185000X-0.135000X0.185000X0.135000X0*%
%ADD39RoundRect,0.150000X0.150000X-0.512500X0.150000X0.512500X-0.150000X0.512500X-0.150000X-0.512500X0*%
%ADD40RoundRect,0.150000X0.150000X-0.587500X0.150000X0.587500X-0.150000X0.587500X-0.150000X-0.587500X0*%
%ADD41RoundRect,0.150000X0.587500X0.150000X-0.587500X0.150000X-0.587500X-0.150000X0.587500X-0.150000X0*%
%ADD42RoundRect,0.050000X0.387500X0.050000X-0.387500X0.050000X-0.387500X-0.050000X0.387500X-0.050000X0*%
%ADD43RoundRect,0.050000X0.050000X0.387500X-0.050000X0.387500X-0.050000X-0.387500X0.050000X-0.387500X0*%
%ADD44R,3.200000X3.200000*%
%ADD45C,0.650000*%
%ADD46R,0.600000X1.450000*%
%ADD47R,0.300000X1.450000*%
%ADD48O,1.000000X2.100000*%
%ADD49O,1.000000X1.600000*%
%ADD50RoundRect,0.150000X-0.150000X0.650000X-0.150000X-0.650000X0.150000X-0.650000X0.150000X0.650000X0*%
%ADD51R,1.400000X1.200000*%
%ADD52RoundRect,0.250000X-0.625000X0.375000X-0.625000X-0.375000X0.625000X-0.375000X0.625000X0.375000X0*%
G04 APERTURE END LIST*
D10*
%TO.C,H6*%
X225315600Y-107635100D03*
D11*
X226965600Y-107635100D03*
X225315600Y-109285100D03*
X226482326Y-106468374D03*
X225315600Y-105985100D03*
X226482326Y-108801826D03*
X223665600Y-107635100D03*
X224148874Y-106468374D03*
X224148874Y-108801826D03*
%TD*%
%TO.C,H4*%
X136689200Y-112916400D03*
X135522474Y-113399674D03*
X138339200Y-114566400D03*
X136689200Y-116216400D03*
X137855926Y-113399674D03*
X135522474Y-115733126D03*
D10*
X136689200Y-114566400D03*
D11*
X135039200Y-114566400D03*
X137855926Y-115733126D03*
%TD*%
%TO.C,H1*%
X55684200Y-43477000D03*
X57334200Y-45127000D03*
X56850926Y-46293726D03*
X54517474Y-46293726D03*
X54517474Y-43960274D03*
D10*
X55684200Y-45127000D03*
D11*
X54034200Y-45127000D03*
X55684200Y-46777000D03*
X56850926Y-43960274D03*
%TD*%
%TO.C,H7*%
X325250900Y-45127000D03*
X326900900Y-43477000D03*
X328550900Y-45127000D03*
D10*
X326900900Y-45127000D03*
D11*
X328067626Y-46293726D03*
X326900900Y-46777000D03*
X325734174Y-46293726D03*
X325734174Y-43960274D03*
X328067626Y-43960274D03*
%TD*%
%TO.C,H3*%
X132946100Y-55694700D03*
X135762826Y-54527974D03*
X133429374Y-54527974D03*
X135762826Y-56861426D03*
X133429374Y-56861426D03*
X134596100Y-54044700D03*
X136246100Y-55694700D03*
X134596100Y-57344700D03*
D10*
X134596100Y-55694700D03*
%TD*%
D11*
%TO.C,H5*%
X245776800Y-45209900D03*
X242476800Y-45209900D03*
X242960074Y-46376626D03*
D10*
X244126800Y-45209900D03*
D11*
X244126800Y-43559900D03*
X245293526Y-46376626D03*
X244126800Y-46859900D03*
X245293526Y-44043174D03*
X242960074Y-44043174D03*
%TD*%
%TO.C,H8*%
X318791974Y-101110274D03*
X319958700Y-100627000D03*
X321125426Y-101110274D03*
X318791974Y-103443726D03*
X318308700Y-102277000D03*
D10*
X319958700Y-102277000D03*
D11*
X319958700Y-103927000D03*
X321608700Y-102277000D03*
X321125426Y-103443726D03*
%TD*%
%TO.C,H2*%
X48703826Y-110635274D03*
X46370374Y-110635274D03*
X49187100Y-111802000D03*
X45887100Y-111802000D03*
X47537100Y-110152000D03*
D10*
X47537100Y-111802000D03*
D11*
X46370374Y-112968726D03*
X47537100Y-113452000D03*
X48703826Y-112968726D03*
%TD*%
D12*
%TO.C,D9*%
X210475654Y-44285344D03*
X209789546Y-41057456D03*
%TD*%
D13*
%TO.C,LED30*%
X205478825Y-127549545D03*
X205166957Y-126082323D03*
D14*
X199982775Y-127184255D03*
D13*
X200294643Y-128651477D03*
%TD*%
D15*
%TO.C,D44*%
X355390000Y-78460000D03*
X355390000Y-75160000D03*
%TD*%
D16*
%TO.C,SW35*%
X120797953Y-79378462D03*
D17*
X123996600Y-82655100D03*
D18*
X119027610Y-81598909D03*
X128965590Y-83711291D03*
D16*
X127537286Y-78214206D03*
D19*
X117594520Y-78697551D03*
X130767130Y-78900730D03*
%TD*%
D20*
%TO.C,LED15*%
X68556900Y-79532000D03*
X68556900Y-78032000D03*
D21*
X63256900Y-78032000D03*
D20*
X63256900Y-79532000D03*
%TD*%
D22*
%TO.C,R7*%
X170970000Y-86517500D03*
X170970000Y-85497500D03*
%TD*%
D17*
%TO.C,SW41*%
X263488900Y-73702000D03*
D18*
X268568900Y-73702000D03*
D16*
X259678900Y-71162000D03*
D18*
X258408900Y-73702000D03*
D16*
X266028900Y-68622000D03*
D23*
X256403900Y-71162000D03*
X269330900Y-68622000D03*
%TD*%
D24*
%TO.C,D62*%
X151556946Y-129313944D03*
X152243054Y-126086056D03*
%TD*%
D25*
%TO.C,LED43*%
X179717575Y-112016255D03*
X180029443Y-113483477D03*
D26*
X185213625Y-112381545D03*
D25*
X184901757Y-110914323D03*
%TD*%
D12*
%TO.C,D64*%
X249734554Y-114452344D03*
X249048446Y-111224456D03*
%TD*%
D17*
%TO.C,SW55*%
X258046200Y-92752000D03*
D16*
X260586200Y-87672000D03*
D18*
X263126200Y-92752000D03*
X252966200Y-92752000D03*
D16*
X254236200Y-90212000D03*
D23*
X250961200Y-90212000D03*
X263888200Y-87672000D03*
%TD*%
D27*
%TO.C,TS1*%
X167500000Y-84760000D03*
X161300000Y-84760000D03*
X167500000Y-88460000D03*
X161300000Y-88460000D03*
%TD*%
D20*
%TO.C,LED25*%
X37743400Y-97082000D03*
X37743400Y-98582000D03*
D28*
X43043400Y-98582000D03*
D20*
X43043400Y-97082000D03*
%TD*%
D15*
%TO.C,D30*%
X353400000Y-59840000D03*
X353400000Y-56540000D03*
%TD*%
D29*
%TO.C,C1*%
X168340000Y-81340000D03*
X168340000Y-82300000D03*
%TD*%
D16*
%TO.C,SW24*%
X219584904Y-54970714D03*
D18*
X213187610Y-61523991D03*
X223125590Y-59411609D03*
D17*
X218156600Y-60467800D03*
D16*
X213901762Y-58775449D03*
D30*
X210698329Y-59456359D03*
X222814747Y-54284190D03*
%TD*%
D18*
%TO.C,SW8*%
X188471490Y-47302009D03*
X178533510Y-49414391D03*
D16*
X179247662Y-46665849D03*
X184930804Y-42861114D03*
D17*
X183502500Y-48358200D03*
D30*
X176044229Y-47346759D03*
X188160647Y-42174590D03*
%TD*%
D18*
%TO.C,SW53*%
X213707810Y-100364591D03*
X223645790Y-98252209D03*
D17*
X218676800Y-99308400D03*
D16*
X214421962Y-97616049D03*
X220105104Y-93811314D03*
D30*
X211218529Y-98296959D03*
X223334947Y-93124790D03*
%TD*%
D18*
%TO.C,SW68*%
X353613700Y-111802000D03*
X343453700Y-111802000D03*
D17*
X348533700Y-111802000D03*
D16*
X344723700Y-109262000D03*
X351073700Y-106722000D03*
D23*
X341448700Y-109262000D03*
X354375700Y-106722000D03*
%TD*%
D20*
%TO.C,LED12*%
X62559200Y-58982000D03*
X62559200Y-60482000D03*
D28*
X67859200Y-60482000D03*
D20*
X67859200Y-58982000D03*
%TD*%
D13*
%TO.C,LED64*%
X243207925Y-41627645D03*
X242896057Y-40160423D03*
D14*
X237711875Y-41262355D03*
D13*
X238023743Y-42729577D03*
%TD*%
D31*
%TO.C,LED7*%
X156590057Y-56592077D03*
X156901925Y-55124855D03*
D32*
X151717743Y-54022923D03*
D31*
X151405875Y-55490145D03*
%TD*%
D15*
%TO.C,D58*%
X336340000Y-99250000D03*
X336340000Y-95950000D03*
%TD*%
D16*
%TO.C,SW15*%
X347065000Y-28295000D03*
D17*
X344525000Y-33375000D03*
D16*
X340715000Y-30835000D03*
D18*
X339445000Y-33375000D03*
X349605000Y-33375000D03*
D23*
X337440000Y-30835000D03*
X350367000Y-28295000D03*
%TD*%
D33*
%TO.C,LED9*%
X119806543Y-66715623D03*
X119494675Y-68182845D03*
D34*
X124678857Y-69284777D03*
D33*
X124990725Y-67817555D03*
%TD*%
D20*
%TO.C,LED36*%
X326833700Y-97082000D03*
X326833700Y-98582000D03*
D28*
X332133700Y-98582000D03*
D20*
X332133700Y-97082000D03*
%TD*%
D24*
%TO.C,D21*%
X149463846Y-70442244D03*
X150149954Y-67214356D03*
%TD*%
D25*
%TO.C,LED40*%
X235618675Y-100134055D03*
X235930543Y-101601277D03*
D26*
X241114725Y-100499345D03*
D25*
X240802857Y-99032123D03*
%TD*%
D20*
%TO.C,LED37*%
X300640000Y-97082000D03*
X300640000Y-98582000D03*
D28*
X305940000Y-98582000D03*
D20*
X305940000Y-97082000D03*
%TD*%
%TO.C,LED13*%
X38746700Y-58982000D03*
X38746700Y-60482000D03*
D28*
X44046700Y-60482000D03*
D20*
X44046700Y-58982000D03*
%TD*%
D25*
%TO.C,LED58*%
X216464775Y-65254155D03*
X216776643Y-66721377D03*
D26*
X221960825Y-65619445D03*
D25*
X221648957Y-64152223D03*
%TD*%
D24*
%TO.C,D35*%
X131527846Y-86105444D03*
X132213954Y-82877556D03*
%TD*%
D20*
%TO.C,LED34*%
X332133700Y-117632000D03*
X332133700Y-116132000D03*
D21*
X326833700Y-116132000D03*
D20*
X326833700Y-117632000D03*
%TD*%
D12*
%TO.C,D40*%
X251006054Y-74621544D03*
X250319946Y-71393656D03*
%TD*%
D35*
%TO.C,R8*%
X153520000Y-33455000D03*
X153520000Y-35105000D03*
%TD*%
D15*
%TO.C,D3*%
X87207700Y-35937500D03*
X87207700Y-32637500D03*
%TD*%
D20*
%TO.C,LED24*%
X68699600Y-97082000D03*
X68699600Y-98582000D03*
D28*
X73999600Y-98582000D03*
D20*
X73999600Y-97082000D03*
%TD*%
D36*
%TO.C,C2*%
X173930000Y-86467500D03*
X173930000Y-85507500D03*
%TD*%
D13*
%TO.C,LED31*%
X245199425Y-119716045D03*
X244887557Y-118248823D03*
D14*
X239703375Y-119350755D03*
D13*
X240015243Y-120817977D03*
%TD*%
D15*
%TO.C,D67*%
X337783700Y-113452000D03*
X337783700Y-110152000D03*
%TD*%
D20*
%TO.C,LED53*%
X316788400Y-58982000D03*
X316788400Y-60482000D03*
D28*
X322088400Y-60482000D03*
D20*
X322088400Y-58982000D03*
%TD*%
D17*
%TO.C,SW63*%
X211635415Y-111841342D03*
D37*
X191449737Y-131712411D03*
D18*
X196705610Y-123454191D03*
X206643590Y-121341809D03*
D37*
X214803989Y-126748311D03*
D16*
X197419762Y-120705649D03*
X203102904Y-116900914D03*
D17*
X201674600Y-122398000D03*
X188281163Y-116805441D03*
D30*
X194216329Y-121386559D03*
X206332747Y-116214390D03*
%TD*%
D15*
%TO.C,D45*%
X48693400Y-94402000D03*
X48693400Y-91102000D03*
%TD*%
D18*
%TO.C,SW44*%
X353605000Y-71475000D03*
X343445000Y-71475000D03*
D16*
X351065000Y-66395000D03*
D17*
X348525000Y-71475000D03*
D16*
X344715000Y-68935000D03*
D23*
X341440000Y-68935000D03*
X354367000Y-66395000D03*
%TD*%
D16*
%TO.C,SW60*%
X64364600Y-106722000D03*
X58014600Y-109262000D03*
D18*
X66904600Y-111802000D03*
D17*
X61824600Y-111802000D03*
D18*
X56744600Y-111802000D03*
D23*
X54739600Y-109262000D03*
X67666600Y-106722000D03*
%TD*%
D25*
%TO.C,LED42*%
X198351275Y-108055455D03*
X198663143Y-109522677D03*
D26*
X203847325Y-108420745D03*
D25*
X203535457Y-106953523D03*
%TD*%
D15*
%TO.C,D41*%
X271788900Y-75352000D03*
X271788900Y-72052000D03*
%TD*%
D20*
%TO.C,LED65*%
X262875900Y-40691400D03*
X262875900Y-39191400D03*
D21*
X257575900Y-39191400D03*
D20*
X257575900Y-40691400D03*
%TD*%
D36*
%TO.C,C7*%
X177340000Y-34700000D03*
X177340000Y-33740000D03*
%TD*%
D15*
%TO.C,D43*%
X321795100Y-75352000D03*
X321795100Y-72052000D03*
%TD*%
D20*
%TO.C,LED49*%
X285188900Y-79532000D03*
X285188900Y-78032000D03*
D21*
X279888900Y-78032000D03*
D20*
X279888900Y-79532000D03*
%TD*%
D29*
%TO.C,C5*%
X159020000Y-80527500D03*
X159020000Y-81487500D03*
%TD*%
D31*
%TO.C,LED18*%
X125376557Y-88908677D03*
X125688425Y-87441455D03*
D32*
X120504243Y-86339523D03*
D31*
X120192375Y-87806745D03*
%TD*%
D16*
%TO.C,SW48*%
X114259686Y-94867506D03*
D17*
X110719000Y-99308400D03*
D18*
X105750010Y-98252209D03*
X115687990Y-100364591D03*
D16*
X107520353Y-96031762D03*
D19*
X104316920Y-95350851D03*
X117489530Y-95554030D03*
%TD*%
D20*
%TO.C,LED2*%
X62507700Y-41432000D03*
X62507700Y-39932000D03*
D21*
X57207700Y-39932000D03*
D20*
X57207700Y-41432000D03*
%TD*%
D18*
%TO.C,SW56*%
X282176200Y-92752000D03*
D16*
X273286200Y-90212000D03*
D18*
X272016200Y-92752000D03*
D17*
X277096200Y-92752000D03*
D16*
X279636200Y-87672000D03*
D23*
X270011200Y-90212000D03*
X282938200Y-87672000D03*
%TD*%
D15*
%TO.C,D1*%
X49107700Y-37252000D03*
X49107700Y-33952000D03*
%TD*%
D12*
%TO.C,D10*%
X229109354Y-40324644D03*
X228423246Y-37096756D03*
%TD*%
D18*
%TO.C,SW32*%
X70986900Y-73702000D03*
X60826900Y-73702000D03*
D16*
X68446900Y-68622000D03*
D17*
X65906900Y-73702000D03*
D16*
X62096900Y-71162000D03*
D23*
X58821900Y-71162000D03*
X71748900Y-68622000D03*
%TD*%
D18*
%TO.C,SW65*%
X281541200Y-111802000D03*
D16*
X282811200Y-109262000D03*
D17*
X286621200Y-111802000D03*
D16*
X289161200Y-106722000D03*
D18*
X291701200Y-111802000D03*
D23*
X279536200Y-109262000D03*
X292463200Y-106722000D03*
%TD*%
D15*
%TO.C,D14*%
X316150900Y-37252000D03*
X316150900Y-33952000D03*
%TD*%
D24*
%TO.C,D33*%
X94260346Y-78184044D03*
X94946454Y-74956156D03*
%TD*%
D20*
%TO.C,LED1*%
X43457700Y-41432000D03*
X43457700Y-39932000D03*
D21*
X38157700Y-39932000D03*
D20*
X38157700Y-41432000D03*
%TD*%
D35*
%TO.C,R9*%
X145700000Y-31895000D03*
X145700000Y-33545000D03*
%TD*%
D20*
%TO.C,LED66*%
X281925900Y-41432000D03*
X281925900Y-39932000D03*
D21*
X276625900Y-39932000D03*
D20*
X276625900Y-41432000D03*
%TD*%
D16*
%TO.C,SW6*%
X140117086Y-41936906D03*
X133377753Y-43101162D03*
D18*
X131607410Y-45321609D03*
D17*
X136576400Y-46377800D03*
D18*
X141545390Y-47433991D03*
D19*
X130174320Y-42420251D03*
X143346930Y-42623430D03*
%TD*%
D18*
%TO.C,SW38*%
X200430310Y-83711291D03*
D16*
X206827604Y-77158014D03*
X201144462Y-80962749D03*
D18*
X210368290Y-81598909D03*
D17*
X205399300Y-82655100D03*
D30*
X197941029Y-81643659D03*
X210057447Y-76471490D03*
%TD*%
D16*
%TO.C,SW27*%
X279115900Y-49572000D03*
D17*
X276575900Y-54652000D03*
D18*
X281655900Y-54652000D03*
D16*
X272765900Y-52112000D03*
D18*
X271495900Y-54652000D03*
D23*
X269490900Y-52112000D03*
X282417900Y-49572000D03*
%TD*%
D13*
%TO.C,LED63*%
X224574225Y-45588345D03*
X224262357Y-44121123D03*
D14*
X219078175Y-45223055D03*
D13*
X219390043Y-46690277D03*
%TD*%
D20*
%TO.C,LED56*%
X254875900Y-58241400D03*
X254875900Y-59741400D03*
D28*
X260175900Y-59741400D03*
D20*
X260175900Y-58241400D03*
%TD*%
D38*
%TO.C,R2*%
X169460000Y-96607500D03*
X169460000Y-97627500D03*
%TD*%
D15*
%TO.C,D15*%
X350960000Y-40720000D03*
X350960000Y-37420000D03*
%TD*%
D36*
%TO.C,C10*%
X183055000Y-34700000D03*
X183055000Y-33740000D03*
%TD*%
D20*
%TO.C,LED39*%
X255396200Y-97082000D03*
X255396200Y-98582000D03*
D28*
X260696200Y-98582000D03*
D20*
X260696200Y-97082000D03*
%TD*%
D33*
%TO.C,LED11*%
X82539043Y-58794123D03*
X82227175Y-60261345D03*
D34*
X87411357Y-61363277D03*
D33*
X87723225Y-59896055D03*
%TD*%
D36*
%TO.C,C13*%
X188770000Y-34700000D03*
X188770000Y-33740000D03*
%TD*%
D17*
%TO.C,SW43*%
X313495100Y-73702000D03*
D37*
X325433100Y-66717000D03*
D16*
X309685100Y-71162000D03*
D18*
X308415100Y-73702000D03*
D37*
X301557100Y-66717000D03*
D17*
X325433100Y-81957000D03*
D18*
X318575100Y-73702000D03*
D17*
X301557100Y-81957000D03*
D16*
X316035100Y-68622000D03*
D23*
X306410100Y-71162000D03*
X319337100Y-68622000D03*
%TD*%
D18*
%TO.C,SW1*%
X45887700Y-35602000D03*
D16*
X43347700Y-30522000D03*
D17*
X40807700Y-35602000D03*
D16*
X36997700Y-33062000D03*
D18*
X35727700Y-35602000D03*
D23*
X33722700Y-33062000D03*
X46649700Y-30522000D03*
%TD*%
D12*
%TO.C,D52*%
X208382454Y-103157044D03*
X207696346Y-99929156D03*
%TD*%
D36*
%TO.C,C16*%
X175857500Y-31347500D03*
X175857500Y-30387500D03*
%TD*%
D15*
%TO.C,D55*%
X266346200Y-94402000D03*
X266346200Y-91102000D03*
%TD*%
D16*
%TO.C,SW34*%
X102164153Y-75417762D03*
D18*
X100393810Y-77638209D03*
X110331790Y-79750591D03*
D16*
X108903486Y-74253506D03*
D17*
X105362800Y-78694400D03*
D19*
X98960720Y-74736851D03*
X112133330Y-74940030D03*
%TD*%
D31*
%TO.C,LED28*%
X115125857Y-125680977D03*
X115437725Y-124213755D03*
D32*
X110253543Y-123111823D03*
D31*
X109941675Y-124579045D03*
%TD*%
D16*
%TO.C,SW7*%
X158750786Y-45897706D03*
D18*
X160179090Y-51394791D03*
D17*
X155210100Y-50338600D03*
D18*
X150241110Y-49282409D03*
D16*
X152011453Y-47061962D03*
D19*
X148808020Y-46381051D03*
X161980630Y-46584230D03*
%TD*%
D24*
%TO.C,D7*%
X162741346Y-53788944D03*
X163427454Y-50561056D03*
%TD*%
%TO.C,D18*%
X93562646Y-58560144D03*
X94248754Y-55332256D03*
%TD*%
D20*
%TO.C,LED26*%
X35899600Y-117632000D03*
X35899600Y-116132000D03*
D21*
X30599600Y-116132000D03*
D20*
X30599600Y-117632000D03*
%TD*%
D16*
%TO.C,SW25*%
X238218604Y-51010014D03*
D17*
X236790300Y-56507100D03*
D18*
X241759290Y-55450909D03*
D16*
X232535462Y-54814749D03*
D18*
X231821310Y-57563291D03*
D30*
X229332029Y-55495659D03*
X241448447Y-50323490D03*
%TD*%
D18*
%TO.C,SW67*%
X324403700Y-111802000D03*
D16*
X325673700Y-109262000D03*
D17*
X329483700Y-111802000D03*
D18*
X334563700Y-111802000D03*
D16*
X332023700Y-106722000D03*
D23*
X322398700Y-109262000D03*
X335325700Y-106722000D03*
%TD*%
D12*
%TO.C,D23*%
X207862254Y-64316444D03*
X207176146Y-61088556D03*
%TD*%
D15*
%TO.C,D46*%
X79649600Y-94402000D03*
X79649600Y-91102000D03*
%TD*%
D12*
%TO.C,D24*%
X226495954Y-60355744D03*
X225809846Y-57127856D03*
%TD*%
%TO.C,D11*%
X247743054Y-36363944D03*
X247056946Y-33136056D03*
%TD*%
D16*
%TO.C,SW14*%
X304040900Y-33062000D03*
D37*
X319788900Y-28617000D03*
D17*
X319788900Y-43857000D03*
X295912900Y-43857000D03*
D18*
X302770900Y-35602000D03*
D16*
X310390900Y-30522000D03*
D18*
X312930900Y-35602000D03*
D37*
X295912900Y-28617000D03*
D17*
X307850900Y-35602000D03*
D23*
X300765900Y-33062000D03*
X313692900Y-30522000D03*
%TD*%
D24*
%TO.C,D20*%
X130830146Y-66481544D03*
X131516254Y-63253656D03*
%TD*%
D20*
%TO.C,LED52*%
X343875000Y-56755000D03*
X343875000Y-58255000D03*
D28*
X349175000Y-58255000D03*
D20*
X349175000Y-56755000D03*
%TD*%
D36*
%TO.C,C11*%
X184960000Y-34700000D03*
X184960000Y-33740000D03*
%TD*%
D17*
%TO.C,SW18*%
X86031400Y-55109800D03*
D16*
X82832753Y-51833162D03*
D18*
X91000390Y-56165991D03*
D16*
X89572086Y-50668906D03*
D18*
X81062410Y-54053609D03*
D19*
X79629320Y-51152251D03*
X92801930Y-51355430D03*
%TD*%
D20*
%TO.C,LED51*%
X351175000Y-77305000D03*
X351175000Y-75805000D03*
D21*
X345875000Y-75805000D03*
D20*
X345875000Y-77305000D03*
%TD*%
D31*
%TO.C,LED5*%
X119322657Y-48670677D03*
X119634525Y-47203455D03*
D32*
X114450343Y-46101523D03*
D31*
X114138475Y-47568745D03*
%TD*%
D13*
%TO.C,LED46*%
X227837225Y-83846045D03*
X227525357Y-82378823D03*
D14*
X222341175Y-83480755D03*
D13*
X222653043Y-84947977D03*
%TD*%
D12*
%TO.C,D38*%
X213738654Y-82542944D03*
X213052546Y-79315056D03*
%TD*%
D16*
%TO.C,SW10*%
X216515162Y-38744449D03*
X222198304Y-34939714D03*
D18*
X215801010Y-41492991D03*
D17*
X220770000Y-40436800D03*
D18*
X225738990Y-39380609D03*
D30*
X213311729Y-39425359D03*
X225428147Y-34253190D03*
%TD*%
D15*
%TO.C,D16*%
X49696700Y-56302000D03*
X49696700Y-53002000D03*
%TD*%
%TO.C,D27*%
X284875900Y-56302000D03*
X284875900Y-53002000D03*
%TD*%
D36*
%TO.C,C9*%
X181150000Y-34700000D03*
X181150000Y-33740000D03*
%TD*%
D18*
%TO.C,SW16*%
X46476700Y-54652000D03*
D16*
X37586700Y-52112000D03*
D17*
X41396700Y-54652000D03*
D18*
X36316700Y-54652000D03*
D16*
X43936700Y-49572000D03*
D23*
X34311700Y-52112000D03*
X47238700Y-49572000D03*
%TD*%
D18*
%TO.C,SW11*%
X234434710Y-37532191D03*
D16*
X235148862Y-34783649D03*
X240832004Y-30978914D03*
D17*
X239403700Y-36476000D03*
D18*
X244372690Y-35419809D03*
D30*
X231945429Y-35464559D03*
X244061847Y-30292390D03*
%TD*%
D12*
%TO.C,D53*%
X227016254Y-99196344D03*
X226330146Y-95968456D03*
%TD*%
D18*
%TO.C,SW51*%
X186378390Y-106173709D03*
D16*
X177154562Y-105537549D03*
D17*
X181409400Y-107229900D03*
D16*
X182837704Y-101732814D03*
D18*
X176440410Y-108286091D03*
D30*
X173951129Y-106218459D03*
X186067547Y-101046290D03*
%TD*%
D20*
%TO.C,LED3*%
X81557700Y-40117500D03*
X81557700Y-38617500D03*
D21*
X76257700Y-38617500D03*
D20*
X76257700Y-40117500D03*
%TD*%
D18*
%TO.C,SW4*%
X104277990Y-39512591D03*
D16*
X96110353Y-35179762D03*
X102849686Y-34015506D03*
D17*
X99309000Y-38456400D03*
D18*
X94340010Y-37400209D03*
D19*
X92906920Y-34498851D03*
X106079530Y-34702030D03*
%TD*%
D13*
%TO.C,LED44*%
X190569725Y-91767445D03*
X190257857Y-90300223D03*
D14*
X185073675Y-91402155D03*
D13*
X185385543Y-92869377D03*
%TD*%
D16*
%TO.C,SW22*%
X176634262Y-66696949D03*
D17*
X180889100Y-68389300D03*
D18*
X185858090Y-67333109D03*
D16*
X182317404Y-62892214D03*
D18*
X175920110Y-69445491D03*
D30*
X173430829Y-67377859D03*
X185547247Y-62205690D03*
%TD*%
D15*
%TO.C,D60*%
X70124600Y-113452000D03*
X70124600Y-110152000D03*
%TD*%
D16*
%TO.C,SW54*%
X238738804Y-89850614D03*
X233055662Y-93655349D03*
D18*
X242279490Y-94291509D03*
X232341510Y-96403891D03*
D17*
X237310500Y-95347700D03*
D30*
X229852229Y-94336259D03*
X241968647Y-89164090D03*
%TD*%
D16*
%TO.C,SW12*%
X262765900Y-29781400D03*
X256415900Y-32321400D03*
D17*
X260225900Y-34861400D03*
D18*
X255145900Y-34861400D03*
X265305900Y-34861400D03*
D23*
X253140900Y-32321400D03*
X266067900Y-29781400D03*
%TD*%
D31*
%TO.C,LED19*%
X144010257Y-92869377D03*
X144322125Y-91402155D03*
D32*
X139137943Y-90300223D03*
D31*
X138826075Y-91767445D03*
%TD*%
D16*
%TO.C,SW26*%
X253715900Y-51371400D03*
D18*
X262605900Y-53911400D03*
D16*
X260065900Y-48831400D03*
D17*
X257525900Y-53911400D03*
D18*
X252445900Y-53911400D03*
D23*
X250440900Y-51371400D03*
X263367900Y-48831400D03*
%TD*%
D16*
%TO.C,SW31*%
X42253200Y-68622000D03*
D18*
X44793200Y-73702000D03*
D16*
X35903200Y-71162000D03*
D18*
X34633200Y-73702000D03*
D17*
X39713200Y-73702000D03*
D23*
X32628200Y-71162000D03*
X45555200Y-68622000D03*
%TD*%
D20*
%TO.C,LED67*%
X310500900Y-41432000D03*
X310500900Y-39932000D03*
D21*
X305200900Y-39932000D03*
D20*
X305200900Y-41432000D03*
%TD*%
D24*
%TO.C,D48*%
X118250246Y-102758844D03*
X118936354Y-99530956D03*
%TD*%
%TO.C,D61*%
X121277146Y-122877744D03*
X121963254Y-119649856D03*
%TD*%
D25*
%TO.C,LED41*%
X216984975Y-104094755D03*
X217296843Y-105561977D03*
D26*
X222481025Y-104460045D03*
D25*
X222169157Y-102992823D03*
%TD*%
D18*
%TO.C,SW21*%
X146901590Y-68048091D03*
D17*
X141932600Y-66991900D03*
D16*
X145473286Y-62551006D03*
X138733953Y-63715262D03*
D18*
X136963610Y-65935709D03*
D19*
X135530520Y-63034351D03*
X148703130Y-63237530D03*
%TD*%
D38*
%TO.C,R3*%
X163580000Y-28040000D03*
X163580000Y-29060000D03*
%TD*%
D20*
%TO.C,LED27*%
X64474600Y-117632000D03*
X64474600Y-116132000D03*
D21*
X59174600Y-116132000D03*
D20*
X59174600Y-117632000D03*
%TD*%
D17*
%TO.C,SW28*%
X295625900Y-54652000D03*
D18*
X290545900Y-54652000D03*
D16*
X298165900Y-49572000D03*
X291815900Y-52112000D03*
D18*
X300705900Y-54652000D03*
D23*
X288540900Y-52112000D03*
X301467900Y-49572000D03*
%TD*%
D39*
%TO.C,U2*%
X169470000Y-29797500D03*
X168520000Y-29797500D03*
X167570000Y-29797500D03*
X167570000Y-27522500D03*
X168520000Y-27522500D03*
X169470000Y-27522500D03*
%TD*%
D15*
%TO.C,D32*%
X74206900Y-75352000D03*
X74206900Y-72052000D03*
%TD*%
D20*
%TO.C,LED50*%
X316145100Y-79532000D03*
X316145100Y-78032000D03*
D21*
X310845100Y-78032000D03*
D20*
X310845100Y-79532000D03*
%TD*%
D31*
%TO.C,LED4*%
X100688957Y-44709977D03*
X101000825Y-43242755D03*
D32*
X95816643Y-42140823D03*
D31*
X95504775Y-43608045D03*
%TD*%
D18*
%TO.C,SW36*%
X137661310Y-85559609D03*
D17*
X142630300Y-86615800D03*
D16*
X146170986Y-82174906D03*
X139431653Y-83339162D03*
D18*
X147599290Y-87671991D03*
D19*
X136228220Y-82658251D03*
X149400830Y-82861430D03*
%TD*%
D16*
%TO.C,SW29*%
X315628400Y-52112000D03*
X321978400Y-49572000D03*
D18*
X324518400Y-54652000D03*
X314358400Y-54652000D03*
D17*
X319438400Y-54652000D03*
D23*
X312353400Y-52112000D03*
X325280400Y-49572000D03*
%TD*%
D18*
%TO.C,SW37*%
X181796510Y-87671991D03*
X191734490Y-85559609D03*
D16*
X182510662Y-84923449D03*
D17*
X186765500Y-86615800D03*
D16*
X188193804Y-81118714D03*
D30*
X179307229Y-85604359D03*
X191423647Y-80432190D03*
%TD*%
D17*
%TO.C,SW17*%
X65209200Y-54652000D03*
D18*
X60129200Y-54652000D03*
D16*
X61399200Y-52112000D03*
X67749200Y-49572000D03*
D18*
X70289200Y-54652000D03*
D23*
X58124200Y-52112000D03*
X71051200Y-49572000D03*
%TD*%
D25*
%TO.C,LED60*%
X179197275Y-73175655D03*
X179509143Y-74642877D03*
D26*
X184693325Y-73540945D03*
D25*
X184381457Y-72073723D03*
%TD*%
D40*
%TO.C,U4*%
X174010000Y-33837500D03*
X172110000Y-33837500D03*
X173060000Y-31962500D03*
%TD*%
D36*
%TO.C,C12*%
X186865000Y-34700000D03*
X186865000Y-33740000D03*
%TD*%
D15*
%TO.C,D2*%
X68157700Y-37252000D03*
X68157700Y-33952000D03*
%TD*%
D12*
%TO.C,D63*%
X210013954Y-122285844D03*
X209327846Y-119057956D03*
%TD*%
D17*
%TO.C,SW62*%
X144025700Y-125863600D03*
D16*
X147566386Y-121422706D03*
X140827053Y-122586962D03*
D18*
X148994690Y-126919791D03*
X139056710Y-124807409D03*
D19*
X137623620Y-121906051D03*
X150796230Y-122109230D03*
%TD*%
D17*
%TO.C,SW46*%
X71349600Y-92752000D03*
D18*
X76429600Y-92752000D03*
D16*
X73889600Y-87672000D03*
X67539600Y-90212000D03*
D18*
X66269600Y-92752000D03*
D23*
X64264600Y-90212000D03*
X77191600Y-87672000D03*
%TD*%
D13*
%TO.C,LED61*%
X187306725Y-53509845D03*
X186994857Y-52042623D03*
D14*
X181810675Y-53144555D03*
D13*
X182122543Y-54611777D03*
%TD*%
D18*
%TO.C,SW33*%
X91698090Y-75789791D03*
X81760110Y-73677409D03*
D16*
X83530453Y-71456962D03*
D17*
X86729100Y-74733600D03*
D16*
X90269786Y-70292706D03*
D19*
X80327020Y-70776051D03*
X93499630Y-70979230D03*
%TD*%
D24*
%TO.C,D47*%
X99616546Y-98798044D03*
X100302654Y-95570156D03*
%TD*%
D18*
%TO.C,SW57*%
X298210000Y-92752000D03*
D17*
X303290000Y-92752000D03*
D16*
X305830000Y-87672000D03*
X299480000Y-90212000D03*
D18*
X308370000Y-92752000D03*
D23*
X296205000Y-90212000D03*
X309132000Y-87672000D03*
%TD*%
D15*
%TO.C,D26*%
X265825900Y-55561400D03*
X265825900Y-52261400D03*
%TD*%
D41*
%TO.C,Q1*%
X150597500Y-33300000D03*
X150597500Y-35200000D03*
X148722500Y-34250000D03*
%TD*%
D17*
%TO.C,SW45*%
X52331400Y-101007000D03*
D16*
X36583400Y-90212000D03*
D37*
X52331400Y-85767000D03*
D18*
X45473400Y-92752000D03*
X35313400Y-92752000D03*
D16*
X42933400Y-87672000D03*
D17*
X28455400Y-101007000D03*
D37*
X28455400Y-85767000D03*
D17*
X40393400Y-92752000D03*
D23*
X33308400Y-90212000D03*
X46235400Y-87672000D03*
%TD*%
D25*
%TO.C,LED57*%
X235098475Y-61293455D03*
X235410343Y-62760677D03*
D26*
X240594525Y-61658745D03*
D25*
X240282657Y-60191523D03*
%TD*%
D15*
%TO.C,D29*%
X327738400Y-56302000D03*
X327738400Y-53002000D03*
%TD*%
D12*
%TO.C,D25*%
X245129654Y-56395044D03*
X244443546Y-53167156D03*
%TD*%
D16*
%TO.C,SW49*%
X126154053Y-99992562D03*
D18*
X124383710Y-102213009D03*
D16*
X132893386Y-98828306D03*
D17*
X129352700Y-103269200D03*
D18*
X134321690Y-104325391D03*
D19*
X122950620Y-99311651D03*
X136123230Y-99514830D03*
%TD*%
D22*
%TO.C,R1*%
X158900000Y-84600000D03*
X158900000Y-83580000D03*
%TD*%
D15*
%TO.C,D56*%
X285396200Y-94402000D03*
X285396200Y-91102000D03*
%TD*%
D33*
%TO.C,LED20*%
X144494043Y-110914323D03*
X144182175Y-112381545D03*
D34*
X149366357Y-113483477D03*
D33*
X149678225Y-112016255D03*
%TD*%
D20*
%TO.C,LED48*%
X266138900Y-79532000D03*
X266138900Y-78032000D03*
D21*
X260838900Y-78032000D03*
D20*
X260838900Y-79532000D03*
%TD*%
D16*
%TO.C,SW30*%
X342715000Y-49885000D03*
D18*
X341445000Y-52425000D03*
D17*
X346525000Y-52425000D03*
D16*
X349065000Y-47345000D03*
D18*
X351605000Y-52425000D03*
D23*
X339440000Y-49885000D03*
X352367000Y-47345000D03*
%TD*%
D24*
%TO.C,D19*%
X112196346Y-62520844D03*
X112882454Y-59292956D03*
%TD*%
%TO.C,D5*%
X125473946Y-45867444D03*
X126160054Y-42639556D03*
%TD*%
%TO.C,D34*%
X112894146Y-82144744D03*
X113580254Y-78916856D03*
%TD*%
D16*
%TO.C,SW64*%
X237140362Y-112872049D03*
D17*
X241395200Y-114564400D03*
D18*
X236426210Y-115620591D03*
X246364190Y-113508209D03*
D16*
X242823504Y-109067314D03*
D30*
X233936929Y-113552959D03*
X246053347Y-108380790D03*
%TD*%
D12*
%TO.C,D39*%
X232372354Y-78582244D03*
X231686246Y-75354356D03*
%TD*%
D42*
%TO.C,U3*%
X166027500Y-69300000D03*
X166027500Y-69700000D03*
X166027500Y-70100000D03*
X166027500Y-70500000D03*
X166027500Y-70900000D03*
X166027500Y-71300000D03*
X166027500Y-71700000D03*
X166027500Y-72100000D03*
X166027500Y-72500000D03*
X166027500Y-72900000D03*
X166027500Y-73300000D03*
X166027500Y-73700000D03*
X166027500Y-74100000D03*
X166027500Y-74500000D03*
D43*
X165190000Y-75337500D03*
X164790000Y-75337500D03*
X164390000Y-75337500D03*
X163990000Y-75337500D03*
X163590000Y-75337500D03*
X163190000Y-75337500D03*
X162790000Y-75337500D03*
X162390000Y-75337500D03*
X161990000Y-75337500D03*
X161590000Y-75337500D03*
X161190000Y-75337500D03*
X160790000Y-75337500D03*
X160390000Y-75337500D03*
X159990000Y-75337500D03*
D42*
X159152500Y-74500000D03*
X159152500Y-74100000D03*
X159152500Y-73700000D03*
X159152500Y-73300000D03*
X159152500Y-72900000D03*
X159152500Y-72500000D03*
X159152500Y-72100000D03*
X159152500Y-71700000D03*
X159152500Y-71300000D03*
X159152500Y-70900000D03*
X159152500Y-70500000D03*
X159152500Y-70100000D03*
X159152500Y-69700000D03*
X159152500Y-69300000D03*
D43*
X159990000Y-68462500D03*
X160390000Y-68462500D03*
X160790000Y-68462500D03*
X161190000Y-68462500D03*
X161590000Y-68462500D03*
X161990000Y-68462500D03*
X162390000Y-68462500D03*
X162790000Y-68462500D03*
X163190000Y-68462500D03*
X163590000Y-68462500D03*
X163990000Y-68462500D03*
X164390000Y-68462500D03*
X164790000Y-68462500D03*
X165190000Y-68462500D03*
D44*
X162590000Y-71900000D03*
%TD*%
D18*
%TO.C,SW66*%
X305353700Y-111802000D03*
D16*
X306623700Y-109262000D03*
D17*
X310433700Y-111802000D03*
D16*
X312973700Y-106722000D03*
D18*
X315513700Y-111802000D03*
D23*
X303348700Y-109262000D03*
X316275700Y-106722000D03*
%TD*%
D24*
%TO.C,D36*%
X150161546Y-90066144D03*
X150847654Y-86838256D03*
%TD*%
D27*
%TO.C,TS2*%
X167500000Y-93847500D03*
X161300000Y-93847500D03*
X161300000Y-97547500D03*
X167500000Y-97547500D03*
%TD*%
D29*
%TO.C,C6*%
X160280000Y-80527500D03*
X160280000Y-81487500D03*
%TD*%
D15*
%TO.C,D66*%
X318733700Y-113452000D03*
X318733700Y-110152000D03*
%TD*%
D18*
%TO.C,SW59*%
X28169600Y-111802000D03*
D17*
X33249600Y-111802000D03*
D16*
X35789600Y-106722000D03*
D18*
X38329600Y-111802000D03*
D16*
X29439600Y-109262000D03*
D23*
X26164600Y-109262000D03*
X39091600Y-106722000D03*
%TD*%
D31*
%TO.C,LED29*%
X145405657Y-132117177D03*
X145717525Y-130649955D03*
D32*
X140533343Y-129548023D03*
D31*
X140221475Y-131015245D03*
%TD*%
D15*
%TO.C,D65*%
X294921200Y-113452000D03*
X294921200Y-110152000D03*
%TD*%
%TO.C,D28*%
X303925900Y-56302000D03*
X303925900Y-53002000D03*
%TD*%
D20*
%TO.C,LED38*%
X274446200Y-97082000D03*
X274446200Y-98582000D03*
D28*
X279746200Y-98582000D03*
D20*
X279746200Y-97082000D03*
%TD*%
D18*
%TO.C,SW50*%
X152955390Y-108286091D03*
D16*
X151527086Y-102789006D03*
X144787753Y-103953262D03*
D17*
X147986400Y-107229900D03*
D18*
X143017410Y-106173709D03*
D19*
X141584320Y-103272351D03*
X154756930Y-103475530D03*
%TD*%
D20*
%TO.C,LED33*%
X313083700Y-117632000D03*
X313083700Y-116132000D03*
D21*
X307783700Y-116132000D03*
D20*
X307783700Y-117632000D03*
%TD*%
D16*
%TO.C,SW52*%
X201471404Y-97772114D03*
D18*
X195074110Y-104325391D03*
D16*
X195788262Y-101576849D03*
D17*
X200043100Y-103269200D03*
D18*
X205012090Y-102213009D03*
D30*
X192584829Y-102257759D03*
X204701247Y-97085590D03*
%TD*%
D16*
%TO.C,SW42*%
X278728900Y-71162000D03*
D18*
X277458900Y-73702000D03*
D17*
X282538900Y-73702000D03*
D18*
X287618900Y-73702000D03*
D16*
X285078900Y-68622000D03*
D23*
X275453900Y-71162000D03*
X288380900Y-68622000D03*
%TD*%
D29*
%TO.C,C3*%
X172455000Y-85507500D03*
X172455000Y-86467500D03*
%TD*%
D15*
%TO.C,D17*%
X73509200Y-56302000D03*
X73509200Y-53002000D03*
%TD*%
D20*
%TO.C,LED35*%
X351183700Y-117632000D03*
X351183700Y-116132000D03*
D21*
X345883700Y-116132000D03*
D20*
X345883700Y-117632000D03*
%TD*%
D31*
%TO.C,LED16*%
X88109057Y-80987177D03*
X88420925Y-79519955D03*
D32*
X83236743Y-78418023D03*
D31*
X82924875Y-79885245D03*
%TD*%
D18*
%TO.C,SW58*%
X334563700Y-92752000D03*
D17*
X329483700Y-92752000D03*
D16*
X325673700Y-90212000D03*
D18*
X324403700Y-92752000D03*
D16*
X332023700Y-87672000D03*
D23*
X322398700Y-90212000D03*
X335325700Y-87672000D03*
%TD*%
D36*
%TO.C,C17*%
X173060000Y-37820000D03*
X173060000Y-36860000D03*
%TD*%
D13*
%TO.C,LED62*%
X205940425Y-49549145D03*
X205628557Y-48081923D03*
D14*
X200444375Y-49183855D03*
D13*
X200756243Y-50651077D03*
%TD*%
D18*
%TO.C,SW9*%
X207105190Y-43341309D03*
X197167210Y-45453691D03*
D16*
X203564504Y-38900414D03*
D17*
X202136200Y-44397500D03*
D16*
X197881362Y-42705149D03*
D30*
X194677929Y-43386059D03*
X206794347Y-38213890D03*
%TD*%
D33*
%TO.C,LED23*%
X88592943Y-99032123D03*
X88281075Y-100499345D03*
D34*
X93465257Y-101601277D03*
D33*
X93777125Y-100134055D03*
%TD*%
D45*
%TO.C,J1*%
X171970000Y-22160000D03*
X166190000Y-22160000D03*
D46*
X165830000Y-23605000D03*
X166630000Y-23605000D03*
D47*
X167830000Y-23605000D03*
X168830000Y-23605000D03*
X169330000Y-23605000D03*
X170330000Y-23605000D03*
D46*
X171530000Y-23605000D03*
X172330000Y-23605000D03*
X172330000Y-23605000D03*
X171530000Y-23605000D03*
D47*
X170830000Y-23605000D03*
X169830000Y-23605000D03*
X168330000Y-23605000D03*
X167330000Y-23605000D03*
D46*
X166630000Y-23605000D03*
X165830000Y-23605000D03*
D48*
X173400000Y-22690000D03*
D49*
X164760000Y-18510000D03*
D48*
X164760000Y-22690000D03*
D49*
X173400000Y-18510000D03*
%TD*%
D33*
%TO.C,LED10*%
X101172743Y-62754923D03*
X100860875Y-64222145D03*
D34*
X106045057Y-65324077D03*
D33*
X106356925Y-63856855D03*
%TD*%
D12*
%TO.C,D54*%
X245649954Y-95235644D03*
X244963846Y-92007756D03*
%TD*%
D50*
%TO.C,U1*%
X168595000Y-51270000D03*
X169865000Y-51270000D03*
X171135000Y-51270000D03*
X172405000Y-51270000D03*
X172405000Y-58470000D03*
X171135000Y-58470000D03*
X169865000Y-58470000D03*
X168595000Y-58470000D03*
%TD*%
D18*
%TO.C,SW19*%
X109634090Y-60126691D03*
D17*
X104665100Y-59070500D03*
D18*
X99696110Y-58014309D03*
D16*
X101466453Y-55793862D03*
X108205786Y-54629606D03*
D19*
X98263020Y-55112951D03*
X111435630Y-55316130D03*
%TD*%
D24*
%TO.C,D50*%
X155517646Y-110680244D03*
X156203754Y-107452356D03*
%TD*%
D35*
%TO.C,R6*%
X167850000Y-35465000D03*
X167850000Y-37115000D03*
%TD*%
D51*
%TO.C,Y1*%
X171370000Y-88637500D03*
X173570000Y-88637500D03*
X173570000Y-90337500D03*
X171370000Y-90337500D03*
%TD*%
D31*
%TO.C,LED17*%
X106742857Y-84947977D03*
X107054725Y-83480755D03*
D32*
X101870543Y-82378823D03*
D31*
X101558675Y-83846045D03*
%TD*%
D38*
%TO.C,R4*%
X172000000Y-27210000D03*
X172000000Y-28230000D03*
%TD*%
D15*
%TO.C,D12*%
X268525900Y-36511400D03*
X268525900Y-33211400D03*
%TD*%
D17*
%TO.C,SW13*%
X279275900Y-35602000D03*
D16*
X281815900Y-30522000D03*
D18*
X284355900Y-35602000D03*
X274195900Y-35602000D03*
D16*
X275465900Y-33062000D03*
D23*
X272190900Y-33062000D03*
X285117900Y-30522000D03*
%TD*%
D36*
%TO.C,C15*%
X192580000Y-34700000D03*
X192580000Y-33740000D03*
%TD*%
D29*
%TO.C,C4*%
X157795000Y-80527500D03*
X157795000Y-81487500D03*
%TD*%
D20*
%TO.C,LED54*%
X292975900Y-58982000D03*
X292975900Y-60482000D03*
D28*
X298275900Y-60482000D03*
D20*
X298275900Y-58982000D03*
%TD*%
%TO.C,LED68*%
X347175000Y-39205000D03*
X347175000Y-37705000D03*
D21*
X341875000Y-37705000D03*
D20*
X341875000Y-39205000D03*
%TD*%
D16*
%TO.C,SW23*%
X195268062Y-62736249D03*
D18*
X204491890Y-63372409D03*
D17*
X199522900Y-64428600D03*
D18*
X194553910Y-65484791D03*
D16*
X200951204Y-58931514D03*
D30*
X192064629Y-63417159D03*
X204181047Y-58244990D03*
%TD*%
D33*
%TO.C,LED22*%
X107226643Y-102992823D03*
X106914775Y-104460045D03*
D34*
X112098957Y-105561977D03*
D33*
X112410825Y-104094755D03*
%TD*%
D16*
%TO.C,SW47*%
X95625986Y-90906806D03*
X88886653Y-92071062D03*
D18*
X97054290Y-96403891D03*
D17*
X92085300Y-95347700D03*
D18*
X87116310Y-94291509D03*
D19*
X85683220Y-91390151D03*
X98855830Y-91593330D03*
%TD*%
D24*
%TO.C,D6*%
X144107646Y-49828244D03*
X144793754Y-46600356D03*
%TD*%
D15*
%TO.C,D59*%
X41549600Y-113452000D03*
X41549600Y-110152000D03*
%TD*%
D12*
%TO.C,D51*%
X189748754Y-107117744D03*
X189062646Y-103889856D03*
%TD*%
D31*
%TO.C,LED6*%
X137956357Y-52631377D03*
X138268225Y-51164155D03*
D32*
X133084043Y-50062223D03*
D31*
X132772175Y-51529445D03*
%TD*%
D18*
%TO.C,SW2*%
X64937700Y-35602000D03*
D17*
X59857700Y-35602000D03*
D16*
X62397700Y-30522000D03*
X56047700Y-33062000D03*
D18*
X54777700Y-35602000D03*
D23*
X52772700Y-33062000D03*
X65699700Y-30522000D03*
%TD*%
D20*
%TO.C,LED32*%
X289271200Y-117632000D03*
X289271200Y-116132000D03*
D21*
X283971200Y-116132000D03*
D20*
X283971200Y-117632000D03*
%TD*%
%TO.C,LED55*%
X273925900Y-58982000D03*
X273925900Y-60482000D03*
D28*
X279225900Y-60482000D03*
D20*
X279225900Y-58982000D03*
%TD*%
D36*
%TO.C,C8*%
X179245000Y-34700000D03*
X179245000Y-33740000D03*
%TD*%
D33*
%TO.C,LED8*%
X138440243Y-70676323D03*
X138128375Y-72143545D03*
D34*
X143312557Y-73245477D03*
D33*
X143624425Y-71778255D03*
%TD*%
D35*
%TO.C,R5*%
X169400000Y-35465000D03*
X169400000Y-37115000D03*
%TD*%
D15*
%TO.C,D68*%
X354850000Y-118480000D03*
X354850000Y-115180000D03*
%TD*%
D36*
%TO.C,C14*%
X190675000Y-34700000D03*
X190675000Y-33740000D03*
%TD*%
D13*
%TO.C,LED45*%
X209203425Y-87806745D03*
X208891557Y-86339523D03*
D14*
X203707375Y-87441455D03*
D13*
X204019243Y-88908677D03*
%TD*%
D20*
%TO.C,LED14*%
X42363200Y-79532000D03*
X42363200Y-78032000D03*
D21*
X37063200Y-78032000D03*
D20*
X37063200Y-79532000D03*
%TD*%
D15*
%TO.C,D57*%
X311590000Y-94402000D03*
X311590000Y-91102000D03*
%TD*%
D12*
%TO.C,D22*%
X189228554Y-68277144D03*
X188542446Y-65049256D03*
%TD*%
D16*
%TO.C,SW40*%
X238411862Y-73041249D03*
D18*
X237697710Y-75789791D03*
D16*
X244095004Y-69236514D03*
D17*
X242666700Y-74733600D03*
D18*
X247635690Y-73677409D03*
D30*
X235208429Y-73722159D03*
X247324847Y-68549990D03*
%TD*%
D12*
%TO.C,D37*%
X195104954Y-86503744D03*
X194418846Y-83275856D03*
%TD*%
D33*
%TO.C,LED21*%
X125860343Y-106953523D03*
X125548475Y-108420745D03*
D34*
X130732657Y-109522677D03*
D33*
X131044525Y-108055455D03*
%TD*%
D15*
%TO.C,D42*%
X290838900Y-75352000D03*
X290838900Y-72052000D03*
%TD*%
D12*
%TO.C,D8*%
X191841954Y-48246144D03*
X191155846Y-45018256D03*
%TD*%
D18*
%TO.C,SW39*%
X219064010Y-79750591D03*
X229001990Y-77638209D03*
D16*
X219778162Y-77002049D03*
X225461304Y-73197314D03*
D17*
X224033000Y-78694400D03*
D30*
X216574729Y-77682959D03*
X228691147Y-72510790D03*
%TD*%
D52*
%TO.C,F1*%
X157510000Y-27810000D03*
X157510000Y-30610000D03*
%TD*%
D24*
%TO.C,D4*%
X106840246Y-41906744D03*
X107526354Y-38678856D03*
%TD*%
D25*
%TO.C,LED59*%
X197830975Y-69214855D03*
X198142843Y-70682077D03*
D26*
X203327025Y-69580145D03*
D25*
X203015157Y-68112923D03*
%TD*%
D18*
%TO.C,SW3*%
X73827700Y-34287500D03*
X83987700Y-34287500D03*
D16*
X75097700Y-31747500D03*
D17*
X78907700Y-34287500D03*
D16*
X81447700Y-29207500D03*
D23*
X71822700Y-31747500D03*
X84749700Y-29207500D03*
%TD*%
D15*
%TO.C,D31*%
X48013200Y-75352000D03*
X48013200Y-72052000D03*
%TD*%
D13*
%TO.C,LED47*%
X246470925Y-79885245D03*
X246159057Y-78418023D03*
D14*
X240974875Y-79519955D03*
D13*
X241286743Y-80987177D03*
%TD*%
D18*
%TO.C,SW5*%
X112973710Y-41360909D03*
D16*
X114744053Y-39140462D03*
X121483386Y-37976206D03*
D18*
X122911690Y-43473291D03*
D17*
X117942700Y-42417100D03*
D19*
X111540620Y-38459551D03*
X124713230Y-38662730D03*
%TD*%
D15*
%TO.C,D13*%
X287575900Y-37252000D03*
X287575900Y-33952000D03*
%TD*%
D16*
%TO.C,SW20*%
X120100253Y-59754562D03*
D18*
X118329910Y-61975009D03*
D16*
X126839586Y-58590306D03*
D17*
X123298900Y-63031200D03*
D18*
X128267890Y-64087391D03*
D19*
X116896820Y-59073651D03*
X130069430Y-59276830D03*
%TD*%
D24*
%TO.C,D49*%
X136883946Y-106719544D03*
X137570054Y-103491656D03*
%TD*%
D17*
%TO.C,SW61*%
X113745900Y-119427400D03*
D18*
X108776910Y-118371209D03*
D16*
X110547253Y-116150762D03*
X117286586Y-114986506D03*
D37*
X123970763Y-128741811D03*
D17*
X127139337Y-113834841D03*
X103785085Y-108870742D03*
D18*
X118714890Y-120483591D03*
D37*
X100616511Y-123777711D03*
D19*
X107343820Y-115469851D03*
X120516430Y-115673030D03*
%TD*%
M02*
