%TF.GenerationSoftware,KiCad,Pcbnew,(6.0.9)*%
%TF.CreationDate,2023-01-04T05:22:22+09:00*%
%TF.ProjectId,Skeleton68rev2_SwitchPlate,536b656c-6574-46f6-9e36-38726576325f,rev?*%
%TF.SameCoordinates,Original*%
%TF.FileFunction,Profile,NP*%
%FSLAX46Y46*%
G04 Gerber Fmt 4.6, Leading zero omitted, Abs format (unit mm)*
G04 Created by KiCad (PCBNEW (6.0.9)) date 2023-01-04 05:22:22*
%MOMM*%
%LPD*%
G01*
G04 APERTURE LIST*
%TA.AperFunction,Profile*%
%ADD10C,0.100000*%
%TD*%
%TA.AperFunction,Profile*%
%ADD11C,0.500000*%
%TD*%
%ADD12C,0.150000*%
G04 APERTURE END LIST*
D10*
X-5117850Y77095000D02*
X-5117850Y140000000D01*
X-5117850Y22000000D02*
X-5117850Y39995000D01*
X-18962111Y40090745D02*
X-18962111Y22000000D01*
X-18970809Y80417765D02*
X-18962111Y58140745D01*
X-18962111Y140000000D02*
X-18970809Y98467765D01*
X-168547966Y47121206D02*
X-168755878Y48099353D01*
X106429886Y46010047D02*
X106221975Y45031899D01*
X75193812Y110053628D02*
X88887194Y107143010D01*
X32838400Y75070000D02*
X32838400Y61070000D01*
X-38012111Y60140745D02*
G75*
G03*
X-36512111Y58640745I1500001J1D01*
G01*
X-107444525Y113265475D02*
X-93445225Y113265475D01*
X32838400Y61070000D02*
X31751400Y61070000D01*
X-83399961Y56115475D02*
X-83399961Y42116015D01*
X-125974261Y61166015D02*
X-125974261Y75165475D01*
X75891522Y90429737D02*
X89584904Y87519119D01*
X-168675681Y52257155D02*
X-182369063Y49346537D01*
X-78963671Y80215745D02*
X-80050671Y80215745D01*
X-48087671Y79215745D02*
X-55087671Y79215745D01*
X-180212861Y27747577D02*
X-166518809Y30658338D01*
X-127323622Y40961891D02*
X-141017004Y38051272D01*
X76020689Y51451381D02*
X76228601Y52429528D01*
X56560100Y114014346D02*
X70253482Y111103727D01*
X67649966Y133827053D02*
G75*
G03*
X68179075Y133601931I840734J1241647D01*
G01*
X120798479Y119835645D02*
X117887828Y106142107D01*
X-37495459Y115492495D02*
X-23496159Y115492495D01*
X56623875Y58211290D02*
G75*
G03*
X55680593Y58545000I-943275J-1166290D01*
G01*
X-120159070Y39903078D02*
G75*
G03*
X-119773952Y40496107I-103954J489072D01*
G01*
X42777413Y118220270D02*
X28778113Y118220270D01*
X-163735351Y53307255D02*
X-166646002Y67000793D01*
X-198557288Y79693428D02*
X-184863906Y82604046D01*
X-157726923Y35108521D02*
X-190054701Y28237040D01*
X34129601Y113169730D02*
X48128901Y113169730D01*
X-73586761Y56115475D02*
X-59587461Y56115475D01*
X-109795279Y133056066D02*
X-109795279Y119056606D01*
X-142656152Y91575581D02*
X-128962771Y94486199D01*
X-54536761Y75165475D02*
X-40537461Y75165475D01*
X123243966Y85528036D02*
X109550584Y88438654D01*
X104194446Y109052725D02*
X107105098Y122746263D01*
X-92924961Y75165475D02*
X-92924961Y61166015D01*
X-172106597Y104791284D02*
X-169195945Y91097746D01*
X142323477Y117330881D02*
G75*
G03*
X141938316Y117923920I-488977J104019D01*
G01*
X24751400Y61070000D02*
X7875400Y61070000D01*
X-130341905Y135725918D02*
X-204326420Y120000024D01*
X-141017004Y38051272D02*
X-143927655Y51744811D01*
X43923916Y134744985D02*
G75*
G03*
X45333051Y135730862I-16J1500015D01*
G01*
X-106532271Y80216015D02*
X-120531571Y80216015D01*
X-166518738Y30658004D02*
X-157201851Y32638216D01*
X7702763Y134745037D02*
G75*
G03*
X7202763Y134245000I37J-500037D01*
G01*
X-131928522Y99019182D02*
X-145621903Y96108564D01*
X-191902218Y42157106D02*
X-192110130Y43135254D01*
X16169300Y56019730D02*
X16169300Y42020270D01*
X-97399261Y42116015D02*
X-97399261Y56115475D01*
X61827413Y133534212D02*
X61827413Y119534752D01*
X5702763Y115695000D02*
X3529251Y115695000D01*
X-40537461Y42116015D02*
X-54536761Y42116015D01*
X-126052119Y80792661D02*
X-139745501Y77882043D01*
X-164552872Y125872467D02*
X-150859490Y128783085D01*
X72980871Y76736198D02*
X75891522Y90429737D01*
X-152952621Y69911411D02*
X-150041969Y56217873D01*
X-59587461Y42116015D02*
X-73586761Y42116015D01*
X-23496159Y115492495D02*
X-23496159Y101493035D01*
X90916873Y92399372D02*
X93827524Y106092910D01*
X117887828Y106142107D02*
X104194446Y109052725D01*
X-52644936Y134840743D02*
X-62169936Y134840892D01*
X-20970809Y100467765D02*
X-20970809Y117517765D01*
X24316401Y113169730D02*
X24316401Y99170270D01*
X10317101Y113169730D02*
X24316401Y113169730D01*
X10317101Y99170270D02*
X10317101Y113169730D01*
X126852328Y79597683D02*
X123941676Y65904145D01*
X48128901Y99170270D02*
X34129601Y99170270D01*
X138570627Y99675326D02*
X142323434Y117330890D01*
X-180275932Y108218211D02*
X-183186584Y121911749D01*
X-43520809Y134840745D02*
G75*
G03*
X-42020809Y136340745I-1J1500001D01*
G01*
X-185216262Y107168111D02*
X-198909644Y104257493D01*
X-52644929Y118315745D02*
X-53731929Y118315745D01*
X-181953255Y68910508D02*
X-195646636Y65999890D01*
X-207324932Y99375912D02*
X-203572126Y81720348D01*
X-19462111Y58640745D02*
X-36512111Y58640745D01*
X-93445225Y113265475D02*
X-93445225Y99266015D01*
X-50582725Y113265475D02*
X-50582725Y99266015D01*
X-166582550Y111128829D02*
X-180275932Y108218211D01*
X-126349737Y135582522D02*
X-130218069Y135736449D01*
X103849371Y28641531D02*
X103849473Y28642012D01*
X-125974261Y75165475D02*
X-111974961Y75165475D01*
X141938316Y117923920D02*
X68179075Y133601931D01*
X-85694929Y132315745D02*
X-52644929Y132315745D01*
X-77607929Y117315745D02*
X-84607929Y117315745D01*
X-80050671Y80215745D02*
X-80050671Y94215745D01*
X-189529717Y25767220D02*
X-180212830Y27747433D01*
X68040541Y77786298D02*
X54347159Y80696916D01*
X3529251Y115694999D02*
G75*
G03*
X3029251Y115195000I-1J-499999D01*
G01*
X-50582725Y99266015D02*
X-64582025Y99266015D01*
X-2535539Y77595000D02*
G75*
G03*
X-1035539Y79095000I-1J1500001D01*
G01*
X70371516Y53700049D02*
X66826621Y37022632D01*
X78337009Y56122128D02*
X81247661Y69815666D01*
X-18962111Y140000000D02*
X-5117850Y140000000D01*
X-90745279Y132315475D02*
X-90745279Y118316015D01*
X-21487461Y42116015D02*
X-35486761Y42116015D01*
X-104687111Y57140745D02*
G75*
G03*
X-106187111Y58640745I-1500001J-1D01*
G01*
X93827524Y106092910D02*
X107520906Y103182292D01*
X104610254Y89488754D02*
X90916873Y92399372D01*
X125501037Y84000106D02*
G75*
G03*
X126656319Y82221032I1467163J-311906D01*
G01*
X-106924261Y61166015D02*
X-106924261Y75165475D01*
X107285221Y44805899D02*
X104374457Y31111833D01*
X30745000Y42020270D02*
X30745000Y56019730D01*
X54347159Y80696916D02*
X57257811Y94390454D01*
X76228601Y52429528D02*
X83075634Y50974147D01*
X-164255615Y92147846D02*
X-167166266Y105841384D01*
X7202763Y134245000D02*
X7202763Y117195000D01*
X-106532271Y94215475D02*
X-106532271Y80216015D01*
X85976543Y93449472D02*
X72283161Y96360090D01*
X-23470809Y137067765D02*
X-41520809Y137067765D01*
X-20970809Y100467765D02*
G75*
G03*
X-19470809Y98967765I1500001J1D01*
G01*
X-88394525Y113265475D02*
X-74395225Y113265475D01*
X44744300Y56019730D02*
X44744300Y42020270D01*
X-112495225Y114006066D02*
X-112495225Y100006606D01*
X-166230194Y86564764D02*
X-163319543Y72871226D01*
X-126290097Y135581336D02*
X-126349737Y135582522D01*
X-171586333Y65950693D02*
X-168675681Y52257155D01*
X53532150Y58544950D02*
G75*
G03*
X52032150Y57045000I-50J-1499950D01*
G01*
X34827311Y94119730D02*
X48826611Y94119730D01*
X-39495459Y120543035D02*
X-39495459Y134542495D01*
X48128901Y113169730D02*
X48128901Y99170270D01*
X-42020809Y136567765D02*
X-42020809Y136340745D01*
X9728113Y132219730D02*
X23727413Y132219730D01*
X126154618Y99221574D02*
X123243966Y85528036D01*
X-211585Y75070000D02*
X32838400Y75070000D01*
X129743575Y81053645D02*
G75*
G03*
X129358452Y81646676I-489075J103955D01*
G01*
X-21496159Y82443035D02*
X-35495459Y82443035D01*
X9728113Y118220270D02*
X9728113Y132219730D01*
X107520906Y103182292D02*
X104610254Y89488754D01*
X-20970809Y117517765D02*
G75*
G03*
X-21470809Y118017765I-500001J-1D01*
G01*
X94532617Y30622371D02*
X94532546Y30622037D01*
X-126494525Y114006066D02*
X-112495225Y114006066D01*
X-158379213Y73921325D02*
X-161289864Y87614864D01*
X-206939814Y99968940D02*
G75*
G03*
X-207324932Y99375912I103954J-489072D01*
G01*
X-19470809Y79917765D02*
G75*
G03*
X-18970809Y80417765I2J499998D01*
G01*
X136521540Y102181389D02*
X122828158Y105092007D01*
X-54536761Y61166015D02*
X-54536761Y75165475D01*
X-192110130Y43135254D02*
X-185263097Y44590636D01*
X-123794579Y133056066D02*
X-109795279Y133056066D01*
X24751400Y60070000D02*
X24751400Y61070000D01*
X-90745279Y118316015D02*
X-104744579Y118316015D01*
X-120531571Y80216015D02*
X-120531571Y94215475D01*
X-204433690Y97919949D02*
X-190740308Y100830567D01*
X-148012291Y70961511D02*
X-134318909Y73872129D01*
X-185279714Y63040075D02*
X-171586333Y65950693D01*
X127386185Y24150300D02*
X135099708Y60439576D01*
X91614583Y72775481D02*
X94525234Y86469019D01*
X-55087671Y79215745D02*
X-55087671Y80215745D01*
X-182369063Y49346537D02*
X-185279714Y63040075D01*
X139432191Y115874927D02*
X136521540Y102181389D01*
X-161642220Y112178928D02*
X-164552872Y125872467D01*
X-104187111Y39590745D02*
X-19462111Y39590745D01*
X-21496159Y96442495D02*
X-21496159Y82443035D01*
X-77607929Y118315745D02*
X-77607929Y117315745D01*
X-206419550Y61128349D02*
G75*
G03*
X-206804668Y60535321I103954J-489072D01*
G01*
X-184863906Y82604046D02*
X-181953255Y68910508D01*
X44744300Y42020270D02*
X30745000Y42020270D01*
X-177012925Y69960608D02*
X-179923576Y83654146D01*
X134714590Y61032605D02*
X127354030Y62597141D01*
X99374941Y46487281D02*
X99582853Y47465429D01*
X875400Y61070000D02*
X-211585Y61070000D01*
X-104687111Y57140745D02*
X-104687111Y40090745D01*
X-185055185Y43612488D02*
X-168547966Y47121206D01*
X875400Y60070000D02*
X875400Y61070000D01*
X99254116Y110102824D02*
X85560734Y113013443D01*
X123941676Y65904145D02*
X110248295Y68814763D01*
X-23496159Y101493035D02*
X-37495459Y101493035D01*
X-157201953Y32638697D02*
X-148915323Y34400075D01*
X88471386Y126706981D02*
X102164768Y123796363D01*
X-74395225Y113265475D02*
X-74395225Y99266015D01*
X56623880Y58211296D02*
G75*
G03*
X56834343Y58110975I314520J388904D01*
G01*
X-144685831Y76831943D02*
X-158379213Y73921325D01*
X-101481571Y80216015D02*
X-101481571Y94215475D01*
X-535539Y96645000D02*
G75*
G03*
X-1035539Y96145000I1J-500001D01*
G01*
X-201820295Y117951031D02*
X-188126914Y120861649D01*
X-167166266Y105841384D02*
X-153472885Y108752002D01*
X-85694921Y134840745D02*
X-106216259Y134840745D01*
X64199418Y136059482D02*
X45802763Y136059482D01*
X22632861Y80120270D02*
X8633561Y80120270D01*
X122828158Y105092007D02*
X125738809Y118785545D01*
X-66731211Y75165475D02*
X-66731211Y61166015D01*
X-40537461Y75165475D02*
X-40537461Y61166015D01*
X-66731211Y61166015D02*
X-80730511Y61166015D01*
X67342831Y97410189D02*
X53649449Y100320807D01*
X107105098Y122746263D02*
X120798479Y119835645D01*
X-192965465Y41931106D02*
X-191902218Y42157106D01*
X-134839173Y112712720D02*
X-131928522Y99019182D01*
X-147398165Y34113229D02*
X-120159070Y39903077D01*
X110664103Y49250792D02*
X96970721Y52161410D01*
X7875400Y61070000D02*
X7875400Y60070000D01*
X-109795279Y119056606D02*
X-123794579Y119056606D01*
X-203913426Y59079357D02*
X-190220044Y61989976D01*
X-145101639Y57267972D02*
X-148012291Y70961511D01*
X-188126914Y120861649D02*
X-185216262Y107168111D01*
X-53731929Y118315745D02*
X-53731929Y117315745D01*
X83531056Y127757080D02*
X80620404Y114063542D01*
X59703297Y60082846D02*
X62613949Y73776384D01*
X-161700933Y48576588D02*
X-160637687Y48802588D01*
X-36512111Y79917765D02*
X-19470809Y79917765D01*
X-84607929Y117315745D02*
X-84607929Y118315745D01*
X113158946Y82508301D02*
X126852328Y79597683D01*
X128247748Y40349901D02*
X125337097Y26656362D01*
X23727413Y132219730D02*
X23727413Y118220270D01*
X-47000671Y94215745D02*
X-47000671Y80215745D01*
X-107381511Y135396188D02*
G75*
G03*
X-107769929Y135581336I-388418J-314852D01*
G01*
X-185799978Y101880666D02*
X-172106597Y104791284D01*
X53532150Y58545000D02*
X55680593Y58545000D01*
X-169493202Y124822367D02*
X-166582550Y111128829D01*
X-130218069Y135736449D02*
G75*
G03*
X-130341905Y135725918I-19877J-499629D01*
G01*
X-22970809Y119517765D02*
X-22970809Y136567765D01*
X66826598Y37022637D02*
G75*
G03*
X67211739Y36429603I489102J-103937D01*
G01*
X132208466Y58983612D02*
X129297815Y45290074D01*
X-112495225Y100006606D02*
X-126494525Y100006606D01*
X-147948839Y115089546D02*
X-161642220Y112178928D01*
X72046679Y37983314D02*
X74957443Y51677381D01*
X-21487461Y56115475D02*
X-21487461Y42116015D01*
X-22970809Y136567765D02*
G75*
G03*
X-23470809Y137067765I-500001J-1D01*
G01*
X-126494525Y100006606D02*
X-126494525Y114006066D01*
D11*
X-5117850Y140000000D02*
X-5117850Y22000000D01*
D10*
X-187309393Y48296437D02*
X-201002775Y45385819D01*
X70253482Y111103727D02*
X67342831Y97410189D01*
X-183186584Y121911749D02*
X-169493202Y124822367D01*
X-73586761Y42116015D02*
X-73586761Y56115475D01*
X-145919160Y129833184D02*
X-132225778Y132743802D01*
X-190054701Y28237040D02*
X-192965465Y41931106D01*
X-106924261Y75165475D02*
X-92924961Y75165475D01*
X-76169921Y134840745D02*
X-76169921Y134841086D01*
X-121778368Y58640745D02*
G75*
G03*
X-123245589Y56828877I0J-1500000D01*
G01*
X47828113Y119534752D02*
X47828113Y133534212D01*
X-35486761Y56115475D02*
X-21487461Y56115475D01*
X-203572126Y81720348D02*
G75*
G03*
X-202989272Y81333177I489073J103954D01*
G01*
X66927023Y116974160D02*
X69837674Y130667699D01*
X-147777454Y34184940D02*
G75*
G03*
X-148915323Y34400075I-826003J-1252092D01*
G01*
X-195646636Y65999890D02*
X-198557288Y79693428D01*
X-35486761Y42116015D02*
X-35486761Y56115475D01*
X-119773952Y40496107D02*
X-123245589Y56828877D01*
X8633561Y80120270D02*
X8633561Y94119730D01*
X-80730511Y75165475D02*
X-66731211Y75165475D01*
X-199058990Y62692886D02*
X-206419550Y61128350D01*
X-18962111Y58140745D02*
G75*
G03*
X-19462111Y58640745I-500001J-1D01*
G01*
X16169300Y42020270D02*
X2170000Y42020270D01*
X-168755878Y48099353D02*
X-161908845Y49554735D01*
X53649449Y100320807D02*
X56560100Y114014346D01*
X-163319543Y72871226D02*
X-177012925Y69960608D01*
X76307331Y70865766D02*
X73396679Y57172227D01*
X-18970809Y98467765D02*
G75*
G03*
X-19470809Y98967765I-500001J-1D01*
G01*
X-52644929Y132315745D02*
X-52644929Y118315745D01*
X-83399961Y42116015D02*
X-97399261Y42116015D01*
X8633561Y94119730D02*
X22632861Y94119730D01*
X-150041969Y56217873D02*
X-163735351Y53307255D01*
X89584904Y87519119D02*
X86674253Y73825580D01*
X-19462111Y39590745D02*
G75*
G03*
X-18962111Y40090745I2J499998D01*
G01*
X64479743Y135973513D02*
G75*
G03*
X64199418Y136059482I-280343J-414113D01*
G01*
X56834343Y58110975D02*
X69216162Y55479138D01*
X92030391Y53211510D02*
X78337009Y56122128D01*
X80620404Y114063542D02*
X66927023Y116974160D01*
X137977604Y99290235D02*
G75*
G03*
X138570627Y99675326I103896J489165D01*
G01*
X-202321997Y100950489D02*
G75*
G03*
X-201166643Y102729578I-311869J1467222D01*
G01*
X105307965Y69864863D02*
X91614583Y72775481D01*
X-150562233Y95058464D02*
X-164255615Y92147846D01*
X99582853Y47465429D02*
X106429886Y46010047D01*
X1529251Y96645000D02*
X-535539Y96645000D01*
X-211585Y61070000D02*
X-211585Y75070000D01*
X-169195945Y91097746D02*
X-182889327Y88187128D01*
X104374457Y31111833D02*
X72046679Y37983314D01*
X57257811Y94390454D02*
X70951192Y91479836D01*
X28778113Y118220270D02*
X28778113Y132219730D01*
X-190220044Y61989976D02*
X-187309393Y48296437D01*
X-204326420Y120000023D02*
G75*
G03*
X-204711538Y119406994I103954J-489072D01*
G01*
X-198909644Y104257493D02*
X-201820295Y117951031D01*
X51532150Y39494950D02*
G75*
G03*
X52032150Y39995000I-50J500050D01*
G01*
X-128962771Y94486199D02*
X-126052119Y80792661D01*
X7875400Y60070000D02*
X875400Y60070000D01*
X-161289864Y87614864D02*
X-147596483Y90525482D01*
X-204711538Y119406994D02*
X-201166643Y102729578D01*
X-48087671Y80215745D02*
X-48087671Y79215745D01*
X-206804668Y60535321D02*
X-199091145Y24246045D01*
X31751400Y60070000D02*
X24751400Y60070000D01*
X129358452Y81646676D02*
X126656319Y82221032D01*
X-36512111Y79917765D02*
G75*
G03*
X-38012111Y78417765I1J-1500001D01*
G01*
X-179923576Y83654146D02*
X-166230194Y86564764D01*
X86674253Y73825580D02*
X72980871Y76736198D01*
X-60731929Y118315745D02*
X-77607929Y118315745D01*
X-201523039Y84226410D02*
X-204433690Y97919949D01*
X108218616Y83558401D02*
X105307965Y69864863D01*
X113574754Y62944330D02*
X110664103Y49250792D01*
X99881372Y65854948D02*
X113574754Y62944330D01*
X3029251Y115195000D02*
X3029251Y98145000D01*
X72283161Y96360090D02*
X75193812Y110053628D01*
X-101481571Y94215475D02*
X-87482271Y94215475D01*
X-59587461Y56115475D02*
X-59587461Y42116015D01*
X-190740308Y100830567D02*
X-187829657Y87137029D01*
X24316401Y99170270D02*
X10317101Y99170270D01*
X-199058990Y62692886D02*
G75*
G03*
X-197903636Y64471975I-311866J1467221D01*
G01*
X74957443Y51677381D02*
X76020689Y51451381D01*
X-187829657Y87137029D02*
X-201523039Y84226410D01*
X-40537461Y56115475D02*
X-40537461Y42116015D01*
X-161908845Y49554735D02*
X-161700933Y48576588D01*
X-132225778Y132743802D02*
X-129315127Y119050264D01*
X109550584Y88438654D02*
X112461236Y102132192D01*
X-111974961Y75165475D02*
X-111974961Y61166015D01*
X40270000Y61070270D02*
X40270000Y75069730D01*
X67649976Y133827067D02*
X64479741Y135973510D01*
X5702763Y115694997D02*
G75*
G03*
X7202763Y117195000I-3J1500003D01*
G01*
X-43520809Y134840745D02*
X-52644936Y134840743D01*
X-18962111Y22000000D02*
X-5117850Y22000000D01*
X-80730511Y61166015D02*
X-80730511Y75165475D01*
X-4617850Y77595000D02*
G75*
G03*
X-5117850Y77095000I1J-500001D01*
G01*
X114554367Y43260519D02*
X128247748Y40349901D01*
X-139745501Y77882043D02*
X-142656152Y91575581D01*
X81247661Y69815666D02*
X94941042Y66905048D01*
X112461236Y102132192D02*
X126154618Y99221574D01*
X34129601Y99170270D02*
X34129601Y113169730D01*
X-160637687Y48802588D02*
X-157726923Y35108521D01*
X129297815Y45290074D02*
X115604433Y48200692D01*
X-111974961Y61166015D02*
X-125974261Y61166015D01*
X48826611Y80120270D02*
X34827311Y80120270D01*
X-71963671Y80215745D02*
X-71963671Y79215745D01*
X23727413Y118220270D02*
X9728113Y118220270D01*
X40270000Y75069730D02*
X54269300Y75069730D01*
X-25496159Y134542495D02*
X-25496159Y120543035D01*
X-107381511Y135396188D02*
G75*
G03*
X-106216259Y134840745I1165250J944553D01*
G01*
X-198498115Y23860927D02*
X-189529717Y25767220D01*
X52032150Y39995000D02*
X52032150Y57045000D01*
X-78963671Y79215745D02*
X-78963671Y80215745D01*
X-148532555Y109802102D02*
X-134839173Y112712720D01*
X-107444525Y99266015D02*
X-107444525Y113265475D01*
X-76169921Y134841086D02*
X-85694921Y134841237D01*
X-134318909Y73872129D02*
X-131408258Y60178591D01*
X22632861Y94119730D02*
X22632861Y80120270D01*
X-147777454Y34184940D02*
G75*
G03*
X-147398165Y34113229I275334J417366D01*
G01*
X110248295Y68814763D02*
X113158946Y82508301D01*
X-104744579Y118316015D02*
X-104744579Y132315475D01*
X34827311Y80120270D02*
X34827311Y94119730D01*
X-53731929Y117315745D02*
X-60731929Y117315745D01*
X-123794579Y119056606D02*
X-123794579Y133056066D01*
X47828113Y133534212D02*
X61827413Y133534212D01*
X2170000Y56019730D02*
X16169300Y56019730D01*
X-129315127Y119050264D02*
X-143008509Y116139646D01*
X-85694921Y134841237D02*
X-85694921Y134840745D01*
X-104744579Y132315475D02*
X-90745279Y132315475D01*
X94532546Y30622037D02*
X103849371Y28641531D01*
X-4617850Y39495000D02*
X51532150Y39495000D01*
X-153472885Y108752002D02*
X-150562233Y95058464D01*
X71521710Y35513492D02*
X80838535Y33532987D01*
X80838535Y33532987D02*
X80838565Y33533131D01*
X31751400Y61070000D02*
X31751400Y60070000D01*
X-131408258Y60178591D02*
X-145101639Y57267972D01*
X125500966Y84000121D02*
X128837948Y99699390D01*
X-62169936Y134840745D02*
X-76169921Y134840745D01*
X-64582025Y99266015D02*
X-64582025Y113265475D01*
X-145621903Y96108564D02*
X-148532555Y109802102D01*
X-130234273Y54655429D02*
X-127323622Y40961891D01*
X-182889327Y88187128D02*
X-185799978Y101880666D01*
X-87482271Y94215475D02*
X-87482271Y80216015D01*
X-147596483Y90525482D02*
X-144685831Y76831943D01*
X-2535539Y77595000D02*
X-4617850Y77595000D01*
X135099719Y60439574D02*
G75*
G03*
X134714590Y61032605I-489119J103926D01*
G01*
X-157201851Y32638216D02*
X-157201953Y32638697D01*
X118515084Y61894231D02*
X132208466Y58983612D01*
X-143927655Y51744811D02*
X-130234273Y54655429D01*
X-22970809Y119517765D02*
G75*
G03*
X-21470809Y118017765I1500001J1D01*
G01*
X102164768Y123796363D02*
X99254116Y110102824D01*
X-107769929Y135581336D02*
X-126290097Y135581336D01*
X-37495459Y101493035D02*
X-37495459Y115492495D01*
X-25496159Y120543035D02*
X-39495459Y120543035D01*
X-199091144Y24246045D02*
G75*
G03*
X-198498115Y23860927I489072J103954D01*
G01*
X82867722Y49995999D02*
X99374941Y46487281D01*
X-84607929Y118315745D02*
X-85694929Y118315745D01*
X-92924961Y61166015D02*
X-106924261Y61166015D01*
X130617037Y100854744D02*
X137977598Y99290208D01*
X-97399261Y56115475D02*
X-83399961Y56115475D01*
X-202321997Y100950489D02*
X-206939814Y99968941D01*
X62613949Y73776384D02*
X76307331Y70865766D01*
X-80050671Y94215745D02*
X-47000671Y94215745D01*
X115604433Y48200692D02*
X118515084Y61894231D01*
X-38012111Y60140745D02*
X-38012111Y78417765D01*
X-1035539Y96145000D02*
X-1035539Y79095000D01*
X73396679Y57172227D02*
X59703297Y60082846D01*
X-104687111Y40090745D02*
G75*
G03*
X-104187111Y39590745I500001J1D01*
G01*
X-166518809Y30658338D02*
X-166518738Y30658004D01*
X-201240708Y80171665D02*
G75*
G03*
X-202989272Y81333177I-1467220J-311865D01*
G01*
X-185263097Y44590636D02*
X-185055185Y43612488D01*
X-201240708Y80171665D02*
X-197903636Y64471975D01*
X-60731929Y117315745D02*
X-60731929Y118315745D01*
X-54536761Y56115475D02*
X-40537461Y56115475D01*
X125337097Y26656362D02*
X111643715Y29566981D01*
X-55087671Y80215745D02*
X-71963671Y80215745D01*
X70951192Y91479836D02*
X68040541Y77786298D01*
X-166646002Y67000793D02*
X-152952621Y69911411D01*
X48826611Y94119730D02*
X48826611Y80120270D01*
X-121778368Y58640745D02*
X-106187111Y58640745D01*
X111643715Y29566981D02*
X114554367Y43260519D01*
X1529251Y96644999D02*
G75*
G03*
X3029251Y98145000I-1J1500001D01*
G01*
X54269300Y75069730D02*
X54269300Y61070270D01*
X45802763Y136059501D02*
G75*
G03*
X45333051Y135730862I-63J-499901D01*
G01*
X-85694929Y118315745D02*
X-85694929Y132315745D01*
X70371539Y53700044D02*
G75*
G03*
X69216162Y55479138I-1467239J311856D01*
G01*
X42777413Y132219730D02*
X42777413Y118220270D01*
X125738809Y118785545D02*
X139432191Y115874927D01*
X88887194Y107143010D02*
X85976543Y93449472D01*
X-39495459Y134542495D02*
X-25496159Y134542495D01*
X103849473Y28642012D02*
X126793155Y23765182D01*
X-62169936Y134840892D02*
X-62169936Y134840745D01*
X-74395225Y99266015D02*
X-88394525Y99266015D01*
X30745000Y56019730D02*
X44744300Y56019730D01*
X54269300Y61070270D02*
X40270000Y61070270D01*
X-54536761Y42116015D02*
X-54536761Y56115475D01*
X-71963671Y79215745D02*
X-78963671Y79215745D01*
X-5117850Y39995000D02*
G75*
G03*
X-4617850Y39495000I500001J1D01*
G01*
X106221975Y45031899D02*
X107285221Y44805899D01*
X2170000Y42020270D02*
X2170000Y56019730D01*
X-180212830Y27747433D02*
X-180212861Y27747577D01*
X43923916Y134745000D02*
X7702763Y134745000D01*
X-150859490Y128783085D02*
X-147948839Y115089546D01*
X83075634Y50974147D02*
X82867722Y49995999D01*
X126198676Y64376230D02*
X129743570Y81053646D01*
X130617041Y100854763D02*
G75*
G03*
X128837948Y99699390I-311841J-1467263D01*
G01*
X-35495459Y82443035D02*
X-35495459Y96442495D01*
X126793159Y23765203D02*
G75*
G03*
X127386185Y24150300I103941J489097D01*
G01*
X-201002775Y45385819D02*
X-203913426Y59079357D01*
X-35495459Y96442495D02*
X-21496159Y96442495D01*
X67211739Y36429603D02*
X71521710Y35513492D01*
X80838565Y33533131D02*
X94532617Y30622371D01*
X126198751Y64376214D02*
G75*
G03*
X127354030Y62597141I1467149J-311914D01*
G01*
X94941042Y66905048D02*
X92030391Y53211510D01*
X-87482271Y80216015D02*
X-101481571Y80216015D01*
X-40537461Y61166015D02*
X-54536761Y61166015D01*
X-41520809Y137067765D02*
G75*
G03*
X-42020809Y136567765I1J-500001D01*
G01*
X-47000671Y80215745D02*
X-48087671Y80215745D01*
X28778113Y132219730D02*
X42777413Y132219730D01*
X-64582025Y113265475D02*
X-50582725Y113265475D01*
X-143008509Y116139646D02*
X-145919160Y129833184D01*
X-88394525Y99266015D02*
X-88394525Y113265475D01*
X69837674Y130667699D02*
X83531056Y127757080D01*
X-120531571Y94215475D02*
X-106532271Y94215475D01*
X-93445225Y99266015D02*
X-107444525Y99266015D01*
X96970721Y52161410D02*
X99881372Y65854948D01*
X61827413Y119534752D02*
X47828113Y119534752D01*
X94525234Y86469019D02*
X108218616Y83558401D01*
X85560734Y113013443D02*
X88471386Y126706981D01*
D11*
X-18962111Y140000000D02*
X-18962111Y22000000D01*
D12*
X-2904761Y25614285D02*
X-3666666Y25328571D01*
X-2904761Y25042857D01*
X-2428571Y25328571D02*
X-1666666Y25328571D01*
X-571428Y25947619D02*
X-238095Y24947619D01*
X95238Y25947619D01*
X428571Y25328571D02*
X1190476Y25328571D01*
X2238095Y25042857D02*
X2190476Y24995238D01*
X2047619Y24947619D01*
X1952380Y24947619D01*
X1809523Y24995238D01*
X1714285Y25090476D01*
X1666666Y25185714D01*
X1619047Y25376190D01*
X1619047Y25519047D01*
X1666666Y25709523D01*
X1714285Y25804761D01*
X1809523Y25900000D01*
X1952380Y25947619D01*
X2047619Y25947619D01*
X2190476Y25900000D01*
X2238095Y25852380D01*
X3095238Y25614285D02*
X3095238Y24947619D01*
X2666666Y25614285D02*
X2666666Y25090476D01*
X2714285Y24995238D01*
X2809523Y24947619D01*
X2952380Y24947619D01*
X3047619Y24995238D01*
X3095238Y25042857D01*
X3428571Y25614285D02*
X3809523Y25614285D01*
X3571428Y25947619D02*
X3571428Y25090476D01*
X3619047Y24995238D01*
X3714285Y24947619D01*
X3809523Y24947619D01*
X-29209523Y25947619D02*
X-28876190Y24947619D01*
X-28542857Y25947619D01*
X-28209523Y25328571D02*
X-27447619Y25328571D01*
X-26400000Y25042857D02*
X-26447619Y24995238D01*
X-26590476Y24947619D01*
X-26685714Y24947619D01*
X-26828571Y24995238D01*
X-26923809Y25090476D01*
X-26971428Y25185714D01*
X-27019047Y25376190D01*
X-27019047Y25519047D01*
X-26971428Y25709523D01*
X-26923809Y25804761D01*
X-26828571Y25900000D01*
X-26685714Y25947619D01*
X-26590476Y25947619D01*
X-26447619Y25900000D01*
X-26400000Y25852380D01*
X-25542857Y25614285D02*
X-25542857Y24947619D01*
X-25971428Y25614285D02*
X-25971428Y25090476D01*
X-25923809Y24995238D01*
X-25828571Y24947619D01*
X-25685714Y24947619D01*
X-25590476Y24995238D01*
X-25542857Y25042857D01*
X-25209523Y25614285D02*
X-24828571Y25614285D01*
X-25066666Y25947619D02*
X-25066666Y25090476D01*
X-25019047Y24995238D01*
X-24923809Y24947619D01*
X-24828571Y24947619D01*
X-23733333Y25328571D02*
X-22971428Y25328571D01*
X-22495238Y25614285D02*
X-21733333Y25328571D01*
X-22495238Y25042857D01*
M02*
