M48
; DRILL file {KiCad (6.0.9)} date Sat Jan  7 08:52:43 2023
; FORMAT={-:-/ absolute / inch / decimal}
; #@! TF.CreationDate,2023-01-07T08:52:43+09:00
; #@! TF.GenerationSoftware,Kicad,Pcbnew,(6.0.9)
; #@! TF.FileFunction,NonPlated,1,2,NPTH
FMAT,2
INCH
; #@! TA.AperFunction,NonPlated,NPTH,ComponentDrill
T1C0.0197
%
G90
G05
T1
X11.6457Y-0.3445
X11.6457Y-0.374
X11.6457Y-0.4035
X11.6457Y-0.4331
X11.6457Y-0.4626
X11.6457Y-0.4921
X11.6457Y-0.5217
X11.8031Y-1.8996
X11.8031Y-1.9291
X11.8031Y-1.9587
X11.8031Y-1.9882
X11.8031Y-2.0177
X11.8031Y-2.0472
X11.8031Y-2.0768
X11.811Y-3.4941
X11.811Y-3.5236
X11.811Y-3.5531
X11.811Y-3.5827
X11.811Y-3.6122
X11.811Y-3.6417
X11.811Y-3.6713
X11.9799Y-1.8996
X11.9799Y-1.9291
X11.9799Y-1.9587
X11.9799Y-1.9882
X11.9799Y-2.0177
X11.9799Y-2.0472
X11.9799Y-2.0768
X12.3039Y-0.3445
X12.3039Y-0.374
X12.3039Y-0.4035
X12.3039Y-0.4331
X12.3039Y-0.4626
X12.3039Y-0.4921
X12.3039Y-0.5217
T0
M30
