%TF.GenerationSoftware,KiCad,Pcbnew,(6.0.9)*%
%TF.CreationDate,2023-01-07T05:20:20+09:00*%
%TF.ProjectId,Skeleton68rev2_SwitchPlate,536b656c-6574-46f6-9e36-38726576325f,rev?*%
%TF.SameCoordinates,Original*%
%TF.FileFunction,Profile,NP*%
%FSLAX46Y46*%
G04 Gerber Fmt 4.6, Leading zero omitted, Abs format (unit mm)*
G04 Created by KiCad (PCBNEW (6.0.9)) date 2023-01-07 05:20:20*
%MOMM*%
%LPD*%
G01*
G04 APERTURE LIST*
%TA.AperFunction,Profile*%
%ADD10C,0.100000*%
%TD*%
%TA.AperFunction,Profile*%
%ADD11C,0.500000*%
%TD*%
%ADD12C,0.150000*%
G04 APERTURE END LIST*
D10*
X-218934446Y74820308D02*
X-216524446Y75896737D01*
X-142495542Y89964890D02*
X-216480057Y74238996D01*
X-53674446Y91306737D02*
X-55674446Y91306737D01*
X-117674446Y89906737D02*
X-117674446Y91306737D01*
X-55674447Y89906737D02*
X-117674446Y89906737D01*
X-55674446Y91306737D02*
X-55674447Y89906737D01*
X-297752680Y91306737D02*
X-296752680Y91306737D01*
X-216524446Y75896737D02*
X-142533566Y91310308D01*
X-296752680Y91306737D02*
X-218923566Y74820308D01*
D11*
X-367069948Y-9681028D02*
X-367069948Y98318972D01*
D10*
X-180701603Y1360178D02*
X-180909515Y2338325D01*
X-255522212Y1257302D02*
X-255730123Y279154D01*
X-286758286Y65300883D02*
X-273064904Y62390265D01*
X-329113698Y30317255D02*
X-329113698Y16317255D01*
X-50165748Y14379717D02*
G75*
G03*
X-48665748Y12879717I1500001J1D01*
G01*
X-25115748Y-8681028D02*
X-25115748Y97306737D01*
X-119598162Y67504447D02*
X-105598862Y67504447D01*
X-329113698Y16317255D02*
X-330200698Y16317255D01*
X-95553598Y10354447D02*
X-95553598Y-3645013D01*
X-138127898Y15404987D02*
X-138127898Y29404447D01*
X-286060576Y45676992D02*
X-272367194Y42766374D01*
X-180829318Y6496127D02*
X-194522700Y3585509D01*
X-91117308Y34454717D02*
X-92204308Y34454717D01*
X-60241308Y33454717D02*
X-67241308Y33454717D01*
X-192366498Y-18013451D02*
X-178672446Y-15102690D01*
X-139477259Y-4799137D02*
X-153170641Y-7709756D01*
X-285931409Y6698636D02*
X-285723497Y7676783D01*
X-305391998Y69261601D02*
X-291698616Y66350982D01*
X-294302122Y89074322D02*
G75*
G03*
X-293773023Y88849186I840575J1241168D01*
G01*
X-241153619Y75082900D02*
X-244064270Y61389362D01*
X-49649096Y69731467D02*
X-35649796Y69731467D01*
X-305328226Y13458541D02*
G75*
G03*
X-306271505Y13792255I-943264J-1166241D01*
G01*
X-132312707Y-5857950D02*
G75*
G03*
X-131927589Y-5264921I-103954J489072D01*
G01*
X-319174685Y73467525D02*
X-333173985Y73467525D01*
X-175888988Y7546227D02*
X-178799639Y21239765D01*
X-210710925Y33932400D02*
X-197017543Y36843018D01*
X-169880560Y-10652507D02*
X-202208338Y-17523988D01*
X-327822497Y68416985D02*
X-313823197Y68416985D01*
X-85740398Y10354447D02*
X-71741098Y10354447D01*
X-121948916Y87295038D02*
X-121948916Y73295578D01*
X-154809789Y45814553D02*
X-141116408Y48725171D01*
X-354749335Y78642255D02*
X-354749335Y84642255D01*
X-66690398Y29404447D02*
X-52691098Y29404447D01*
X-238708132Y40775291D02*
X-252401514Y43685909D01*
X-257757652Y64299980D02*
X-254847000Y77993518D01*
X-105078598Y29404447D02*
X-105078598Y15404987D01*
X-184260234Y59030256D02*
X-181349582Y45336718D01*
X-219628663Y72578145D02*
G75*
G03*
X-220013782Y73171175I-488889J104076D01*
G01*
X-337200698Y16317255D02*
X-354076698Y16317255D01*
X-153170641Y-7709756D02*
X-156081292Y5983783D01*
X-318028182Y89992255D02*
G75*
G03*
X-316619047Y90978117I18J1499974D01*
G01*
X-118685908Y34454987D02*
X-132685208Y34454987D01*
X-178672375Y-15103024D02*
X-169355488Y-13122812D01*
X-354249335Y89992255D02*
G75*
G03*
X-354749335Y89492255I-26J-499974D01*
G01*
X-144082159Y53258154D02*
X-157775540Y50347536D01*
X-204055855Y-3603922D02*
X-204263767Y-2625774D01*
X-345782798Y11266985D02*
X-345782798Y-2732475D01*
X-109552898Y-3645013D02*
X-109552898Y10354447D01*
X-300124685Y88781467D02*
X-300124685Y74782007D01*
X-356249335Y70942255D02*
X-358422847Y70942255D01*
X-52691098Y-3645013D02*
X-66690398Y-3645013D01*
X-138205756Y35031633D02*
X-151899138Y32121015D01*
X-176706509Y80111439D02*
X-163013127Y83022057D01*
X-288971227Y31983453D02*
X-286060576Y45676992D01*
X-165106258Y24150383D02*
X-162195606Y10456845D01*
X-354749335Y89492255D02*
X-354749335Y84642255D01*
X-71741098Y-3645013D02*
X-85740398Y-3645013D01*
X-35649796Y69731467D02*
X-35649796Y55732007D01*
X-271035225Y47646627D02*
X-268124574Y61340165D01*
X-244064270Y61389362D02*
X-257757652Y64299980D01*
X-64798573Y89079715D02*
X-74323573Y89079864D01*
X-33124446Y54706737D02*
X-33124446Y71756737D01*
X-337635697Y68416985D02*
X-337635697Y54417525D01*
X-351634997Y68416985D02*
X-337635697Y68416985D01*
X-351634997Y54417525D02*
X-351634997Y68416985D01*
X-235099770Y34844938D02*
X-238010422Y21151400D01*
X-313823197Y54417525D02*
X-327822497Y54417525D01*
X-223381471Y54922581D02*
X-219628664Y72578145D01*
X-192429569Y62457183D02*
X-195340221Y76150721D01*
X-55674446Y89079717D02*
G75*
G03*
X-54174446Y90579717I-1J1500001D01*
G01*
X-197369899Y61407083D02*
X-211063281Y58496465D01*
X-64798566Y72554717D02*
X-65885566Y72554717D01*
X-194106892Y23149480D02*
X-207800273Y20238862D01*
X-219478569Y53614884D02*
X-215725763Y35959320D01*
X-31615748Y12879717D02*
X-48665748Y12879717D01*
X-105598862Y67504447D02*
X-105598862Y53504987D01*
X-62736362Y67504447D02*
X-62736362Y53504987D01*
X-178736187Y65367801D02*
X-192429569Y62457183D01*
X-138503374Y89821494D02*
X-142371706Y89975421D01*
X-258102727Y-16111214D02*
X-258102625Y-16110733D01*
X-138127898Y29404447D02*
X-124128598Y29404447D01*
X-97848566Y86554717D02*
X-64798566Y86554717D01*
X-89761566Y71554717D02*
X-96761566Y71554717D01*
X-92204308Y34454717D02*
X-92204308Y48454717D01*
X-201683354Y-19993808D02*
X-192366467Y-18013595D01*
X-293911557Y33033553D02*
X-307604939Y35944171D01*
X-358422847Y70942255D02*
G75*
G03*
X-358922847Y70442255I1J-500001D01*
G01*
X-35124446Y90806737D02*
X-35124446Y83456737D01*
X-62736362Y53504987D02*
X-76735662Y53504987D01*
X-364487637Y32842255D02*
G75*
G03*
X-362987637Y34342255I-1J1500001D01*
G01*
X-291580582Y8947304D02*
X-295125477Y-7730113D01*
X-283615089Y11369383D02*
X-280704437Y25062921D01*
X-102898916Y86554447D02*
X-102898916Y72554987D01*
X-33641098Y-3645013D02*
X-47640398Y-3645013D01*
X-116840748Y11379717D02*
G75*
G03*
X-118340748Y12879717I-1500001J-1D01*
G01*
X-268124574Y61340165D02*
X-254431192Y58429547D01*
X-257341844Y44736009D02*
X-271035225Y47646627D01*
X-236451132Y39247376D02*
G75*
G03*
X-235295779Y37468287I1467309J-311811D01*
G01*
X-119077898Y15404987D02*
X-119077898Y29404447D01*
X-254666877Y53154D02*
X-257577641Y-13640912D01*
X-331207098Y-2732475D02*
X-331207098Y11266985D01*
X-307604939Y35944171D02*
X-304694287Y49637709D01*
X-285723497Y7676783D02*
X-278876464Y6221402D01*
X-176409252Y46386818D02*
X-179319903Y60080356D01*
X-354749335Y78642255D02*
X-354749335Y72442255D01*
X-118685908Y48454447D02*
X-118685908Y34454987D01*
X-275975555Y48696727D02*
X-289668937Y51607345D01*
X-33124446Y54706737D02*
G75*
G03*
X-31624446Y53206737I1500001J1D01*
G01*
X-100548162Y67504447D02*
X-86548862Y67504447D01*
X-317207798Y11266985D02*
X-317207798Y-2732475D01*
X-124648862Y68245038D02*
X-124648862Y54245578D01*
X-178383831Y40803736D02*
X-175473180Y27110198D01*
X-138443734Y89820308D02*
X-138503374Y89821494D01*
X-183739970Y20189665D02*
X-180829318Y6496127D01*
X-308419948Y13792255D02*
G75*
G03*
X-309919948Y12292255I36J-1500036D01*
G01*
X-327124787Y49366985D02*
X-313125487Y49366985D01*
X-51649096Y74782007D02*
X-51649096Y88781467D01*
X-313823197Y68416985D02*
X-313823197Y54417525D01*
X-54174446Y90806737D02*
X-54174446Y90579717D01*
X-352223985Y87466985D02*
X-338224685Y87466985D01*
X-235797480Y54468829D02*
X-238708132Y40775291D01*
X-362163683Y30317255D02*
X-329113698Y30317255D01*
X-232208529Y36300901D02*
G75*
G03*
X-232593646Y36893931I-489064J103962D01*
G01*
X-33649796Y36682007D02*
X-47649096Y36682007D01*
X-352223985Y73467525D02*
X-352223985Y87466985D01*
X-254431192Y58429547D02*
X-257341844Y44736009D01*
X-33124446Y71756737D02*
G75*
G03*
X-33624446Y72256737I-500001J-1D01*
G01*
X-267419481Y-14130374D02*
X-267419552Y-14130708D01*
X-138648162Y68245038D02*
X-124648862Y68245038D01*
X-170532850Y28160297D02*
X-173443501Y41853836D01*
X-219093451Y54207913D02*
G75*
G03*
X-219478569Y53614884I103956J-489074D01*
G01*
X-31624446Y34156737D02*
G75*
G03*
X-31124446Y34656737I2J499998D01*
G01*
X-293773023Y88849186D02*
X-220013782Y73171175D01*
X-367069948Y-8681028D02*
X-373069948Y-8681028D01*
X-225430558Y57428644D02*
X-239123940Y60339262D01*
X-66690398Y15404987D02*
X-66690398Y29404447D01*
X-204263767Y-2625774D02*
X-197416734Y-1170392D01*
X-135948216Y87295038D02*
X-121948916Y87295038D01*
X-337200698Y15317255D02*
X-337200698Y16317255D01*
X-102898916Y72554987D02*
X-116898216Y72554987D01*
X-132685208Y34454987D02*
X-132685208Y48454447D01*
X-216587327Y52158921D02*
X-202893945Y55069539D01*
X-160165928Y25200483D02*
X-146472546Y28111101D01*
X-197433351Y17279047D02*
X-183739970Y20189665D01*
X-234565913Y-20602445D02*
X-226852390Y15686831D01*
X-270337515Y28022736D02*
X-267426864Y41716274D01*
X-67241308Y33454717D02*
X-67241308Y34454717D01*
X-194522700Y3585509D02*
X-197433351Y17279047D01*
X-222519907Y71122182D02*
X-225430558Y57428644D01*
X-173795857Y66417900D02*
X-176706509Y80111439D01*
X-116340748Y-6170283D02*
X-31615748Y-6170283D01*
X-33649796Y50681467D02*
X-33649796Y36682007D01*
X-89761566Y72554717D02*
X-89761566Y71554717D01*
X-218573187Y15367321D02*
G75*
G03*
X-218958305Y14774293I103954J-489072D01*
G01*
X-197017543Y36843018D02*
X-194106892Y23149480D01*
X-317207798Y-2732475D02*
X-331207098Y-2732475D01*
X-189166562Y24199580D02*
X-192077213Y37893118D01*
X-227237508Y16279860D02*
X-234598068Y17844396D01*
X-262577157Y1734536D02*
X-262369245Y2712684D01*
X-361076698Y16317255D02*
X-362163683Y16317255D01*
X-116840748Y11379717D02*
X-116840748Y-5670283D01*
X-197208822Y-2148540D02*
X-180701603Y1360178D01*
X-361076698Y15317255D02*
X-361076698Y16317255D01*
X-262697982Y65350079D02*
X-276391364Y68260698D01*
X-238010422Y21151400D02*
X-251703803Y24062018D01*
X-367069948Y-4757745D02*
X-367069948Y-8681028D01*
X-35649796Y55732007D02*
X-49649096Y55732007D01*
X-169355590Y-13122331D02*
X-161068960Y-11360953D01*
X-273480712Y81954236D02*
X-259787330Y79043618D01*
X-86548862Y67504447D02*
X-86548862Y53504987D01*
X-305328226Y13458541D02*
G75*
G03*
X-305117755Y13358230I314599J389129D01*
G01*
X-156839468Y31070915D02*
X-170532850Y28160297D01*
X-113635208Y34454987D02*
X-113635208Y48454447D01*
X-362487637Y51892255D02*
G75*
G03*
X-362987637Y51392255I1J-500001D01*
G01*
X-213973932Y72190003D02*
X-200280551Y75100621D01*
X-179319903Y60080356D02*
X-165626522Y62990974D01*
X-97848558Y89079717D02*
X-118369896Y89079717D01*
X-339319237Y35367525D02*
X-353318537Y35367525D01*
X-239123940Y60339262D02*
X-236213289Y74032800D01*
X-78884848Y29404447D02*
X-78884848Y15404987D01*
X-52691098Y29404447D02*
X-52691098Y15404987D01*
X-78884848Y15404987D02*
X-92884148Y15404987D01*
X-294609267Y52657444D02*
X-308302649Y55568062D01*
X-254847000Y77993518D02*
X-241153619Y75082900D01*
X-205119102Y-3829922D02*
X-204055855Y-3603922D01*
X-146992810Y66951692D02*
X-144082159Y53258154D01*
X-159551802Y-11647799D02*
X-132312707Y-5857951D01*
X-251287995Y4498047D02*
X-264981377Y7408665D01*
X-354076698Y16317255D02*
X-354076698Y15317255D01*
X-121948916Y73295578D02*
X-135948216Y73295578D01*
X-216067063Y13318329D02*
X-202373681Y16228948D01*
X-157255276Y11506944D02*
X-160165928Y25200483D01*
X-200280551Y75100621D02*
X-197369899Y61407083D01*
X-65885566Y72554717D02*
X-65885566Y71554717D01*
X-278421042Y83004335D02*
X-281331694Y69310797D01*
X-302248801Y15330101D02*
X-299338149Y29023639D01*
X-31115748Y12379717D02*
X-31124446Y34656737D01*
X-173854570Y2815560D02*
X-172791324Y3041560D01*
X-48665748Y34156737D02*
X-31624446Y34156737D01*
X-96761566Y71554717D02*
X-96761566Y72554717D01*
X-248793152Y37755556D02*
X-235099770Y34844938D01*
X-233704350Y-4402844D02*
X-236615001Y-18096383D01*
X-338224685Y87466985D02*
X-338224685Y73467525D01*
X-59154308Y48454717D02*
X-59154308Y34454717D01*
X-119535148Y89635160D02*
G75*
G03*
X-119923566Y89820308I-388418J-314852D01*
G01*
X-197953615Y56119638D02*
X-184260234Y59030256D01*
X-35624446Y91306737D02*
X-31124446Y91306737D01*
X-308419948Y13792255D02*
X-306271505Y13792255D01*
X-181646839Y79061339D02*
X-178736187Y65367801D01*
X-142371706Y89975421D02*
G75*
G03*
X-142495542Y89964890I-19877J-499629D01*
G01*
X-35124446Y73756737D02*
X-35124446Y83456737D01*
X-295125477Y-7730113D02*
G75*
G03*
X-294740359Y-8323142I489053J-103969D01*
G01*
X-229743632Y14230867D02*
X-232654283Y537329D01*
X-124648862Y54245578D02*
X-138648162Y54245578D01*
X-160102476Y69328518D02*
X-173795857Y66417900D01*
X-289905419Y-6769431D02*
X-286994655Y6924636D01*
X-33641098Y10354447D02*
X-33641098Y-3645013D01*
X-35124446Y90806737D02*
G75*
G03*
X-35624446Y91306737I-500001J-1D01*
G01*
X-138648162Y54245578D02*
X-138648162Y68245038D01*
X-199463030Y2535409D02*
X-213156412Y-375209D01*
X-291698616Y66350982D02*
X-294609267Y52657444D01*
X-195340221Y76150721D02*
X-181646839Y79061339D01*
X-85740398Y-3645013D02*
X-85740398Y10354447D01*
X-158072797Y84072156D02*
X-144379415Y86982774D01*
X-202208338Y-17523988D02*
X-205119102Y-3829922D01*
X-119077898Y29404447D02*
X-105078598Y29404447D01*
X-88323558Y89079717D02*
X-88323558Y89080058D01*
X-133932005Y12879717D02*
G75*
G03*
X-135399226Y11067849I0J-1500000D01*
G01*
X-314123985Y74782007D02*
X-314123985Y88781467D01*
X-47640398Y10354447D02*
X-33641098Y10354447D01*
X-215725763Y35959320D02*
G75*
G03*
X-215142909Y35572149I489073J103954D01*
G01*
X-295025075Y72221415D02*
X-292114424Y85914954D01*
X-159931091Y-11576088D02*
G75*
G03*
X-161068960Y-11360953I-826003J-1252092D01*
G01*
X-207800273Y20238862D02*
X-210710925Y33932400D01*
X-47640398Y-3645013D02*
X-47640398Y10354447D01*
X-131927589Y-5264921D02*
X-135399226Y11067849D01*
X-353318537Y35367525D02*
X-353318537Y49366985D01*
X-92884148Y29404447D02*
X-78884848Y29404447D01*
X-211212627Y16931858D02*
X-218573187Y15367322D01*
X-31115748Y12379717D02*
G75*
G03*
X-31615748Y12879717I-500001J-1D01*
G01*
X-345782798Y-2732475D02*
X-359782098Y-2732475D01*
X-180909515Y2338325D02*
X-174062482Y3793707D01*
X-308302649Y55568062D02*
X-305391998Y69261601D01*
X-175473180Y27110198D02*
X-189166562Y24199580D01*
X-285644767Y26113021D02*
X-288555419Y12419482D01*
X-31124446Y52706737D02*
G75*
G03*
X-31624446Y53206737I-500001J-1D01*
G01*
X-64798566Y86554717D02*
X-64798566Y72554717D01*
X-95553598Y-3645013D02*
X-109552898Y-3645013D01*
X-353318537Y49366985D02*
X-339319237Y49366985D01*
X-31124446Y52706737D02*
X-31124446Y91306737D01*
X-162195606Y10456845D02*
X-175888988Y7546227D01*
X-272367194Y42766374D02*
X-275277845Y29072835D01*
X-31615748Y-6170283D02*
G75*
G03*
X-31115748Y-5681028I7J500111D01*
G01*
X-297472357Y91220765D02*
G75*
G03*
X-297752680Y91306737I-280336J-414072D01*
G01*
X-305117755Y13358230D02*
X-292735936Y10726393D01*
X-269921707Y8458765D02*
X-283615089Y11369383D01*
X-281331694Y69310797D02*
X-295025075Y72221415D01*
X-223974500Y54537463D02*
G75*
G03*
X-223381471Y54922581I103860J489221D01*
G01*
X-214475634Y55189461D02*
G75*
G03*
X-213320280Y56968550I-311869J1467222D01*
G01*
X-256644133Y25112118D02*
X-270337515Y28022736D01*
X-162715870Y49297436D02*
X-176409252Y46386818D01*
X-262369245Y2712684D02*
X-255522212Y1257302D01*
X-360422847Y51892255D02*
X-362487637Y51892255D01*
X-362163683Y16317255D02*
X-362163683Y30317255D01*
X-181349582Y45336718D02*
X-195042964Y42426100D01*
X-257577641Y-13640912D02*
X-289905419Y-6769431D01*
X-304694287Y49637709D02*
X-291000906Y46727091D01*
X-333173985Y73467525D02*
X-333173985Y87466985D01*
X-202373681Y16228948D02*
X-199463030Y2535409D01*
X-216480057Y74238995D02*
G75*
G03*
X-216865175Y73645966I103954J-489072D01*
G01*
X-211063281Y58496465D02*
X-213973932Y72190003D01*
X-310419948Y-5257745D02*
G75*
G03*
X-309919948Y-4757745I35J499965D01*
G01*
X-141116408Y48725171D02*
X-138205756Y35031633D01*
X-354076698Y15317255D02*
X-361076698Y15317255D01*
X-173443501Y41853836D02*
X-159750120Y44764454D01*
X-216865175Y73645966D02*
X-213320280Y56968550D01*
X-60241308Y34454717D02*
X-60241308Y33454717D01*
X-218958305Y14774293D02*
X-211244782Y-21514983D01*
X-330200698Y15317255D02*
X-337200698Y15317255D01*
X-232593646Y36893931D02*
X-235295779Y37468287D01*
X-48665748Y34156737D02*
G75*
G03*
X-50165748Y32656737I1J-1500001D01*
G01*
X-192077213Y37893118D02*
X-178383831Y40803736D01*
X-275277845Y29072835D02*
X-288971227Y31983453D01*
X-72885566Y72554717D02*
X-89761566Y72554717D01*
X-213676676Y38465382D02*
X-216587327Y52158921D01*
X-253733482Y38805656D02*
X-256644133Y25112118D01*
X-248377344Y18191585D02*
X-251287995Y4498047D01*
X-262070726Y21102203D02*
X-248377344Y18191585D01*
X-358922847Y70442255D02*
X-358922847Y53392255D01*
X-289668937Y51607345D02*
X-286758286Y65300883D01*
X-113635208Y48454447D02*
X-99635908Y48454447D01*
X-71741098Y10354447D02*
X-71741098Y-3645013D01*
X-202893945Y55069539D02*
X-199983294Y41376001D01*
X-337635697Y54417525D02*
X-351634997Y54417525D01*
X-211212627Y16931858D02*
G75*
G03*
X-210057273Y18710947I-311866J1467221D01*
G01*
X-286994655Y6924636D02*
X-285931409Y6698636D01*
X-199983294Y41376001D02*
X-213676676Y38465382D01*
X-52691098Y10354447D02*
X-52691098Y-3645013D01*
X-174062482Y3793707D02*
X-173854570Y2815560D01*
X-144379415Y86982774D02*
X-141468764Y73289236D01*
X-367069948Y91306737D02*
X-367069948Y32342255D01*
X-252401514Y43685909D02*
X-249490862Y57379447D01*
X-124128598Y29404447D02*
X-124128598Y15404987D01*
X-321682098Y16317525D02*
X-321682098Y30316985D01*
X-294302122Y89074322D02*
X-297472357Y91220765D01*
X-356249335Y70942255D02*
G75*
G03*
X-354749335Y72442255I1J1499999D01*
G01*
X-55674446Y89079717D02*
X-64798573Y89079715D01*
X-92884148Y15404987D02*
X-92884148Y29404447D01*
X-366569948Y32842255D02*
G75*
G03*
X-367069948Y32342255I1J-500001D01*
G01*
X-247397731Y-1492226D02*
X-233704350Y-4402844D01*
X-151899138Y32121015D02*
X-154809789Y45814553D01*
X-280704437Y25062921D02*
X-267011056Y22152303D01*
X-249490862Y57379447D02*
X-235797480Y54468829D01*
X-327822497Y54417525D02*
X-327822497Y68416985D01*
X-172791324Y3041560D02*
X-169880560Y-10652507D01*
X-232654283Y537329D02*
X-246347665Y3447947D01*
X-124128598Y15404987D02*
X-138127898Y15404987D01*
X-313125487Y35367525D02*
X-327124787Y35367525D01*
X-84117308Y34454717D02*
X-84117308Y33454717D01*
X-338224685Y73467525D02*
X-352223985Y73467525D01*
X-321682098Y30316985D02*
X-307682798Y30316985D01*
X-37649796Y88781467D02*
X-37649796Y74782007D01*
X-119535148Y89635160D02*
G75*
G03*
X-118369896Y89079717I1165250J944553D01*
G01*
X-210651752Y-21900101D02*
X-201683354Y-19993808D01*
X-309919948Y-4757745D02*
X-309919948Y12292255D01*
X-91117308Y33454717D02*
X-91117308Y34454717D01*
X-160686192Y64041074D02*
X-146992810Y66951692D01*
X-142533566Y91310308D02*
X-117674446Y91306737D01*
X-119598162Y53504987D02*
X-119598162Y67504447D01*
X-88323558Y89080058D02*
X-97848558Y89080209D01*
X-146472546Y28111101D02*
X-143561895Y14417563D01*
X-339319237Y49366985D02*
X-339319237Y35367525D01*
X-159931091Y-11576088D02*
G75*
G03*
X-159551802Y-11647799I275334J417366D01*
G01*
X-251703803Y24062018D02*
X-248793152Y37755556D01*
X-116898216Y72554987D02*
X-116898216Y86554447D01*
X-327124787Y35367525D02*
X-327124787Y49366985D01*
X-65885566Y71554717D02*
X-72885566Y71554717D01*
X-135948216Y73295578D02*
X-135948216Y87295038D01*
X-314123985Y88781467D02*
X-300124685Y88781467D01*
X-359782098Y11266985D02*
X-345782798Y11266985D01*
X-141468764Y73289236D02*
X-155162146Y70378618D01*
X-97848558Y89080209D02*
X-97848558Y89079717D01*
X-116898216Y86554447D02*
X-102898916Y86554447D01*
X-267419552Y-14130708D02*
X-258102727Y-16111214D01*
X-366569948Y-5257745D02*
X-310419948Y-5257745D01*
X-165626522Y62990974D02*
X-162715870Y49297436D01*
X-290430388Y-9239253D02*
X-281113563Y-11219758D01*
X-281113563Y-11219758D02*
X-281113533Y-11219614D01*
X-330200698Y16317255D02*
X-330200698Y15317255D01*
X-143561895Y14417563D02*
X-157255276Y11506944D01*
X-236451132Y39247376D02*
X-233114150Y54946645D01*
X-74323573Y89079717D02*
X-88323558Y89079717D01*
X-76735662Y53504987D02*
X-76735662Y67504447D01*
X-157775540Y50347536D02*
X-160686192Y64041074D01*
X-142387910Y8894401D02*
X-139477259Y-4799137D01*
X-195042964Y42426100D02*
X-197953615Y56119638D01*
X-31115748Y-8681028D02*
X-25115748Y-8681028D01*
X-99635908Y48454447D02*
X-99635908Y34454987D01*
X-159750120Y44764454D02*
X-156839468Y31070915D01*
X-364487637Y32842255D02*
X-366569948Y32842255D01*
X-226852391Y15686831D02*
G75*
G03*
X-227237508Y16279860I-489095J103941D01*
G01*
X-169355488Y-13122812D02*
X-169355590Y-13122331D01*
X-243437014Y17141486D02*
X-229743632Y14230867D01*
X-156081292Y5983783D02*
X-142387910Y8894401D01*
X-35124446Y73756737D02*
G75*
G03*
X-33624446Y72256737I1500001J1D01*
G01*
X-259787330Y79043618D02*
X-262697982Y65350079D01*
X-119923566Y89820308D02*
X-138443734Y89820308D01*
X-49649096Y55732007D02*
X-49649096Y69731467D01*
X-37649796Y74782007D02*
X-51649096Y74782007D01*
X-211244781Y-21514983D02*
G75*
G03*
X-210651752Y-21900101I489072J103954D01*
G01*
X-279084376Y5243254D02*
X-262577157Y1734536D01*
X-96761566Y72554717D02*
X-97848566Y72554717D01*
X-105078598Y15404987D02*
X-119077898Y15404987D01*
X-231335061Y56101999D02*
X-223974500Y54537463D01*
X-109552898Y10354447D02*
X-95553598Y10354447D01*
X-214475634Y55189461D02*
X-219093451Y54207913D01*
X-299338149Y29023639D02*
X-285644767Y26113021D01*
X-92204308Y48454717D02*
X-59154308Y48454717D01*
X-246347665Y3447947D02*
X-243437014Y17141486D01*
X-50165748Y14379717D02*
X-50165748Y32656737D01*
X-362987637Y51392255D02*
X-362987637Y34342255D01*
X-288555419Y12419482D02*
X-302248801Y15330101D01*
X-116840748Y-5670283D02*
G75*
G03*
X-116340748Y-6170283I500001J1D01*
G01*
X-178672446Y-15102690D02*
X-178672375Y-15103024D01*
X-213394345Y34410637D02*
G75*
G03*
X-215142909Y35572149I-1467220J-311865D01*
G01*
X-197416734Y-1170392D02*
X-197208822Y-2148540D01*
X-213394345Y34410637D02*
X-210057273Y18710947D01*
X-316149335Y91306737D02*
X-367069948Y91306737D01*
X-72885566Y71554717D02*
X-72885566Y72554717D01*
X-66690398Y10354447D02*
X-52691098Y10354447D01*
X-236615001Y-18096383D02*
X-250308383Y-15185764D01*
X-67241308Y34454717D02*
X-84117308Y34454717D01*
X-291000906Y46727091D02*
X-293911557Y33033553D01*
X-178799639Y21239765D02*
X-165106258Y24150383D01*
X-313125487Y49366985D02*
X-313125487Y35367525D01*
X-133932005Y12879717D02*
X-118340748Y12879717D01*
X-250308383Y-15185764D02*
X-247397731Y-1492226D01*
X-360422847Y51892255D02*
G75*
G03*
X-358922847Y53392255I1J1499999D01*
G01*
X-307682798Y30316985D02*
X-307682798Y16317525D01*
X-316149335Y91306737D02*
G75*
G03*
X-316619047Y90978117I-106J-499849D01*
G01*
X-97848566Y72554717D02*
X-97848566Y86554717D01*
X-291580581Y8947304D02*
G75*
G03*
X-292735936Y10726393I-1467192J311887D01*
G01*
X-319174685Y87466985D02*
X-319174685Y73467525D01*
X-236213289Y74032800D02*
X-222519907Y71122182D01*
X-273064904Y62390265D02*
X-275975555Y48696727D01*
X-51649096Y88781467D02*
X-37649796Y88781467D01*
X-258102625Y-16110733D02*
X-235158943Y-20987563D01*
X-74323573Y89079864D02*
X-74323573Y89079717D01*
X-86548862Y53504987D02*
X-100548162Y53504987D01*
X-331207098Y11266985D02*
X-317207798Y11266985D01*
X-307682798Y16317525D02*
X-321682098Y16317525D01*
X-66690398Y-3645013D02*
X-66690398Y10354447D01*
X-84117308Y33454717D02*
X-91117308Y33454717D01*
X-367069948Y-4757745D02*
G75*
G03*
X-366569948Y-5257745I500001J1D01*
G01*
X-255730123Y279154D02*
X-254666877Y53154D01*
X-359782098Y-2732475D02*
X-359782098Y11266985D01*
X-192366467Y-18013595D02*
X-192366498Y-18013451D01*
X-373069948Y-8681028D02*
X-373069948Y97306737D01*
X-318028182Y89992255D02*
X-354249335Y89992255D01*
X-163013127Y83022057D02*
X-160102476Y69328518D01*
X-373069948Y97306737D02*
X-25115748Y97306737D01*
X-278876464Y6221402D02*
X-279084376Y5243254D01*
X-235753422Y19623485D02*
X-232208528Y36300901D01*
X-231335061Y56101999D02*
G75*
G03*
X-233114150Y54946645I-311866J-1467224D01*
G01*
X-47649096Y36682007D02*
X-47649096Y50681467D01*
X-235158943Y-20987563D02*
G75*
G03*
X-234565913Y-20602445I103914J489139D01*
G01*
X-213156412Y-375209D02*
X-216067063Y13318329D01*
X-47649096Y50681467D02*
X-33649796Y50681467D01*
X-294740359Y-8323142D02*
X-290430388Y-9239253D01*
X-281113533Y-11219614D02*
X-267419481Y-14130374D01*
X-235753421Y19623485D02*
G75*
G03*
X-234598068Y17844396I1467302J-311815D01*
G01*
X-267011056Y22152303D02*
X-269921707Y8458765D01*
X-31115748Y-5681028D02*
X-31115748Y-8681028D01*
X-99635908Y34454987D02*
X-113635208Y34454987D01*
X-52691098Y15404987D02*
X-66690398Y15404987D01*
X-53674446Y91306737D02*
G75*
G03*
X-54174446Y90806737I1J-500001D01*
G01*
X-59154308Y34454717D02*
X-60241308Y34454717D01*
X-333173985Y87466985D02*
X-319174685Y87466985D01*
X-76735662Y67504447D02*
X-62736362Y67504447D01*
X-155162146Y70378618D02*
X-158072797Y84072156D01*
X-100548162Y53504987D02*
X-100548162Y67504447D01*
X-292114424Y85914954D02*
X-278421042Y83004335D01*
X-132685208Y48454447D02*
X-118685908Y48454447D01*
X-105598862Y53504987D02*
X-119598162Y53504987D01*
X-264981377Y7408665D02*
X-262070726Y21102203D01*
X-300124685Y74782007D02*
X-314123985Y74782007D01*
X-267426864Y41716274D02*
X-253733482Y38805656D01*
X-276391364Y68260698D02*
X-273480712Y81954236D01*
D11*
X-31115748Y-9681028D02*
X-31124446Y98318972D01*
X-374069948Y91306737D02*
X-24069948Y91306737D01*
D12*
X-30522328Y106735308D02*
X-31522328Y106401975D01*
X-30522328Y106068641D01*
X-31141376Y105735308D02*
X-31141376Y104973403D01*
X-31427090Y103925784D02*
X-31474709Y103973403D01*
X-31522328Y104116260D01*
X-31522328Y104211498D01*
X-31474709Y104354356D01*
X-31379471Y104449594D01*
X-31284233Y104497213D01*
X-31093757Y104544832D01*
X-30950900Y104544832D01*
X-30760424Y104497213D01*
X-30665186Y104449594D01*
X-30569948Y104354356D01*
X-30522328Y104211498D01*
X-30522328Y104116260D01*
X-30569948Y103973403D01*
X-30617567Y103925784D01*
X-30855662Y103068641D02*
X-31522328Y103068641D01*
X-30855662Y103497213D02*
X-31379471Y103497213D01*
X-31474709Y103449594D01*
X-31522328Y103354356D01*
X-31522328Y103211498D01*
X-31474709Y103116260D01*
X-31427090Y103068641D01*
X-30855662Y102735308D02*
X-30855662Y102354356D01*
X-30522328Y102592451D02*
X-31379471Y102592451D01*
X-31474709Y102544832D01*
X-31522328Y102449594D01*
X-31522328Y102354356D01*
X-31141376Y102021022D02*
X-31141376Y101259117D01*
X-30855662Y100782927D02*
X-31141376Y100021022D01*
X-31427090Y100782927D01*
X-381498519Y91854356D02*
X-381165186Y90854356D01*
X-380831852Y91854356D01*
X-380498519Y91235308D02*
X-379736614Y91235308D01*
X-378688995Y90949594D02*
X-378736614Y90901975D01*
X-378879471Y90854356D01*
X-378974709Y90854356D01*
X-379117567Y90901975D01*
X-379212805Y90997213D01*
X-379260424Y91092451D01*
X-379308043Y91282927D01*
X-379308043Y91425784D01*
X-379260424Y91616260D01*
X-379212805Y91711498D01*
X-379117567Y91806737D01*
X-378974709Y91854356D01*
X-378879471Y91854356D01*
X-378736614Y91806737D01*
X-378688995Y91759117D01*
X-377831852Y91521022D02*
X-377831852Y90854356D01*
X-378260424Y91521022D02*
X-378260424Y90997213D01*
X-378212805Y90901975D01*
X-378117567Y90854356D01*
X-377974709Y90854356D01*
X-377879471Y90901975D01*
X-377831852Y90949594D01*
X-377498519Y91521022D02*
X-377117567Y91521022D01*
X-377355662Y91854356D02*
X-377355662Y90997213D01*
X-377308043Y90901975D01*
X-377212805Y90854356D01*
X-377117567Y90854356D01*
X-376784233Y91235308D02*
X-376022328Y91235308D01*
X-375546138Y91521022D02*
X-374784233Y91235308D01*
X-375546138Y90949594D01*
X-366522328Y106735308D02*
X-367522328Y106401975D01*
X-366522328Y106068641D01*
X-367141376Y105735308D02*
X-367141376Y104973403D01*
X-367427090Y103925784D02*
X-367474709Y103973403D01*
X-367522328Y104116260D01*
X-367522328Y104211498D01*
X-367474709Y104354356D01*
X-367379471Y104449594D01*
X-367284233Y104497213D01*
X-367093757Y104544832D01*
X-366950900Y104544832D01*
X-366760424Y104497213D01*
X-366665186Y104449594D01*
X-366569948Y104354356D01*
X-366522328Y104211498D01*
X-366522328Y104116260D01*
X-366569948Y103973403D01*
X-366617567Y103925784D01*
X-366855662Y103068641D02*
X-367522328Y103068641D01*
X-366855662Y103497213D02*
X-367379471Y103497213D01*
X-367474709Y103449594D01*
X-367522328Y103354356D01*
X-367522328Y103211498D01*
X-367474709Y103116260D01*
X-367427090Y103068641D01*
X-366855662Y102735308D02*
X-366855662Y102354356D01*
X-366522328Y102592451D02*
X-367379471Y102592451D01*
X-367474709Y102544832D01*
X-367522328Y102449594D01*
X-367522328Y102354356D01*
X-367141376Y102021022D02*
X-367141376Y101259117D01*
X-366855662Y100782927D02*
X-367141376Y100021022D01*
X-367427090Y100782927D01*
M02*
