%TF.GenerationSoftware,KiCad,Pcbnew,(6.0.9)*%
%TF.CreationDate,2023-01-07T08:52:43+09:00*%
%TF.ProjectId,Skeleton68rev2_SwitchPlate,536b656c-6574-46f6-9e36-38726576325f,rev?*%
%TF.SameCoordinates,Original*%
%TF.FileFunction,Profile,NP*%
%FSLAX46Y46*%
G04 Gerber Fmt 4.6, Leading zero omitted, Abs format (unit mm)*
G04 Created by KiCad (PCBNEW (6.0.9)) date 2023-01-07 08:52:43*
%MOMM*%
%LPD*%
G01*
G04 APERTURE LIST*
%TA.AperFunction,Profile*%
%ADD10C,0.100000*%
%TD*%
G04 APERTURE END LIST*
D10*
X349541766Y-4750000D02*
X313320613Y-4750000D01*
X133245849Y-32422634D02*
X119552467Y-35333252D01*
X196683743Y-80950042D02*
G75*
G03*
X195216522Y-82761868I-43J-1499958D01*
G01*
X312820613Y-13700000D02*
X312820613Y-22300000D01*
X447941330Y-22164120D02*
G75*
G03*
X447556166Y-21571080I-489130J103920D01*
G01*
X225016886Y-40324730D02*
X211017586Y-40324730D01*
X235062150Y-83475270D02*
X235062150Y-97474730D01*
X257730182Y-22275000D02*
X257730182Y-21275000D01*
X267879386Y-26325270D02*
X267879386Y-40324730D01*
X242292190Y-4749659D02*
X232767190Y-4749508D01*
X240854182Y-21275000D02*
X240854182Y-22275000D01*
X362177950Y-25480654D02*
X375871332Y-28391273D01*
X298991302Y-59673002D02*
G75*
G03*
X299491302Y-59172980I-2J500002D01*
G01*
X353746751Y-40324730D02*
X339747451Y-40324730D01*
X278966652Y-19047710D02*
X278966652Y-5048250D01*
X296974650Y-97474730D02*
X282975350Y-97474730D01*
X130632454Y-52453716D02*
X116939072Y-55364335D01*
X433865598Y-99145099D02*
X430954947Y-112838638D01*
X136093048Y-90244208D02*
X133182397Y-76550670D01*
X119904823Y-59897317D02*
X133598205Y-56986699D01*
X400150467Y-108872629D02*
X400150396Y-108872963D01*
X251730900Y-64425270D02*
X251730900Y-78424730D01*
X263925350Y-78424730D02*
X263925350Y-64425270D01*
X113750573Y-20183751D02*
X117295468Y-36861167D01*
X299500000Y-93700000D02*
X299500000Y-99500000D01*
X206487150Y-64425270D02*
X206487150Y-78424730D01*
X192487850Y-78424730D02*
X192487850Y-64425270D01*
X329345263Y-21274730D02*
X315345963Y-21274730D01*
X188120206Y-3864827D02*
X114135691Y-19590721D01*
X160735188Y-104482224D02*
X128407410Y-111353705D01*
X170684658Y-105405804D02*
G75*
G03*
X171063946Y-105477516I275342J417404D01*
G01*
X263925350Y-64425270D02*
X277924650Y-64425270D01*
X430954947Y-112838638D02*
X417261565Y-109928019D01*
X227716832Y-7275270D02*
X227716832Y-21274730D01*
X274941302Y-4750002D02*
G75*
G03*
X276441302Y-3250000I-2J1500002D01*
G01*
X172542951Y-9757561D02*
X186236333Y-6846943D01*
X189146984Y-20540481D02*
X175453602Y-23451099D01*
X173776280Y-62758802D02*
X160082898Y-65669420D01*
X119963996Y-115729818D02*
X128932394Y-113823525D01*
X263374440Y-60375000D02*
X263374440Y-59375000D01*
X297491302Y-39122980D02*
X297491302Y-22072980D01*
X372444411Y-102472355D02*
G75*
G03*
X372829589Y-103065397I489089J-103945D01*
G01*
X388485572Y-89499001D02*
X404992791Y-93007719D01*
X421222283Y-91294308D02*
X424132934Y-77600769D01*
X155142568Y-66719519D02*
X141449186Y-69630137D01*
X170513272Y-24501199D02*
X156819891Y-27411817D01*
X156553266Y-90036010D02*
X156761178Y-91014157D01*
X299500000Y-53200000D02*
X299491302Y-59172980D01*
X400558892Y-72589952D02*
X397648241Y-86283490D01*
X372829589Y-103065397D02*
X377139560Y-103981508D01*
X184143202Y-65718616D02*
X187053853Y-79412154D01*
X296974650Y-83475270D02*
X296974650Y-97474730D01*
X357150000Y-100000000D02*
G75*
G03*
X357650000Y-99500000I0J500000D01*
G01*
X369817268Y-3435518D02*
X351420613Y-3435518D01*
X213775000Y-82450000D02*
G75*
G03*
X212275000Y-80950000I-1500000J0D01*
G01*
X263925350Y-83475270D02*
X277924650Y-83475270D01*
X111137179Y-40214833D02*
X114889985Y-57870397D01*
X294991302Y-2522980D02*
X276941302Y-2522980D01*
X336362850Y-83475270D02*
X350362150Y-83475270D01*
X157824424Y-90788157D02*
X160735188Y-104482224D01*
X280450000Y-79450000D02*
G75*
G03*
X281950000Y-80950000I1500000J0D01*
G01*
X418079086Y-37362808D02*
X431772468Y-40273426D01*
X127721803Y-38760178D02*
X130632454Y-52453716D01*
X244875350Y-83475270D02*
X258874650Y-83475270D01*
X277924650Y-97474730D02*
X263925350Y-97474730D01*
X138249281Y-111843312D02*
X138249250Y-111843168D01*
X402588571Y-87333590D02*
X405499222Y-73640052D01*
X277924650Y-78424730D02*
X263925350Y-78424730D01*
X443595450Y-40204782D02*
G75*
G03*
X444188477Y-39819674I103950J489082D01*
G01*
X354444461Y-45375270D02*
X354444461Y-59374730D01*
X160082898Y-65669420D02*
X157172247Y-51975881D01*
X263925350Y-97474730D02*
X263925350Y-83475270D01*
X237731600Y-64425270D02*
X251730900Y-64425270D01*
X264730182Y-22275000D02*
X257730182Y-22275000D01*
X391594393Y-46045528D02*
X377901011Y-43134910D01*
X373658391Y-61708702D02*
X359965009Y-58798084D01*
X175453602Y-23451099D02*
X172542951Y-9757561D01*
X216980540Y-59374730D02*
X216980540Y-45375270D01*
X213717532Y-7275270D02*
X227716832Y-7275270D01*
X232767182Y-7275000D02*
X265817182Y-7275000D01*
X112042571Y-78462444D02*
G75*
G03*
X111657443Y-79055424I103929J-489056D01*
G01*
X131152718Y-91294308D02*
X117459336Y-94204926D01*
X435361388Y-58441347D02*
G75*
G03*
X434976302Y-57848324I-489088J103947D01*
G01*
X419192604Y-76550670D02*
X416281953Y-90244208D01*
X304582311Y-43350000D02*
X304582311Y-47800000D01*
X117221403Y-59419080D02*
X120558475Y-75118770D01*
X417261565Y-109928019D02*
X420172217Y-96234481D01*
X391178584Y-26481557D02*
X394089236Y-12788019D01*
X242292190Y-4750000D02*
X242292190Y-4749659D01*
X348395263Y-21274730D02*
X334395963Y-21274730D01*
X213717532Y-21274730D02*
X213717532Y-7275270D01*
X297491320Y-39122980D02*
G75*
G03*
X298991302Y-40622980I1499980J-20D01*
G01*
X423505678Y-33352893D02*
X409812296Y-30442275D01*
X116140114Y-38640256D02*
X111522297Y-39621804D01*
X314251411Y-59374730D02*
X314251411Y-45375270D01*
X367445263Y-5960788D02*
X367445263Y-19960248D01*
X149914145Y-92469539D02*
X149706233Y-91491392D01*
X177445107Y-101539473D02*
X174534456Y-87845934D01*
X370097599Y-3521478D02*
G75*
G03*
X369817268Y-3435518I-280299J-414022D01*
G01*
X116140113Y-38640251D02*
G75*
G03*
X117295468Y-36861167I-311913J1467251D01*
G01*
X208666832Y-20534139D02*
X194667532Y-20534139D01*
X377664529Y-101511686D02*
X380575293Y-87817619D01*
X267879386Y-40324730D02*
X253880086Y-40324730D01*
X337369250Y-78425000D02*
X337369250Y-79425000D01*
X381925181Y-68629234D02*
X379014529Y-82322773D01*
X282975350Y-83475270D02*
X296974650Y-83475270D01*
X372544873Y-22520840D02*
X375455524Y-8827301D01*
X294965952Y-24098250D02*
X294965952Y-38097710D01*
X409812296Y-30442275D02*
X412722948Y-16748737D01*
X426416329Y-19659355D02*
X423505678Y-33352893D01*
X189499340Y-45104546D02*
X192409992Y-58798084D01*
X151943373Y-108932741D02*
X161260260Y-106952529D01*
X303082311Y-61900011D02*
G75*
G03*
X304582311Y-60400000I-11J1500011D01*
G01*
X368231799Y-65718616D02*
X381925181Y-68629234D01*
X240854182Y-22275000D02*
X233854182Y-22275000D01*
X315345963Y-21274730D02*
X315345963Y-7275270D01*
X309147101Y-23800001D02*
G75*
G03*
X308647101Y-24300000I-1J-499999D01*
G01*
X440332440Y-78462395D02*
X432971880Y-76897859D01*
X221062850Y-97474730D02*
X221062850Y-83475270D01*
X161260260Y-106952529D02*
X161260158Y-106952048D01*
X328250711Y-45375270D02*
X328250711Y-59374730D01*
X375871332Y-28391273D02*
X372960681Y-42084811D01*
X196683743Y-80950000D02*
X212275000Y-80950000D01*
X173360472Y-82322773D02*
X170449820Y-68629234D01*
X340445161Y-45375270D02*
X354444461Y-45375270D01*
X353445963Y-19960248D02*
X353445963Y-5960788D01*
X246498440Y-60375000D02*
X239498440Y-60375000D01*
X170865628Y-49065263D02*
X173776280Y-62758802D01*
X418776796Y-56986699D02*
X432470178Y-59897317D01*
X276441302Y-3022980D02*
X276441302Y-3250000D01*
X194667532Y-6534679D02*
X208666832Y-6534679D01*
X211017586Y-40324730D02*
X211017586Y-26325270D01*
X412047736Y-93484953D02*
X411839825Y-94463101D01*
X138538535Y-55936599D02*
X152231917Y-53025981D01*
X191138489Y-98628854D02*
X177445107Y-101539473D01*
X307147101Y-42850000D02*
X305082311Y-42850000D01*
X433004035Y-115344700D02*
X440717558Y-79055424D01*
X432411022Y-115729739D02*
G75*
G03*
X433004035Y-115344700I103978J489039D01*
G01*
X409992307Y-108383167D02*
X377664529Y-101511686D01*
X299500000Y-53200000D02*
X304582311Y-53200000D01*
X442139390Y-37313611D02*
X428446008Y-34402993D01*
X294965952Y-38097710D02*
X280966652Y-38097710D01*
X197930540Y-45375270D02*
X211929840Y-45375270D01*
X208666832Y-6534679D02*
X208666832Y-20534139D01*
X274941302Y-4750000D02*
X265817175Y-4750002D01*
X211537850Y-78424730D02*
X211537850Y-64425270D01*
X349541766Y-4749968D02*
G75*
G03*
X350950901Y-3764138I34J1499968D01*
G01*
X412722948Y-16748737D02*
X426416329Y-19659355D01*
X133598205Y-56986699D02*
X136508856Y-70680237D01*
X444188477Y-39819674D02*
X447941284Y-22164110D01*
X292965952Y-5048250D02*
X292965952Y-19047710D01*
X214275000Y-100000000D02*
X299000000Y-100000000D01*
X345887850Y-64425270D02*
X359887150Y-64425270D01*
X149706233Y-91491392D02*
X156553266Y-90036010D01*
X381509372Y-49065263D02*
X395202754Y-51975881D01*
X314251411Y-45375270D02*
X328250711Y-45375270D01*
X213775000Y-82450000D02*
X213775000Y-99500000D01*
X404871966Y-29392176D02*
X391178584Y-26481557D01*
X299500000Y-93700000D02*
X300500000Y-93700000D01*
X157172247Y-51975881D02*
X170865628Y-49065263D01*
X295500000Y-8300000D02*
X312820613Y-8300000D01*
X114890001Y-57870394D02*
G75*
G03*
X115472839Y-58257568I489099J103994D01*
G01*
X156819891Y-27411817D02*
X153909239Y-13718278D01*
X373267824Y-5667936D02*
G75*
G03*
X373796925Y-5893069I840976J1242136D01*
G01*
X161260158Y-106952048D02*
X169546788Y-105190670D01*
X235062150Y-97474730D02*
X221062850Y-97474730D01*
X116939072Y-55364335D02*
X114028421Y-41670796D01*
X315934951Y-40324730D02*
X315934951Y-26325270D01*
X170449820Y-68629234D02*
X184143202Y-65718616D01*
X263374440Y-59375000D02*
X246498440Y-59375000D01*
X301000000Y-61900000D02*
G75*
G03*
X300500000Y-62400000I0J-500000D01*
G01*
X410228104Y-50006246D02*
X396534723Y-47095628D01*
X313320613Y-4750013D02*
G75*
G03*
X312820613Y-5250000I-13J-499987D01*
G01*
X183622938Y-26878025D02*
X186533589Y-40571563D01*
X128407410Y-111353705D02*
X125496646Y-97659639D01*
X171063946Y-105477516D02*
X198303041Y-99687668D01*
X153909239Y-13718278D02*
X167602621Y-10807660D01*
X191967586Y-39584139D02*
X191967586Y-25584679D01*
X400143084Y-53025981D02*
X413836466Y-55936599D01*
X412903071Y-94689101D02*
X409992307Y-108383167D01*
X431118816Y-55494879D02*
X434455798Y-39795610D01*
X216980540Y-45375270D02*
X230979840Y-45375270D01*
X345887850Y-78424730D02*
X345887850Y-64425270D01*
X359887150Y-78424730D02*
X345887850Y-78424730D01*
X394505044Y-32351990D02*
X391594393Y-46045528D01*
X206487150Y-78424730D02*
X192487850Y-78424730D01*
X300500000Y-62400000D02*
X300500000Y-88300000D01*
X295500000Y-13700000D02*
X312820613Y-13700000D01*
X434976302Y-57848324D02*
X432274169Y-57273968D01*
X321787150Y-83475270D02*
X321787150Y-97474730D01*
X169929556Y-29788643D02*
X183622938Y-26878025D01*
X386238254Y-25431458D02*
X372544873Y-22520840D01*
X328250711Y-59374730D02*
X314251411Y-59374730D01*
X299500000Y-47800000D02*
X299491302Y-41122980D01*
X282966652Y-43148250D02*
X296965952Y-43148250D01*
X138249250Y-111843168D02*
X151943302Y-108932407D01*
X431816447Y-75118753D02*
G75*
G03*
X432971880Y-76897859I1467253J-311847D01*
G01*
X386865511Y-69679334D02*
X400558892Y-72589952D01*
X381638539Y-88043619D02*
X381846451Y-87065472D01*
X232767182Y-21275000D02*
X232767182Y-7275000D01*
X114028421Y-41670796D02*
X127721803Y-38760178D01*
X191967586Y-25584679D02*
X205966886Y-25584679D01*
X213775000Y-99500000D02*
G75*
G03*
X214275000Y-100000000I500000J0D01*
G01*
X154206496Y-47442899D02*
X151295845Y-33749361D01*
X151879561Y-28461916D02*
X138186179Y-31372534D01*
X362241716Y-81283722D02*
G75*
G03*
X362452193Y-81384025I314384J388722D01*
G01*
X256292175Y-4750000D02*
X242292190Y-4750000D01*
X197930540Y-59374730D02*
X197930540Y-45375270D01*
X146355514Y-34799461D02*
X149266166Y-48492999D01*
X292965952Y-19047710D02*
X278966652Y-19047710D01*
X178716610Y-61708702D02*
X175805959Y-48015164D01*
X397232433Y-66719519D02*
X400143084Y-53025981D01*
X277924650Y-83475270D02*
X277924650Y-97474730D01*
X188244042Y-3854287D02*
G75*
G03*
X188120206Y-3864827I-19842J-499613D01*
G01*
X336362850Y-97474730D02*
X336362850Y-83475270D01*
X380811662Y-29441372D02*
X394505044Y-32351990D01*
X306493250Y-79425000D02*
X306493250Y-78425000D01*
X232767190Y-4750000D02*
X212245852Y-4750000D01*
X400150396Y-108872963D02*
X409467221Y-110853469D01*
X373267826Y-5667933D02*
X370097591Y-3521490D01*
X277924650Y-64425270D02*
X277924650Y-78424730D01*
X237731600Y-78424730D02*
X237731600Y-64425270D01*
X299500000Y-88300000D02*
X300500000Y-88300000D01*
X119370886Y-115344717D02*
G75*
G03*
X119963996Y-115729818I489114J104017D01*
G01*
X151943302Y-108932407D02*
X151943373Y-108932741D01*
X152231917Y-53025981D02*
X155142568Y-66719519D01*
X165509490Y-69679334D02*
X168420142Y-83372872D01*
X119552467Y-35333252D02*
X116641816Y-21639714D01*
X149786430Y-87333590D02*
X136093048Y-90244208D01*
X192487850Y-64425270D02*
X206487150Y-64425270D01*
X405499222Y-73640052D02*
X419192604Y-76550670D01*
X436234879Y-38640295D02*
G75*
G03*
X434455798Y-39795610I-311879J-1467205D01*
G01*
X111657443Y-79055424D02*
X119370966Y-115344700D01*
X359150000Y-80950000D02*
G75*
G03*
X357650000Y-82450000I0J-1500000D01*
G01*
X359887150Y-64425270D02*
X359887150Y-78424730D01*
X305082311Y-42850011D02*
G75*
G03*
X304582311Y-43350000I-11J-499989D01*
G01*
X295491320Y-3022980D02*
G75*
G03*
X294991302Y-2522980I-500020J-20D01*
G01*
X187053853Y-79412154D02*
X173360472Y-82322773D01*
X348395263Y-7275270D02*
X348395263Y-21274730D01*
X440717606Y-79055434D02*
G75*
G03*
X440332440Y-78462395I-489106J103934D01*
G01*
X377901011Y-43134910D02*
X380811662Y-29441372D01*
X211080608Y-4194550D02*
G75*
G03*
X210692182Y-4009409I-388408J-314850D01*
G01*
X258874650Y-83475270D02*
X258874650Y-97474730D01*
X330369250Y-78425000D02*
X313493250Y-78425000D01*
X351420613Y-3435518D02*
G75*
G03*
X350950901Y-3764138I-13J-499982D01*
G01*
X282966652Y-57147710D02*
X282966652Y-43148250D01*
X186533589Y-40571563D02*
X172840208Y-43482181D01*
X119403121Y-76897859D02*
X112042561Y-78462395D01*
X230979840Y-59374730D02*
X216980540Y-59374730D01*
X211080629Y-4194533D02*
G75*
G03*
X212245852Y-4750000I1165271J944533D01*
G01*
X428861816Y-53966964D02*
X415168434Y-51056346D01*
X296965952Y-43148250D02*
X296965952Y-57147710D01*
X315345963Y-7275270D02*
X329345263Y-7275270D01*
X211537850Y-64425270D02*
X225537150Y-64425270D01*
X232767190Y-4749508D02*
X232767190Y-4750000D01*
X225016886Y-26325270D02*
X225016886Y-40324730D01*
X258874650Y-97474730D02*
X244875350Y-97474730D01*
X365321147Y-79412154D02*
X368231799Y-65718616D01*
X135275527Y-17678996D02*
X148968909Y-14768378D01*
X174534456Y-87845934D02*
X188227838Y-84935316D01*
X167602621Y-10807660D02*
X170513272Y-24501199D01*
X122815475Y-73590855D02*
X119904823Y-59897317D01*
X238411440Y-45375000D02*
X271461440Y-45375000D01*
X239498440Y-59375000D02*
X238411440Y-59375000D01*
X405200703Y-92029571D02*
X412047736Y-93484953D01*
X383954859Y-83372872D02*
X386865511Y-69679334D01*
X233854182Y-21275000D02*
X232767182Y-21275000D01*
X431118734Y-55494861D02*
G75*
G03*
X432274169Y-57273968I1467266J-311839D01*
G01*
X410925815Y-69630137D02*
X397232433Y-66719519D01*
X128242067Y-77600769D02*
X131152718Y-91294308D01*
X170684677Y-105405775D02*
G75*
G03*
X169546788Y-105190670I-825977J-1252125D01*
G01*
X295500000Y-13700000D02*
X295491302Y-20072980D01*
X337369250Y-79425000D02*
X330369250Y-79425000D01*
X299000000Y-100000000D02*
G75*
G03*
X299500000Y-99500000I0J500000D01*
G01*
X138186179Y-31372534D02*
X135275527Y-17678996D01*
X416281953Y-90244208D02*
X402588571Y-87333590D01*
X329345263Y-7275270D02*
X329345263Y-21274730D01*
X380575293Y-87817619D02*
X381638539Y-88043619D01*
X270374440Y-59375000D02*
X270374440Y-60375000D01*
X128932394Y-113823525D02*
X138249281Y-111843312D01*
X424132934Y-77600769D02*
X437826316Y-80511388D01*
X338456250Y-64425000D02*
X338456250Y-78425000D01*
X376569042Y-48015164D02*
X373658391Y-61708702D01*
X239498440Y-60375000D02*
X239498440Y-59375000D01*
X299491320Y-41122980D02*
G75*
G03*
X298991302Y-40622980I-500020J-20D01*
G01*
X350362150Y-97474730D02*
X336362850Y-97474730D01*
X307787850Y-97474730D02*
X307787850Y-83475270D01*
X117221388Y-59419083D02*
G75*
G03*
X115472839Y-58257568I-1467188J-311817D01*
G01*
X313493250Y-79425000D02*
X306493250Y-79425000D01*
X244066886Y-40324730D02*
X230067586Y-40324730D01*
X194667532Y-20534139D02*
X194667532Y-6534679D01*
X198688159Y-99094638D02*
X195216522Y-82761868D01*
X307147101Y-42850001D02*
G75*
G03*
X308647101Y-41350000I-1J1500001D01*
G01*
X357650000Y-99500000D02*
X357650000Y-82450000D01*
X394089236Y-12788019D02*
X407782618Y-15698637D01*
X172840208Y-43482181D02*
X169929556Y-29788643D01*
X413138756Y-36312708D02*
X410228104Y-50006246D01*
X375989351Y-85794948D02*
G75*
G03*
X374834012Y-84015862I-1467251J311848D01*
G01*
X339747451Y-26325270D02*
X353746751Y-26325270D01*
X311320613Y-23800013D02*
G75*
G03*
X312820613Y-22300000I-13J1500013D01*
G01*
X297491320Y-22072980D02*
G75*
G03*
X296991302Y-21572980I-500020J-20D01*
G01*
X225537150Y-64425270D02*
X225537150Y-78424730D01*
X271461440Y-59375000D02*
X270374440Y-59375000D01*
X301000000Y-100000000D02*
X357150000Y-100000000D01*
X125496646Y-97659639D02*
X126559893Y-97433639D01*
X210692182Y-4009409D02*
X192172014Y-4009409D01*
X299500000Y-47800000D02*
X304582311Y-47800000D01*
X257730182Y-21275000D02*
X240854182Y-21275000D01*
X375455524Y-8827301D02*
X389148906Y-11737920D01*
X338456250Y-78425000D02*
X337369250Y-78425000D01*
X378598721Y-62758802D02*
X381509372Y-49065263D01*
X265817182Y-7275000D02*
X265817182Y-21275000D01*
X300500000Y-99500000D02*
G75*
G03*
X301000000Y-100000000I500000J0D01*
G01*
X225537150Y-78424730D02*
X211537850Y-78424730D01*
X135572784Y-51403617D02*
X132662133Y-37710079D01*
X359267299Y-39174193D02*
X362177950Y-25480654D01*
X312820613Y-8300000D02*
X312820613Y-5250000D01*
X136508856Y-70680237D02*
X122815475Y-73590855D01*
X330369250Y-79425000D02*
X330369250Y-78425000D01*
X299000000Y-80950000D02*
X281950000Y-80950000D01*
X133182397Y-76550670D02*
X146875778Y-73640052D01*
X221062850Y-83475270D02*
X235062150Y-83475270D01*
X353445963Y-5960788D02*
X367445263Y-5960788D01*
X313493250Y-78425000D02*
X313493250Y-79425000D01*
X388693484Y-88520853D02*
X388485572Y-89499001D01*
X375989366Y-85794951D02*
X372444471Y-102472368D01*
X303082311Y-61900000D02*
X301000000Y-61900000D01*
X186236333Y-6846943D02*
X189146984Y-20540481D01*
X397648241Y-86283490D02*
X383954859Y-83372872D01*
X282975350Y-97474730D02*
X282975350Y-83475270D01*
X141449186Y-69630137D02*
X138538535Y-55936599D01*
X116641816Y-21639714D02*
X130335197Y-18729096D01*
X305406265Y-78425000D02*
X305406265Y-64425000D01*
X436234887Y-38640256D02*
X443595448Y-40204792D01*
X407782618Y-15698637D02*
X404871966Y-29392176D01*
X154726760Y-86283490D02*
X151816109Y-72589952D01*
X329934251Y-40324730D02*
X315934951Y-40324730D01*
X334395963Y-21274730D02*
X334395963Y-7275270D01*
X415168434Y-51056346D02*
X418079086Y-37362808D01*
X132662133Y-37710079D02*
X146355514Y-34799461D01*
X379014529Y-82322773D02*
X365321147Y-79412154D01*
X431356659Y-20709455D02*
X445050041Y-23620073D01*
X133406926Y-95978257D02*
X149914145Y-92469539D01*
X114135700Y-19590762D02*
G75*
G03*
X113750573Y-20183751I103900J-489038D01*
G01*
X164989226Y-30838743D02*
X167899878Y-44532281D01*
X117459336Y-94204926D02*
X114548685Y-80511388D01*
X395202754Y-51975881D02*
X392292103Y-65669420D01*
X251730900Y-78424730D02*
X237731600Y-78424730D01*
X271461440Y-45375000D02*
X271461440Y-59375000D01*
X354444461Y-59374730D02*
X340445161Y-59374730D01*
X362875661Y-45104546D02*
X376569042Y-48015164D01*
X151816109Y-72589952D02*
X165509490Y-69679334D01*
X413836466Y-55936599D02*
X410925815Y-69630137D01*
X431816526Y-75118770D02*
X435361420Y-58441354D01*
X205966886Y-25584679D02*
X205966886Y-39584139D01*
X420172217Y-96234481D02*
X433865598Y-99145099D01*
X299500000Y-81450000D02*
G75*
G03*
X299000000Y-80950000I-500000J0D01*
G01*
X119403104Y-76897781D02*
G75*
G03*
X120558475Y-75118770I-311804J1467181D01*
G01*
X253880086Y-40324730D02*
X253880086Y-26325270D01*
X146875778Y-73640052D02*
X149786430Y-87333590D01*
X386456385Y-105962013D02*
X386456415Y-105961869D01*
X307787850Y-83475270D02*
X321787150Y-83475270D01*
X334395963Y-7275270D02*
X348395263Y-7275270D01*
X359965009Y-58798084D02*
X362875661Y-45104546D01*
X437826316Y-80511388D02*
X434915665Y-94204926D01*
X265817175Y-4750002D02*
X256292175Y-4749853D01*
X295491320Y-20072980D02*
G75*
G03*
X296991302Y-21572980I1499980J-20D01*
G01*
X340445161Y-59374730D02*
X340445161Y-45375270D01*
X372960681Y-42084811D02*
X359267299Y-39174193D01*
X265817182Y-21275000D02*
X264730182Y-21275000D01*
X281950000Y-59672980D02*
X298991302Y-59672980D01*
X306493250Y-78425000D02*
X305406265Y-78425000D01*
X238411440Y-59375000D02*
X238411440Y-45375000D01*
X431772468Y-40273426D02*
X428861816Y-53966964D01*
X386456415Y-105961869D02*
X400150467Y-108872629D01*
X111522295Y-39621795D02*
G75*
G03*
X111137179Y-40214833I104005J-489105D01*
G01*
X148968909Y-14768378D02*
X151879561Y-28461916D01*
X230067586Y-26325270D02*
X244066886Y-26325270D01*
X168420142Y-83372872D02*
X154726760Y-86283490D01*
X409467221Y-110853469D02*
X409467323Y-110852988D01*
X211929840Y-45375270D02*
X211929840Y-59374730D01*
X211929840Y-59374730D02*
X197930540Y-59374730D01*
X244875350Y-97474730D02*
X244875350Y-83475270D01*
X399445374Y-33402090D02*
X413138756Y-36312708D01*
X167899878Y-44532281D02*
X154206496Y-47442899D01*
X264730182Y-21275000D02*
X264730182Y-22275000D01*
X329934251Y-26325270D02*
X329934251Y-40324730D01*
X151295845Y-33749361D02*
X164989226Y-30838743D01*
X428446008Y-34402993D02*
X431356659Y-20709455D01*
X211017586Y-26325270D02*
X225016886Y-26325270D01*
X299500000Y-88300000D02*
X299500000Y-81450000D01*
X253880086Y-26325270D02*
X267879386Y-26325270D01*
X192409992Y-58798084D02*
X178716610Y-61708702D01*
X126559893Y-97433639D02*
X126351981Y-96455491D01*
X367445263Y-19960248D02*
X353445963Y-19960248D01*
X295500000Y-8300000D02*
X295491302Y-3022980D01*
X359150000Y-80950000D02*
X361298443Y-80950000D01*
X175805959Y-48015164D02*
X189499340Y-45104546D01*
X276941302Y-2523002D02*
G75*
G03*
X276441302Y-3022980I-2J-499998D01*
G01*
X256292175Y-4749853D02*
X256292175Y-4750000D01*
X411839825Y-94463101D02*
X412903071Y-94689101D01*
X280966652Y-38097710D02*
X280966652Y-24098250D01*
X270374440Y-60375000D02*
X263374440Y-60375000D01*
X311320613Y-23800000D02*
X309147101Y-23800000D01*
X377139560Y-103981508D02*
X386456385Y-105962013D01*
X362241705Y-81283735D02*
G75*
G03*
X361298443Y-80950000I-943305J-1166265D01*
G01*
X205966886Y-39584139D02*
X191967586Y-39584139D01*
X192112374Y-4008223D02*
X188244042Y-3854296D01*
X244066886Y-26325270D02*
X244066886Y-40324730D01*
X149266166Y-48492999D02*
X135572784Y-51403617D01*
X198303040Y-99687664D02*
G75*
G03*
X198688159Y-99094638I-103940J489064D01*
G01*
X389148906Y-11737920D02*
X386238254Y-25431458D01*
X192172014Y-4009409D02*
X192112374Y-4008223D01*
X381846451Y-87065472D02*
X388693484Y-88520853D01*
X362452193Y-81384025D02*
X374834012Y-84015862D01*
X230067586Y-40324730D02*
X230067586Y-26325270D01*
X296965952Y-57147710D02*
X282966652Y-57147710D01*
X280966652Y-24098250D02*
X294965952Y-24098250D01*
X392292103Y-65669420D02*
X378598721Y-62758802D01*
X409467323Y-110852988D02*
X432411005Y-115729818D01*
X415866145Y-70680237D02*
X418776796Y-56986699D01*
X308647101Y-24300000D02*
X308647101Y-41350000D01*
X353746751Y-26325270D02*
X353746751Y-40324730D01*
X447556166Y-21571080D02*
X373796925Y-5893069D01*
X305406265Y-64425000D02*
X338456250Y-64425000D01*
X300500000Y-99500000D02*
X300500000Y-93700000D01*
X315934951Y-26325270D02*
X329934251Y-26325270D01*
X304582311Y-53200000D02*
X304582311Y-60400000D01*
X133199014Y-95000109D02*
X133406926Y-95978257D01*
X434915665Y-94204926D02*
X421222283Y-91294308D01*
X429559526Y-73590855D02*
X415866145Y-70680237D01*
X445050041Y-23620073D02*
X442139390Y-37313611D01*
X227716832Y-21274730D02*
X213717532Y-21274730D01*
X339747451Y-40324730D02*
X339747451Y-26325270D01*
X350362150Y-83475270D02*
X350362150Y-97474730D01*
X396534723Y-47095628D02*
X399445374Y-33402090D01*
X281950000Y-59673000D02*
G75*
G03*
X280450000Y-61172980I0J-1500000D01*
G01*
X230979840Y-45375270D02*
X230979840Y-59374730D01*
X432470178Y-59897317D02*
X429559526Y-73590855D01*
X404992791Y-93007719D02*
X405200703Y-92029571D01*
X188227838Y-84935316D02*
X191138489Y-98628854D01*
X130335197Y-18729096D02*
X133245849Y-32422634D01*
X280450000Y-79450000D02*
X280450000Y-61172980D01*
X114548685Y-80511388D02*
X128242067Y-77600769D01*
X126351981Y-96455491D02*
X133199014Y-95000109D01*
X278966652Y-5048250D02*
X292965952Y-5048250D01*
X246498440Y-59375000D02*
X246498440Y-60375000D01*
X156761178Y-91014157D02*
X157824424Y-90788157D01*
X321787150Y-97474730D02*
X307787850Y-97474730D01*
X233854182Y-22275000D02*
X233854182Y-21275000D01*
M02*
