0
SECTION
2
HEADER
9
$INSUNITS
70
4
9
$ACADVER
1
AC1014
9
$HANDSEED
5
FFFF
0
ENDSEC
0
SECTION
2
TABLES
0
TABLE
2
VPORT
5
8
100
AcDbSymbolTable
0
ENDTAB
0
TABLE
2
LTYPE
5
5
100
AcDbSymbolTable
0
LTYPE
5
14
100
AcDbSymbolTableRecord
100
AcDbLinetypeTableRecord
2
BYBLOCK
70
0
0
LTYPE
5
15
100
AcDbSymbolTableRecord
100
AcDbLinetypeTableRecord
2
BYLAYER
70
0
0
ENDTAB
0
TABLE
2
LAYER
5
2
100
AcDbSymbolTable
70
2
0
LAYER
5
50
100
AcDbSymbolTableRecord
100
AcDbLayerTableRecord
2
0
70
0
6
CONTINUOUS
0
ENDTAB
0
TABLE
2
STYLE
5
3
100
AcDbSymbolTable
70
1
0
STYLE
5
11
100
AcDbSymbolTableRecord
100
AcDbTextStyleTableRecord
2
STANDARD
70
0
0
ENDTAB
0
TABLE
2
VIEW
5
6
100
AcDbSymbolTable
70
0
0
ENDTAB
0
TABLE
2
UCS
5
7
100
AcDbSymbolTable
70
0
0
ENDTAB
0
TABLE
2
APPID
5
9
100
AcDbSymbolTable
70
2
0
APPID
5
12
100
AcDbSymbolTableRecord
100
AcDbRegAppTableRecord
2
ACAD
70
0
0
ENDTAB
0
TABLE
2
DIMSTYLE
5
A
100
AcDbSymbolTable
70
1
0
ENDTAB
0
TABLE
2
BLOCK_RECORD
5
1
100
AcDbSymbolTable
70
1
0
BLOCK_RECORD
5
1F
100
AcDbSymbolTableRecord
100
AcDbBlockTableRecord
2
*MODEL_SPACE
0
BLOCK_RECORD
5
1B
100
AcDbSymbolTableRecord
100
AcDbBlockTableRecord
2
*PAPER_SPACE
0
ENDTAB
0
ENDSEC
0
SECTION
2
BLOCKS
0
BLOCK
5
20
100
AcDbEntity
100
AcDbBlockBegin
2
*MODEL_SPACE
0
ENDBLK
5
21
100
AcDbEntity
100
AcDbBlockEnd
0
BLOCK
5
1C
100
AcDbEntity
100
AcDbBlockBegin
2
*PAPER_SPACE
0
ENDBLK
5
1D
100
AcDbEntity
100
AcDbBlockEnd
0
ENDSEC
0
SECTION
2
ENTITIES
0
ARC
5
100
100
AcDbEntity
8
0
100
AcDbCircle
10
-158.15229371968692
20
15.297634201712555
30
0
40
0.50000000000000711
210
0
220
0
230
1
100
AcDbArc
50
180
51
216.094884151504
0
LINE
5
101
100
AcDbEntity
8
0
100
AcDbLine
10
-158.55631496422561
20
15.00307209627225
30
0
11
-151.73984212177575
21
5.6536011687267163
31
0
0
ARC
5
102
100
AcDbEntity
8
0
100
AcDbCircle
10
-151.33582087723704
20
5.9481632741670616
30
0
40
0.5000000000000614
210
0
220
0
230
1
100
AcDbArc
50
216.09488415150588
51
270
0
LINE
5
103
100
AcDbEntity
8
0
100
AcDbLine
10
-151.33582087723704
20
5.4481632741670456
30
0
11
-18.962111475561976
21
5.4481632741669506
31
0
0
SPLINE
5
104
100
AcDbEntity
8
0
100
AcDbSpline
70
0
71
3
72
16
73
12
74
0
42
0.000000001
43
0.0000000001
44
0.0000000001
40
0
40
0
40
0
40
0
40
0.56202540394257694
40
0.56202540394257694
40
0.8866639371426398
40
0.8866639371426398
40
1.1445163113477701
40
1.1445163113477701
40
1.4169382128773285
40
1.4169382128773285
40
2.0406709999617298
40
2.0406709999617298
40
2.0406709999617298
40
2.0406709999617298
10
-8.9621114755619864
20
15.448163274166951
30
0
10
-8.9621114755619864
20
13.574745261025027
30
0
10
-8.9621114755619864
20
11.923673685127987
30
0
10
-9.4108959188573333
20
9.6655157202057005
30
0
10
-9.6790809552807495
20
8.8669598950249746
30
0
10
-10.491551986147062
20
7.5912322624927011
30
0
10
-10.945663735613586
20
7.1163260152558134
30
0
10
-12.075231459063442
20
6.3309129417459307
30
0
10
-12.721792682078332
20
6.0588681000385014
30
0
10
-14.968513580820719
20
5.4481632741669817
30
0
10
-16.825634598468941
20
5.4481632741670074
30
0
10
-18.962111475562001
20
5.4481632741670358
30
0
0
LINE
5
105
100
AcDbEntity
8
0
100
AcDbLine
10
-8.9621114755619864
20
15.448163274166951
30
0
11
-8.9621114755619899
21
139.33289376046696
31
0
0
SPLINE
5
106
100
AcDbEntity
8
0
100
AcDbSpline
70
0
71
3
72
16
73
12
74
0
42
0.000000001
43
0.0000000001
44
0.0000000001
40
0
40
0
40
0
40
0
40
0.56202540394255329
40
0.56202540394255329
40
0.88666393714260283
40
0.88666393714260283
40
1.144516311347725
40
1.144516311347725
40
1.4169382128772761
40
1.4169382128772761
40
2.0406709999616366
40
2.0406709999616366
40
2.0406709999616366
40
2.0406709999616366
10
-18.96211147556199
20
149.33289376046696
30
0
10
-17.088693462420146
20
149.33289376046696
30
0
10
-15.437621886523045
20
149.33289376046696
30
0
10
-13.179463921600718
20
148.88410931717158
30
0
10
-12.380908096420004
20
148.61592428074817
30
0
10
-11.105180463887729
20
147.80345324988187
30
0
10
-10.630274216650852
20
147.34934150041533
30
0
10
-9.8448611431409745
20
146.2197737769655
30
0
10
-9.5728163014335426
20
145.57321255395061
30
0
10
-8.9621114755620201
20
143.32649165520823
30
0
10
-8.9621114755620273
20
141.46937063756002
30
0
10
-8.9621114755620379
20
139.33289376046696
30
0
0
LINE
5
107
100
AcDbEntity
8
0
100
AcDbLine
10
-18.96211147556199
20
149.33289376046696
30
0
11
-358.96211147556193
21
149.33289376046696
31
0
0
SPLINE
5
108
100
AcDbEntity
8
0
100
AcDbSpline
70
0
71
3
72
16
73
12
74
0
42
0.000000001
43
0.0000000001
44
0.0000000001
40
0
40
0
40
0
40
0
40
0.56202540394246348
40
0.56202540394246348
40
0.8866639371423527
40
0.8866639371423527
40
1.1445163113473085
40
1.1445163113473085
40
1.4169382128766932
40
1.4169382128766932
40
2.0406709999607342
40
2.0406709999607342
40
2.0406709999607342
40
2.0406709999607342
10
-368.96211147556193
20
139.33289376046696
30
0
10
-368.96211147556193
20
141.20631177360849
30
0
10
-368.96211147556193
20
142.8573833495058
30
0
10
-368.5133270322666
20
145.11554131442799
30
0
10
-368.2451419958432
20
145.91409713960888
30
0
10
-367.43267096497686
20
147.18982477214115
30
0
10
-366.97855921551036
20
147.66473101937808
30
0
10
-365.84899149206046
20
148.450144092888
30
0
10
-365.20243026904552
20
148.72218893459544
30
0
10
-362.95570937030328
20
149.3328937604669
30
0
10
-361.09858835265516
20
149.3328937604669
30
0
10
-358.96211147556193
20
149.3328937604669
30
0
0
LINE
5
109
100
AcDbEntity
8
0
100
AcDbLine
10
-368.96211147556193
20
139.33289376046696
30
0
11
-368.96211147556198
21
15.448163274167186
31
0
0
SPLINE
5
110
100
AcDbEntity
8
0
100
AcDbSpline
70
0
71
3
72
16
73
12
74
0
42
0.000000001
43
0.0000000001
44
0.0000000001
40
0
40
0
40
0
40
0
40
0.56202540394257328
40
0.56202540394257328
40
0.88666393714259328
40
0.88666393714259328
40
1.1445163113477599
40
1.1445163113477599
40
1.4169382128773678
40
1.4169382128773678
40
2.0406709999615602
40
2.0406709999615602
40
2.0406709999615602
40
2.0406709999615602
10
-358.96211147556198
20
5.4481632741671788
30
0
10
-360.83552948870391
20
5.4481632741671788
30
0
10
-362.4866010646009
20
5.4481632741671788
30
0
10
-364.74475902952315
20
5.8969477174625098
30
0
10
-365.54331485470402
20
6.1651327538859242
30
0
10
-366.81904248723646
20
6.9776037847523851
30
0
10
-367.29394873447319
20
7.4317155342188945
30
0
10
-368.07936180798293
20
8.5612832576685634
30
0
10
-368.35140664969038
20
9.2078444806832032
30
0
10
-368.96211147556198
20
11.454565379425944
30
0
10
-368.96211147556198
20
13.311686397074187
30
0
10
-368.96211147556198
20
15.44816327416714
30
0
0
LINE
5
111
100
AcDbEntity
8
0
100
AcDbLine
10
-358.96211147556198
20
5.4481632741671788
30
0
11
-186.61037966119483
21
5.4481632741670634
31
0
0
ARC
5
112
100
AcDbEntity
8
0
100
AcDbCircle
10
-186.61037966119483
20
5.9481632741670794
30
0
40
0.50000000000001599
210
0
220
0
230
1
100
AcDbArc
50
270
51
324.14694501426345
0
LINE
5
113
100
AcDbEntity
8
0
100
AcDbLine
10
-186.20511875630061
20
5.6553090459846365
30
0
11
-179.44974099205547
21
15.003613568105511
31
0
0
ARC
5
114
100
AcDbEntity
8
0
100
AcDbCircle
10
-179.85500189694974
20
15.296467796287983
30
0
40
0.50000000000009048
210
0
220
0
230
1
100
AcDbArc
50
324.14694501426453
51
360
0
LINE
5
115
100
AcDbEntity
8
0
100
AcDbLine
10
-179.35500189694966
20
15.296467796287963
30
0
11
-179.35500189694963
21
15.634716511879736
31
0
0
ARC
5
116
100
AcDbEntity
8
0
100
AcDbCircle
10
-178.85500189694966
20
15.634716511879734
30
0
40
0.50000000000000044
210
0
220
-0
230
1
100
AcDbArc
50
90
51
180
0
LINE
5
117
100
AcDbEntity
8
0
100
AcDbLine
10
-178.85500189694966
20
16.134716511879734
30
0
11
-159.15229371968695
21
16.134716511879734
31
0
0
ARC
5
118
100
AcDbEntity
8
0
100
AcDbCircle
10
-159.15229371968695
20
15.634716511879734
30
0
40
0.50000000000000711
210
0
220
-0
230
1
100
AcDbArc
50
0
51
90
0
LINE
5
119
100
AcDbEntity
8
0
100
AcDbLine
10
-158.65229371968695
20
15.634716511879736
30
0
11
-158.65229371968692
21
15.297634201712551
31
0
0
CIRCLE
5
120
100
AcDbEntity
8
0
100
AcDbCircle
10
-228.33729389036503
20
138.33289376046699
30
0
40
1.3500000000000156
210
0
220
0
230
1
0
CIRCLE
5
121
100
AcDbEntity
8
0
100
AcDbCircle
10
-101.43305796070565
20
16.448163274167168
30
0
40
1.3499999999999979
210
0
220
0
230
1
0
CIRCLE
5
122
100
AcDbEntity
8
0
100
AcDbCircle
10
-357.96211147556193
20
138.33289376046696
30
0
40
1.3499999999999801
210
0
220
0
230
1
0
CIRCLE
5
123
100
AcDbEntity
8
0
100
AcDbCircle
10
-19.962111475561986
20
16.448163274166937
30
0
40
1.3500000000000001
210
0
220
0
230
1
0
CIRCLE
5
124
100
AcDbEntity
8
0
100
AcDbCircle
10
-101.43305796070564
20
138.33289376046676
30
0
40
1.3499999999999979
210
0
220
0
230
1
0
CIRCLE
5
125
100
AcDbEntity
8
0
100
AcDbCircle
10
-228.33729389036506
20
16.448163274167065
30
0
40
1.3500000000000156
210
0
220
0
230
1
0
CIRCLE
5
126
100
AcDbEntity
8
0
100
AcDbCircle
10
-357.96211147556198
20
16.448163274166937
30
0
40
1.3499999999999801
210
0
220
0
230
1
0
CIRCLE
5
127
100
AcDbEntity
8
0
100
AcDbCircle
10
-19.962111475561922
20
138.33289376046693
30
0
40
1.3500000000000001
210
0
220
0
230
1
0
CIRCLE
5
128
100
AcDbEntity
8
0
100
AcDbCircle
10
-65.468601059167312
20
30.617701334042351
30
0
40
1.3499999999999979
210
0
220
-0
230
1
0
CIRCLE
5
129
100
AcDbEntity
8
0
100
AcDbCircle
10
-305.46860105916727
20
30.617701334042444
30
0
40
1.3499999999999801
210
0
220
-0
230
1
0
ENDSEC
0
SECTION
2
OBJECTS
0
DICTIONARY
5
C
100
AcDbDictionary
3
ACAD_GROUP
350
D
3
ACAD_MLINESTYLE
350
17
0
DICTIONARY
5
D
100
AcDbDictionary
0
DICTIONARY
5
1A
330
C
100
AcDbDictionary
0
DICTIONARY
5
17
100
AcDbDictionary
0
ENDSEC
0
EOF
