0
SECTION
2
HEADER
9
$INSUNITS
70
4
9
$ACADVER
1
AC1014
9
$HANDSEED
5
FFFF
0
ENDSEC
0
SECTION
2
TABLES
0
TABLE
2
VPORT
5
8
100
AcDbSymbolTable
0
ENDTAB
0
TABLE
2
LTYPE
5
5
100
AcDbSymbolTable
0
LTYPE
5
14
100
AcDbSymbolTableRecord
100
AcDbLinetypeTableRecord
2
BYBLOCK
70
0
0
LTYPE
5
15
100
AcDbSymbolTableRecord
100
AcDbLinetypeTableRecord
2
BYLAYER
70
0
0
ENDTAB
0
TABLE
2
LAYER
5
2
100
AcDbSymbolTable
70
2
0
LAYER
5
50
100
AcDbSymbolTableRecord
100
AcDbLayerTableRecord
2
0
70
0
6
CONTINUOUS
0
ENDTAB
0
TABLE
2
STYLE
5
3
100
AcDbSymbolTable
70
1
0
STYLE
5
11
100
AcDbSymbolTableRecord
100
AcDbTextStyleTableRecord
2
STANDARD
70
0
0
ENDTAB
0
TABLE
2
VIEW
5
6
100
AcDbSymbolTable
70
0
0
ENDTAB
0
TABLE
2
UCS
5
7
100
AcDbSymbolTable
70
0
0
ENDTAB
0
TABLE
2
APPID
5
9
100
AcDbSymbolTable
70
2
0
APPID
5
12
100
AcDbSymbolTableRecord
100
AcDbRegAppTableRecord
2
ACAD
70
0
0
ENDTAB
0
TABLE
2
DIMSTYLE
5
A
100
AcDbSymbolTable
70
1
0
ENDTAB
0
TABLE
2
BLOCK_RECORD
5
1
100
AcDbSymbolTable
70
1
0
BLOCK_RECORD
5
1F
100
AcDbSymbolTableRecord
100
AcDbBlockTableRecord
2
*MODEL_SPACE
0
BLOCK_RECORD
5
1B
100
AcDbSymbolTableRecord
100
AcDbBlockTableRecord
2
*PAPER_SPACE
0
ENDTAB
0
ENDSEC
0
SECTION
2
BLOCKS
0
BLOCK
5
20
100
AcDbEntity
100
AcDbBlockBegin
2
*MODEL_SPACE
0
ENDBLK
5
21
100
AcDbEntity
100
AcDbBlockEnd
0
BLOCK
5
1C
100
AcDbEntity
100
AcDbBlockBegin
2
*PAPER_SPACE
0
ENDBLK
5
1D
100
AcDbEntity
100
AcDbBlockEnd
0
ENDSEC
0
SECTION
2
ENTITIES
0
CIRCLE
5
100
100
AcDbEntity
8
0
100
AcDbCircle
10
-101.43305796070564
20
138.33289376046676
30
0
40
2.5999999999999979
210
0
220
0
230
1
0
CIRCLE
5
101
100
AcDbEntity
8
0
100
AcDbCircle
10
-228.33729389036506
20
16.448163274167065
30
0
40
2.6000000000000156
210
0
220
0
230
1
0
CIRCLE
5
102
100
AcDbEntity
8
0
100
AcDbCircle
10
-19.962111475561919
20
138.33289376046693
30
0
40
2.6000000000000023
210
0
220
0
230
1
0
CIRCLE
5
103
100
AcDbEntity
8
0
100
AcDbCircle
10
-357.96211147556198
20
16.448163274166937
30
0
40
2.5999999999999801
210
0
220
0
230
1
0
CIRCLE
5
104
100
AcDbEntity
8
0
100
AcDbCircle
10
-228.33729389036503
20
138.33289376046696
30
0
40
2.6000000000000156
210
0
220
0
230
1
0
CIRCLE
5
105
100
AcDbEntity
8
0
100
AcDbCircle
10
-101.43305796070565
20
16.448163274167168
30
0
40
2.5999999999999979
210
0
220
0
230
1
0
CIRCLE
5
106
100
AcDbEntity
8
0
100
AcDbCircle
10
-19.962111475561986
20
16.448163274166937
30
0
40
2.6000000000000023
210
0
220
0
230
1
0
CIRCLE
5
107
100
AcDbEntity
8
0
100
AcDbCircle
10
-357.96211147556193
20
138.33289376046696
30
0
40
2.5999999999999801
210
0
220
0
230
1
0
ARC
5
108
100
AcDbEntity
8
0
100
AcDbCircle
10
-161.15229371968692
20
20.350014711290115
30
0
40
0.50000000000001277
210
0
220
0
230
1
100
AcDbArc
50
90.000004015563775
51
180
0
LINE
5
109
100
AcDbEntity
8
0
100
AcDbLine
10
-161.65229371968692
20
20.350014711290129
30
0
11
-161.65229371968692
21
16.634716511879731
31
0
0
ARC
5
110
100
AcDbEntity
8
0
100
AcDbCircle
10
-161.15229371968692
20
16.634716511879763
30
0
40
0.50000000000000711
210
0
220
0
230
1
100
AcDbArc
50
180
51
270
0
LINE
5
111
100
AcDbEntity
8
0
100
AcDbLine
10
-161.15229371968692
20
16.134716511879756
30
0
11
-159.15229371968695
21
16.134716511879734
31
0
0
ARC
5
112
100
AcDbEntity
8
0
100
AcDbCircle
10
-159.15229371968695
20
15.634716511879734
30
0
40
0.50000000000000711
210
0
220
-0
230
1
100
AcDbArc
50
0
51
90
0
LINE
5
113
100
AcDbEntity
8
0
100
AcDbLine
10
-158.65229371968695
20
15.634716511879736
30
0
11
-158.65229371968695
21
15.297634201712548
31
0
0
ARC
5
114
100
AcDbEntity
8
0
100
AcDbCircle
10
-158.15229371968692
20
15.297634201712555
30
0
40
0.50000000000002487
210
0
220
0
230
1
100
AcDbArc
50
180
51
216.094884151504
0
LINE
5
115
100
AcDbEntity
8
0
100
AcDbLine
10
-158.55631496422561
20
15.00307209627225
30
0
11
-153.19799368891248
21
7.6536011687267225
31
0
0
ARC
5
116
100
AcDbEntity
8
0
100
AcDbCircle
10
-152.79397244437379
20
7.9481632741670563
30
0
40
0.50000000000003975
210
0
220
0
230
1
100
AcDbArc
50
216.09488415150676
51
270
0
LINE
5
117
100
AcDbEntity
8
0
100
AcDbLine
10
-152.79397244437379
20
7.4481632741670412
30
0
11
-18.962111475561976
21
7.448163274166947
31
0
0
SPLINE
5
118
100
AcDbEntity
8
0
100
AcDbSpline
70
0
71
3
72
16
73
12
74
0
42
0.000000001
43
0.0000000001
44
0.0000000001
40
0
40
0
40
0
40
0
40
0.44962032315406669
40
0.44962032315406669
40
0.7093311497141197
40
0.7093311497141197
40
0.91561304907822105
40
0.91561304907822105
40
1.1335505703018609
40
1.1335505703018609
40
1.6325367999693454
40
1.6325367999693454
40
1.6325367999693454
40
1.6325367999693454
10
-10.962111475561986
20
15.448163274166951
30
0
10
-10.962111475561986
20
13.949428863653395
30
0
10
-10.962111475561986
20
12.628571602935761
30
0
10
-11.321139030198268
20
10.822045230997928
30
0
10
-11.535687059337006
20
10.183200570853352
30
0
10
-12.185663884030049
20
9.162618464827549
30
0
10
-12.548953283603282
20
8.7826934670380119
30
0
10
-13.452607462363202
20
8.1543630082300851
30
0
10
-13.969856440775132
20
7.9367271348641388
30
0
10
-15.767233159769017
20
7.448163274166931
30
0
10
-17.252929973887536
20
7.4481632741669257
30
0
10
-18.96211147556199
20
7.4481632741669195
30
0
0
LINE
5
119
100
AcDbEntity
8
0
100
AcDbLine
10
-10.962111475561986
20
15.448163274166951
30
0
11
-10.96211147556197
21
139.33289376046696
31
0
0
SPLINE
5
120
100
AcDbEntity
8
0
100
AcDbSpline
70
0
71
3
72
16
73
12
74
0
42
0.000000001
43
0.0000000001
44
0.0000000001
40
0
40
0
40
0
40
0
40
0.44962032315402539
40
0.44962032315402539
40
0.7093311497140401
40
0.7093311497140401
40
0.91561304907811147
40
0.91561304907811147
40
1.1335505703017279
40
1.1335505703017279
40
1.6325367999691955
40
1.6325367999691955
40
1.6325367999691955
40
1.6325367999691955
10
-18.96211147556199
20
147.33289376046696
30
0
10
-17.463377065048572
20
147.33289376046696
30
0
10
-16.142519804330853
20
147.33289376046696
30
0
10
-14.335993432393
20
146.97386620583069
30
0
10
-13.697148772248406
20
146.75931817669192
30
0
10
-12.676566666222586
20
146.10934135199889
30
0
10
-12.296641668433077
20
145.74605195242566
30
0
10
-11.668311209625163
20
144.84239777366577
30
0
10
-11.450675336259216
20
144.32514879525382
30
0
10
-10.962111475562006
20
142.52777207625994
30
0
10
-10.962111475562015
20
141.04207526214137
30
0
10
-10.962111475562022
20
139.33289376046696
30
0
0
LINE
5
121
100
AcDbEntity
8
0
100
AcDbLine
10
-18.96211147556199
20
147.33289376046696
30
0
11
-358.96211147556193
21
147.33289376046696
31
0
0
SPLINE
5
122
100
AcDbEntity
8
0
100
AcDbSpline
70
0
71
3
72
16
73
12
74
0
42
0.000000001
43
0.0000000001
44
0.0000000001
40
0
40
0
40
0
40
0
40
0.44962032315410894
40
0.44962032315410894
40
0.70933114971424005
40
0.70933114971424005
40
0.91561304907842234
40
0.91561304907842234
40
1.1335505703021718
40
1.1335505703021718
40
1.6325367999700109
40
1.6325367999700109
40
1.6325367999700109
40
1.6325367999700109
10
-366.96211147556193
20
139.33289376046696
30
0
10
-366.96211147556193
20
140.83162817098065
30
0
10
-366.96211147556193
20
142.15248543169815
30
0
10
-366.6030839209256
20
143.95901180363606
30
0
10
-366.38853589178689
20
144.59785646378054
30
0
10
-365.73855906709383
20
145.61843856980636
30
0
10
-365.37526966752063
20
145.99836356759585
30
0
10
-364.47161548876068
20
146.62669402640378
30
0
10
-363.95436651034868
20
146.84432989976972
30
0
10
-362.15698979135487
20
147.3328937604669
30
0
10
-360.67129297723631
20
147.33289376046687
30
0
10
-358.96211147556193
20
147.33289376046687
30
0
0
LINE
5
123
100
AcDbEntity
8
0
100
AcDbLine
10
-366.96211147556193
20
139.33289376046696
30
0
11
-366.96211147556198
21
15.448163274167186
31
0
0
SPLINE
5
124
100
AcDbEntity
8
0
100
AcDbSpline
70
0
71
3
72
16
73
12
74
0
42
0.000000001
43
0.0000000001
44
0.0000000001
40
0
40
0
40
0
40
0
40
0.4496203231540678
40
0.4496203231540678
40
0.70933114971413203
40
0.70933114971413203
40
0.91561304907826968
40
0.91561304907826968
40
1.1335505703019688
40
1.1335505703019688
40
1.6325367999696745
40
1.6325367999696745
40
1.6325367999696745
40
1.6325367999696745
10
-358.96211147556198
20
7.4481632741671788
30
0
10
-360.46084588607556
20
7.4481632741671788
30
0
10
-361.78170314679323
20
7.4481632741671788
30
0
10
-363.58822951873105
20
7.8071908288034644
30
0
10
-364.22707417887557
20
8.0217388579421982
30
0
10
-365.24765628490144
20
8.6717156826352664
30
0
10
-365.62758128269093
20
9.0350050822084835
30
0
10
-366.25591174149883
20
9.9386592609683646
30
0
10
-366.47354761486474
20
10.455908239380316
30
0
10
-366.96211147556198
20
12.253284958374239
30
0
10
-366.96211147556198
20
13.738981772492975
30
0
10
-366.96211147556198
20
15.448163274167168
30
0
0
LINE
5
125
100
AcDbEntity
8
0
100
AcDbLine
10
-358.96211147556198
20
7.4481632741671788
30
0
11
-185.16511699388229
21
7.448163274167058
31
0
0
ARC
5
126
100
AcDbEntity
8
0
100
AcDbCircle
10
-185.16511699388224
20
7.9481632741670349
30
0
40
0.49999999999997713
210
0
220
0
230
1
100
AcDbArc
50
269.99999999999346
51
324.14694501426015
0
LINE
5
127
100
AcDbEntity
8
0
100
AcDbLine
10
-184.75985608898807
20
7.6553090459845983
30
0
11
-179.44974099205547
21
15.003613568105511
31
0
0
ARC
5
128
100
AcDbEntity
8
0
100
AcDbCircle
10
-179.85500189694974
20
15.296467796287983
30
0
40
0.50000000000009048
210
0
220
0
230
1
100
AcDbArc
50
324.14694501426453
51
360
0
LINE
5
129
100
AcDbEntity
8
0
100
AcDbLine
10
-179.35500189694966
20
15.296467796287963
30
0
11
-179.35500189694963
21
15.634716511879736
31
0
0
ARC
5
130
100
AcDbEntity
8
0
100
AcDbCircle
10
-178.85500189694966
20
15.634716511879734
30
0
40
0.50000000000000044
210
0
220
-0
230
1
100
AcDbArc
50
90
51
180
0
LINE
5
131
100
AcDbEntity
8
0
100
AcDbLine
10
-178.85500189694966
20
16.134716511879734
30
0
11
-176.85500189694966
21
16.134716511879734
31
0
0
ARC
5
132
100
AcDbEntity
8
0
100
AcDbCircle
10
-176.85500189694966
20
16.634716511879763
30
0
40
0.50000000000002931
210
0
220
0
230
1
100
AcDbArc
50
270
51
360
0
LINE
5
133
100
AcDbEntity
8
0
100
AcDbLine
10
-176.35500189694963
20
16.634716511879731
30
0
11
-176.35500189694966
21
20.350013610768993
31
0
0
ARC
5
134
100
AcDbEntity
8
0
100
AcDbCircle
10
-176.85500189694966
20
20.350013610768976
30
0
40
0.50000000000000711
210
0
220
-0
230
1
100
AcDbArc
50
0
51
90.000004015560506
0
LINE
5
135
100
AcDbEntity
8
0
100
AcDbLine
10
-176.85500193199204
20
20.850013610768983
30
0
11
-353.55000505067449
21
20.850001227135287
31
0
0
ARC
5
136
100
AcDbEntity
8
0
100
AcDbCircle
10
-353.55000515580167
20
22.350001242036438
30
0
40
1.5000000149012038
210
0
220
0
230
1
100
AcDbArc
50
180
51
270.00000401556264
0
LINE
5
137
100
AcDbEntity
8
0
100
AcDbLine
10
-355.05000517070289
20
22.350001242036505
30
0
11
-355.05000517070289
21
41.400001206994048
31
0
0
ARC
5
138
100
AcDbEntity
8
0
100
AcDbCircle
10
-355.55000515580167
20
41.400001206994048
30
0
40
0.4999999850988246
210
0
220
0
230
1
100
AcDbArc
50
0
51
90
0
ARC
5
139
100
AcDbEntity
8
0
100
AcDbCircle
10
-355.55000515580173
20
43.400001206994062
30
0
40
1.5000000149011328
210
0
220
0
230
1
100
AcDbArc
50
180
51
270.0000000000021
0
LINE
5
140
100
AcDbEntity
8
0
100
AcDbLine
10
-357.05000517070289
20
43.400001206994119
30
0
11
-357.05000517070289
21
60.450001206994052
31
0
0
ARC
5
141
100
AcDbEntity
8
0
100
AcDbCircle
10
-357.55000515580173
20
60.450001206994052
30
0
40
0.4999999850988246
210
0
220
0
230
1
100
AcDbArc
50
0
51
90
0
ARC
5
142
100
AcDbEntity
8
0
100
AcDbCircle
10
-357.55000515580178
20
62.450001206994045
30
0
40
1.5000000149011328
210
0
220
0
230
1
100
AcDbArc
50
180
51
270.0000000000021
0
LINE
5
143
100
AcDbEntity
8
0
100
AcDbLine
10
-359.05000517070289
20
62.450001206994088
30
0
11
-359.05000517070289
21
80.500001206994057
31
0
0
ARC
5
144
100
AcDbEntity
8
0
100
AcDbCircle
10
-357.55000515580173
20
80.500001206994085
30
0
40
1.5000000149011683
210
0
220
0
230
1
100
AcDbArc
50
90.000000000008683
51
180
0
LINE
5
145
100
AcDbEntity
8
0
100
AcDbLine
10
-357.55000515580195
20
82.000001221895246
30
0
11
-340.50870345783107
21
82.000001221895232
31
0
0
ARC
5
146
100
AcDbEntity
8
0
100
AcDbCircle
10
-340.50870345783107
20
82.500001206994057
30
0
40
0.4999999850988246
210
-0
220
0
230
1
100
AcDbArc
50
-90
51
0
0
LINE
5
147
100
AcDbEntity
8
0
100
AcDbLine
10
-340.00870347273229
20
82.500001206994057
30
0
11
-340.00870347273235
21
100.77702115995784
31
0
0
ARC
5
148
100
AcDbEntity
8
0
100
AcDbCircle
10
-340.50870345783119
20
100.77702115995784
30
0
40
0.4999999850988246
210
0
220
0
230
1
100
AcDbArc
50
0
51
90
0
LINE
5
149
100
AcDbEntity
8
0
100
AcDbLine
10
-340.50870345783119
20
101.27702114505668
30
0
11
-357.55870345783137
21
101.27702114505666
31
0
0
ARC
5
150
100
AcDbEntity
8
0
100
AcDbCircle
10
-357.55870345783131
20
102.77702115995788
30
0
40
1.5000000149012038
210
0
220
0
230
1
100
AcDbArc
50
180
51
269.99999999999784
0
LINE
5
151
100
AcDbEntity
8
0
100
AcDbLine
10
-359.05870347273253
20
102.77702115995783
30
0
11
-359.05870347273253
21
120.82702115995784
31
0
0
ARC
5
152
100
AcDbEntity
8
0
100
AcDbCircle
10
-357.55870345783131
20
120.82702115995787
30
0
40
1.5000000149011683
210
0
220
0
230
1
100
AcDbArc
50
90.000000000006523
51
180
0
LINE
5
153
100
AcDbEntity
8
0
100
AcDbLine
10
-357.55870345783148
20
122.32702117485903
30
0
11
-272.83370345783123
21
122.327021174859
31
0
0
ARC
5
154
100
AcDbEntity
8
0
100
AcDbCircle
10
-272.83370345783123
20
120.82702115995787
30
0
40
1.5000000149011328
210
0
220
0
230
1
100
AcDbArc
50
0
51
90
0
LINE
5
155
100
AcDbEntity
8
0
100
AcDbLine
10
-271.33370344293013
20
120.82702115995779
30
0
11
-271.33370344293013
21
103.77702115995781
31
0
0
ARC
5
156
100
AcDbEntity
8
0
100
AcDbCircle
10
-270.83370345783129
20
103.77702115995781
30
0
40
0.49999998509886012
210
0
220
0
230
1
100
AcDbArc
50
180
51
270
0
LINE
5
157
100
AcDbEntity
8
0
100
AcDbLine
10
-270.83370345783129
20
103.27702117485897
30
0
11
-255.24244627567955
21
103.27702117485876
31
0
0
ARC
5
158
100
AcDbEntity
8
0
100
AcDbCircle
10
-255.24244627567953
20
103.7770211599576
30
0
40
0.49999998509884236
210
0
220
0
230
1
100
AcDbArc
50
-90.000000000003254
51
11.999999999997815
0
LINE
5
159
100
AcDbEntity
8
0
100
AcDbLine
10
-254.75337248988814
20
103.88097700226834
30
0
11
-258.22501002085471
21
120.2137474596541
31
0
0
ARC
5
160
100
AcDbEntity
8
0
100
AcDbCircle
10
-256.75778860517846
20
120.52561499897874
30
0
40
1.5000000149011754
210
0
220
0
230
1
100
AcDbArc
50
101.99999999999893
51
191.9999999999952
0
LINE
5
161
100
AcDbEntity
8
0
100
AcDbLine
10
-257.0696561445032
20
121.99283641465499
30
0
11
-229.83056092896936
21
127.78268483667122
31
0
0
ARC
5
162
100
AcDbEntity
8
0
100
AcDbCircle
10
-229.51869338964462
20
126.31546342099503
30
0
40
1.5000000149011177
210
0
220
-0
230
1
100
AcDbArc
50
56.587185776623009
51
101.99999999999939
0
ARC
5
163
100
AcDbEntity
8
0
100
AcDbCircle
10
-228.41735850891399
20
127.98491287530184
30
0
40
0.49999998509871169
210
0
220
0
230
1
100
AcDbArc
50
236.58718577664365
51
281.99999999999903
0
LINE
5
164
100
AcDbEntity
8
0
100
AcDbLine
10
-228.31340266660328
20
127.49583908951064
30
0
11
-178.73061067105769
21
138.03498687408376
31
0
0
ARC
5
165
100
AcDbEntity
8
0
100
AcDbCircle
10
-178.41874313173298
20
136.56776545840737
30
0
40
1.5000000149012966
210
0
220
-0
230
1
100
AcDbArc
50
12.000000000009074
51
101.99999999999675
0
LINE
5
166
100
AcDbEntity
8
0
100
AcDbLine
10
-176.95152171605667
20
136.87963299773239
30
0
11
-169.38658749261717
21
101.28941567391452
31
0
0
ARC
5
167
100
AcDbEntity
8
0
100
AcDbCircle
10
-168.89751370682578
20
101.39337151622529
30
0
40
0.49999998509885002
210
0
220
0
230
1
100
AcDbArc
50
192.00000000000097
51
270
0
LINE
5
168
100
AcDbEntity
8
0
100
AcDbLine
10
-168.89751370682578
20
100.89337153112645
30
0
11
-160.49830122656746
21
100.89337153112641
31
0
0
ARC
5
169
100
AcDbEntity
8
0
100
AcDbCircle
10
-160.49830122656746
20
101.39337151622526
30
0
40
0.49999998509884236
210
0
220
0
230
1
100
AcDbArc
50
270
51
347.99999999999989
0
LINE
5
170
100
AcDbEntity
8
0
100
AcDbLine
10
-160.0092274407761
20
101.2894156739145
30
0
11
-152.44429321733651
21
136.87963299773224
31
0
0
ARC
5
171
100
AcDbEntity
8
0
100
AcDbCircle
10
-150.97707180166029
20
136.56776545840748
30
0
40
1.5000000149011332
210
0
220
-0
230
1
100
AcDbArc
50
78.000000000000853
51
167.9999999999998
0
LINE
5
172
100
AcDbEntity
8
0
100
AcDbLine
10
-150.66520426233555
20
138.0349868740837
30
0
11
-91.083788532637641
21
125.37056600714703
31
0
0
ARC
5
173
100
AcDbEntity
8
0
100
AcDbCircle
10
-91.39565607196235
20
123.90334459147078
30
0
40
1.5000000149011308
210
0
220
0
230
1
100
AcDbArc
50
-12.000000000002053
51
78.000000000002132
0
LINE
5
174
100
AcDbEntity
8
0
100
AcDbLine
10
-89.928434656286157
20
123.59147705214598
30
0
11
-93.473328984728909
21
106.91406045963464
31
0
0
ARC
5
175
100
AcDbEntity
8
0
100
AcDbCircle
10
-92.984255198937532
20
106.81010461732387
30
0
40
0.49999998509885002
210
0
220
0
230
1
100
AcDbArc
50
167.99999999999866
51
257.99999999999994
0
LINE
5
176
100
AcDbEntity
8
0
100
AcDbLine
10
-93.088211041248286
20
106.32103083153251
30
0
11
-80.70639230087771
21
103.68919401285781
31
0
0
ARC
5
177
100
AcDbEntity
8
0
100
AcDbCircle
10
-81.018259840202504
20
102.22197259718145
30
0
40
1.5000000149012775
210
0
220
-0
230
1
100
AcDbArc
50
51.034456516541809
51
77.999999999999858
0
ARC
5
178
100
AcDbEntity
8
0
100
AcDbCircle
10
-79.760554005196724
20
103.77702115995777
30
0
40
0.49999998509878996
210
0
220
0
230
1
100
AcDbArc
50
231.03445651653334
51
270
0
LINE
5
179
100
AcDbEntity
8
0
100
AcDbLine
10
-79.760554005196724
20
103.27702117485899
30
0
11
-77.612111475561903
21
103.27702117485899
31
0
0
ARC
5
180
100
AcDbEntity
8
0
100
AcDbCircle
10
-77.612111475561903
20
103.77702115995783
30
0
40
0.49999998509884236
210
-0
220
0
230
1
100
AcDbArc
50
-90
51
0
0
LINE
5
181
100
AcDbEntity
8
0
100
AcDbLine
10
-77.112111490463064
20
103.77702115995783
30
0
11
-77.112111490463064
21
120.82702115995784
31
0
0
ARC
5
182
100
AcDbEntity
8
0
100
AcDbCircle
10
-75.612111475561889
20
120.82702115995781
30
0
40
1.5000000149011861
210
0
220
0
230
1
100
AcDbArc
50
90.000000000001094
51
180
0
LINE
5
183
100
AcDbEntity
8
0
100
AcDbLine
10
-75.612111475561917
20
122.327021174859
30
0
11
-19.46211147556194
21
122.327021174859
31
0
0
ARC
5
184
100
AcDbEntity
8
0
100
AcDbCircle
10
-19.462111475561965
20
120.82702115995781
30
0
40
1.5000000149011905
210
0
220
-0
230
1
100
AcDbArc
50
0
51
89.999999999999062
0
LINE
5
185
100
AcDbEntity
8
0
100
AcDbLine
10
-17.962111460660775
20
120.82702115995784
30
0
11
-17.962111460660779
21
83.727021159957815
31
0
0
ARC
5
186
100
AcDbEntity
8
0
100
AcDbCircle
10
-19.462111475561969
20
83.727021159957843
30
0
40
1.5000000149011861
210
0
220
0
230
1
100
AcDbArc
50
270.00000000000108
51
360
0
LINE
5
187
100
AcDbEntity
8
0
100
AcDbLine
10
-19.46211147556194
20
82.227021145056653
30
0
11
-21.544422103869447
21
82.227021145056653
31
0
0
ARC
5
188
100
AcDbEntity
8
0
100
AcDbCircle
10
-21.544422103869447
20
81.727021159957815
30
0
40
0.49999998509884236
210
0
220
-0
230
1
100
AcDbArc
50
90
51
180
0
LINE
5
189
100
AcDbEntity
8
0
100
AcDbLine
10
-22.044422088968286
20
81.727021159957815
30
0
11
-22.04442208896829
21
64.677021159957803
31
0
0
ARC
5
190
100
AcDbEntity
8
0
100
AcDbCircle
10
-23.544422103869426
20
64.677021159957789
30
0
40
1.5000000149011328
210
0
220
0
230
1
100
AcDbArc
50
-90.000000000001208
51
0
0
LINE
5
191
100
AcDbEntity
8
0
100
AcDbLine
10
-23.544422103869458
20
63.177021145056656
30
0
11
-25.609211865453048
21
63.177021145056642
31
0
0
ARC
5
192
100
AcDbEntity
8
0
100
AcDbCircle
10
-25.609211865453059
20
62.677021159957803
30
0
40
0.49999998509884236
210
0
220
-0
230
1
100
AcDbArc
50
89.999999999998778
51
180
0
LINE
5
193
100
AcDbEntity
8
0
100
AcDbLine
10
-26.109211850551898
20
62.677021159957803
30
0
11
-26.109211850551901
21
45.62702115995782
31
0
0
ARC
5
194
100
AcDbEntity
8
0
100
AcDbCircle
10
-27.609211865453037
20
45.627021159957799
30
0
40
1.5000000149011328
210
0
220
0
230
1
100
AcDbArc
50
-90.000000000001208
51
0
0
LINE
5
195
100
AcDbEntity
8
0
100
AcDbLine
10
-27.609211865453069
20
44.127021145056666
30
0
11
-29.782723741620714
21
44.127021145056645
31
0
0
ARC
5
196
100
AcDbEntity
8
0
100
AcDbCircle
10
-29.782723741620725
20
43.627021159957806
30
0
40
0.49999998509884236
210
0
220
-0
230
1
100
AcDbArc
50
89.999999999998778
51
180
0
LINE
5
197
100
AcDbEntity
8
0
100
AcDbLine
10
-30.282723726719563
20
43.627021159957806
30
0
11
-30.282723726719567
21
23.850023828073951
31
0
0
LINE
5
198
100
AcDbEntity
8
0
100
AcDbLine
10
-30.282723726719567
20
23.850023828073951
30
0
11
-30.282723621592375
21
22.350023898158756
31
0
0
ARC
5
199
100
AcDbEntity
8
0
100
AcDbCircle
10
-31.782723636493525
20
22.350023793031546
30
0
40
1.5000000149011496
210
0
220
0
230
1
100
AcDbArc
50
-89.999995984439948
51
3.9124823603063801e-06
0
LINE
5
200
100
AcDbEntity
8
0
100
AcDbLine
10
-31.782723531366408
20
20.850023778130403
30
0
11
-161.15229375472933
21
20.850014711290129
31
0
0
ENDSEC
0
SECTION
2
OBJECTS
0
DICTIONARY
5
C
100
AcDbDictionary
3
ACAD_GROUP
350
D
3
ACAD_MLINESTYLE
350
17
0
DICTIONARY
5
D
100
AcDbDictionary
0
DICTIONARY
5
1A
330
C
100
AcDbDictionary
0
DICTIONARY
5
17
100
AcDbDictionary
0
ENDSEC
0
EOF
