0
SECTION
2
HEADER
9
$INSUNITS
70
4
9
$ACADVER
1
AC1014
9
$HANDSEED
5
FFFF
0
ENDSEC
0
SECTION
2
TABLES
0
TABLE
2
VPORT
5
8
100
AcDbSymbolTable
0
ENDTAB
0
TABLE
2
LTYPE
5
5
100
AcDbSymbolTable
0
LTYPE
5
14
100
AcDbSymbolTableRecord
100
AcDbLinetypeTableRecord
2
BYBLOCK
70
0
0
LTYPE
5
15
100
AcDbSymbolTableRecord
100
AcDbLinetypeTableRecord
2
BYLAYER
70
0
0
ENDTAB
0
TABLE
2
LAYER
5
2
100
AcDbSymbolTable
70
2
0
LAYER
5
50
100
AcDbSymbolTableRecord
100
AcDbLayerTableRecord
2
0
70
0
6
CONTINUOUS
0
ENDTAB
0
TABLE
2
STYLE
5
3
100
AcDbSymbolTable
70
1
0
STYLE
5
11
100
AcDbSymbolTableRecord
100
AcDbTextStyleTableRecord
2
STANDARD
70
0
0
ENDTAB
0
TABLE
2
VIEW
5
6
100
AcDbSymbolTable
70
0
0
ENDTAB
0
TABLE
2
UCS
5
7
100
AcDbSymbolTable
70
0
0
ENDTAB
0
TABLE
2
APPID
5
9
100
AcDbSymbolTable
70
2
0
APPID
5
12
100
AcDbSymbolTableRecord
100
AcDbRegAppTableRecord
2
ACAD
70
0
0
ENDTAB
0
TABLE
2
DIMSTYLE
5
A
100
AcDbSymbolTable
70
1
0
ENDTAB
0
TABLE
2
BLOCK_RECORD
5
1
100
AcDbSymbolTable
70
1
0
BLOCK_RECORD
5
1F
100
AcDbSymbolTableRecord
100
AcDbBlockTableRecord
2
*MODEL_SPACE
0
BLOCK_RECORD
5
1B
100
AcDbSymbolTableRecord
100
AcDbBlockTableRecord
2
*PAPER_SPACE
0
ENDTAB
0
ENDSEC
0
SECTION
2
BLOCKS
0
BLOCK
5
20
100
AcDbEntity
100
AcDbBlockBegin
2
*MODEL_SPACE
0
ENDBLK
5
21
100
AcDbEntity
100
AcDbBlockEnd
0
BLOCK
5
1C
100
AcDbEntity
100
AcDbBlockBegin
2
*PAPER_SPACE
0
ENDBLK
5
1D
100
AcDbEntity
100
AcDbBlockEnd
0
ENDSEC
0
SECTION
2
ENTITIES
0
ARC
5
100
100
AcDbEntity
8
0
100
AcDbCircle
10
-158.15229371968692
20
15.297634201712555
30
0
40
0.50000000000000711
210
0
220
0
230
1
100
AcDbArc
50
180
51
216.094884151504
0
LINE
5
101
100
AcDbEntity
8
0
100
AcDbLine
10
-158.55631496422561
20
15.00307209627225
30
0
11
-153.92706947248084
21
8.6536011687267269
31
0
0
ARC
5
102
100
AcDbEntity
8
0
100
AcDbCircle
10
-153.52304822794216
20
8.9481632741670563
30
0
40
0.50000000000003719
210
0
220
0
230
1
100
AcDbArc
50
216.09488415150631
51
270
0
LINE
5
103
100
AcDbEntity
8
0
100
AcDbLine
10
-153.52304822794216
20
8.4481632741670438
30
0
11
-18.962111475561976
21
8.4481632741669515
31
0
0
SPLINE
5
104
100
AcDbEntity
8
0
100
AcDbSpline
70
0
71
3
72
16
73
12
74
0
42
0.000000001
43
0.0000000001
44
0.0000000001
40
0
40
0
40
0
40
0
40
0.39341778275980238
40
0.39341778275980238
40
0.62066475599984217
40
0.62066475599984217
40
0.80116141794341211
40
0.80116141794341211
40
0.99185674901407062
40
0.99185674901407062
40
1.4284696999730717
40
1.4284696999730717
40
1.4284696999730717
40
1.4284696999730717
10
-11.962111475561986
20
15.448163274166951
30
0
10
-11.962111475561986
20
14.136770664967608
30
0
10
-11.962111475561986
20
12.981020561839664
30
0
10
-12.276260585868737
20
11.40030998639406
30
0
10
-12.463990111365128
20
10.841320908767552
30
0
10
-13.032719832971527
20
9.9483115659949988
30
0
10
-13.350598057598106
20
9.6158771929291298
30
0
10
-14.141295464013051
20
9.0660880414721827
30
0
10
-14.593888320123495
20
8.8756566522769784
30
0
10
-16.16659294924316
20
8.4481632741669177
30
0
10
-17.466577661596897
20
8.4481632741669213
30
0
10
-18.962111475562018
20
8.4481632741669248
30
0
0
LINE
5
105
100
AcDbEntity
8
0
100
AcDbLine
10
-11.962111475561986
20
15.448163274166951
30
0
11
-11.962111475561985
21
139.33289376046696
31
0
0
SPLINE
5
106
100
AcDbEntity
8
0
100
AcDbSpline
70
0
71
3
72
16
73
12
74
0
42
0.000000001
43
0.0000000001
44
0.0000000001
40
0
40
0
40
0
40
0
40
0.39341778275975925
40
0.39341778275975925
40
0.62066475599974003
40
0.62066475599974003
40
0.80116141794328788
40
0.80116141794328788
40
0.99185674901393994
40
0.99185674901393994
40
1.4284696999729265
40
1.4284696999729265
40
1.4284696999729265
40
1.4284696999729265
10
-18.962111475561994
20
146.33289376046693
30
0
10
-17.650718866362794
20
146.33289376046693
30
0
10
-16.494968763234763
20
146.33289376046693
30
0
10
-14.914258187789189
20
146.01874465016019
30
0
10
-14.355269110162627
20
145.83101512466382
30
0
10
-13.462259767389993
20
145.26228540305738
30
0
10
-13.129825394324195
20
144.94440717843079
30
0
10
-12.580036242867285
20
144.15370977201593
30
0
10
-12.389604853672084
20
143.70111691590549
30
0
10
-11.962111475562022
20
142.12841228678582
30
0
10
-11.962111475562029
20
140.82842757443211
30
0
10
-11.962111475562036
20
139.33289376046696
30
0
0
LINE
5
107
100
AcDbEntity
8
0
100
AcDbLine
10
-18.962111475561994
20
146.33289376046693
30
0
11
-358.96211147556193
21
146.33289376046693
31
0
0
SPLINE
5
108
100
AcDbEntity
8
0
100
AcDbSpline
70
0
71
3
72
16
73
12
74
0
42
0.000000001
43
0.0000000001
44
0.0000000001
40
0
40
0
40
0
40
0
40
0.39341778275994366
40
0.39341778275994366
40
0.62066475600019011
40
0.62066475600019011
40
0.80116141794391571
40
0.80116141794391571
40
0.99185674901472809
40
0.99185674901472809
40
1.4284696999740385
40
1.4284696999740385
40
1.4284696999740385
40
1.4284696999740385
10
-365.96211147556198
20
139.33289376046696
30
0
10
-365.96211147556198
20
140.64428636966676
30
0
10
-365.96211147556198
20
141.80003647279437
30
0
10
-365.64796236525524
20
143.38074704824007
30
0
10
-365.46023283975876
20
143.9397361258664
30
0
10
-364.89150311815246
20
144.83274546863885
30
0
10
-364.5736248935259
20
145.16517984170474
30
0
10
-363.78292748711095
20
145.71496899316168
30
0
10
-363.3303346310006
20
145.9054003823569
30
0
10
-361.7576300018809
20
146.33289376046696
30
0
10
-360.45764528952725
20
146.33289376046693
30
0
10
-358.96211147556193
20
146.33289376046693
30
0
0
LINE
5
109
100
AcDbEntity
8
0
100
AcDbLine
10
-365.96211147556198
20
139.33289376046696
30
0
11
-365.96211147556204
21
15.448163274167186
31
0
0
SPLINE
5
110
100
AcDbEntity
8
0
100
AcDbSpline
70
0
71
3
72
16
73
12
74
0
42
0.000000001
43
0.0000000001
44
0.0000000001
40
0
40
0
40
0
40
0
40
0.39341778275981093
40
0.39341778275981093
40
0.62066475599988269
40
0.62066475599988269
40
0.80116141794345386
40
0.80116141794345386
40
0.9918567490141309
40
0.9918567490141309
40
1.4284696999735018
40
1.4284696999735018
40
1.4284696999735018
40
1.4284696999735018
10
-358.96211147556198
20
8.4481632741671788
30
0
10
-360.27350408476138
20
8.4481632741671788
30
0
10
-361.42925418788928
20
8.4481632741671788
30
0
10
-363.00996476333495
20
8.762312384473935
30
0
10
-363.5689538409614
20
8.9500419099703308
30
0
10
-364.46196318373387
20
9.5187716315766675
30
0
10
-364.79439755679982
20
9.8366498562032483
30
0
10
-365.34418670825681
20
10.627347262618304
30
0
10
-365.53461809745204
20
11.079940118728963
30
0
10
-365.96211147556204
20
12.652644747848473
30
0
10
-365.96211147556204
20
13.952629460202566
30
0
10
-365.96211147556204
20
15.448163274167202
30
0
0
LINE
5
111
100
AcDbEntity
8
0
100
AcDbLine
10
-358.96211147556198
20
8.4481632741671788
30
0
11
-184.442485660226
21
8.4481632741670634
31
0
0
ARC
5
112
100
AcDbEntity
8
0
100
AcDbCircle
10
-184.442485660226
20
8.9481632741671309
30
0
40
0.50000000000006817
210
0
220
0
230
1
100
AcDbArc
50
270
51
324.1469450142593
0
LINE
5
113
100
AcDbEntity
8
0
100
AcDbLine
10
-184.03722475533175
20
8.6553090459846231
30
0
11
-179.44974099205547
21
15.003613568105511
31
0
0
ARC
5
114
100
AcDbEntity
8
0
100
AcDbCircle
10
-179.85500189694974
20
15.296467796287983
30
0
40
0.50000000000009048
210
0
220
0
230
1
100
AcDbArc
50
324.14694501426453
51
360
0
LINE
5
115
100
AcDbEntity
8
0
100
AcDbLine
10
-179.35500189694966
20
15.296467796287963
30
0
11
-179.35500189694963
21
15.634716511879736
31
0
0
ARC
5
116
100
AcDbEntity
8
0
100
AcDbCircle
10
-178.85500189694966
20
15.634716511879734
30
0
40
0.50000000000000044
210
0
220
-0
230
1
100
AcDbArc
50
90
51
180
0
LINE
5
117
100
AcDbEntity
8
0
100
AcDbLine
10
-178.85500189694966
20
16.134716511879734
30
0
11
-159.15229371968695
21
16.134716511879734
31
0
0
ARC
5
118
100
AcDbEntity
8
0
100
AcDbCircle
10
-159.15229371968695
20
15.634716511879734
30
0
40
0.50000000000000711
210
0
220
-0
230
1
100
AcDbArc
50
0
51
90
0
LINE
5
119
100
AcDbEntity
8
0
100
AcDbLine
10
-158.65229371968695
20
15.634716511879736
30
0
11
-158.65229371968692
21
15.297634201712551
31
0
0
LWPOLYLINE
5
120
100
AcDbEntity
8
0
100
AcDbPolyline
90
12
70
1
43
0.0
10
-330.02013545031173
20
64.177024551430705
10
-330.02013545031173
20
84.555517961321243
10
-320.49513545269303
20
84.5553672383937
10
-320.49513545269303
20
83.255015947486228
10
-306.4951502063555
20
83.255015947486228
10
-306.4951502063555
20
84.555173451772703
10
-296.97015020873675
20
84.555022728845231
10
-296.97015020873675
20
64.177021159957732
10
-306.4951502063555
20
64.177021159957732
10
-306.4951502063555
20
66.702021159957809
10
-320.49513545269303
20
66.702021159957809
10
-320.49513545269303
20
64.177021159957732
0
LWPOLYLINE
5
121
100
AcDbEntity
8
0
100
AcDbPolyline
90
13
70
1
43
0.0
10
-56.381922103950082
20
83.227016062852002
10
-56.918361473180681
20
83.227024551430716
10
-56.918361473180681
20
103.60551796132125
10
-47.393361475561917
20
103.60536723839371
10
-47.393361475561989
20
102.30501594748624
10
-33.393376229224401
20
102.30501594748624
10
-33.393376229224401
20
103.60517345177271
10
-23.868376231605637
20
103.60502272884524
10
-23.868376231605637
20
83.227021159957815
10
-33.393376229224401
20
83.227021159957815
10
-33.393376229224401
20
85.75202115995782
10
-47.393361475561917
20
85.75202115995782
10
-47.393361475561917
20
83.227021159957815
0
LWPOLYLINE
5
122
100
AcDbEntity
8
0
100
AcDbPolyline
90
12
70
1
43
0.0
10
-324.37587797864944
20
26.077024551430625
10
-324.37587797864944
20
46.455517961321164
10
-314.85087798103064
20
46.45536723839362
10
-314.85087798103075
20
45.155015947486149
10
-300.85089273469316
20
45.155015947486149
10
-300.85089273469316
20
46.455173451772623
10
-291.32589273707435
20
46.455022728845151
10
-291.32589273707435
20
26.077021159957745
10
-300.85089273469316
20
26.077021159957745
10
-300.85089273469316
20
28.60202115995774
10
-314.85087798103064
20
28.60202115995774
10
-314.85087798103064
20
26.077021159957745
0
LWPOLYLINE
5
123
100
AcDbEntity
8
0
100
AcDbPolyline
90
12
70
1
43
0.0
10
-95.601671015372659
20
125.30852749636686
10
-99.838598036541583
20
105.37535306091279
10
-109.15542259414316
20
107.35585934472681
10
-108.88506435859348
20
108.62779484003903
10
-122.57911633760727
20
111.53855544402876
10
-122.84943428265287
20
110.26680950063491
10
-132.16625884025447
20
112.24731578444886
10
-127.92943407858013
20
132.1800091268058
10
-118.61257818391984
20
130.19965027226175
10
-119.13755520323468
20
127.72982758040888
10
-105.44350322422096
20
124.81906697641917
10
-104.91852620490612
20
127.28888966827205
0
LWPOLYLINE
5
124
100
AcDbEntity
8
0
100
AcDbPolyline
90
12
70
1
43
0.0
10
-187.49109630420205
20
135.15054409200349
10
-183.25416928303312
20
115.21736965654937
10
-192.57105651475214
20
113.23715823127523
10
-192.84141475030168
20
114.50909372658749
10
-206.53546672931549
20
111.59833312259775
10
-206.26514878426988
20
110.32658717920387
10
-215.58203601598888
20
108.34637575392972
10
-219.81886077766319
20
128.27906909628663
10
-210.50200488300294
20
130.25942795083071
10
-209.97702786368808
20
127.78960525897787
10
-196.28297588467436
20
130.7003658629676
10
-196.80795290398919
20
133.17018855482044
0
CIRCLE
5
125
100
AcDbEntity
8
0
100
AcDbCircle
10
-101.43305796070564
20
138.33289376046676
30
0
40
2.5999999999999979
210
0
220
0
230
1
0
CIRCLE
5
126
100
AcDbEntity
8
0
100
AcDbCircle
10
-228.33729389036506
20
16.448163274167065
30
0
40
2.6000000000000156
210
0
220
0
230
1
0
CIRCLE
5
127
100
AcDbEntity
8
0
100
AcDbCircle
10
-19.962111475561919
20
138.33289376046693
30
0
40
2.6000000000000023
210
0
220
0
230
1
0
CIRCLE
5
128
100
AcDbEntity
8
0
100
AcDbCircle
10
-357.96211147556198
20
16.448163274166937
30
0
40
2.5999999999999801
210
0
220
0
230
1
0
CIRCLE
5
129
100
AcDbEntity
8
0
100
AcDbCircle
10
-228.33729389036503
20
138.33289376046696
30
0
40
2.6000000000000156
210
0
220
0
230
1
0
CIRCLE
5
130
100
AcDbEntity
8
0
100
AcDbCircle
10
-101.43305796070565
20
16.448163274167168
30
0
40
2.5999999999999979
210
0
220
0
230
1
0
CIRCLE
5
131
100
AcDbEntity
8
0
100
AcDbCircle
10
-19.962111475561986
20
16.448163274166937
30
0
40
2.6000000000000023
210
0
220
0
230
1
0
CIRCLE
5
132
100
AcDbEntity
8
0
100
AcDbCircle
10
-357.96211147556193
20
138.33289376046696
30
0
40
2.5999999999999801
210
0
220
0
230
1
0
LWPOLYLINE
5
133
100
AcDbEntity
8
0
100
AcDbPolyline
90
20
70
1
43
0.0
10
-336.48335345783124
20
85.752291159957878
10
-336.48335345783124
20
86.752691159957863
10
-337.28415345783117
20
86.752691159957863
10
-337.28415345783117
20
89.850591159957844
10
-336.48335345783124
20
89.850591159957844
10
-336.48335345783124
20
95.652101159957823
10
-337.28415345783117
20
95.652101159957823
10
-337.28415345783117
20
98.752661159957825
10
-336.48335345783124
20
98.752661159957825
10
-336.48335345783124
20
99.751751159957806
10
-322.48405345783124
20
99.751751159957806
10
-322.48405345783124
20
98.752661159957825
10
-321.68325345783126
20
98.752661159957825
10
-321.68325345783126
20
95.652101159957823
10
-322.48405345783124
20
95.652101159957823
10
-322.48405345783124
20
89.850591159957844
10
-321.68325345783126
20
89.850591159957844
10
-321.68325345783126
20
86.752691159957863
10
-322.48405345783124
20
86.752691159957863
10
-322.48405345783124
20
85.752291159957878
0
LWPOLYLINE
5
134
100
AcDbEntity
8
0
100
AcDbPolyline
90
20
70
1
43
0.0
10
-293.62085345783134
20
108.90059115995786
10
-293.62085345783134
20
114.70210115995783
10
-294.42165345783127
20
114.70210115995783
10
-294.42165345783127
20
117.80266115995784
10
-293.62085345783134
20
117.80266115995784
10
-293.62085345783134
20
118.80175115995782
10
-279.62155345783134
20
118.80175115995782
10
-279.62155345783134
20
117.80266115995784
10
-278.8207534578313
20
117.80266115995784
10
-278.8207534578313
20
114.70210115995783
10
-279.62155345783134
20
114.70210115995783
10
-279.62155345783134
20
108.90059115995786
10
-278.8207534578313
20
108.90059115995786
10
-278.8207534578313
20
105.80269115995787
10
-279.62155345783134
20
105.80269115995787
10
-279.62155345783134
20
104.80229115995789
10
-293.62085345783134
20
104.80229115995789
10
-293.62085345783134
20
105.80269115995787
10
-294.42165345783127
20
105.80269115995787
10
-294.42165345783127
20
108.90059115995786
0
LWPOLYLINE
5
135
100
AcDbEntity
8
0
100
AcDbPolyline
90
20
70
1
43
0.0
10
-270.48854282952431
20
66.70229115995788
10
-270.48854282952431
20
67.702691159957865
10
-271.28934282952423
20
67.702691159957865
10
-271.28934282952423
20
70.800591159957861
10
-270.48854282952431
20
70.800591159957861
10
-270.48854282952431
20
76.602101159957826
10
-271.28934282952423
20
76.602101159957826
10
-271.28934282952423
20
79.702661159957813
10
-270.48854282952431
20
79.702661159957813
10
-270.48854282952431
20
80.701751159957809
10
-256.4892428295243
20
80.701751159957809
10
-256.4892428295243
20
79.702661159957813
10
-255.68844282952429
20
79.702661159957813
10
-255.68844282952429
20
76.602101159957826
10
-256.4892428295243
20
76.602101159957826
10
-256.4892428295243
20
70.800591159957861
10
-255.68844282952429
20
70.800591159957861
10
-255.68844282952429
20
67.702691159957865
10
-256.4892428295243
20
67.702691159957865
10
-256.4892428295243
20
66.70229115995788
0
LWPOLYLINE
5
136
100
AcDbEntity
8
0
100
AcDbPolyline
90
20
70
1
43
0.0
10
-302.62558943763401
20
47.652291159957805
10
-302.62558943763401
20
48.652691159957797
10
-303.42638943763399
20
48.652691159957797
10
-303.42638943763399
20
51.750591159957779
10
-302.62558943763401
20
51.750591159957779
10
-302.62558943763401
20
57.552101159957758
10
-303.42638943763399
20
57.552101159957758
10
-303.42638943763399
20
60.652661159957745
10
-302.62558943763401
20
60.652661159957745
10
-302.62558943763401
20
61.651751159957726
10
-288.62628943763406
20
61.651751159957726
10
-288.62628943763406
20
60.652661159957745
10
-287.82548943763402
20
60.652661159957745
10
-287.82548943763402
20
57.552101159957758
10
-288.62628943763406
20
57.552101159957758
10
-288.62628943763406
20
51.750591159957779
10
-287.82548943763402
20
51.750591159957779
10
-287.82548943763402
20
48.652691159957797
10
-288.62628943763406
20
48.652691159957797
10
-288.62628943763406
20
47.652291159957805
0
LWPOLYLINE
5
137
100
AcDbEntity
8
0
100
AcDbPolyline
90
20
70
1
43
0.0
10
-267.22553535786199
20
27.861700026893867
10
-267.22553535786199
20
28.862100026893852
10
-268.02633535786191
20
28.862100026893852
10
-268.02633535786191
20
31.960000026893841
10
-267.22553535786199
20
31.960000026893841
10
-267.22553535786199
20
37.761510026893816
10
-268.02633535786191
20
37.761510026893816
10
-268.02633535786191
20
40.86207002689379
10
-267.22553535786199
20
40.86207002689379
10
-267.22553535786199
20
41.861160026893785
10
-253.22623535786198
20
41.861160026893785
10
-253.22623535786198
20
40.86207002689379
10
-252.42543535786197
20
40.86207002689379
10
-252.42543535786197
20
37.761510026893816
10
-253.22623535786198
20
37.761510026893816
10
-253.22623535786198
20
31.960000026893841
10
-252.42543535786197
20
31.960000026893841
10
-252.42543535786197
20
28.862100026893852
10
-253.22623535786198
20
28.862100026893852
10
-253.22623535786198
20
27.861700026893867
0
LWPOLYLINE
5
138
100
AcDbEntity
8
0
100
AcDbPolyline
90
20
70
1
43
0.0
10
-188.89390037780493
20
40.056116721762947
10
-189.10189523329905
20
41.034655581537045
10
-189.88519583196663
20
40.868159899530184
10
-190.52928545895097
20
43.898363351843429
10
-189.74598486028339
20
44.064859033850269
10
-190.95218661367952
20
49.739592120983431
10
-191.7354872123471
20
49.573096438976592
10
-192.38012988442901
20
52.605901763907781
10
-191.59682928576143
20
52.772397445914635
10
-191.80455177694054
20
53.749654932331751
10
-178.11117006998782
20
56.660273065596805
10
-177.90344757880871
20
55.683015579179695
10
-177.12014698014104
20
55.849511261186549
10
-176.47550430805916
20
52.81670593625536
10
-177.25880490672679
20
52.650210254248492
10
-176.05260315333067
20
46.975477167115329
10
-175.269302554663
20
47.141972849122205
10
-174.62521292767866
20
44.11176939680896
10
-175.40851352634633
20
43.945273714802099
10
-175.2005186708522
20
42.966734855028008
0
LWPOLYLINE
5
139
100
AcDbEntity
8
0
100
AcDbPolyline
90
20
70
1
43
0.0
10
-244.88456993225179
20
60.921326847111601
10
-245.09229242343088
20
61.898584333528738
10
-231.39891071647813
20
64.809202466793778
10
-231.19118822529902
20
63.831944980376647
10
-230.40788762663138
20
63.998440662383516
10
-229.76324495454946
20
60.965635337452326
10
-230.54654555321713
20
60.799139655445458
10
-229.34034379982097
20
55.124406568312303
10
-228.55704320115333
20
55.290902250319164
10
-227.91295357416899
20
52.260698798005933
10
-228.69625417283663
20
52.094203115999065
10
-228.48825931734257
20
51.115664256224974
10
-242.18164102429535
20
48.205046122959921
10
-242.38963587978941
20
49.183584982734018
10
-243.17293647845699
20
49.017089300727157
10
-243.81702610544136
20
52.047292753040395
10
-243.03372550677375
20
52.213788435047263
10
-244.23992726016988
20
57.888521522180412
10
-245.02322785883746
20
57.722025840173558
10
-245.66787053091934
20
60.754831165104747
0
LWPOLYLINE
5
140
100
AcDbEntity
8
0
100
AcDbPolyline
90
20
70
1
43
0.0
10
-192.15690784946676
20
78.313719737240532
10
-192.36490270496085
20
79.292258597014623
10
-193.14820330362846
20
79.125762915007783
10
-193.7922929306128
20
82.155966367321014
10
-193.00899233194519
20
82.322462049327854
10
-194.21519408534135
20
87.997195136461031
10
-194.99849468400893
20
87.830699454454177
10
-195.64313735609085
20
90.863504779385366
10
-194.85983675742324
20
91.03000046139222
10
-195.06755924860238
20
92.007257947809336
10
-181.3741775416496
20
94.917876081074382
10
-181.16645505047049
20
93.940618594657252
10
-180.38315445180285
20
94.107114276664134
10
-179.73851177972094
20
91.074308951732945
10
-180.52181237838857
20
90.907813269726063
10
-179.31561062499244
20
85.233080182592914
10
-178.53231002632481
20
85.399575864599782
10
-177.88822039934047
20
82.369372412286538
10
-178.67152099800808
20
82.202876730279684
10
-178.46352614251401
20
81.224337870505593
0
LWPOLYLINE
5
141
100
AcDbEntity
8
0
100
AcDbPolyline
90
20
70
1
43
0.0
10
-245.40483395244908
20
99.761917980175397
10
-245.61255644362819
20
100.73917546659254
10
-231.91917473667544
20
103.6497935998576
10
-231.71145224549633
20
102.67253611344046
10
-230.92815164682867
20
102.83903179544731
10
-230.28350897474678
20
99.806226470516123
10
-231.06680957341442
20
99.639730788509269
10
-229.86060782001829
20
93.96499770137612
10
-229.07730722135062
20
94.131493383382988
10
-228.43321759436631
20
91.101289931069743
10
-229.21651819303395
20
90.93479424906289
10
-229.00852333753986
20
89.956255389288771
10
-242.70190504449261
20
87.045637256023724
10
-242.90989989998667
20
88.024176115797829
10
-243.69320049865428
20
87.857680433790961
10
-244.33729012563862
20
90.88788388610422
10
-243.55398952697104
20
91.054379568111074
10
-244.76019128036717
20
96.729112655244208
10
-245.54349187903478
20
96.562616973237354
10
-246.18813455111666
20
99.595422298168543
0
LWPOLYLINE
5
142
100
AcDbEntity
8
0
100
AcDbPolyline
90
20
70
1
43
0.0
10
-126.24472857157265
20
37.025658289910545
10
-126.03673371607856
20
38.004197149684629
10
-126.8200343147462
20
38.170692831691483
10
-126.17594468776187
20
41.20089628400472
10
-125.39264408909423
20
41.034400601997866
10
-124.18644233569809
20
46.709133689131036
10
-124.96974293436573
20
46.87562937113789
10
-124.32510026228383
20
49.908434696069087
10
-123.54179966361619
20
49.741939014062233
10
-123.33407717243708
20
50.719196500479349
10
-109.64069546548437
20
47.808578367214302
10
-109.84841795666348
20
46.831320880797179
10
-109.06511735799583
20
46.664825198790318
10
-109.70976003007775
20
43.632019873859122
10
-110.49306062874538
20
43.798515555865983
10
-111.69926238214153
20
38.123782468732827
10
-110.91596178347388
20
37.957286786725952
10
-111.56005141045821
20
34.927083334412714
10
-112.34335200912585
20
35.093579016419582
10
-112.55134686461994
20
34.115040156645485
0
LWPOLYLINE
5
143
100
AcDbEntity
8
0
100
AcDbPolyline
90
20
70
1
43
0.0
10
-132.29857699690027
20
77.263620160427294
10
-132.09058214140617
20
78.24215902020137
10
-132.87388274007381
20
78.408654702208253
10
-132.2297931130895
20
81.438858154521498
10
-131.44649251442186
20
81.272362472514615
10
-130.24029076102573
20
86.947095559647792
10
-131.02359135969334
20
87.11359124165466
10
-130.37894868761146
20
90.14639656658585
10
-129.59564808894382
20
89.979900884578981
10
-129.38792559776471
20
90.957158370996098
10
-115.694543890812
20
88.046540237731051
10
-115.90226638199111
20
87.069282751313921
10
-115.11896578332346
20
86.902787069307067
10
-115.76360845540536
20
83.869981744375877
10
-116.54690905407301
20
84.036477426382731
10
-117.75311080746916
20
78.361744339249583
10
-116.9698102088015
20
78.195248657242729
10
-117.61389983578583
20
75.16504520492947
10
-118.39720043445348
20
75.331540886936338
10
-118.60519528994757
20
74.353002027162233
0
LWPOLYLINE
5
144
100
AcDbEntity
8
0
100
AcDbPolyline
90
20
70
1
43
0.0
10
-118.16891890735404
20
97.925715411454462
10
-116.9627171539579
20
103.60044849858761
10
-117.74601775262552
20
103.76694418059446
10
-117.1013750805436
20
106.79974950552565
10
-116.318074481876
20
106.6332538235188
10
-116.11035199069688
20
107.61051130993593
10
-102.41697028374418
20
104.69989317667088
10
-102.62469277492329
20
103.72263569025377
10
-101.84139217625564
20
103.5561400082469
10
-102.48603484833754
20
100.52333468331571
10
-103.2693354470052
20
100.68983036532258
10
-104.47553720040133
20
95.015097278189415
10
-103.69223660173368
20
94.848601596182533
10
-104.33632622871801
20
91.818398143869302
10
-105.11962682738567
20
91.984893825876171
10
-105.32762168287975
20
91.006354966102094
10
-119.02100338983246
20
93.916973099367141
10
-118.81300853433837
20
94.895511959141203
10
-119.59630913300599
20
95.062007641148085
10
-118.95221950602165
20
98.09221109346133
0
LWPOLYLINE
5
145
100
AcDbEntity
8
0
100
AcDbPolyline
90
20
70
1
43
0.0
10
-100.38729159585345
20
89.956255389288785
10
-100.17929674035938
20
90.934794249062861
10
-100.96259733902701
20
91.101289931069715
10
-100.31850771204269
20
94.131493383382974
10
-99.535207113375037
20
93.964997701376106
10
-98.329005359978908
20
99.639730788509269
10
-99.112305958646544
20
99.806226470516151
10
-98.467663286564644
20
102.83903179544734
10
-97.684362687896993
20
102.67253611344046
10
-97.476640196717881
20
103.64979359985759
10
-83.783258489765188
20
100.73917546659254
10
-83.9909809809443
20
99.761917980175411
10
-83.207680382276664
20
99.595422298168543
10
-83.852323054358564
20
96.562616973237354
10
-84.635623653026215
20
96.729112655244222
10
-85.841825406422345
20
91.054379568111074
10
-85.058524807754708
20
90.887883886104191
10
-85.702614434739033
20
87.857680433790946
10
-86.48591503340667
20
88.024176115797829
10
-86.693909888900748
20
87.045637256023753
0
LWPOLYLINE
5
146
100
AcDbEntity
8
0
100
AcDbPolyline
90
20
70
1
43
0.0
10
-72.906572103869465
20
66.702291159957852
10
-72.906572103869465
20
67.702691159957851
10
-73.70737210386946
20
67.702691159957851
10
-73.70737210386946
20
70.800591159957833
10
-72.906572103869465
20
70.800591159957833
10
-72.906572103869465
20
76.602101159957812
10
-73.70737210386946
20
76.602101159957812
10
-73.70737210386946
20
79.702661159957785
10
-72.906572103869465
20
79.702661159957785
10
-72.906572103869465
20
80.70175115995778
10
-58.907272103869524
20
80.70175115995778
10
-58.907272103869524
20
79.702661159957785
10
-58.1064721038695
20
79.702661159957785
10
-58.1064721038695
20
76.602101159957812
10
-58.907272103869524
20
76.602101159957812
10
-58.907272103869524
20
70.800591159957833
10
-58.1064721038695
20
70.800591159957833
10
-58.1064721038695
20
67.702691159957851
10
-58.907272103869524
20
67.702691159957851
10
-58.907272103869524
20
66.702291159957852
0
LWPOLYLINE
5
147
100
AcDbEntity
8
0
100
AcDbPolyline
90
20
70
1
43
0.0
10
-48.396361865453066
20
47.652291159957855
10
-48.396361865453066
20
48.65269115995784
10
-49.197161865453054
20
48.65269115995784
10
-49.197161865453054
20
51.750591159957828
10
-48.396361865453066
20
51.750591159957828
10
-48.396361865453066
20
57.552101159957807
10
-49.197161865453054
20
57.552101159957807
10
-49.197161865453054
20
60.652661159957795
10
-48.396361865453066
20
60.652661159957795
10
-48.396361865453066
20
61.651751159957783
10
-34.397061865453125
20
61.651751159957783
10
-34.397061865453125
20
60.652661159957795
10
-33.596261865453101
20
60.652661159957795
10
-33.596261865453101
20
57.552101159957807
10
-34.397061865453125
20
57.552101159957807
10
-34.397061865453125
20
51.750591159957828
10
-33.596261865453101
20
51.750591159957828
10
-33.596261865453101
20
48.65269115995784
10
-34.397061865453125
20
48.65269115995784
10
-34.397061865453125
20
47.652291159957855
0
LWPOLYLINE
5
148
100
AcDbEntity
8
0
100
AcDbPolyline
90
20
70
1
43
0.0
10
-47.807373741620736
20
28.602291159957836
10
-47.807373741620736
20
29.602691159957821
10
-48.608173741620732
20
29.602691159957821
10
-48.608173741620732
20
32.70059115995781
10
-47.807373741620736
20
32.70059115995781
10
-47.807373741620736
20
38.502101159957789
10
-48.608173741620732
20
38.502101159957789
10
-48.608173741620732
20
41.602661159957762
10
-47.807373741620736
20
41.602661159957762
10
-47.807373741620736
20
42.601751159957757
10
-33.808073741620802
20
42.601751159957757
10
-33.808073741620802
20
41.602661159957762
10
-33.007273741620779
20
41.602661159957762
10
-33.007273741620779
20
38.502101159957789
10
-33.808073741620802
20
38.502101159957789
10
-33.808073741620802
20
32.70059115995781
10
-33.007273741620779
20
32.70059115995781
10
-33.007273741620779
20
29.602691159957821
10
-33.808073741620802
20
29.602691159957821
10
-33.808073741620802
20
28.602291159957836
0
LWPOLYLINE
5
149
100
AcDbEntity
8
0
100
AcDbPolyline
90
20
70
1
43
0.0
10
-107.61101677759365
20
33.064940579832232
10
-107.40302192209958
20
34.043479439606308
10
-108.18632252076722
20
34.209975121613176
10
-107.54223289378288
20
37.240178573926421
10
-106.75893229511524
20
37.073682891919553
10
-105.55273054171911
20
42.748415979052716
10
-106.33603114038675
20
42.914911661059577
10
-105.69138846830484
20
45.94771698599078
10
-104.9080878696372
20
45.781221303983919
10
-104.70036537845809
20
46.75847879040105
10
-91.006983671505395
20
43.847860657135996
10
-91.214706162684507
20
42.870603170718873
10
-90.431405564016842
20
42.704107488712005
10
-91.076048236098757
20
39.671302163780808
10
-91.859348834766408
20
39.837797845787676
10
-93.065550588162552
20
34.163064758654514
10
-92.282249989494886
20
33.996569076647646
10
-92.926339616479225
20
30.966365624334404
10
-93.709640215146877
20
31.132861306341269
10
-93.917635070640969
20
30.154322446567186
0
LWPOLYLINE
5
150
100
AcDbEntity
8
0
100
AcDbPolyline
90
20
70
1
43
0.0
10
-112.11507048202643
20
57.687753540937749
10
-110.90886872863031
20
63.362486628070904
10
-111.69216932729793
20
63.528982310077765
10
-111.04752665521602
20
66.561787635008955
10
-110.26422605654841
20
66.395291953002101
10
-110.0565035653693
20
67.372549439419217
10
-96.363121858416591
20
64.461931306154156
10
-96.570844349595703
20
63.48467381973704
10
-95.787543750928052
20
63.318178137730179
10
-96.432186423009952
20
60.28537281279899
10
-97.215487021677603
20
60.451868494805851
10
-98.421688775073747
20
54.777135407672688
10
-97.638388176406096
20
54.610639725665834
10
-98.282477803390421
20
51.580436273352589
10
-99.065778402058072
20
51.746931955359443
10
-99.273773257552165
20
50.768393095585353
10
-112.96715496450486
20
53.679011228850406
10
-112.75916010901078
20
54.657550088624504
10
-113.5424607076784
20
54.824045770631358
10
-112.89837108069406
20
57.854249222944603
0
LWPOLYLINE
5
151
100
AcDbEntity
8
0
100
AcDbPolyline
90
20
70
1
43
0.0
10
-110.96193629496484
20
86.01918317450064
10
-110.75421380378573
20
86.996440660917784
10
-97.06083209683301
20
84.085822527652724
10
-97.268554588012123
20
83.108565041235607
10
-96.485253989344471
20
82.942069359228725
10
-97.129896661426386
20
79.90926403429755
10
-97.913197260094037
20
80.075759716304432
10
-99.119399013490167
20
74.401026629171255
10
-98.336098414822516
20
74.234530947164387
10
-98.980188041806855
20
71.204327494851157
10
-99.763488640474506
20
71.370823176858025
10
-99.971483495968585
20
70.392284317083934
10
-113.66486520292131
20
73.302902450348967
10
-113.45687034742723
20
74.281441310123057
10
-114.24017094609484
20
74.447936992129925
10
-113.59608131911051
20
77.478140444443142
10
-112.81278072044289
20
77.311644762436316
10
-111.60657896704676
20
82.986377849569465
10
-112.38987956571437
20
83.152873531576319
10
-111.74523689363247
20
86.185678856507508
0
LWPOLYLINE
5
152
100
AcDbEntity
8
0
100
AcDbPolyline
90
20
70
1
43
0.0
10
-40.249261475561944
20
104.80229115995789
10
-40.249261475561944
20
105.80269115995787
10
-41.050061475561932
20
105.80269115995787
10
-41.050061475561932
20
108.90059115995784
10
-40.249261475561944
20
108.90059115995784
10
-40.249261475561944
20
114.70210115995783
10
-41.050061475561932
20
114.70210115995783
10
-41.050061475561932
20
117.80266115995781
10
-40.249261475561944
20
117.80266115995781
10
-40.249261475561944
20
118.8017511599578
10
-26.249961475562003
20
118.8017511599578
10
-26.249961475562003
20
117.80266115995781
10
-25.449161475561979
20
117.80266115995781
10
-25.449161475561979
20
114.70210115995783
10
-26.249961475562003
20
114.70210115995783
10
-26.249961475562003
20
108.90059115995784
10
-25.449161475561979
20
108.90059115995784
10
-25.449161475561979
20
105.80269115995787
10
-26.249961475562003
20
105.80269115995787
10
-26.249961475562003
20
104.80229115995789
0
LWPOLYLINE
5
153
100
AcDbEntity
8
0
100
AcDbPolyline
90
20
70
1
43
0.0
10
-152.32770926771218
20
120.47212031350276
10
-152.11971441221809
20
121.45065917327683
10
-152.90301501088572
20
121.61715485528369
10
-152.25892538390138
20
124.64735830759693
10
-151.47562478523378
20
124.48086262559008
10
-150.26942303183762
20
130.15559571272325
10
-151.05272363050526
20
130.32209139473011
10
-150.40808095842334
20
133.3548967196613
10
-149.62478035975573
20
133.18840103765442
10
-149.41705786857659
20
134.16565852407157
10
-135.7236761616239
20
131.2550403908065
10
-135.93139865280301
20
130.27778290438937
10
-135.14809805413537
20
130.11128722238251
10
-135.79274072621726
20
127.07848189745134
10
-136.57604132488493
20
127.24497757945821
10
-137.78224307828106
20
121.57024449232503
10
-136.99894247961342
20
121.40374881031816
10
-137.64303210659773
20
118.37354535800492
10
-138.42633270526539
20
118.54004104001179
10
-138.63432756075949
20
117.56150218023771
0
LWPOLYLINE
5
154
100
AcDbEntity
8
0
100
AcDbPolyline
90
20
70
1
43
0.0
10
-150.08020430840085
20
85.233080182592929
10
-148.87400255500472
20
90.907813269726105
10
-149.65730315367236
20
91.074308951732959
10
-149.01266048159047
20
94.107114276664149
10
-148.22935988292281
20
93.940618594657295
10
-148.0216373917437
20
94.917876081074411
10
-134.328255684791
20
92.007257947809364
10
-134.53597817597011
20
91.030000461392234
10
-133.75267757730248
20
90.86350477938538
10
-134.39732024938439
20
87.830699454454191
10
-135.18062084805203
20
87.997195136461045
10
-136.38682260144816
20
82.322462049327868
10
-135.60352200278052
20
82.155966367321014
10
-136.24761162976486
20
79.125762915007783
10
-137.0309122284325
20
79.292258597014637
10
-137.23890708392656
20
78.313719737240547
10
-150.93228879087928
20
81.224337870505607
10
-150.72429393538519
20
82.202876730279684
10
-151.50759453405283
20
82.369372412286566
10
-150.86350490706852
20
85.399575864599782
0
LWPOLYLINE
5
155
100
AcDbEntity
8
0
100
AcDbPolyline
90
20
70
1
43
0.0
10
-160.8092232515742
20
57.663374434218859
10
-160.60150076039508
20
58.640631920636004
10
-146.90811905344239
20
55.73001378737095
10
-147.1158415446215
20
54.75275630095382
10
-146.33254094595384
20
54.586260618946966
10
-146.97718361803575
20
51.553455294015777
10
-147.76048421670342
20
51.719950976022631
10
-148.96668597009955
20
46.045217888889468
10
-148.18338537143188
20
45.878722206882614
10
-148.82747499841622
20
42.848518754569369
10
-149.61077559708389
20
43.015014436576223
10
-149.81877045257795
20
42.036475576802133
10
-163.51215215953067
20
44.947093710067179
10
-163.30415730403658
20
45.925632569841277
10
-164.08745790270419
20
46.092128251848138
10
-163.44336827571988
20
49.122331704161383
10
-162.66006767705224
20
48.955836022154529
10
-161.45386592365611
20
54.63056910928767
10
-162.23716652232372
20
54.797064791294545
10
-161.59252385024183
20
57.829870116225734
0
LWPOLYLINE
5
156
100
AcDbEntity
8
0
100
AcDbPolyline
90
20
70
1
43
0.0
10
-224.06819325051367
20
91.006354966102066
10
-224.27618810600774
20
91.984893825876128
10
-225.05948870467535
20
91.818398143869274
10
-225.70357833165968
20
94.848601596182519
10
-224.9202777329921
20
95.015097278189387
10
-226.12647948638823
20
100.68983036532254
10
-226.90978008505581
20
100.52333468331568
10
-227.55442275713773
20
103.55614000824689
10
-226.77112215847015
20
103.72263569025375
10
-226.97884464964926
20
104.69989317667087
10
-213.28546294269654
20
107.61051130993593
10
-213.07774045151743
20
106.63325382351879
10
-212.29443985284976
20
106.79974950552565
10
-211.64979718076782
20
103.76694418059445
10
-212.43309777943551
20
103.6004484985876
10
-211.22689602603938
20
97.925715411454419
10
-210.44359542737172
20
98.092211093461287
10
-209.79950580038735
20
95.062007641148057
10
-210.58280639905502
20
94.895511959141174
10
-210.37481154356095
20
93.916973099367098
0
LWPOLYLINE
5
157
100
AcDbEntity
8
0
100
AcDbPolyline
90
20
70
1
43
0.0
10
-210.79061964344584
20
74.353002027162219
10
-210.9986144989399
20
75.33154088693631
10
-211.78191509760751
20
75.165045204929456
10
-212.42600472459185
20
78.195248657242701
10
-211.64270412592424
20
78.361744339249555
10
-212.84890587932037
20
84.036477426382703
10
-213.63220647798798
20
83.869981744375849
10
-214.27684915006989
20
86.902787069307038
10
-213.49354855140228
20
87.069282751313892
10
-213.70127104258137
20
88.046540237731037
10
-200.00788933562865
20
90.957158370996069
10
-199.80016684444956
20
89.979900884578939
10
-199.0168662457819
20
90.146396566585807
10
-198.37222357369998
20
87.113591241654618
10
-199.15552417236765
20
86.947095559647749
10
-197.94932241897152
20
81.272362472514601
10
-197.16602182030385
20
81.438858154521483
10
-196.52193219331951
20
78.408654702208224
10
-197.30523279198718
20
78.242159020201356
10
-197.09723793649312
20
77.263620160427266
0
LWPOLYLINE
5
158
100
AcDbEntity
8
0
100
AcDbPolyline
90
20
70
1
43
0.0
10
-223.5479292303163
20
52.165763833038248
10
-223.75592408581039
20
53.144302692812332
10
-224.53922468447797
20
52.977807010805485
10
-225.18331431146231
20
56.00801046311873
10
-224.4000137127947
20
56.174506145125576
10
-225.60621546619086
20
61.849239232258732
10
-226.38951606485844
20
61.682743550251885
10
-227.03415873694036
20
64.715548875183075
10
-226.25085813827275
20
64.882044557189928
10
-226.45858062945189
20
65.859302043607059
10
-212.76519892249917
20
68.76992017687212
10
-212.55747643132003
20
67.792662690454989
10
-211.77417583265239
20
67.959158372461857
10
-211.12953316057047
20
64.926353047530654
10
-211.91283375923814
20
64.759857365523786
10
-210.70663200584198
20
59.085124278390637
10
-209.92333140717435
20
59.251619960397505
10
-209.27924178019001
20
56.22141650808426
10
-210.06254237885767
20
56.054920826077392
10
-209.85454752336358
20
55.076381966303309
0
LWPOLYLINE
5
159
100
AcDbEntity
8
0
100
AcDbPolyline
90
20
70
1
43
0.0
10
-207.52761217178397
20
36.09539901168462
10
-207.73560702727806
20
37.07393787145871
10
-208.51890762594564
20
36.907442189451857
10
-209.16299725292998
20
39.937645641765101
10
-208.3796966542624
20
40.104141323771955
10
-209.58589840765853
20
45.778874410905111
10
-210.36919900632611
20
45.612378728898264
10
-211.01384167840803
20
48.645184053829446
10
-210.23054107974045
20
48.811679735836293
10
-210.43826357091956
20
49.788937222253431
10
-196.74488186396678
20
52.699555355518484
10
-196.5371593727877
20
51.722297869101354
10
-195.75385877412003
20
51.888793551108215
10
-195.10921610203812
20
48.855988226177033
10
-195.89251670070578
20
48.689492544170172
10
-194.68631494730965
20
43.014759457037009
10
-193.90301434864199
20
43.181255139043877
10
-193.25892472165765
20
40.151051686730632
10
-194.04222532032526
20
39.984556004723771
10
-193.83423046483119
20
39.006017144949681
0
LWPOLYLINE
5
160
100
AcDbEntity
8
0
100
AcDbPolyline
90
20
70
1
43
0.0
10
-272.27623535786199
20
28.602291159957794
10
-286.275535357862
20
28.602291159957794
10
-286.275535357862
20
29.602691159957782
10
-287.07633535786192
20
29.602691159957782
10
-287.07633535786192
20
32.700591159957767
10
-286.275535357862
20
32.700591159957767
10
-286.275535357862
20
38.502101159957746
10
-287.07633535786192
20
38.502101159957746
10
-287.07633535786192
20
41.602661159957734
10
-286.275535357862
20
41.602661159957734
10
-286.275535357862
20
42.601751159957715
10
-272.27623535786199
20
42.601751159957715
10
-272.27623535786199
20
41.602661159957734
10
-271.47543535786201
20
41.602661159957734
10
-271.47543535786201
20
38.502101159957746
10
-272.27623535786199
20
38.502101159957746
10
-272.27623535786199
20
32.700591159957767
10
-271.47543535786201
20
32.700591159957767
10
-271.47543535786201
20
29.602691159957782
10
-272.27623535786199
20
29.602691159957782
0
LWPOLYLINE
5
161
100
AcDbEntity
8
0
100
AcDbPolyline
90
20
70
1
43
0.0
10
-326.43808943763406
20
47.652291159957791
10
-326.43808943763406
20
48.652691159957783
10
-327.23888943763399
20
48.652691159957783
10
-327.23888943763399
20
51.750591159957757
10
-326.43808943763406
20
51.750591159957757
10
-326.43808943763406
20
57.552101159957736
10
-327.23888943763399
20
57.552101159957736
10
-327.23888943763399
20
60.652661159957724
10
-326.43808943763406
20
60.652661159957724
10
-326.43808943763406
20
61.651751159957712
10
-312.438789437634
20
61.651751159957712
10
-312.438789437634
20
60.652661159957724
10
-311.63798943763402
20
60.652661159957724
10
-311.63798943763402
20
57.552101159957736
10
-312.438789437634
20
57.552101159957736
10
-312.438789437634
20
51.750591159957757
10
-311.63798943763402
20
51.750591159957757
10
-311.63798943763402
20
48.652691159957783
10
-312.438789437634
20
48.652691159957783
10
-312.438789437634
20
47.652291159957791
0
LWPOLYLINE
5
162
100
AcDbEntity
8
0
100
AcDbPolyline
90
20
70
1
43
0.0
10
-265.04585345783136
20
85.752291159957878
10
-265.04585345783136
20
86.752691159957863
10
-265.84665345783128
20
86.752691159957863
10
-265.84665345783128
20
89.850591159957844
10
-265.04585345783136
20
89.850591159957844
10
-265.04585345783136
20
95.652101159957823
10
-265.84665345783128
20
95.652101159957823
10
-265.84665345783128
20
98.752661159957825
10
-265.04585345783136
20
98.752661159957825
10
-265.04585345783136
20
99.751751159957806
10
-251.04655345783135
20
99.751751159957806
10
-251.04655345783135
20
98.752661159957825
10
-250.24575345783134
20
98.752661159957825
10
-250.24575345783134
20
95.652101159957823
10
-251.04655345783135
20
95.652101159957823
10
-251.04655345783135
20
89.850591159957844
10
-250.24575345783134
20
89.850591159957844
10
-250.24575345783134
20
86.752691159957863
10
-251.04655345783135
20
86.752691159957863
10
-251.04655345783135
20
85.752291159957878
0
LWPOLYLINE
5
163
100
AcDbEntity
8
0
100
AcDbPolyline
90
20
70
1
43
0.0
10
-317.43335345783129
20
104.80229115995789
10
-317.43335345783129
20
105.80269115995787
10
-318.23415345783127
20
105.80269115995787
10
-318.23415345783127
20
108.90059115995786
10
-317.43335345783129
20
108.90059115995786
10
-317.43335345783129
20
114.70210115995783
10
-318.23415345783127
20
114.70210115995783
10
-318.23415345783127
20
117.80266115995784
10
-317.43335345783129
20
117.80266115995784
10
-317.43335345783129
20
118.80175115995782
10
-303.43405345783134
20
118.80175115995782
10
-303.43405345783134
20
117.80266115995784
10
-302.6332534578313
20
117.80266115995784
10
-302.6332534578313
20
114.70210115995783
10
-303.43405345783134
20
114.70210115995783
10
-303.43405345783134
20
108.90059115995786
10
-302.6332534578313
20
108.90059115995786
10
-302.6332534578313
20
105.80269115995787
10
-303.43405345783134
20
105.80269115995787
10
-303.43405345783134
20
104.80229115995789
0
LWPOLYLINE
5
164
100
AcDbEntity
8
0
100
AcDbPolyline
90
20
70
1
43
0.0
10
-355.52465515580184
20
64.475271206994108
10
-355.52465515580184
20
65.475671206994093
10
-356.32545515580176
20
65.475671206994093
10
-356.32545515580176
20
68.573571206994075
10
-355.52465515580184
20
68.573571206994075
10
-355.52465515580184
20
74.375081206994054
10
-356.32545515580176
20
74.375081206994054
10
-356.32545515580176
20
77.475641206994041
10
-355.52465515580184
20
77.475641206994041
10
-355.52465515580184
20
78.474731206994036
10
-341.52535515580183
20
78.474731206994036
10
-341.52535515580183
20
77.475641206994041
10
-340.7245551558018
20
77.475641206994041
10
-340.7245551558018
20
74.375081206994054
10
-341.52535515580183
20
74.375081206994054
10
-341.52535515580183
20
68.573571206994075
10
-340.7245551558018
20
68.573571206994075
10
-340.7245551558018
20
65.475671206994093
10
-341.52535515580183
20
65.475671206994093
10
-341.52535515580183
20
64.475271206994108
0
LWPOLYLINE
5
165
100
AcDbEntity
8
0
100
AcDbPolyline
90
20
70
1
43
0.0
10
-337.52535515580178
20
26.375271206994103
10
-351.52465515580172
20
26.375271206994103
10
-351.52465515580172
20
27.375671206994092
10
-352.32545515580171
20
27.375671206994092
10
-352.32545515580171
20
30.473571206994077
10
-351.52465515580172
20
30.473571206994077
10
-351.52465515580172
20
36.275081206994052
10
-352.32545515580171
20
36.275081206994052
10
-352.32545515580171
20
39.375641206994032
10
-351.52465515580172
20
39.375641206994032
10
-351.52465515580172
20
40.374731206994028
10
-337.52535515580178
20
40.374731206994028
10
-337.52535515580178
20
39.375641206994032
10
-336.72455515580174
20
39.375641206994032
10
-336.72455515580174
20
36.275081206994052
10
-337.52535515580178
20
36.275081206994052
10
-337.52535515580178
20
30.473571206994077
10
-336.72455515580174
20
30.473571206994077
10
-336.72455515580174
20
27.375671206994092
10
-337.52535515580178
20
27.375671206994092
0
LWPOLYLINE
5
166
100
AcDbEntity
8
0
100
AcDbPolyline
90
20
70
1
43
0.0
10
-355.53335345783131
20
104.80229115995789
10
-355.53335345783131
20
105.80269115995787
10
-356.33415345783129
20
105.80269115995787
10
-356.33415345783129
20
108.90059115995786
10
-355.53335345783131
20
108.90059115995786
10
-355.53335345783131
20
114.70210115995783
10
-356.33415345783129
20
114.70210115995783
10
-356.33415345783129
20
117.80266115995784
10
-355.53335345783131
20
117.80266115995784
10
-355.53335345783131
20
118.80175115995782
10
-341.53405345783136
20
118.80175115995782
10
-341.53405345783136
20
117.80266115995784
10
-340.73325345783132
20
117.80266115995784
10
-340.73325345783132
20
114.70210115995783
10
-341.53405345783136
20
114.70210115995783
10
-341.53405345783136
20
108.90059115995786
10
-340.73325345783132
20
108.90059115995786
10
-340.73325345783132
20
105.80269115995787
10
-341.53405345783136
20
105.80269115995787
10
-341.53405345783136
20
104.80229115995789
0
LWPOLYLINE
5
167
100
AcDbEntity
8
0
100
AcDbPolyline
90
20
70
1
43
0.0
10
-310.28960345783133
20
89.850591159957844
10
-310.28960345783133
20
95.652101159957823
10
-311.09040345783126
20
95.652101159957823
10
-311.09040345783126
20
98.752661159957825
10
-310.28960345783133
20
98.752661159957825
10
-310.28960345783133
20
99.751751159957806
10
-296.29030345783133
20
99.751751159957806
10
-296.29030345783133
20
98.752661159957825
10
-295.48950345783135
20
98.752661159957825
10
-295.48950345783135
20
95.652101159957823
10
-296.29030345783133
20
95.652101159957823
10
-296.29030345783133
20
89.850591159957844
10
-295.48950345783135
20
89.850591159957844
10
-295.48950345783135
20
86.752691159957863
10
-296.29030345783133
20
86.752691159957863
10
-296.29030345783133
20
85.752291159957878
10
-310.28960345783133
20
85.752291159957878
10
-310.28960345783133
20
86.752691159957863
10
-311.09040345783126
20
86.752691159957863
10
-311.09040345783126
20
89.850591159957844
0
LWPOLYLINE
5
168
100
AcDbEntity
8
0
100
AcDbPolyline
90
20
70
1
43
0.0
10
-289.53854282952432
20
66.702291159957866
10
-289.53854282952432
20
67.702691159957851
10
-290.33934282952424
20
67.702691159957851
10
-290.33934282952424
20
70.800591159957833
10
-289.53854282952432
20
70.800591159957833
10
-289.53854282952432
20
76.602101159957812
10
-290.33934282952424
20
76.602101159957812
10
-290.33934282952424
20
79.702661159957799
10
-289.53854282952432
20
79.702661159957799
10
-289.53854282952432
20
80.701751159957794
10
-275.53924282952431
20
80.701751159957794
10
-275.53924282952431
20
79.702661159957799
10
-274.73844282952433
20
79.702661159957799
10
-274.73844282952433
20
76.602101159957812
10
-275.53924282952431
20
76.602101159957812
10
-275.53924282952431
20
70.800591159957833
10
-274.73844282952433
20
70.800591159957833
10
-274.73844282952433
20
67.702691159957851
10
-275.53924282952431
20
67.702691159957851
10
-275.53924282952431
20
66.702291159957866
0
LWPOLYLINE
5
169
100
AcDbEntity
8
0
100
AcDbPolyline
90
20
70
1
43
0.0
10
-283.57558943763399
20
47.652291159957805
10
-283.57558943763399
20
48.652691159957797
10
-284.37638943763397
20
48.652691159957797
10
-284.37638943763397
20
51.750591159957779
10
-283.57558943763399
20
51.750591159957779
10
-283.57558943763399
20
57.552101159957758
10
-284.37638943763397
20
57.552101159957758
10
-284.37638943763397
20
60.652661159957745
10
-283.57558943763399
20
60.652661159957745
10
-283.57558943763399
20
61.651751159957726
10
-269.57628943763405
20
61.651751159957726
10
-269.57628943763405
20
60.652661159957745
10
-268.77548943763401
20
60.652661159957745
10
-268.77548943763401
20
57.552101159957758
10
-269.57628943763405
20
57.552101159957758
10
-269.57628943763405
20
51.750591159957779
10
-268.77548943763401
20
51.750591159957779
10
-268.77548943763401
20
48.652691159957797
10
-269.57628943763405
20
48.652691159957797
10
-269.57628943763405
20
47.652291159957805
0
LWPOLYLINE
5
170
100
AcDbEntity
8
0
100
AcDbPolyline
90
20
70
1
43
0.0
10
-245.64712024222035
20
32.182705903615343
10
-246.85332199561651
20
37.857438990748498
10
-247.63662259428406
20
37.690943308741637
10
-248.28126526636598
20
40.723748633672827
10
-247.4979646676984
20
40.890244315679681
10
-247.70568715887751
20
41.867501802096818
10
-234.01230545192476
20
44.778119935361865
10
-233.80458296074565
20
43.800862448944727
10
-233.02128236207801
20
43.967358130951595
10
-232.3766396899961
20
40.93455280602042
10
-233.15994028866373
20
40.768057124013538
10
-231.9537385352676
20
35.093324036880389
10
-231.17043793659997
20
35.259819718887258
10
-230.52634830961563
20
32.229616266574013
10
-231.30964890828326
20
32.063120584567145
10
-231.1016540527892
20
31.084581724793061
10
-244.79503575974195
20
28.173963591528015
10
-245.00303061523601
20
29.152502451302098
10
-245.78633121390362
20
28.986006769295241
10
-246.43042084088793
20
32.016210221608489
0
LWPOLYLINE
5
171
100
AcDbEntity
8
0
100
AcDbPolyline
90
20
70
1
43
0.0
10
-186.28050564235824
20
60.087199253194811
10
-186.48850049785233
20
61.065738112968901
10
-187.27180109651997
20
60.899242430962047
10
-187.9158907235043
20
63.929445883275292
10
-187.13259012483667
20
64.095941565282146
10
-188.33879187823283
20
69.770674652415295
10
-189.12209247690041
20
69.604178970408441
10
-189.76673514898235
20
72.63698429533963
10
-188.98343455031471
20
72.803479977346498
10
-189.19115704149385
20
73.780737463763614
10
-175.49777533454113
20
76.691355597028675
10
-175.29005284336199
20
75.714098110611545
10
-174.50675224469435
20
75.880593792618413
10
-173.86210957261244
20
72.847788467687209
10
-174.6454101712801
20
72.681292785680341
10
-173.43920841788395
20
67.006559698547193
10
-172.65590781921631
20
67.173055380554061
10
-172.01181819223197
20
64.142851928240816
10
-172.79511879089961
20
63.976356246233962
10
-172.58712393540551
20
62.997817386459865
0
LWPOLYLINE
5
172
100
AcDbEntity
8
0
100
AcDbPolyline
90
20
70
1
43
0.0
10
-248.05804323140379
20
66.431566607005578
10
-248.26603808689785
20
67.410105466779683
10
-249.04933868556543
20
67.243609784772829
10
-249.69342831254977
20
70.273813237086074
10
-248.91012771388219
20
70.440308919092928
10
-250.11632946727832
20
76.115042006226076
10
-250.8996300659459
20
75.948546324219222
10
-251.54427273802781
20
78.981351649150412
10
-250.76097213936023
20
79.147847331157266
10
-250.96869463053935
20
80.125104817574396
10
-237.27531292358663
20
83.035722950839457
10
-237.06759043240751
20
82.058465464422312
10
-236.28428983373988
20
82.224961146429195
10
-235.63964716165796
20
79.192155821498005
10
-236.4229477603256
20
79.025660139491137
10
-235.21674600692947
20
73.350927052357974
10
-234.43344540826183
20
73.517422734364843
10
-233.78935578127749
20
70.487219282051598
10
-234.57265637994513
20
70.320723600044744
10
-234.36466152445107
20
69.342184740270639
0
LWPOLYLINE
5
173
100
AcDbEntity
8
0
100
AcDbPolyline
90
20
70
1
43
0.0
10
-187.65285414503407
20
102.93653269834604
10
-188.8590558984302
20
108.61126578547918
10
-189.64235649709778
20
108.44477010347234
10
-190.28699916917969
20
111.47757542840353
10
-189.50369857051211
20
111.64407111041037
10
-189.71142106169123
20
112.62132859682751
10
-176.01803935473845
20
115.53194673009256
10
-175.81031686355936
20
114.55468924367543
10
-175.0270162648917
20
114.72118492568229
10
-174.38237359280978
20
111.68837960075111
10
-175.16567419147745
20
111.52188391874424
10
-173.95947243808132
20
105.84715083161107
10
-173.17617183941366
20
106.01364651361794
10
-172.53208221242932
20
102.98344306130471
10
-173.31538281109698
20
102.81694737929783
10
-173.10738795560292
20
101.83840851952374
10
-186.80076966255567
20
98.927790386258678
10
-187.00876451804973
20
99.906329246032783
10
-187.79206511671731
20
99.739833564025929
10
-188.43615474370165
20
102.77003701633917
0
LWPOLYLINE
5
174
100
AcDbEntity
8
0
100
AcDbPolyline
90
20
70
1
43
0.0
10
-246.7865407043395
20
106.26233716758911
10
-246.99453555983357
20
107.24087602736321
10
-247.77783615850115
20
107.07438034535636
10
-248.42192578548548
20
110.10458379766959
10
-247.6386251868179
20
110.27107947967643
10
-248.84482694021403
20
115.94581256680961
10
-249.62812753888161
20
115.77931688480275
10
-250.27277021096353
20
118.81212220973394
10
-249.48946961229595
20
118.9786178917408
10
-249.69719210347506
20
119.95587537815791
10
-236.00381039652231
20
122.86649351142299
10
-235.7960879053432
20
121.88923602500583
10
-235.01278730667553
20
122.05573170701271
10
-234.36814463459365
20
119.02292638208152
10
-235.15144523326128
20
118.85643070007464
10
-233.94524347986516
20
113.18169761294151
10
-233.16194288119749
20
113.34819329494836
10
-232.51785325421315
20
110.31798984263514
10
-233.30115385288082
20
110.15149416062826
10
-233.09315899738675
20
109.17295530085418
0
LWPOLYLINE
5
175
100
AcDbEntity
8
0
100
AcDbPolyline
90
20
70
1
43
0.0
10
-117.90748505153115
20
54.729110805663666
10
-131.60086675848385
20
57.639728938928712
10
-131.39287190298975
20
58.618267798702789
10
-132.17617250165739
20
58.784763480709671
10
-131.53208287467305
20
61.814966933022916
10
-130.74878227600544
20
61.648471251016034
10
-129.54258052260928
20
67.32320433814921
10
-130.32588112127689
20
67.489700020156079
10
-129.68123844919501
20
70.522505345087239
10
-128.8979378505274
20
70.356009663080386
10
-128.69021535934826
20
71.33326714949753
10
-114.99683365239557
20
68.422649016232469
10
-115.20455614357468
20
67.445391529815339
10
-114.42125554490701
20
67.278895847808485
10
-115.06589821698893
20
64.246090522877296
10
-115.84919881565659
20
64.412586204884178
10
-117.05540056905272
20
58.737853117751001
10
-116.27209997038506
20
58.571357435744119
10
-116.9161895973694
20
55.541153983430888
10
-117.69949019603706
20
55.707649665437756
0
LWPOLYLINE
5
176
100
AcDbEntity
8
0
100
AcDbPolyline
90
20
70
1
43
0.0
10
-137.65471518381145
20
97.87769080944544
10
-137.44672032831738
20
98.856229669219516
10
-138.23002092698499
20
99.022725351226399
10
-137.58593130000068
20
102.0529288035396
10
-136.80263070133304
20
101.88643312153276
10
-135.59642894793689
20
107.56116620866594
10
-136.37972954660452
20
107.72766189067278
10
-135.73508687452264
20
110.76046721560397
10
-134.951786275855
20
110.59397153359713
10
-134.74406378467589
20
111.57122902001424
10
-121.0506820777232
20
108.6606108867492
10
-121.25840456890231
20
107.68335340033207
10
-120.47510397023466
20
107.51685771832521
10
-121.11974664231656
20
104.48405239339402
10
-121.90304724098422
20
104.65054807540088
10
-123.10924899438035
20
98.9758149882677
10
-122.3259483957127
20
98.809319306260846
10
-122.97003802269703
20
95.779115853947602
10
-123.75333862136469
20
95.945611535954484
10
-123.96133347685875
20
94.967072676180408
0
LWPOLYLINE
5
177
100
AcDbEntity
8
0
100
AcDbPolyline
90
20
70
1
43
0.0
10
-78.349261475561946
20
85.752291159957878
10
-78.349261475561946
20
86.752691159957863
10
-79.150061475561927
20
86.752691159957863
10
-79.150061475561927
20
89.85059115995783
10
-78.349261475561946
20
89.85059115995783
10
-78.349261475561946
20
95.652101159957823
10
-79.150061475561927
20
95.652101159957823
10
-79.150061475561927
20
98.752661159957796
10
-78.349261475561946
20
98.752661159957796
10
-78.349261475561946
20
99.751751159957792
10
-64.349961475561997
20
99.751751159957792
10
-64.349961475561997
20
98.752661159957796
10
-63.549161475561974
20
98.752661159957796
10
-63.549161475561974
20
95.652101159957823
10
-64.349961475561997
20
95.652101159957823
10
-64.349961475561997
20
89.85059115995783
10
-63.549161475561974
20
89.85059115995783
10
-63.549161475561974
20
86.752691159957863
10
-64.349961475561997
20
86.752691159957863
10
-64.349961475561997
20
85.752291159957878
0
LWPOLYLINE
5
178
100
AcDbEntity
8
0
100
AcDbPolyline
90
20
70
1
43
0.0
10
-46.712822103869456
20
66.702291159957852
10
-46.712822103869456
20
67.702691159957851
10
-47.513622103869444
20
67.702691159957851
10
-47.513622103869444
20
70.800591159957833
10
-46.712822103869456
20
70.800591159957833
10
-46.712822103869456
20
76.602101159957812
10
-47.513622103869444
20
76.602101159957812
10
-47.513622103869444
20
79.702661159957785
10
-46.712822103869456
20
79.702661159957785
10
-46.712822103869456
20
80.70175115995778
10
-32.713522103869515
20
80.70175115995778
10
-32.713522103869515
20
79.702661159957785
10
-31.912722103869491
20
79.702661159957785
10
-31.912722103869491
20
76.602101159957812
10
-32.713522103869515
20
76.602101159957812
10
-32.713522103869515
20
70.800591159957833
10
-31.912722103869491
20
70.800591159957833
10
-31.912722103869491
20
67.702691159957851
10
-32.713522103869515
20
67.702691159957851
10
-32.713522103869515
20
66.702291159957852
0
LWPOLYLINE
5
179
100
AcDbEntity
8
0
100
AcDbPolyline
90
20
70
1
43
0.0
10
-72.208861865453073
20
47.652291159957855
10
-72.208861865453073
20
48.65269115995784
10
-73.009661865453069
20
48.65269115995784
10
-73.009661865453069
20
51.750591159957828
10
-72.208861865453073
20
51.750591159957828
10
-72.208861865453073
20
57.552101159957807
10
-73.009661865453069
20
57.552101159957807
10
-73.009661865453069
20
60.652661159957795
10
-72.208861865453073
20
60.652661159957795
10
-72.208861865453073
20
61.651751159957783
10
-58.209561865453132
20
61.651751159957783
10
-58.209561865453132
20
60.652661159957795
10
-57.408761865453108
20
60.652661159957795
10
-57.408761865453108
20
57.552101159957807
10
-58.209561865453132
20
57.552101159957807
10
-58.209561865453132
20
51.750591159957828
10
-57.408761865453108
20
51.750591159957828
10
-57.408761865453108
20
48.65269115995784
10
-58.209561865453132
20
48.65269115995784
10
-58.209561865453132
20
47.652291159957855
0
LWPOLYLINE
5
180
100
AcDbEntity
8
0
100
AcDbPolyline
90
20
70
1
43
0.0
10
-66.857373741620748
20
28.602291159957836
10
-66.857373741620748
20
29.602691159957821
10
-67.658173741620743
20
29.602691159957821
10
-67.658173741620743
20
32.70059115995781
10
-66.857373741620748
20
32.70059115995781
10
-66.857373741620748
20
38.502101159957789
10
-67.658173741620743
20
38.502101159957789
10
-67.658173741620743
20
41.602661159957762
10
-66.857373741620748
20
41.602661159957762
10
-66.857373741620748
20
42.601751159957757
10
-52.858073741620814
20
42.601751159957757
10
-52.858073741620814
20
41.602661159957762
10
-52.05727374162079
20
41.602661159957762
10
-52.05727374162079
20
38.502101159957789
10
-52.858073741620814
20
38.502101159957789
10
-52.858073741620814
20
32.70059115995781
10
-52.05727374162079
20
32.70059115995781
10
-52.05727374162079
20
29.602691159957821
10
-52.858073741620814
20
29.602691159957821
10
-52.858073741620814
20
28.602291159957836
0
LWPOLYLINE
5
181
100
AcDbEntity
8
0
100
AcDbPolyline
90
20
70
1
43
0.0
10
-85.907373741620745
20
27.287808805395336
10
-85.907373741620745
20
28.288208805395321
10
-86.708173741620726
20
28.288208805395321
10
-86.708173741620726
20
31.38610880539531
10
-85.907373741620745
20
31.38610880539531
10
-85.907373741620745
20
37.187618805395289
10
-86.708173741620726
20
37.187618805395289
10
-86.708173741620726
20
40.288178805395276
10
-85.907373741620745
20
40.288178805395276
10
-85.907373741620745
20
41.287268805395257
10
-71.908073741620811
20
41.287268805395257
10
-71.908073741620811
20
40.288178805395276
10
-71.107273741620787
20
40.288178805395276
10
-71.107273741620787
20
37.187618805395289
10
-71.908073741620811
20
37.187618805395289
10
-71.908073741620811
20
31.38610880539531
10
-71.107273741620787
20
31.38610880539531
10
-71.107273741620787
20
28.288208805395321
10
-71.908073741620811
20
28.288208805395321
10
-71.908073741620811
20
27.287808805395336
0
LWPOLYLINE
5
182
100
AcDbEntity
8
0
100
AcDbPolyline
90
20
70
1
43
0.0
10
-94.33344317052584
20
49.718293518772086
10
-94.125448315031747
20
50.696832378546176
10
-94.908748913699355
20
50.863328060553037
10
-94.26465928671503
20
53.893531512866282
10
-93.481358688047408
20
53.727035830859421
10
-92.275156934651278
20
59.401768917992577
10
-93.058457533318915
20
59.568264599999445
10
-92.413814861237
20
62.601069924930634
10
-91.630514262569363
20
62.434574242923766
10
-91.422791771390251
20
63.411831729340904
10
-77.729410064437559
20
60.501213596075864
10
-77.937132555616671
20
59.52395610965872
10
-77.153831956949006
20
59.357460427651858
10
-77.79847462903092
20
56.324655102720669
10
-78.581775227698586
20
56.49115078472753
10
-79.787976981094715
20
50.816417697594368
10
-79.00467638242705
20
50.649922015587514
10
-79.648766009411389
20
47.619718563274269
10
-80.43206660807904
20
47.786214245281123
10
-80.640061463573133
20
46.807675385507046
0
LWPOLYLINE
5
183
100
AcDbEntity
8
0
100
AcDbPolyline
90
20
70
1
43
0.0
10
-95.031153408942288
20
69.342184740270653
10
-94.823158553448209
20
70.320723600044758
10
-95.606459152115832
20
70.487219282051612
10
-94.962369525131507
20
73.517422734364857
10
-94.17906892646387
20
73.350927052358003
10
-92.972867173067755
20
79.025660139491151
10
-93.756167771735363
20
79.192155821498019
10
-93.111525099653463
20
82.224961146429209
10
-92.32822450098584
20
82.058465464422341
10
-92.120502009806728
20
83.035722950839471
10
-78.427120302854007
20
80.125104817574439
10
-78.634842794033119
20
79.147847331157308
10
-77.851542195365468
20
78.98135164915044
10
-78.496184867447369
20
75.948546324219251
10
-79.279485466115034
20
76.115042006226119
10
-80.485687219511163
20
70.440308919092956
10
-79.702386620843512
20
70.273813237086088
10
-80.346476247827852
20
67.243609784772843
10
-81.129776846495503
20
67.410105466779711
10
-81.337771701989595
20
66.431566607005621
0
LWPOLYLINE
5
184
100
AcDbEntity
8
0
100
AcDbPolyline
90
20
70
1
43
0.0
10
-68.82426147556194
20
108.90059115995784
10
-68.82426147556194
20
114.70210115995783
10
-69.625061475561935
20
114.70210115995783
10
-69.625061475561935
20
117.80266115995781
10
-68.82426147556194
20
117.80266115995781
10
-68.82426147556194
20
118.8017511599578
10
-54.824961475562006
20
118.8017511599578
10
-54.824961475562006
20
117.80266115995781
10
-54.024161475561982
20
117.80266115995781
10
-54.024161475561982
20
114.70210115995783
10
-54.824961475562006
20
114.70210115995783
10
-54.824961475562006
20
108.90059115995784
10
-54.024161475561982
20
108.90059115995784
10
-54.024161475561982
20
105.80269115995787
10
-54.824961475562006
20
105.80269115995787
10
-54.824961475562006
20
104.80229115995789
10
-68.82426147556194
20
104.80229115995789
10
-68.82426147556194
20
105.80269115995787
10
-69.625061475561935
20
105.80269115995787
10
-69.625061475561935
20
108.90059115995784
0
LWPOLYLINE
5
185
100
AcDbEntity
8
0
100
AcDbPolyline
90
20
70
1
43
0.0
10
-153.58549806983402
20
114.55468924367538
10
-153.37777557865491
20
115.53194673009253
10
-139.68439387170221
20
112.62132859682748
10
-139.89211636288132
20
111.64407111041035
10
-139.10881576421366
20
111.47757542840347
10
-139.75345843629557
20
108.44477010347232
10
-140.53675903496324
20
108.61126578547918
10
-141.74296078835937
20
102.936532698346
10
-140.9596601896917
20
102.77003701633915
10
-141.60374981667604
20
99.739833564025901
10
-142.38705041534371
20
99.906329246032769
10
-142.5950452708378
20
98.927790386258678
10
-156.28842697779049
20
101.83840851952374
10
-156.0804321222964
20
102.81694737929782
10
-156.86373272096401
20
102.98344306130468
10
-156.2196430939797
20
106.0136465136179
10
-155.43634249531206
20
105.84715083161106
10
-154.23014074191593
20
111.52188391874424
10
-155.01344134058354
20
111.68837960075108
10
-154.36879866850165
20
114.72118492568227
0
LWPOLYLINE
5
186
100
AcDbEntity
8
0
100
AcDbPolyline
90
20
70
1
43
0.0
10
-150.23457855246284
20
61.600446649007026
10
-150.02658369696877
20
62.578985508781116
10
-150.80988429563638
20
62.745481190787977
10
-150.16579466865204
20
65.775684643101215
10
-149.38249406998443
20
65.609188961094361
10
-148.1762923165883
20
71.283922048227524
10
-148.95959291525591
20
71.450417730234392
10
-148.314950243174
20
74.483223055165581
10
-147.53164964450639
20
74.316727373158713
10
-147.32392715332728
20
75.293984859575843
10
-133.63054544637458
20
72.383366726310797
10
-133.83826793755367
20
71.406109239893681
10
-133.054967338886
20
71.239613557886798
10
-133.69961001096792
20
68.206808232955609
10
-134.48291060963558
20
68.373303914962491
10
-135.68911236303171
20
62.698570827829329
10
-134.90581176436405
20
62.532075145822468
10
-135.54990139134839
20
59.501871693509223
10
-136.33320199001605
20
59.668367375516084
10
-136.54119684551014
20
58.689828515741986
0
LWPOLYLINE
5
187
100
AcDbEntity
8
0
100
AcDbPolyline
90
20
70
1
43
0.0
10
-144.87844036555165
20
40.986375999988866
10
-144.67044551005756
20
41.964914859762956
10
-145.4537461087252
20
42.13141054176981
10
-144.80965648174083
20
45.161613994083048
10
-144.02635588307322
20
44.995118312076194
10
-142.82015412967709
20
50.66985139920935
10
-143.60345472834473
20
50.836347081216211
10
-142.95881205626281
20
53.869152406147393
10
-142.17551145759521
20
53.702656724140553
10
-141.96778896641607
20
54.679914210557676
10
-128.27440725946337
20
51.769296077292637
10
-128.48212975064251
20
50.792038590875492
10
-127.69882915197485
20
50.625542908868638
10
-128.34347182405676
20
47.592737583937449
10
-129.1267724227244
20
47.759233265944303
10
-130.33297417612056
20
42.08450017881114
10
-129.54967357745289
20
41.918004496804286
10
-130.19376320443723
20
38.887801044491042
10
-130.97706380310487
20
39.054296726497903
10
-131.18505865859896
20
38.075757866723819
0
LWPOLYLINE
5
188
100
AcDbEntity
8
0
100
AcDbPolyline
90
20
70
1
43
0.0
10
-206.28656593901303
20
98.9758149882677
10
-207.49276769240919
20
104.65054807540085
10
-208.27606829107677
20
104.48405239339401
10
-208.92071096315868
20
107.51685771832521
10
-208.13741036449107
20
107.68335340033207
10
-208.34513285567022
20
108.66061088674918
10
-194.65175114871744
20
111.57122902001421
10
-194.44402865753833
20
110.59397153359711
10
-193.66072805887069
20
110.760467215604
10
-193.01608538678877
20
107.72766189067278
10
-193.79938598545641
20
107.56116620866592
10
-192.59318423206028
20
101.88643312153275
10
-191.80988363339264
20
102.05292880353963
10
-191.1657940064083
20
99.02272535122637
10
-191.94909460507597
20
98.856229669219502
10
-191.74109974958188
20
97.877690809445426
10
-205.43448145653463
20
94.967072676180379
10
-205.64247631202872
20
95.94561153595447
10
-206.4257769106963
20
95.779115853947602
10
-207.06986653768064
20
98.809319306260846
0
LWPOLYLINE
5
189
100
AcDbEntity
8
0
100
AcDbPolyline
90
20
70
1
43
0.0
10
-229.42433143742483
20
70.39228431708392
10
-229.63232629291892
20
71.370823176858011
10
-230.4156268915865
20
71.204327494851157
10
-231.05971651857084
20
74.234530947164401
10
-230.27641591990323
20
74.401026629171255
10
-231.48261767329939
20
80.075759716304418
10
-232.26591827196697
20
79.909264034297564
10
-232.91056094404888
20
82.942069359228739
10
-232.12726034538127
20
83.108565041235607
10
-232.33498283656041
20
84.085822527652738
10
-218.64160112960764
20
86.996440660917784
10
-218.43387863842852
20
86.01918317450064
10
-217.65057803976089
20
86.185678856507508
10
-217.00593536767897
20
83.152873531576319
10
-217.78923596634661
20
82.986377849569465
10
-216.58303421295048
20
77.311644762436316
10
-215.79973361428284
20
77.47814044444317
10
-215.1556439872985
20
74.447936992129925
10
-215.93894458596617
20
74.281441310123057
10
-215.73094973047208
20
73.302902450348981
0
LWPOLYLINE
5
190
100
AcDbEntity
8
0
100
AcDbPolyline
90
20
70
1
43
0.0
10
-204.91421743633725
20
56.126481543116491
10
-205.12221229183132
20
57.105020402890581
10
-205.90551289049895
20
56.938524720883727
10
-206.54960251748327
20
59.968728173196972
10
-205.76630191881571
20
60.135223855203826
10
-206.97250367221184
20
65.809956942336981
10
-207.75580427087942
20
65.643461260330128
10
-208.40044694296131
20
68.676266585261317
10
-207.61714634429376
20
68.842762267268171
10
-207.82486883547284
20
69.820019753685301
10
-194.13148712852009
20
72.730637886950348
10
-193.92376463734098
20
71.753380400533217
10
-193.14046403867334
20
71.9198760825401
10
-192.49582136659143
20
68.887070757608896
10
-193.27912196525909
20
68.720575075602028
10
-192.07292021186294
20
63.045841988468879
10
-191.2896196131953
20
63.212337670475748
10
-190.64552998621096
20
60.182134218162503
10
-191.4288305848786
20
60.015638536155635
10
-191.2208357293845
20
59.037099676381537
0
LWPOLYLINE
5
191
100
AcDbEntity
8
0
100
AcDbPolyline
90
20
70
1
43
0.0
10
-228.86425287371935
20
44.850962025757994
10
-229.07197536489846
20
45.828219512175117
10
-215.37859365794574
20
48.738837645440178
10
-215.17087116676663
20
47.761580159023048
10
-214.38757056809894
20
47.928075841029916
10
-213.74292789601702
20
44.895270516098726
10
-214.52622849468472
20
44.728774834091858
10
-213.32002674128859
20
39.054041746958703
10
-212.53672614262089
20
39.220537428965571
10
-211.89263651563658
20
36.190333976652326
10
-212.67593711430425
20
36.023838294645458
10
-212.46794225881018
20
35.045299434871374
10
-226.1613239657629
20
32.134681301606321
10
-226.36931882125697
20
33.113220161380397
10
-227.15261941992455
20
32.946724479373557
10
-227.79670904690889
20
35.976927931686802
10
-227.01340844824131
20
36.143423613693649
10
-228.21961020163744
20
41.818156700826805
10
-229.00291080030502
20
41.651661018819951
10
-229.64755347238693
20
44.68446634375114
0
LWPOLYLINE
5
192
100
AcDbEntity
8
0
100
AcDbPolyline
90
20
70
1
43
0.0
10
-264.52558943763398
20
59.912070026893801
10
-264.52558943763398
20
60.911160026893796
10
-250.52628943763403
20
60.911160026893796
10
-250.52628943763403
20
59.912070026893801
10
-249.725489437634
20
59.912070026893801
10
-249.725489437634
20
56.811510026893828
10
-250.52628943763403
20
56.811510026893828
10
-250.52628943763403
20
51.010000026893856
10
-249.725489437634
20
51.010000026893856
10
-249.725489437634
20
47.91210002689386
10
-250.52628943763403
20
47.91210002689386
10
-250.52628943763403
20
46.911700026893882
10
-264.52558943763398
20
46.911700026893882
10
-264.52558943763398
20
47.91210002689386
10
-265.32638943763396
20
47.91210002689386
10
-265.32638943763396
20
51.010000026893856
10
-264.52558943763398
20
51.010000026893856
10
-264.52558943763398
20
56.811510026893828
10
-265.32638943763396
20
56.811510026893828
10
-265.32638943763396
20
59.912070026893801
0
LWPOLYLINE
5
193
100
AcDbEntity
8
0
100
AcDbPolyline
90
20
70
1
43
0.0
10
-284.09585345783137
20
85.752291159957878
10
-284.09585345783137
20
86.752691159957863
10
-284.89665345783129
20
86.752691159957863
10
-284.89665345783129
20
89.850591159957844
10
-284.09585345783137
20
89.850591159957844
10
-284.09585345783137
20
95.652101159957823
10
-284.89665345783129
20
95.652101159957823
10
-284.89665345783129
20
98.752661159957825
10
-284.09585345783137
20
98.752661159957825
10
-284.09585345783137
20
99.751751159957806
10
-270.09655345783136
20
99.751751159957806
10
-270.09655345783136
20
98.752661159957825
10
-269.29575345783132
20
98.752661159957825
10
-269.29575345783132
20
95.652101159957823
10
-270.09655345783136
20
95.652101159957823
10
-270.09655345783136
20
89.850591159957844
10
-269.29575345783132
20
89.850591159957844
10
-269.29575345783132
20
86.752691159957863
10
-270.09655345783136
20
86.752691159957863
10
-270.09655345783136
20
85.752291159957878
0
LWPOLYLINE
5
194
100
AcDbEntity
8
0
100
AcDbPolyline
90
20
70
1
43
0.0
10
-336.48335345783124
20
104.80229115995789
10
-336.48335345783124
20
105.80269115995787
10
-337.28415345783117
20
105.80269115995787
10
-337.28415345783117
20
108.90059115995786
10
-336.48335345783124
20
108.90059115995786
10
-336.48335345783124
20
114.70210115995783
10
-337.28415345783117
20
114.70210115995783
10
-337.28415345783117
20
117.80266115995784
10
-336.48335345783124
20
117.80266115995784
10
-336.48335345783124
20
118.80175115995782
10
-322.48405345783124
20
118.80175115995782
10
-322.48405345783124
20
117.80266115995784
10
-321.68325345783126
20
117.80266115995784
10
-321.68325345783126
20
114.70210115995783
10
-322.48405345783124
20
114.70210115995783
10
-322.48405345783124
20
108.90059115995786
10
-321.68325345783126
20
108.90059115995786
10
-321.68325345783126
20
105.80269115995787
10
-322.48405345783124
20
105.80269115995787
10
-322.48405345783124
20
104.80229115995789
0
LWPOLYLINE
5
195
100
AcDbEntity
8
0
100
AcDbPolyline
90
20
70
1
43
0.0
10
-353.52465515580178
20
58.425641206994037
10
-353.52465515580178
20
59.424731206994032
10
-339.52535515580178
20
59.424731206994032
10
-339.52535515580178
20
58.425641206994037
10
-338.7245551558018
20
58.425641206994037
10
-338.7245551558018
20
55.325081206994057
10
-339.52535515580178
20
55.325081206994057
10
-339.52535515580178
20
49.523571206994092
10
-338.7245551558018
20
49.523571206994092
10
-338.7245551558018
20
46.425671206994096
10
-339.52535515580178
20
46.425671206994096
10
-339.52535515580178
20
45.425271206994111
10
-353.52465515580178
20
45.425271206994111
10
-353.52465515580178
20
46.425671206994096
10
-354.32545515580171
20
46.425671206994096
10
-354.32545515580171
20
49.523571206994092
10
-353.52465515580178
20
49.523571206994092
10
-353.52465515580178
20
55.325081206994057
10
-354.32545515580171
20
55.325081206994057
10
-354.32545515580171
20
58.425641206994037
0
CIRCLE
5
196
100
AcDbEntity
8
0
100
AcDbCircle
10
-326.90088535786185
20
45.127021159957735
30
0
40
0.75000000000002842
210
0
220
-0
230
1
0
CIRCLE
5
197
100
AcDbEntity
8
0
100
AcDbCircle
10
-136.68919567271763
20
114.56636560012595
30
0
40
0.74999999999999289
210
0
220
-0
230
1
0
CIRCLE
5
198
100
AcDbEntity
8
0
100
AcDbCircle
10
-47.537111475561922
20
111.80202115995783
30
0
40
0.75000000000000178
210
0
220
-0
230
1
0
CIRCLE
5
199
100
AcDbEntity
8
0
100
AcDbCircle
10
-225.31561490013877
20
107.63510960748889
30
0
40
0.74999999999999289
210
0
220
-0
230
1
0
CIRCLE
5
200
100
AcDbEntity
8
0
100
AcDbCircle
10
-244.12677291233695
20
45.209909542848159
30
0
40
0.74999999999999289
210
0
220
-0
230
1
0
CIRCLE
5
201
100
AcDbEntity
8
0
100
AcDbCircle
10
-134.59606495746834
20
55.694691935630232
30
0
40
0.74999999999999289
210
0
220
-0
230
1
0
CIRCLE
5
202
100
AcDbEntity
8
0
100
AcDbCircle
10
-55.684211865453044
20
45.127021159957806
30
0
40
0.75000000000000178
210
0
220
-0
230
1
0
CIRCLE
5
203
100
AcDbEntity
8
0
100
AcDbCircle
10
-319.95870345783123
20
102.27702115995783
30
0
40
0.74999999999999289
210
0
220
-0
230
1
0
ENDSEC
0
SECTION
2
OBJECTS
0
DICTIONARY
5
C
100
AcDbDictionary
3
ACAD_GROUP
350
D
3
ACAD_MLINESTYLE
350
17
0
DICTIONARY
5
D
100
AcDbDictionary
0
DICTIONARY
5
1A
330
C
100
AcDbDictionary
0
DICTIONARY
5
17
100
AcDbDictionary
0
ENDSEC
0
EOF
