0
SECTION
2
HEADER
9
$INSUNITS
70
4
9
$ACADVER
1
AC1014
9
$HANDSEED
5
FFFF
0
ENDSEC
0
SECTION
2
TABLES
0
TABLE
2
VPORT
5
8
100
AcDbSymbolTable
0
ENDTAB
0
TABLE
2
LTYPE
5
5
100
AcDbSymbolTable
0
LTYPE
5
14
100
AcDbSymbolTableRecord
100
AcDbLinetypeTableRecord
2
BYBLOCK
70
0
0
LTYPE
5
15
100
AcDbSymbolTableRecord
100
AcDbLinetypeTableRecord
2
BYLAYER
70
0
0
ENDTAB
0
TABLE
2
LAYER
5
2
100
AcDbSymbolTable
70
2
0
LAYER
5
50
100
AcDbSymbolTableRecord
100
AcDbLayerTableRecord
2
0
70
0
6
CONTINUOUS
0
ENDTAB
0
TABLE
2
STYLE
5
3
100
AcDbSymbolTable
70
1
0
STYLE
5
11
100
AcDbSymbolTableRecord
100
AcDbTextStyleTableRecord
2
STANDARD
70
0
0
ENDTAB
0
TABLE
2
VIEW
5
6
100
AcDbSymbolTable
70
0
0
ENDTAB
0
TABLE
2
UCS
5
7
100
AcDbSymbolTable
70
0
0
ENDTAB
0
TABLE
2
APPID
5
9
100
AcDbSymbolTable
70
2
0
APPID
5
12
100
AcDbSymbolTableRecord
100
AcDbRegAppTableRecord
2
ACAD
70
0
0
ENDTAB
0
TABLE
2
DIMSTYLE
5
A
100
AcDbSymbolTable
70
1
0
ENDTAB
0
TABLE
2
BLOCK_RECORD
5
1
100
AcDbSymbolTable
70
1
0
BLOCK_RECORD
5
1F
100
AcDbSymbolTableRecord
100
AcDbBlockTableRecord
2
*MODEL_SPACE
0
BLOCK_RECORD
5
1B
100
AcDbSymbolTableRecord
100
AcDbBlockTableRecord
2
*PAPER_SPACE
0
ENDTAB
0
ENDSEC
0
SECTION
2
BLOCKS
0
BLOCK
5
20
100
AcDbEntity
100
AcDbBlockBegin
2
*MODEL_SPACE
0
ENDBLK
5
21
100
AcDbEntity
100
AcDbBlockEnd
0
BLOCK
5
1C
100
AcDbEntity
100
AcDbBlockBegin
2
*PAPER_SPACE
0
ENDBLK
5
1D
100
AcDbEntity
100
AcDbBlockEnd
0
ENDSEC
0
SECTION
2
ENTITIES
0
LWPOLYLINE
5
100
100
AcDbEntity
8
0
100
AcDbPolyline
90
57
70
1
43
0.0
10
-94.158032319818119
20
107.05959864630516
42
0.41421356237309503
10
-93.233749227918864
20
105.63632749644327
10
-80.851930487548316
20
103.00449067776864
42
-0.11820535131973957
10
-80.515177506200189
20
102.84399202229208
42
0.17167664682207118
10
-79.760554005196724
20
102.57702115995784
10
-77.612111475561932
20
102.57702115995782
42
0.41421356237309503
10
-76.412111475561915
20
103.77702115995783
10
-76.412111475561929
20
120.82702115995784
42
-0.41421356237309503
10
-75.612111475561917
20
121.62702115995783
10
-19.462111475561919
20
121.62702115995783
42
-0.41421356237309503
10
-18.662111475561922
20
120.82702115995784
10
-18.662111475561925
20
83.727021159957815
42
-0.41421356237309426
10
-19.462111475561922
20
82.927021159957818
10
-21.544422103869429
20
82.927021159957818
42
0.41421356237309503
10
-22.744422103869439
20
81.727021159957815
10
-22.744422103869425
20
64.677021159957803
42
-0.41421356237310641
10
-23.544422103869429
20
63.877021159957799
10
-25.609211865453041
20
63.877021159957799
42
0.41421356237309503
10
-26.809211865453044
20
62.677021159957803
10
-26.809211865453037
20
45.62702115995782
42
-0.41421356237310641
10
-27.609211865453041
20
44.827021159957809
10
-29.782723741620707
20
44.827021159957809
42
0.41421356237309503
10
-30.98272374162071
20
43.627021159957806
10
-30.982723741620713
20
26.577021159957781
42
-0.41421356237309825
10
-31.782723741620707
20
25.777021159957783
10
-68.003876872449695
20
25.777021159957783
42
0.31508271291874829
10
-69.131184993952317
20
24.988331747220286
42
-0.31508271291874695
10
-69.882723741620737
20
24.462538805395294
10
-88.279379238357961
20
24.462538805395297
42
-0.14989890125314437
10
-88.727895079961385
20
24.600093683267602
10
-91.898130243157539
20
26.746536678779059
42
0.096731214267916699
10
-92.321409976581364
20
26.926646116468099
10
-166.08065006539357
20
42.60465658113965
42
-0.41421356237307277
10
-166.69683879332641
20
43.553504014380913
10
-162.94403277406582
20
61.20906820762616
42
-0.41421356237308682
10
-161.99518534082458
20
61.825256935558983
10
-154.63462464530269
20
60.260721462155345
42
0.41421356237309764
10
-153.21135349544082
20
61.185004554054601
10
-149.87437085781579
20
76.884273545832187
42
0.4142135623730972
10
-150.79865394971506
20
78.307544695694077
10
-153.50078669674221
20
78.881900741578107
42
-0.4142135623730912
10
-154.11697542467502
20
79.830748174819377
10
-150.57208109623224
20
96.508164767330697
42
0.41421356237309503
10
-151.49636418813148
20
97.931435917192587
10
-158.85692488365339
20
99.49597139059621
42
-0.41421356237310142
10
-159.47311361158623
20
100.44481882383748
10
-151.75958988224733
20
136.73409481106168
42
-0.41421356237310142
10
-150.81074244900609
20
137.35028353899452
10
-128.16050485155515
20
132.5358269142713
10
-128.16040160505881
20
132.5363126508467
10
-118.25669046099813
20
130.43105006565753
10
-118.25676039644783
20
130.43072104523517
10
-105.14959697787332
20
127.6447074557359
10
-105.14956537004423
20
127.64485615888029
10
-95.53929725699939
20
125.60197345682835
10
-91.229327025697771
20
124.68586256050844
42
-0.41421366360495837
10
-90.613138027305311
20
123.7370150697793
0
LWPOLYLINE
5
101
100
AcDbEntity
8
0
100
AcDbPolyline
90
69
70
1
43
0.0
10
-177.89945074526176
20
97.93143591719263
42
0.41421356237309925
10
-178.82373383716103
20
96.508164767330726
10
-175.48666159335409
20
80.808474211611809
42
0.40814594918642672
10
-174.08781062986375
20
79.879264815056004
42
-0.40814594918641833
10
-173.15524332087023
20
79.259791884018853
10
-169.40243730160967
20
61.604227690773627
42
-0.41421356237309137
10
-170.0186260295425
20
60.655380257532372
10
-174.63644327359987
20
59.673832901715009
42
0.4142135623730967
10
-175.56072636549914
20
58.250561751853134
10
-172.01583203705633
20
41.573145159341742
42
-0.41421356237303641
10
-172.63202076498919
20
40.624297726100515
10
-246.61653571556982
20
24.898403611380736
42
-0.062383251103304262
10
-246.81467311986822
20
24.881554287171596
10
-250.68300512348765
20
25.035481134088101
42
0.0099429646133500672
10
-250.73071720095396
20
25.036430026893814
10
-269.25088535786193
20
25.036430026893818
42
-0.2261470077901041
10
-269.87235320814966
20
25.332666480119379
42
0.22614700779007058
10
-270.80455498358128
20
25.777021159957741
10
-291.0258927370744
20
25.777021159957748
10
-291.0258927370744
20
25.776524571738278
10
-301.15089273469317
20
25.776684789023406
10
-301.15089273469317
20
25.777021159957748
10
-314.55087798103068
20
25.777021159957748
10
-314.55087798103068
20
25.776869134696621
10
-324.37587793075244
20
25.777022855694188
10
-333.5000053473359
20
25.777021399375464
42
0.41421351562387609
10
-334.7000051558017
20
24.577021399375482
10
-334.7000051558017
20
24.350001206994065
42
-0.4142135623730609
10
-335.50000515580166
20
23.55000120699405
10
-353.55000515580173
20
23.550001206994025
42
-0.41421356237305762
10
-354.35000515580168
20
24.350001206994047
10
-354.35000515580168
20
41.400001206994048
42
0.41421356237311241
10
-355.55000515580173
20
42.600001206994023
42
-0.41421356237305929
10
-356.35000515580174
20
43.400001206994048
10
-356.35000515580174
20
60.450001206994052
42
0.41421356237311241
10
-357.55000515580178
20
61.650001206994027
42
-0.41421356237305929
10
-358.3500051558018
20
62.450001206994052
10
-358.35000515580163
20
80.500001206994057
42
-0.41421356237308854
10
-357.55000515580178
20
81.300001206994054
10
-340.50870345783125
20
81.300001206994054
42
0.41421356237309503
10
-339.3087034578312
20
82.500001206994057
10
-339.3087034578312
20
100.77702115995784
42
0.41421356237309503
10
-340.50870345783119
20
101.97702115995781
10
-357.55870345783143
20
101.97702115995779
42
-0.41421356237299095
10
-358.35870345783133
20
102.77702115995783
10
-358.35870345783121
20
120.82702115995784
42
-0.41421356237308854
10
-357.55870345783137
20
121.62702115995783
10
-272.83370345783123
20
121.62702115995783
42
-0.41421356237311452
10
-272.03370345783122
20
120.82702115995784
10
-272.03370345783122
20
103.77702115995781
42
0.41421356237308637
10
-270.83370345783129
20
102.57702115995784
10
-255.24244627567955
20
102.57702115995758
42
0.47697553269815357
10
-254.06866915479895
20
104.02651518893884
10
-257.54030668576559
20
120.35928564632462
42
-0.41421356237305046
10
-256.92411795783266
20
121.30813307956583
10
-229.68502274229874
20
127.09798150158204
42
-0.20078555056509662
10
-229.07815943735238
20
126.98324320271782
42
0.20078555056513542
10
-228.16786447993269
20
126.81113575442146
10
-220.17467856512408
20
128.51013986926242
10
-220.17478181162039
20
128.51062560583787
10
-210.27100404546621
20
130.61557475872101
10
-210.27093411001655
20
130.61524573829865
10
-197.16377069144755
20
133.40125932779677
10
-197.16380229927665
20
133.40140803094118
10
-187.55347021547601
20
135.44399001996484
10
-178.5850726033955
20
137.35028342404794
42
-0.41421361374166271
10
-177.63622503291379
20
136.73409472528644
10
-169.92270132180704
20
100.44481882383749
42
-0.41421356237308232
10
-170.5388900497399
20
99.495971390596267
0
CIRCLE
5
102
100
AcDbEntity
8
0
100
AcDbCircle
10
-19.962111475561922
20
138.33289376046693
30
0
40
1.3500000000000001
210
0
220
0
230
1
0
CIRCLE
5
103
100
AcDbEntity
8
0
100
AcDbCircle
10
-357.96211147556198
20
16.448163274166937
30
0
40
1.3499999999999801
210
0
220
0
230
1
0
CIRCLE
5
104
100
AcDbEntity
8
0
100
AcDbCircle
10
-228.33729389036506
20
16.448163274167065
30
0
40
1.3500000000000156
210
0
220
0
230
1
0
CIRCLE
5
105
100
AcDbEntity
8
0
100
AcDbCircle
10
-101.43305796070564
20
138.33289376046676
30
0
40
1.3499999999999979
210
0
220
0
230
1
0
CIRCLE
5
106
100
AcDbEntity
8
0
100
AcDbCircle
10
-19.962111475561986
20
16.448163274166937
30
0
40
1.3500000000000001
210
0
220
0
230
1
0
CIRCLE
5
107
100
AcDbEntity
8
0
100
AcDbCircle
10
-357.96211147556193
20
138.33289376046696
30
0
40
1.3499999999999801
210
0
220
0
230
1
0
CIRCLE
5
108
100
AcDbEntity
8
0
100
AcDbCircle
10
-101.43305796070565
20
16.448163274167168
30
0
40
1.3499999999999979
210
0
220
0
230
1
0
CIRCLE
5
109
100
AcDbEntity
8
0
100
AcDbCircle
10
-228.33729389036503
20
138.33289376046699
30
0
40
1.3500000000000156
210
0
220
0
230
1
0
SPLINE
5
110
100
AcDbEntity
8
0
100
AcDbSpline
70
0
71
3
72
16
73
12
74
0
42
0.000000001
43
0.0000000001
44
0.0000000001
40
0
40
0
40
0
40
0
40
0.33448371064659571
40
0.33448371064659571
40
0.57125733496610387
40
0.57125733496610387
40
0.78272718895345827
40
0.78272718895345827
40
0.99095521425986688
40
0.99095521425986688
40
1.2412737706930108
40
1.2412737706930108
40
1.2412737706930108
40
1.2412737706930108
10
-358.96211147556198
20
9.4481632741671788
30
0
10
-360.07705717771734
20
9.4481632741671788
30
0
10
-361.0300062529891
20
9.5857190973694593
30
0
10
-362.39512468253258
20
10.07419799953238
30
0
10
-362.91548649765497
20
10.362720923255562
30
0
10
-363.75969891320972
20
11.126599644593302
30
0
10
-364.07048014410384
20
11.553160667486368
30
0
10
-364.54185295214899
20
12.508933524826272
30
0
10
-364.69674523082858
20
13.020612616319745
30
0
10
-364.91741988514127
20
14.162809268820837
30
0
10
-364.96211147556204
20
14.813951705535297
30
0
10
-364.96211147556204
20
15.448163274167186
30
0
0
LINE
5
111
100
AcDbEntity
8
0
100
AcDbLine
10
-358.96211147556198
20
9.4481632741671788
30
0
11
-18.962111475562011
21
9.4481632741669515
31
0
0
SPLINE
5
112
100
AcDbEntity
8
0
100
AcDbSpline
70
0
71
3
72
16
73
12
74
0
42
0.000000001
43
0.0000000001
44
0.0000000001
40
0
40
0
40
0
40
0
40
0.33448371064603
40
0.33448371064603
40
0.57125733496473141
40
0.57125733496473141
40
0.78272718895134386
40
0.78272718895134386
40
0.99095521425700583
40
0.99095521425700583
40
1.2412737706891841
40
1.2412737706891841
40
1.2412737706891841
40
1.2412737706891841
10
-12.962111475561986
20
15.448163274166951
30
0
10
-12.962111475561986
20
14.333217572013517
30
0
10
-13.099667298763817
20
13.380268496741071
30
0
10
-13.588146200927165
20
12.015150067196462
30
0
10
-13.876669124650373
20
11.49478825207394
30
0
10
-14.640547845988204
20
10.650575836519129
30
0
10
-15.067108868881318
20
10.339794605624991
30
0
10
-16.022881726221016
20
9.8684217975799822
30
0
10
-16.534560817714233
20
9.7135295189003639
30
0
10
-17.676757470215957
20
9.492854864587537
30
0
10
-18.327899906931073
20
9.4481632741669497
30
0
10
-18.962111475562011
20
9.4481632741669515
30
0
0
LINE
5
113
100
AcDbEntity
8
0
100
AcDbLine
10
-12.962111475561986
20
15.448163274166951
30
0
11
-12.96211147556199
21
139.33289376046696
31
0
0
SPLINE
5
114
100
AcDbEntity
8
0
100
AcDbSpline
70
0
71
3
72
16
73
12
74
0
42
0.000000001
43
0.0000000001
44
0.0000000001
40
0
40
0
40
0
40
0
40
0.33448371064129306
40
0.33448371064129306
40
0.57125733495344544
40
0.57125733495344544
40
0.78272718893418658
40
0.78272718893418658
40
0.99095521423408384
40
0.99095521423408384
40
1.2412737706593509
40
1.2412737706593509
40
1.2412737706593509
40
1.2412737706593509
10
-18.96211147556199
20
145.33289376046693
30
0
10
-17.847165773424347
20
145.33289376046693
30
0
10
-16.894216698146639
20
145.19533793726885
30
0
10
-15.529098268591691
20
144.70685903510179
30
0
10
-15.008736453469025
20
144.41833611137861
30
0
10
-14.164524037914166
20
143.65445739004073
30
0
10
-13.853742807020033
20
143.22789636714762
30
0
10
-13.382369998975019
20
142.2721235098079
30
0
10
-13.227477720295401
20
141.76044441831465
30
0
10
-13.006803065982584
20
140.61824776581298
30
0
10
-12.96211147556199
20
139.9671053290979
30
0
10
-12.96211147556199
20
139.33289376046696
30
0
0
LINE
5
115
100
AcDbEntity
8
0
100
AcDbLine
10
-18.96211147556199
20
145.33289376046693
30
0
11
-358.96211147556193
21
145.33289376046693
31
0
0
SPLINE
5
116
100
AcDbEntity
8
0
100
AcDbSpline
70
0
71
3
72
16
73
12
74
0
42
0.000000001
43
0.0000000001
44
0.0000000001
40
0
40
0
40
0
40
0
40
0.3344837106487481
40
0.3344837106487481
40
0.57125733497101971
40
0.57125733497101971
40
0.78272718896079141
40
0.78272718896079141
40
0.99095521426963795
40
0.99095521426963795
40
1.2412737707056976
40
1.2412737707056976
40
1.2412737707056976
40
1.2412737707056976
10
-364.96211147556198
20
139.33289376046696
30
0
10
-364.96211147556198
20
140.44783946262945
30
0
10
-364.82455565235801
20
141.40078853789888
30
0
10
-364.33607675019692
20
142.7659069674371
30
0
10
-364.0475538264738
20
143.28626878255989
30
0
10
-363.2836751051359
20
144.13048119811484
30
0
10
-362.85711408224267
20
144.44126242900896
30
0
10
-361.90134122490298
20
144.91263523705393
30
0
10
-361.38966213340973
20
145.06752751573356
30
0
10
-360.24746548090809
20
145.28820217004633
30
0
10
-359.59632304419296
20
145.33289376046693
30
0
10
-358.96211147556193
20
145.33289376046693
30
0
0
LINE
5
117
100
AcDbEntity
8
0
100
AcDbLine
10
-364.96211147556198
20
139.33289376046696
30
0
11
-364.96211147556198
21
15.448163274167186
31
0
0
ENDSEC
0
SECTION
2
OBJECTS
0
DICTIONARY
5
C
100
AcDbDictionary
3
ACAD_GROUP
350
D
3
ACAD_MLINESTYLE
350
17
0
DICTIONARY
5
D
100
AcDbDictionary
0
DICTIONARY
5
1A
330
C
100
AcDbDictionary
0
DICTIONARY
5
17
100
AcDbDictionary
0
ENDSEC
0
EOF
