0
SECTION
2
HEADER
9
$INSUNITS
70
4
9
$ACADVER
1
AC1014
9
$HANDSEED
5
FFFF
0
ENDSEC
0
SECTION
2
TABLES
0
TABLE
2
VPORT
5
8
100
AcDbSymbolTable
0
ENDTAB
0
TABLE
2
LTYPE
5
5
100
AcDbSymbolTable
0
LTYPE
5
14
100
AcDbSymbolTableRecord
100
AcDbLinetypeTableRecord
2
BYBLOCK
70
0
0
LTYPE
5
15
100
AcDbSymbolTableRecord
100
AcDbLinetypeTableRecord
2
BYLAYER
70
0
0
ENDTAB
0
TABLE
2
LAYER
5
2
100
AcDbSymbolTable
70
2
0
LAYER
5
50
100
AcDbSymbolTableRecord
100
AcDbLayerTableRecord
2
0
70
0
6
CONTINUOUS
0
ENDTAB
0
TABLE
2
STYLE
5
3
100
AcDbSymbolTable
70
1
0
STYLE
5
11
100
AcDbSymbolTableRecord
100
AcDbTextStyleTableRecord
2
STANDARD
70
0
0
ENDTAB
0
TABLE
2
VIEW
5
6
100
AcDbSymbolTable
70
0
0
ENDTAB
0
TABLE
2
UCS
5
7
100
AcDbSymbolTable
70
0
0
ENDTAB
0
TABLE
2
APPID
5
9
100
AcDbSymbolTable
70
2
0
APPID
5
12
100
AcDbSymbolTableRecord
100
AcDbRegAppTableRecord
2
ACAD
70
0
0
ENDTAB
0
TABLE
2
DIMSTYLE
5
A
100
AcDbSymbolTable
70
1
0
ENDTAB
0
TABLE
2
BLOCK_RECORD
5
1
100
AcDbSymbolTable
70
1
0
BLOCK_RECORD
5
1F
100
AcDbSymbolTableRecord
100
AcDbBlockTableRecord
2
*MODEL_SPACE
0
BLOCK_RECORD
5
1B
100
AcDbSymbolTableRecord
100
AcDbBlockTableRecord
2
*PAPER_SPACE
0
ENDTAB
0
ENDSEC
0
SECTION
2
BLOCKS
0
BLOCK
5
20
100
AcDbEntity
100
AcDbBlockBegin
2
*MODEL_SPACE
0
ENDBLK
5
21
100
AcDbEntity
100
AcDbBlockEnd
0
BLOCK
5
1C
100
AcDbEntity
100
AcDbBlockBegin
2
*PAPER_SPACE
0
ENDBLK
5
1D
100
AcDbEntity
100
AcDbBlockEnd
0
ENDSEC
0
SECTION
2
ENTITIES
0
SPLINE
5
100
100
AcDbEntity
8
0
100
AcDbSpline
70
0
71
3
72
16
73
12
74
0
42
0.000000001
43
0.0000000001
44
0.0000000001
40
0
40
0
40
0
40
0
40
0.11240508078851348
40
0.11240508078851348
40
0.17733278742851291
40
0.17733278742851291
40
0.22890326226959506
40
0.22890326226959506
40
0.283387642575611
40
0.283387642575611
40
0.40813419999272316
40
0.40813419999272316
40
0.40813419999272316
40
0.40813419999272316
10
-330.46860105916727
20
24.617701334042358
30
0
10
-330.84328466179562
20
24.617701334042358
30
0
10
-331.17349897697511
20
24.617701334042358
30
0
10
-331.62513056995954
20
24.707458222701423
30
0
10
-331.78484173499567
20
24.761095229986108
30
0
10
-332.03998726150235
20
24.923589436159471
30
0
10
-332.13496851094953
20
25.014411786052761
30
0
10
-332.29205112565148
20
25.240325330742657
30
0
10
-332.34646009399296
20
25.369637575345646
30
0
10
-332.46860105916721
20
25.818981755094057
30
0
10
-332.46860105916721
20
26.190405958623586
30
0
10
-332.46860105916721
20
26.617701334042358
30
0
0
LINE
5
101
100
AcDbEntity
8
0
100
AcDbLine
10
-330.46860105916727
20
24.617701334042358
30
0
11
-40.46860105916732
21
24.61770133404233
31
0
0
SPLINE
5
102
100
AcDbEntity
8
0
100
AcDbSpline
70
0
71
3
72
16
73
12
74
0
42
0.000000001
43
0.0000000001
44
0.0000000001
40
0
40
0
40
0
40
0
40
0.11240508078850869
40
0.11240508078850869
40
0.17733278742851205
40
0.17733278742851205
40
0.22890326226953756
40
0.22890326226953756
40
0.28338764257545168
40
0.28338764257545168
40
0.40813419999232536
40
0.40813419999232536
40
0.40813419999232536
40
0.40813419999232536
10
-38.468601059167312
20
26.61770133404233
30
0
10
-38.468601059167312
20
26.243017731413971
30
0
10
-38.468601059167312
20
25.912803416234542
30
0
10
-38.55835794782638
20
25.461171823250083
30
0
10
-38.611994955111058
20
25.30146065821393
30
0
10
-38.774489161284336
20
25.046315131707452
30
0
10
-38.865311511177644
20
24.951333882260091
30
0
10
-39.091225055867604
20
24.794251267558121
30
0
10
-39.220537300470575
20
24.739842299216633
30
0
10
-39.669881480219061
20
24.617701334042327
30
0
10
-40.041305683748703
20
24.61770133404233
30
0
10
-40.46860105916732
20
24.61770133404233
30
0
0
LINE
5
103
100
AcDbEntity
8
0
100
AcDbLine
10
-38.468601059167312
20
26.61770133404233
30
0
11
-38.46860105916732
21
34.617701334042337
31
0
0
SPLINE
5
104
100
AcDbEntity
8
0
100
AcDbSpline
70
0
71
3
72
16
73
12
74
0
42
0.000000001
43
0.0000000001
44
0.0000000001
40
0
40
0
40
0
40
0
40
0.11240508078850685
40
0.11240508078850685
40
0.17733278742851244
40
0.17733278742851244
40
0.22890326226953453
40
0.22890326226953453
40
0.28338764257544241
40
0.28338764257544241
40
0.40813419999230333
40
0.40813419999230333
40
0.40813419999230333
40
0.40813419999230333
10
-40.468601059167312
20
36.617701334042337
30
0
10
-40.093917456538961
20
36.617701334042337
30
0
10
-39.763703141359528
20
36.617701334042337
30
0
10
-39.312071548375059
20
36.52794444538327
30
0
10
-39.152360383338916
20
36.474307438098585
30
0
10
-38.897214856832456
20
36.311813231925321
30
0
10
-38.802233607385084
20
36.220990882032012
30
0
10
-38.645150992683106
20
35.995077337342053
30
0
10
-38.590742024341623
20
35.865765092739075
30
0
10
-38.468601059167312
20
35.416420912990588
30
0
10
-38.46860105916732
20
35.044996709460946
30
0
10
-38.46860105916732
20
34.617701334042337
30
0
0
LINE
5
105
100
AcDbEntity
8
0
100
AcDbLine
10
-40.468601059167312
20
36.617701334042337
30
0
11
-330.46860105916727
21
36.617701334042358
31
0
0
SPLINE
5
106
100
AcDbEntity
8
0
100
AcDbSpline
70
0
71
3
72
16
73
12
74
0
42
0.000000001
43
0.0000000001
44
0.0000000001
40
0
40
0
40
0
40
0
40
0.11240508078835709
40
0.11240508078835709
40
0.17733278742812383
40
0.17733278742812383
40
0.22890326226899974
40
0.22890326226899974
40
0.28338764257476107
40
0.28338764257476107
40
0.40813419999118317
40
0.40813419999118317
40
0.40813419999118317
40
0.40813419999118317
10
-332.46860105916733
20
34.617701334042358
30
0
10
-332.46860105916733
20
34.992384936670213
30
0
10
-332.46860105916733
20
35.322599251850001
30
0
10
-332.37884417050827
20
35.774230844834328
30
0
10
-332.32520716322364
20
35.933942009870705
30
0
10
-332.16271295705019
20
36.189087536377379
30
0
10
-332.07189060715689
20
36.284068785824651
30
0
10
-331.84597706246706
20
36.441151400526557
30
0
10
-331.71666481786417
20
36.495560368868041
30
0
10
-331.26732063811562
20
36.61770133404238
30
0
10
-330.89589643458595
20
36.61770133404238
30
0
10
-330.46860105916727
20
36.61770133404238
30
0
0
LINE
5
107
100
AcDbEntity
8
0
100
AcDbLine
10
-332.46860105916733
20
34.617701334042358
30
0
11
-332.46860105916721
21
26.617701334042358
31
0
0
CIRCLE
5
108
100
AcDbEntity
8
0
100
AcDbCircle
10
-65.468601059167312
20
30.617701334042344
30
0
40
1.3499999999999979
210
0
220
-0
230
1
0
CIRCLE
5
109
100
AcDbEntity
8
0
100
AcDbCircle
10
-305.46860105916727
20
30.617701334042433
30
0
40
1.3499999999999801
210
-4.3161694046298129e-156
220
2.9539328411070721e-280
230
1
0
ENDSEC
0
SECTION
2
OBJECTS
0
DICTIONARY
5
C
100
AcDbDictionary
3
ACAD_GROUP
350
D
3
ACAD_MLINESTYLE
350
17
0
DICTIONARY
5
D
100
AcDbDictionary
0
DICTIONARY
5
1A
330
C
100
AcDbDictionary
0
DICTIONARY
5
17
100
AcDbDictionary
0
ENDSEC
0
EOF
