0
SECTION
2
HEADER
9
$INSUNITS
70
4
9
$ACADVER
1
AC1014
9
$HANDSEED
5
FFFF
0
ENDSEC
0
SECTION
2
TABLES
0
TABLE
2
VPORT
5
8
100
AcDbSymbolTable
0
ENDTAB
0
TABLE
2
LTYPE
5
5
100
AcDbSymbolTable
0
LTYPE
5
14
100
AcDbSymbolTableRecord
100
AcDbLinetypeTableRecord
2
BYBLOCK
70
0
0
LTYPE
5
15
100
AcDbSymbolTableRecord
100
AcDbLinetypeTableRecord
2
BYLAYER
70
0
0
ENDTAB
0
TABLE
2
LAYER
5
2
100
AcDbSymbolTable
70
2
0
LAYER
5
50
100
AcDbSymbolTableRecord
100
AcDbLayerTableRecord
2
0
70
0
6
CONTINUOUS
0
ENDTAB
0
TABLE
2
STYLE
5
3
100
AcDbSymbolTable
70
1
0
STYLE
5
11
100
AcDbSymbolTableRecord
100
AcDbTextStyleTableRecord
2
STANDARD
70
0
0
ENDTAB
0
TABLE
2
VIEW
5
6
100
AcDbSymbolTable
70
0
0
ENDTAB
0
TABLE
2
UCS
5
7
100
AcDbSymbolTable
70
0
0
ENDTAB
0
TABLE
2
APPID
5
9
100
AcDbSymbolTable
70
2
0
APPID
5
12
100
AcDbSymbolTableRecord
100
AcDbRegAppTableRecord
2
ACAD
70
0
0
ENDTAB
0
TABLE
2
DIMSTYLE
5
A
100
AcDbSymbolTable
70
1
0
ENDTAB
0
TABLE
2
BLOCK_RECORD
5
1
100
AcDbSymbolTable
70
1
0
BLOCK_RECORD
5
1F
100
AcDbSymbolTableRecord
100
AcDbBlockTableRecord
2
*MODEL_SPACE
0
BLOCK_RECORD
5
1B
100
AcDbSymbolTableRecord
100
AcDbBlockTableRecord
2
*PAPER_SPACE
0
ENDTAB
0
ENDSEC
0
SECTION
2
BLOCKS
0
BLOCK
5
20
100
AcDbEntity
100
AcDbBlockBegin
2
*MODEL_SPACE
0
ENDBLK
5
21
100
AcDbEntity
100
AcDbBlockEnd
0
BLOCK
5
1C
100
AcDbEntity
100
AcDbBlockBegin
2
*PAPER_SPACE
0
ENDBLK
5
1D
100
AcDbEntity
100
AcDbBlockEnd
0
ENDSEC
0
SECTION
2
ENTITIES
0
SPLINE
5
100
100
AcDbEntity
8
0
100
AcDbSpline
70
0
71
3
72
16
73
12
74
0
42
0.000000001
43
0.0000000001
44
0.0000000001
40
0
40
0
40
0
40
0
40
0.16860762118277056
40
0.16860762118277056
40
0.26599918114278415
40
0.26599918114278415
40
0.34335489340432196
40
0.34335489340432196
40
0.42508146386319207
40
0.42508146386319207
40
0.61220129998853612
40
0.61220129998853612
40
0.61220129998853612
40
0.61220129998853612
10
-40.468601059167312
20
37.617701334042337
30
0
10
-39.906575655224742
20
37.617701334042337
30
0
10
-39.411254182455622
20
37.617701334042337
30
0
10
-38.733806792978939
20
37.483066001053736
30
0
10
-38.494240045424718
20
37.402610490126712
30
0
10
-38.111521755665031
20
37.158869180866809
30
0
10
-37.969049881493973
20
37.022635656026857
30
0
10
-37.733425959441
20
36.68376533899189
30
0
10
-37.651812506928771
20
36.489796972087412
30
0
10
-37.46860105916732
20
35.815780702464707
30
0
10
-37.46860105916732
20
35.258644397170222
30
0
10
-37.468601059167327
20
34.617701334042337
30
0
0
LINE
5
101
100
AcDbEntity
8
0
100
AcDbLine
10
-40.468601059167312
20
37.617701334042337
30
0
11
-330.46860105916727
21
37.617701334042351
31
0
0
SPLINE
5
102
100
AcDbEntity
8
0
100
AcDbSpline
70
0
71
3
72
16
73
12
74
0
42
0.000000001
43
0.0000000001
44
0.0000000001
40
0
40
0
40
0
40
0
40
0.16860762118287614
40
0.16860762118287614
40
0.26599918114297938
40
0.26599918114297938
40
0.3433548934046019
40
0.3433548934046019
40
0.42508146386358286
40
0.42508146386358286
40
0.61220129998924955
40
0.61220129998924955
40
0.61220129998924955
40
0.61220129998924955
10
-333.46860105916727
20
34.617701334042358
30
0
10
-333.46860105916727
20
35.179726737985277
30
0
10
-333.46860105916727
20
35.675048210754142
30
0
10
-333.33396572617863
20
36.352495600230725
30
0
10
-333.25351021525165
20
36.592062347784932
30
0
10
-333.00976890599173
20
36.974780637544647
30
0
10
-332.87353538115178
20
37.117252511715684
30
0
10
-332.53466506411678
20
37.352876433768664
30
0
10
-332.34069669721225
20
37.434489886280893
30
0
10
-331.66668042758965
20
37.617701334042323
30
0
10
-331.10954412229518
20
37.617701334042323
30
0
10
-330.46860105916727
20
37.617701334042316
30
0
0
LINE
5
103
100
AcDbEntity
8
0
100
AcDbLine
10
-333.46860105916727
20
34.617701334042358
30
0
11
-333.46860105916727
21
26.617701334042358
31
0
0
SPLINE
5
104
100
AcDbEntity
8
0
100
AcDbSpline
70
0
71
3
72
16
73
12
74
0
42
0.000000001
43
0.0000000001
44
0.0000000001
40
0
40
0
40
0
40
0
40
0.1686076211827599
40
0.1686076211827599
40
0.26599918114275056
40
0.26599918114275056
40
0.34335489340423592
40
0.34335489340423592
40
0.42508146386305851
40
0.42508146386305851
40
0.61220129998850181
40
0.61220129998850181
40
0.61220129998850181
40
0.61220129998850181
10
-330.46860105916727
20
23.617701334042358
30
0
10
-331.0306264631098
20
23.617701334042358
30
0
10
-331.52594793587895
20
23.617701334042358
30
0
10
-332.20339532535553
20
23.752336667030956
30
0
10
-332.44296207290984
20
23.832792177957977
30
0
10
-332.82568036266952
20
24.076533487217844
30
0
10
-332.96815223684064
20
24.212767012057807
30
0
10
-333.20377615889362
20
24.551637329092859
30
0
10
-333.28538961140589
20
24.745605695997494
30
0
10
-333.46860105916727
20
25.419621965620042
30
0
10
-333.46860105916727
20
25.976758270914644
30
0
10
-333.46860105916727
20
26.617701334042358
30
0
0
LINE
5
105
100
AcDbEntity
8
0
100
AcDbLine
10
-330.46860105916727
20
23.617701334042358
30
0
11
-40.46860105916732
21
23.617701334042334
31
0
0
SPLINE
5
106
100
AcDbEntity
8
0
100
AcDbSpline
70
0
71
3
72
16
73
12
74
0
42
0.000000001
43
0.0000000001
44
0.0000000001
40
0
40
0
40
0
40
0
40
0.16860762118277267
40
0.16860762118277267
40
0.26599918114279403
40
0.26599918114279403
40
0.34335489340433822
40
0.34335489340433822
40
0.42508146386321433
40
0.42508146386321433
40
0.61220129998856954
40
0.61220129998856954
40
0.61220129998856954
40
0.61220129998856954
10
-37.468601059167312
20
26.61770133404233
30
0
10
-37.468601059167312
20
26.055675930099756
30
0
10
-37.468601059167312
20
25.560354457330639
30
0
10
-37.603236392155921
20
24.882907067853942
30
0
10
-37.683691903082945
20
24.643340320299728
30
0
10
-37.927433212342841
20
24.260622030540041
30
0
10
-38.0636667371828
20
24.118150156368984
30
0
10
-38.40253705421776
20
23.882526234316014
30
0
10
-38.596505421122245
20
23.800912781803788
30
0
10
-39.27052169074495
20
23.617701334042334
30
0
10
-39.827657996039434
20
23.617701334042334
30
0
10
-40.46860105916732
20
23.617701334042337
30
0
0
LINE
5
107
100
AcDbEntity
8
0
100
AcDbLine
10
-37.468601059167312
20
26.61770133404233
30
0
11
-37.468601059167327
21
34.617701334042344
31
0
0
CIRCLE
5
108
100
AcDbEntity
8
0
100
AcDbCircle
10
-65.468601059167312
20
30.617701334042344
30
0
40
2.5999999999999979
210
0
220
-0
230
1
0
CIRCLE
5
109
100
AcDbEntity
8
0
100
AcDbCircle
10
-305.46860105916727
20
30.617701334042433
30
0
40
2.5999999999999801
210
-2.2727331982241985e-125
220
-1.1019031292667406e-218
230
1
0
ENDSEC
0
SECTION
2
OBJECTS
0
DICTIONARY
5
C
100
AcDbDictionary
3
ACAD_GROUP
350
D
3
ACAD_MLINESTYLE
350
17
0
DICTIONARY
5
D
100
AcDbDictionary
0
DICTIONARY
5
1A
330
C
100
AcDbDictionary
0
DICTIONARY
5
17
100
AcDbDictionary
0
ENDSEC
0
EOF
