0
SECTION
2
HEADER
9
$INSUNITS
70
4
9
$ACADVER
1
AC1014
9
$HANDSEED
5
FFFF
0
ENDSEC
0
SECTION
2
TABLES
0
TABLE
2
VPORT
5
8
100
AcDbSymbolTable
0
ENDTAB
0
TABLE
2
LTYPE
5
5
100
AcDbSymbolTable
0
LTYPE
5
14
100
AcDbSymbolTableRecord
100
AcDbLinetypeTableRecord
2
BYBLOCK
70
0
0
LTYPE
5
15
100
AcDbSymbolTableRecord
100
AcDbLinetypeTableRecord
2
BYLAYER
70
0
0
ENDTAB
0
TABLE
2
LAYER
5
2
100
AcDbSymbolTable
70
2
0
LAYER
5
50
100
AcDbSymbolTableRecord
100
AcDbLayerTableRecord
2
0
70
0
6
CONTINUOUS
0
ENDTAB
0
TABLE
2
STYLE
5
3
100
AcDbSymbolTable
70
1
0
STYLE
5
11
100
AcDbSymbolTableRecord
100
AcDbTextStyleTableRecord
2
STANDARD
70
0
0
ENDTAB
0
TABLE
2
VIEW
5
6
100
AcDbSymbolTable
70
0
0
ENDTAB
0
TABLE
2
UCS
5
7
100
AcDbSymbolTable
70
0
0
ENDTAB
0
TABLE
2
APPID
5
9
100
AcDbSymbolTable
70
2
0
APPID
5
12
100
AcDbSymbolTableRecord
100
AcDbRegAppTableRecord
2
ACAD
70
0
0
ENDTAB
0
TABLE
2
DIMSTYLE
5
A
100
AcDbSymbolTable
70
1
0
ENDTAB
0
TABLE
2
BLOCK_RECORD
5
1
100
AcDbSymbolTable
70
1
0
BLOCK_RECORD
5
1F
100
AcDbSymbolTableRecord
100
AcDbBlockTableRecord
2
*MODEL_SPACE
0
BLOCK_RECORD
5
1B
100
AcDbSymbolTableRecord
100
AcDbBlockTableRecord
2
*PAPER_SPACE
0
ENDTAB
0
ENDSEC
0
SECTION
2
BLOCKS
0
BLOCK
5
20
100
AcDbEntity
100
AcDbBlockBegin
2
*MODEL_SPACE
0
ENDBLK
5
21
100
AcDbEntity
100
AcDbBlockEnd
0
BLOCK
5
1C
100
AcDbEntity
100
AcDbBlockBegin
2
*PAPER_SPACE
0
ENDBLK
5
1D
100
AcDbEntity
100
AcDbBlockEnd
0
ENDSEC
0
SECTION
2
ENTITIES
0
SPLINE
5
100
100
AcDbEntity
8
0
100
AcDbSpline
70
0
71
3
72
16
73
12
74
0
42
0.000000001
43
0.0000000001
44
0.0000000001
40
0
40
0
40
0
40
0
40
0.28101270197130007
40
0.28101270197130007
40
0.44333196857134127
40
0.44333196857134127
40
0.57225815567391902
40
0.57225815567391902
40
0.70846910643871819
40
0.70846910643871819
40
1.0203354999809755
40
1.0203354999809755
40
1.0203354999809755
40
1.0203354999809755
10
-35.468601059167312
20
26.617701334042337
30
0
10
-35.468601059167312
20
25.680992327471337
30
0
10
-35.468601059167312
20
24.855456539522841
30
0
10
-35.692993280814981
20
23.726377557061703
30
0
10
-35.82708579902669
20
23.327099644471339
30
0
10
-36.233321314459857
20
22.689235828205192
30
0
10
-36.460377189193117
20
22.451782704586755
30
0
10
-37.025161050918051
20
22.059076167831812
30
0
10
-37.348441662425515
20
21.923053746978098
30
0
10
-38.471802111796677
20
21.617701334042344
30
0
10
-39.400362620620768
20
21.617701334042351
30
0
10
-40.46860105916732
20
21.617701334042355
30
0
0
LINE
5
101
100
AcDbEntity
8
0
100
AcDbLine
10
-35.468601059167312
20
26.617701334042337
30
0
11
-35.468601059167312
21
34.617701334042344
31
0
0
SPLINE
5
102
100
AcDbEntity
8
0
100
AcDbSpline
70
0
71
3
72
16
73
12
74
0
42
0.000000001
43
0.0000000001
44
0.0000000001
40
0
40
0
40
0
40
0
40
0.28101270197129841
40
0.28101270197129841
40
0.44333196857133822
40
0.44333196857133822
40
0.5722581556739198
40
0.5722581556739198
40
0.70846910643872429
40
0.70846910643872429
40
1.0203354999809846
40
1.0203354999809846
40
1.0203354999809846
40
1.0203354999809846
10
-40.468601059167312
20
39.617701334042344
30
0
10
-39.531892052596319
20
39.617701334042344
30
0
10
-38.706356264647816
20
39.617701334042344
30
0
10
-37.577277282186685
20
39.393309112394668
30
0
10
-37.177999369596321
20
39.259216594182959
30
0
10
-36.54013555333016
20
38.852981078749792
30
0
10
-36.302682429711737
20
38.625925204016525
30
0
10
-35.909975892956801
20
38.061141342291606
30
0
10
-35.773953472103088
20
37.737860730784149
30
0
10
-35.468601059167327
20
36.61450028141298
30
0
10
-35.468601059167334
20
35.685939772588895
30
0
10
-35.468601059167341
20
34.617701334042351
30
0
0
LINE
5
103
100
AcDbEntity
8
0
100
AcDbLine
10
-40.468601059167312
20
39.617701334042344
30
0
11
-330.46860105916727
21
39.617701334042358
31
0
0
SPLINE
5
104
100
AcDbEntity
8
0
100
AcDbSpline
70
0
71
3
72
16
73
12
74
0
42
0.000000001
43
0.0000000001
44
0.0000000001
40
0
40
0
40
0
40
0
40
0.28101270197123174
40
0.28101270197123174
40
0.44333196857125917
40
0.44333196857125917
40
0.57225815567381955
40
0.57225815567381955
40
0.70846910643858729
40
0.70846910643858729
40
1.0203354999807352
40
1.0203354999807352
40
1.0203354999807352
40
1.0203354999807352
10
-335.46860105916727
20
34.617701334042358
30
0
10
-335.46860105916727
20
35.554410340613131
30
0
10
-335.46860105916727
20
36.379946128561784
30
0
10
-335.24420883751958
20
37.509025111023092
30
0
10
-335.11011631930785
20
37.908303023613371
30
0
10
-334.70388080387471
20
38.546166839879476
30
0
10
-334.47682492914146
20
38.783619963497927
30
0
10
-333.91204106741657
20
39.176326500252863
30
0
10
-333.5887604559091
20
39.312348921106583
30
0
10
-332.46540000653795
20
39.617701334042344
30
0
10
-331.53683949771386
20
39.617701334042337
30
0
10
-330.46860105916727
20
39.617701334042337
30
0
0
LINE
5
105
100
AcDbEntity
8
0
100
AcDbLine
10
-335.46860105916727
20
34.617701334042358
30
0
11
-335.46860105916727
21
26.617701334042362
31
0
0
SPLINE
5
106
100
AcDbEntity
8
0
100
AcDbSpline
70
0
71
3
72
16
73
12
74
0
42
0.000000001
43
0.0000000001
44
0.0000000001
40
0
40
0
40
0
40
0
40
0.28101270197129569
40
0.28101270197129569
40
0.44333196857131385
40
0.44333196857131385
40
0.5722581556739057
40
0.5722581556739057
40
0.70846910643871963
40
0.70846910643871963
40
1.0203354999808432
40
1.0203354999808432
40
1.0203354999808432
40
1.0203354999808432
10
-330.46860105916727
20
21.617701334042362
30
0
10
-331.40531006573826
20
21.617701334042362
30
0
10
-332.23084585368673
20
21.617701334042362
30
0
10
-333.35992483614791
20
21.842093555690024
30
0
10
-333.75920274873829
20
21.976186073901729
30
0
10
-334.39706656500454
20
22.382421589334967
30
0
10
-334.63451968862285
20
22.60947746406822
30
0
10
-335.02722622537772
20
23.174261325793051
30
0
10
-335.16324864623152
20
23.497541937300376
30
0
10
-335.46860105916727
20
24.620902386671744
30
0
10
-335.46860105916727
20
25.549462895495868
30
0
10
-335.46860105916727
20
26.617701334042358
30
0
0
LINE
5
107
100
AcDbEntity
8
0
100
AcDbLine
10
-330.46860105916727
20
21.617701334042362
30
0
11
-40.46860105916732
21
21.617701334042355
31
0
0
CIRCLE
5
108
100
AcDbEntity
8
0
100
AcDbCircle
10
-305.46860105916727
20
30.617701334042437
30
0
40
2.5999999999999801
210
0
220
-0
230
1
0
CIRCLE
5
109
100
AcDbEntity
8
0
100
AcDbCircle
10
-65.468601059167312
20
30.617701334042348
30
0
40
2.5999999999999979
210
0
220
-0
230
1
0
ENDSEC
0
SECTION
2
OBJECTS
0
DICTIONARY
5
C
100
AcDbDictionary
3
ACAD_GROUP
350
D
3
ACAD_MLINESTYLE
350
17
0
DICTIONARY
5
D
100
AcDbDictionary
0
DICTIONARY
5
1A
330
C
100
AcDbDictionary
0
DICTIONARY
5
17
100
AcDbDictionary
0
ENDSEC
0
EOF
