0
SECTION
2
HEADER
9
$INSUNITS
70
4
9
$ACADVER
1
AC1014
9
$HANDSEED
5
FFFF
0
ENDSEC
0
SECTION
2
TABLES
0
TABLE
2
VPORT
5
8
100
AcDbSymbolTable
0
ENDTAB
0
TABLE
2
LTYPE
5
5
100
AcDbSymbolTable
0
LTYPE
5
14
100
AcDbSymbolTableRecord
100
AcDbLinetypeTableRecord
2
BYBLOCK
70
0
0
LTYPE
5
15
100
AcDbSymbolTableRecord
100
AcDbLinetypeTableRecord
2
BYLAYER
70
0
0
ENDTAB
0
TABLE
2
LAYER
5
2
100
AcDbSymbolTable
70
2
0
LAYER
5
50
100
AcDbSymbolTableRecord
100
AcDbLayerTableRecord
2
0
70
0
6
CONTINUOUS
0
ENDTAB
0
TABLE
2
STYLE
5
3
100
AcDbSymbolTable
70
1
0
STYLE
5
11
100
AcDbSymbolTableRecord
100
AcDbTextStyleTableRecord
2
STANDARD
70
0
0
ENDTAB
0
TABLE
2
VIEW
5
6
100
AcDbSymbolTable
70
0
0
ENDTAB
0
TABLE
2
UCS
5
7
100
AcDbSymbolTable
70
0
0
ENDTAB
0
TABLE
2
APPID
5
9
100
AcDbSymbolTable
70
2
0
APPID
5
12
100
AcDbSymbolTableRecord
100
AcDbRegAppTableRecord
2
ACAD
70
0
0
ENDTAB
0
TABLE
2
DIMSTYLE
5
A
100
AcDbSymbolTable
70
1
0
ENDTAB
0
TABLE
2
BLOCK_RECORD
5
1
100
AcDbSymbolTable
70
1
0
BLOCK_RECORD
5
1F
100
AcDbSymbolTableRecord
100
AcDbBlockTableRecord
2
*MODEL_SPACE
0
BLOCK_RECORD
5
1B
100
AcDbSymbolTableRecord
100
AcDbBlockTableRecord
2
*PAPER_SPACE
0
ENDTAB
0
ENDSEC
0
SECTION
2
BLOCKS
0
BLOCK
5
20
100
AcDbEntity
100
AcDbBlockBegin
2
*MODEL_SPACE
0
ENDBLK
5
21
100
AcDbEntity
100
AcDbBlockEnd
0
BLOCK
5
1C
100
AcDbEntity
100
AcDbBlockBegin
2
*PAPER_SPACE
0
ENDBLK
5
1D
100
AcDbEntity
100
AcDbBlockEnd
0
ENDSEC
0
SECTION
2
ENTITIES
0
CIRCLE
5
100
100
AcDbEntity
8
0
100
AcDbCircle
10
-65.468601059167312
20
30.617701334042348
30
0
40
2.5999999999999979
210
0
220
-0
230
1
0
CIRCLE
5
101
100
AcDbEntity
8
0
100
AcDbCircle
10
-305.46860105916727
20
30.617701334042437
30
0
40
2.5999999999999801
210
0
220
-0
230
1
0
SPLINE
5
102
100
AcDbEntity
8
0
100
AcDbSpline
70
0
71
3
72
16
73
12
74
0
42
0.000000001
43
0.0000000001
44
0.0000000001
40
0
40
0
40
0
40
0
40
0.22481016157702777
40
0.22481016157702777
40
0.35466557485703243
40
0.35466557485703243
40
0.45780652453911758
40
0.45780652453911758
40
0.56677528515096198
40
0.56677528515096198
40
0.81626839998437239
40
0.81626839998437239
40
0.81626839998437239
40
0.81626839998437239
10
-330.46860105916727
20
22.617701334042366
30
0
10
-331.21796826442403
20
22.617701334042366
30
0
10
-331.8783968947829
20
22.617701334042366
30
0
10
-332.78166008075175
20
22.797215111360494
30
0
10
-333.10108241082401
20
22.904489125929857
30
0
10
-333.61137346383714
20
23.22947753827647
30
0
10
-333.80133596273174
20
23.411122238063072
30
0
10
-334.11550119213558
20
23.862949327442848
30
0
10
-334.22431912881859
20
24.121573816648517
30
0
10
-334.46860105916727
20
25.02026217614576
30
0
10
-334.46860105916727
20
25.763110583204817
30
0
10
-334.46860105916727
20
26.617701334042362
30
0
0
LINE
5
103
100
AcDbEntity
8
0
100
AcDbLine
10
-330.46860105916727
20
22.617701334042366
30
0
11
-40.46860105916732
21
22.617701334042337
31
0
0
SPLINE
5
104
100
AcDbEntity
8
0
100
AcDbSpline
70
0
71
3
72
16
73
12
74
0
42
0.000000001
43
0.0000000001
44
0.0000000001
40
0
40
0
40
0
40
0
40
0.22481016157703609
40
0.22481016157703609
40
0.35466557485706185
40
0.35466557485706185
40
0.45780652453912341
40
0.45780652453912341
40
0.56677528515096243
40
0.56677528515096243
40
0.81626839998475809
40
0.81626839998475809
40
0.81626839998475809
40
0.81626839998475809
10
-36.468601059167312
20
26.617701334042337
30
0
10
-36.468601059167312
20
25.868334128785548
30
0
10
-36.468601059167312
20
25.20790549842674
30
0
10
-36.648114836485448
20
24.304642312457837
30
0
10
-36.755388851054811
20
23.985219982385541
30
0
10
-37.08037726340136
20
23.474928929372606
30
0
10
-37.262021963187962
20
23.284966430477869
30
0
10
-37.713849052567902
20
22.970801201073918
30
0
10
-37.972473541773866
20
22.861983264390947
30
0
10
-38.871161901270817
20
22.617701334042337
30
0
10
-39.614010308330109
20
22.617701334042341
30
0
10
-40.46860105916732
20
22.617701334042344
30
0
0
LINE
5
105
100
AcDbEntity
8
0
100
AcDbLine
10
-36.468601059167312
20
26.617701334042337
30
0
11
-36.468601059167305
21
34.617701334042344
31
0
0
SPLINE
5
106
100
AcDbEntity
8
0
100
AcDbSpline
70
0
71
3
72
16
73
12
74
0
42
0.000000001
43
0.0000000001
44
0.0000000001
40
0
40
0
40
0
40
0
40
0.22481016157703457
40
0.22481016157703457
40
0.35466557485706324
40
0.35466557485706324
40
0.45780652453912291
40
0.45780652453912291
40
0.56677528515095643
40
0.56677528515095643
40
0.81626839998473455
40
0.81626839998473455
40
0.81626839998473455
40
0.81626839998473455
10
-40.468601059167312
20
38.617701334042344
30
0
10
-39.719233853910524
20
38.617701334042344
30
0
10
-39.058805223551715
20
38.617701334042344
30
0
10
-38.155542037582805
20
38.438187556724202
30
0
10
-37.83611970751052
20
38.330913542154839
30
0
10
-37.325828654497599
20
38.005925129808304
30
0
10
-37.135866155602855
20
37.824280430021695
30
0
10
-36.821700926198908
20
37.372453340641755
30
0
10
-36.712882989515933
20
37.113828851435798
30
0
10
-36.46860105916732
20
36.215140491938847
30
0
10
-36.468601059167327
20
35.472292084879562
30
0
10
-36.468601059167327
20
34.617701334042344
30
0
0
LINE
5
107
100
AcDbEntity
8
0
100
AcDbLine
10
-40.468601059167312
20
38.617701334042344
30
0
11
-330.46860105916727
21
38.617701334042358
31
0
0
SPLINE
5
108
100
AcDbEntity
8
0
100
AcDbSpline
70
0
71
3
72
16
73
12
74
0
42
0.000000001
43
0.0000000001
44
0.0000000001
40
0
40
0
40
0
40
0
40
0.22481016157705327
40
0.22481016157705327
40
0.35466557485703537
40
0.35466557485703537
40
0.45780652453909038
40
0.45780652453909038
40
0.56677528515093201
40
0.56677528515093201
40
0.81626839998470102
40
0.81626839998470102
40
0.81626839998470102
40
0.81626839998470102
10
-334.46860105916727
20
34.617701334042358
30
0
10
-334.46860105916727
20
35.367068539299204
30
0
10
-334.46860105916727
20
36.02749716965797
30
0
10
-334.28908728184916
20
36.930760355626695
30
0
10
-334.18181326727984
20
37.250182685699109
30
0
10
-333.85682485493317
20
37.760473738712157
30
0
10
-333.67518015514656
20
37.950436237606837
30
0
10
-333.22335306576667
20
38.264601467010749
30
0
10
-332.96472857656079
20
38.373419403693717
30
0
10
-332.06604021706374
20
38.617701334042337
30
0
10
-331.32319181000446
20
38.617701334042337
30
0
10
-330.46860105916727
20
38.61770133404233
30
0
0
LINE
5
109
100
AcDbEntity
8
0
100
AcDbLine
10
-334.46860105916727
20
34.617701334042358
30
0
11
-334.46860105916727
21
26.617701334042358
31
0
0
ENDSEC
0
SECTION
2
OBJECTS
0
DICTIONARY
5
C
100
AcDbDictionary
3
ACAD_GROUP
350
D
3
ACAD_MLINESTYLE
350
17
0
DICTIONARY
5
D
100
AcDbDictionary
0
DICTIONARY
5
1A
330
C
100
AcDbDictionary
0
DICTIONARY
5
17
100
AcDbDictionary
0
ENDSEC
0
EOF
