0
SECTION
2
HEADER
9
$INSUNITS
70
4
9
$ACADVER
1
AC1014
9
$HANDSEED
5
FFFF
0
ENDSEC
0
SECTION
2
TABLES
0
TABLE
2
VPORT
5
8
100
AcDbSymbolTable
0
ENDTAB
0
TABLE
2
LTYPE
5
5
100
AcDbSymbolTable
0
LTYPE
5
14
100
AcDbSymbolTableRecord
100
AcDbLinetypeTableRecord
2
BYBLOCK
70
0
0
LTYPE
5
15
100
AcDbSymbolTableRecord
100
AcDbLinetypeTableRecord
2
BYLAYER
70
0
0
ENDTAB
0
TABLE
2
LAYER
5
2
100
AcDbSymbolTable
70
2
0
LAYER
5
50
100
AcDbSymbolTableRecord
100
AcDbLayerTableRecord
2
0
70
0
6
CONTINUOUS
0
ENDTAB
0
TABLE
2
STYLE
5
3
100
AcDbSymbolTable
70
1
0
STYLE
5
11
100
AcDbSymbolTableRecord
100
AcDbTextStyleTableRecord
2
STANDARD
70
0
0
ENDTAB
0
TABLE
2
VIEW
5
6
100
AcDbSymbolTable
70
0
0
ENDTAB
0
TABLE
2
UCS
5
7
100
AcDbSymbolTable
70
0
0
ENDTAB
0
TABLE
2
APPID
5
9
100
AcDbSymbolTable
70
2
0
APPID
5
12
100
AcDbSymbolTableRecord
100
AcDbRegAppTableRecord
2
ACAD
70
0
0
ENDTAB
0
TABLE
2
DIMSTYLE
5
A
100
AcDbSymbolTable
70
1
0
ENDTAB
0
TABLE
2
BLOCK_RECORD
5
1
100
AcDbSymbolTable
70
1
0
BLOCK_RECORD
5
1F
100
AcDbSymbolTableRecord
100
AcDbBlockTableRecord
2
*MODEL_SPACE
0
BLOCK_RECORD
5
1B
100
AcDbSymbolTableRecord
100
AcDbBlockTableRecord
2
*PAPER_SPACE
0
ENDTAB
0
ENDSEC
0
SECTION
2
BLOCKS
0
BLOCK
5
20
100
AcDbEntity
100
AcDbBlockBegin
2
*MODEL_SPACE
0
ENDBLK
5
21
100
AcDbEntity
100
AcDbBlockEnd
0
BLOCK
5
1C
100
AcDbEntity
100
AcDbBlockBegin
2
*PAPER_SPACE
0
ENDBLK
5
1D
100
AcDbEntity
100
AcDbBlockEnd
0
ENDSEC
0
SECTION
2
ENTITIES
0
LWPOLYLINE
5
100
100
AcDbEntity
8
0
100
AcDbPolyline
90
4
70
1
43
0.0
10
-78.349261475561946
20
85.752291159957878
10
-78.349261475561946
20
99.751751159957792
10
-64.349961475561997
20
99.751751159957792
10
-64.349961475561997
20
85.752291159957878
0
LWPOLYLINE
5
101
100
AcDbEntity
8
0
100
AcDbPolyline
90
4
70
1
43
0.0
10
-137.65471518381145
20
97.87769080944544
10
-134.74406378467589
20
111.57122902001424
10
-121.0506820777232
20
108.6606108867492
10
-123.96133347685875
20
94.967072676180408
0
LWPOLYLINE
5
102
100
AcDbEntity
8
0
100
AcDbPolyline
90
4
70
1
43
0.0
10
-132.29857699690027
20
77.263620160427294
10
-129.38792559776471
20
90.957158370996098
10
-115.694543890812
20
88.046540237731051
10
-118.60519528994757
20
74.353002027162233
0
LWPOLYLINE
5
103
100
AcDbEntity
8
0
100
AcDbPolyline
90
4
70
1
43
0.0
10
-46.712822103869456
20
66.702291159957852
10
-46.712822103869456
20
80.70175115995778
10
-32.713522103869515
20
80.70175115995778
10
-32.713522103869515
20
66.702291159957852
0
LWPOLYLINE
5
104
100
AcDbEntity
8
0
100
AcDbPolyline
90
4
70
1
43
0.0
10
-112.96715496450486
20
53.679011228850406
10
-110.0565035653693
20
67.372549439419217
10
-96.363121858416591
20
64.461931306154156
10
-99.273773257552165
20
50.768393095585353
0
LWPOLYLINE
5
105
100
AcDbEntity
8
0
100
AcDbPolyline
90
4
70
1
43
0.0
10
-144.87844036555165
20
40.986375999988866
10
-141.96778896641607
20
54.679914210557676
10
-128.27440725946337
20
51.769296077292637
10
-131.18505865859896
20
38.075757866723819
0
LWPOLYLINE
5
106
100
AcDbEntity
8
0
100
AcDbPolyline
90
4
70
1
43
0.0
10
-66.857373741620748
20
28.602291159957836
10
-66.857373741620748
20
42.601751159957757
10
-52.858073741620814
20
42.601751159957757
10
-52.858073741620814
20
28.602291159957836
0
LWPOLYLINE
5
107
100
AcDbEntity
8
0
100
AcDbPolyline
90
4
70
1
43
0.0
10
-85.907373741620745
20
27.287808805395336
10
-85.907373741620745
20
41.287268805395257
10
-71.908073741620811
20
41.287268805395257
10
-71.908073741620811
20
27.287808805395336
0
LWPOLYLINE
5
108
100
AcDbEntity
8
0
100
AcDbPolyline
90
4
70
1
43
0.0
10
-163.51215215953067
20
44.947093710067179
10
-160.60150076039508
20
58.640631920636004
10
-146.90811905344239
20
55.73001378737095
10
-149.81877045257795
20
42.036475576802133
0
LWPOLYLINE
5
109
100
AcDbEntity
8
0
100
AcDbPolyline
90
4
70
1
43
0.0
10
-94.33344317052584
20
49.718293518772086
10
-91.422791771390251
20
63.411831729340904
10
-77.729410064437559
20
60.501213596075864
10
-80.640061463573133
20
46.807675385507046
0
LWPOLYLINE
5
110
100
AcDbEntity
8
0
100
AcDbPolyline
90
4
70
1
43
0.0
10
-72.906572103869465
20
66.702291159957852
10
-72.906572103869465
20
80.70175115995778
10
-58.907272103869524
20
80.70175115995778
10
-58.907272103869524
20
66.702291159957852
0
LWPOLYLINE
5
111
100
AcDbEntity
8
0
100
AcDbPolyline
90
4
70
1
43
0.0
10
-150.93228879087928
20
81.224337870505607
10
-148.0216373917437
20
94.917876081074411
10
-134.328255684791
20
92.007257947809364
10
-137.23890708392656
20
78.313719737240547
0
LWPOLYLINE
5
112
100
AcDbEntity
8
0
100
AcDbPolyline
90
4
70
1
43
0.0
10
-119.02100338983246
20
93.916973099367141
10
-116.11035199069688
20
107.61051130993593
10
-102.41697028374418
20
104.69989317667088
10
-105.32762168287975
20
91.006354966102094
0
LWPOLYLINE
5
113
100
AcDbEntity
8
0
100
AcDbPolyline
90
12
70
1
43
0.0
10
-23.868376231605637
20
85.752021159957806
10
-56.918361475561881
20
85.752021159957806
10
-56.918361475561881
20
99.75202115995782
10
-55.831361475561891
20
99.75202115995782
10
-55.831361475561891
20
100.75202115995781
10
-48.831361475561934
20
100.75202115995781
10
-48.831361475561934
20
99.75202115995782
10
-31.955361475561901
20
99.75202115995782
10
-31.955361475561901
20
100.75202115995781
10
-24.955361475561872
20
100.75202115995781
10
-24.955361475561872
20
99.75202115995782
10
-23.868376231605637
20
99.75202115995782
0
LWPOLYLINE
5
114
100
AcDbEntity
8
0
100
AcDbPolyline
90
4
70
1
43
0.0
10
-40.249261475561944
20
104.80229115995789
10
-40.249261475561944
20
118.8017511599578
10
-26.249961475562003
20
118.8017511599578
10
-26.249961475562003
20
104.80229115995789
0
LWPOLYLINE
5
115
100
AcDbEntity
8
0
100
AcDbPolyline
90
12
70
1
43
0.0
10
-128.45441831585396
20
129.7101879691775
10
-96.126640111601688
20
122.83870658765055
10
-99.037403783050308
20
109.14464017737728
10
-100.10065022504793
20
109.37064018529618
10
-100.30856191586571
20
108.39249258456236
10
-107.15559512100229
20
109.84787442028667
10
-106.94768343018454
20
110.82602202102049
10
-123.45490234016827
20
114.33473971526099
10
-123.66281403098603
20
113.35659211452719
10
-130.50984723612268
20
114.8119739502515
10
-130.30193554530493
20
115.79012155098532
10
-131.36518198730258
20
116.01612155890422
0
LWPOLYLINE
5
116
100
AcDbEntity
8
0
100
AcDbPolyline
90
4
70
1
43
0.0
10
-152.32770926771218
20
120.47212031350276
10
-149.41705786857659
20
134.16565852407157
10
-135.7236761616239
20
131.2550403908065
10
-138.63432756075949
20
117.56150218023771
0
LWPOLYLINE
5
117
100
AcDbEntity
8
0
100
AcDbPolyline
90
4
70
1
43
0.0
10
-113.66486520292131
20
73.302902450348967
10
-110.75421380378573
20
86.996440660917784
10
-97.06083209683301
20
84.085822527652724
10
-99.971483495968585
20
70.392284317083934
0
LWPOLYLINE
5
118
100
AcDbEntity
8
0
100
AcDbPolyline
90
4
70
1
43
0.0
10
-48.396361865453066
20
47.652291159957855
10
-48.396361865453066
20
61.651751159957783
10
-34.397061865453125
20
61.651751159957783
10
-34.397061865453125
20
47.652291159957855
0
LWPOLYLINE
5
119
100
AcDbEntity
8
0
100
AcDbPolyline
90
4
70
1
43
0.0
10
-117.90748505153115
20
54.729110805663666
10
-131.60086675848385
20
57.639728938928712
10
-128.69021535934826
20
71.33326714949753
10
-114.99683365239557
20
68.422649016232469
0
LWPOLYLINE
5
120
100
AcDbEntity
8
0
100
AcDbPolyline
90
4
70
1
43
0.0
10
-112.55134686461994
20
34.115040156645485
10
-126.24472857157265
20
37.025658289910545
10
-123.33407717243708
20
50.719196500479349
10
-109.64069546548437
20
47.808578367214302
0
LWPOLYLINE
5
121
100
AcDbEntity
8
0
100
AcDbPolyline
90
4
70
1
43
0.0
10
-47.807373741620736
20
28.602291159957836
10
-47.807373741620736
20
42.601751159957757
10
-33.808073741620802
20
42.601751159957757
10
-33.808073741620802
20
28.602291159957836
0
LWPOLYLINE
5
122
100
AcDbEntity
8
0
100
AcDbPolyline
90
4
70
1
43
0.0
10
-93.917635070640969
20
30.154322446567186
10
-107.61101677759365
20
33.064940579832232
10
-104.70036537845809
20
46.75847879040105
10
-91.006983671505395
20
43.847860657135996
0
LWPOLYLINE
5
123
100
AcDbEntity
8
0
100
AcDbPolyline
90
4
70
1
43
0.0
10
-150.23457855246284
20
61.600446649007026
10
-147.32392715332728
20
75.293984859575843
10
-133.63054544637458
20
72.383366726310797
10
-136.54119684551014
20
58.689828515741986
0
LWPOLYLINE
5
124
100
AcDbEntity
8
0
100
AcDbPolyline
90
4
70
1
43
0.0
10
-72.208861865453073
20
47.652291159957855
10
-72.208861865453073
20
61.651751159957783
10
-58.209561865453132
20
61.651751159957783
10
-58.209561865453132
20
47.652291159957855
0
LWPOLYLINE
5
125
100
AcDbEntity
8
0
100
AcDbPolyline
90
4
70
1
43
0.0
10
-95.031153408942288
20
69.342184740270653
10
-92.120502009806728
20
83.035722950839471
10
-78.427120302854007
20
80.125104817574439
10
-81.337771701989595
20
66.431566607005621
0
LWPOLYLINE
5
126
100
AcDbEntity
8
0
100
AcDbPolyline
90
4
70
1
43
0.0
10
-156.28842697779049
20
101.83840851952374
10
-153.37777557865491
20
115.53194673009253
10
-139.68439387170221
20
112.62132859682748
10
-142.5950452708378
20
98.927790386258678
0
LWPOLYLINE
5
127
100
AcDbEntity
8
0
100
AcDbPolyline
90
4
70
1
43
0.0
10
-100.38729159585345
20
89.956255389288785
10
-97.476640196717881
20
103.64979359985759
10
-83.783258489765188
20
100.73917546659254
10
-86.693909888900748
20
87.045637256023753
0
LWPOLYLINE
5
128
100
AcDbEntity
8
0
100
AcDbPolyline
90
4
70
1
43
0.0
10
-68.82426147556194
20
104.80229115995789
10
-68.82426147556194
20
118.8017511599578
10
-54.824961475562006
20
118.8017511599578
10
-54.824961475562006
20
104.80229115995789
0
LWPOLYLINE
5
129
100
AcDbEntity
8
0
100
AcDbPolyline
90
57
70
1
43
0.0
10
-80.703833381451048
20
102.61073473787563
42
0.11820535131973151
10
-80.914303994793613
20
102.71104639754847
10
-93.29612273516419
20
105.34288321622313
42
-0.41421356237309431
10
-94.451476600038262
20
107.12197215355049
10
-90.906582307525454
20
123.79938857702463
42
0.4142136636049582
10
-91.291700431520738
20
124.39241825873034
10
-95.601670662822357
20
125.30852915505022
10
-104.91849557297428
20
127.28903378018086
10
-104.91852620490612
20
127.28888966827205
10
-118.61257818391984
20
130.19965027226175
10
-118.61250726148397
20
130.19998393608893
10
-127.92933181908558
20
132.18049021990288
10
-127.92943407858013
20
132.1800091268058
10
-150.87311595625141
20
137.05683925877437
42
0.41421356237310525
10
-151.46614560202718
20
136.67172130381635
10
-159.17966933136609
20
100.38244531659215
42
0.41421356237310525
10
-158.79455137640807
20
99.789415670816354
10
-151.43399068088615
20
98.22488019741273
42
-0.41421356237309503
10
-150.2786368160121
20
96.445791260085372
10
-153.82353114445488
20
79.768374667574051
42
0.41421356237309798
10
-153.43841318949683
20
79.175345021798265
10
-150.73628044246971
20
78.60098897591422
42
-0.41421356237309642
10
-149.58092657759565
20
76.821900038586861
10
-152.91790921522067
20
61.122631046809275
42
-0.41421356237309709
10
-154.69699815254802
20
59.967277181935202
10
-162.0575588480699
20
61.53181265533884
42
0.41421356237306667
10
-162.65058849384573
20
61.146694700380834
10
-166.40339451310626
20
43.491130507135587
42
0.41421356237307949
10
-166.01827655814819
20
42.898100861359822
10
-92.259036469336039
20
27.220090396688242
42
-0.096731214267915408
10
-91.729936802556267
20
26.994953599576949
10
-88.5597016393601
20
24.848510604065481
42
0.14989890125314376
10
-88.279379238357961
20
24.762538805395295
10
-69.882723741620737
20
24.762538805395291
42
0.31508271291874707
10
-69.413012024327969
20
25.091159394035913
42
-0.31508271291874801
10
-68.003876872449695
20
26.077021159957781
10
-31.782723741620707
20
26.077021159957781
42
0.41421356237309503
10
-31.28272374162071
20
26.577021159957781
10
-31.28272374162071
20
43.627021159957806
42
-0.41421356237309503
10
-29.782723741620707
20
45.127021159957806
10
-27.609211865453041
20
45.127021159957806
42
0.41421356237309764
10
-27.109211865453041
20
45.62702115995782
10
-27.109211865453045
20
62.677021159957803
42
-0.41421356237309503
10
-25.609211865453041
20
64.177021159957803
10
-23.544422103869429
20
64.177021159957803
42
0.41421356237309764
10
-23.044422103869429
20
64.677021159957803
10
-23.044422103869433
20
81.727021159957815
42
-0.41421356237309503
10
-21.544422103869429
20
83.227021159957815
10
-19.462111475561922
20
83.227021159957815
42
0.41421356237309503
10
-18.962111475561915
20
83.727021159957815
10
-18.962111475561922
20
120.82702115995784
42
0.41421356237309243
10
-19.462111475561919
20
121.32702115995784
10
-75.612111475561917
20
121.32702115995784
42
0.41421356237308982
10
-76.112111475561917
20
120.82702115995784
10
-76.112111475561917
20
103.77702115995783
42
-0.41421356237309503
10
-77.612111475561932
20
102.27702115995783
10
-79.760554005196724
20
102.27702115995783
42
-0.17167664682207026
0
LWPOLYLINE
5
130
100
AcDbEntity
8
0
100
AcDbPolyline
90
4
70
1
43
0.0
10
-355.52465515580184
20
64.475271206994108
10
-355.52465515580184
20
78.474731206994036
10
-341.52535515580183
20
78.474731206994036
10
-341.52535515580183
20
64.475271206994108
0
LWPOLYLINE
5
131
100
AcDbEntity
8
0
100
AcDbPolyline
90
4
70
1
43
0.0
10
-355.53335345783131
20
104.80229115995789
10
-355.53335345783131
20
118.80175115995782
10
-341.53405345783136
20
118.80175115995782
10
-341.53405345783136
20
104.80229115995789
0
LWPOLYLINE
5
132
100
AcDbEntity
8
0
100
AcDbPolyline
90
4
70
1
43
0.0
10
-265.04585345783136
20
85.752291159957878
10
-265.04585345783136
20
99.751751159957806
10
-251.04655345783135
20
99.751751159957806
10
-251.04655345783135
20
85.752291159957878
0
LWPOLYLINE
5
133
100
AcDbEntity
8
0
100
AcDbPolyline
90
4
70
1
43
0.0
10
-264.52558943763398
20
46.911700026893882
10
-264.52558943763398
20
60.911160026893796
10
-250.52628943763403
20
60.911160026893796
10
-250.52628943763403
20
46.911700026893882
0
LWPOLYLINE
5
134
100
AcDbEntity
8
0
100
AcDbPolyline
90
12
70
1
43
0.0
10
-291.32588535786186
20
28.602021159957744
10
-324.37588535786188
20
28.602021159957744
10
-324.37588535786188
20
42.602021159957744
10
-323.28888535786189
20
42.602021159957744
10
-323.28888535786189
20
43.602021159957744
10
-316.28888535786194
20
43.602021159957744
10
-316.28888535786194
20
42.602021159957744
10
-299.41288535786191
20
42.602021159957744
10
-299.41288535786191
20
43.602021159957744
10
-292.41288535786185
20
43.602021159957744
10
-292.41288535786185
20
42.602021159957744
10
-291.32588535786186
20
42.602021159957744
0
LWPOLYLINE
5
135
100
AcDbEntity
8
0
100
AcDbPolyline
90
4
70
1
43
0.0
10
-207.52761217178397
20
36.09539901168462
10
-210.43826357091956
20
49.788937222253431
10
-196.74488186396678
20
52.699555355518484
10
-193.83423046483119
20
39.006017144949681
0
LWPOLYLINE
5
136
100
AcDbEntity
8
0
100
AcDbPolyline
90
4
70
1
43
0.0
10
-223.5479292303163
20
52.165763833038248
10
-226.45858062945189
20
65.859302043607059
10
-212.76519892249917
20
68.76992017687212
10
-209.85454752336358
20
55.076381966303309
0
LWPOLYLINE
5
137
100
AcDbEntity
8
0
100
AcDbPolyline
90
4
70
1
43
0.0
10
-197.09723793649312
20
77.263620160427266
10
-210.79061964344584
20
74.353002027162219
10
-213.70127104258137
20
88.046540237731037
10
-200.00788933562865
20
90.957158370996069
0
LWPOLYLINE
5
138
100
AcDbEntity
8
0
100
AcDbPolyline
90
4
70
1
43
0.0
10
-224.06819325051367
20
91.006354966102066
10
-226.97884464964926
20
104.69989317667087
10
-213.28546294269654
20
107.61051130993593
10
-210.37481154356095
20
93.916973099367098
0
LWPOLYLINE
5
139
100
AcDbEntity
8
0
100
AcDbPolyline
90
12
70
1
43
0.0
10
-186.96611277205503
20
132.68072625173616
10
-184.05534910060638
20
118.98665984146288
10
-185.118595542604
20
118.76065983354397
10
-184.91068385178625
20
117.78251223281018
10
-191.75771705692284
20
116.32713039708588
10
-191.9656287477406
20
117.30527799781967
10
-208.47284765772432
20
113.79656030357914
10
-208.26493596690656
20
112.81841270284534
10
-215.11196917204325
20
111.36303086712104
10
-215.319880862861
20
112.34117846785483
10
-216.38312730485865
20
112.11517845993595
10
-219.2938909763073
20
125.80924487020923
0
LWPOLYLINE
5
140
100
AcDbEntity
8
0
100
AcDbPolyline
90
4
70
1
43
0.0
10
-186.80076966255567
20
98.927790386258678
10
-189.71142106169123
20
112.62132859682751
10
-176.01803935473845
20
115.53194673009256
10
-173.10738795560292
20
101.83840851952374
0
LWPOLYLINE
5
141
100
AcDbEntity
8
0
100
AcDbPolyline
90
4
70
1
43
0.0
10
-242.70190504449261
20
87.045637256023724
10
-245.61255644362819
20
100.73917546659254
10
-231.91917473667544
20
103.6497935998576
10
-229.00852333753986
20
89.956255389288771
0
LWPOLYLINE
5
142
100
AcDbEntity
8
0
100
AcDbPolyline
90
4
70
1
43
0.0
10
-192.15690784946676
20
78.313719737240532
10
-195.06755924860238
20
92.007257947809336
10
-181.3741775416496
20
94.917876081074382
10
-178.46352614251401
20
81.224337870505593
0
LWPOLYLINE
5
143
100
AcDbEntity
8
0
100
AcDbPolyline
90
4
70
1
43
0.0
10
-242.18164102429535
20
48.205046122959921
10
-245.09229242343088
20
61.898584333528738
10
-231.39891071647813
20
64.809202466793778
10
-228.48825931734257
20
51.115664256224974
0
LWPOLYLINE
5
144
100
AcDbEntity
8
0
100
AcDbPolyline
90
4
70
1
43
0.0
10
-188.89390037780493
20
40.056116721762947
10
-191.80455177694054
20
53.749654932331751
10
-178.11117006998782
20
56.660273065596805
10
-175.2005186708522
20
42.966734855028008
0
LWPOLYLINE
5
145
100
AcDbEntity
8
0
100
AcDbPolyline
90
4
70
1
43
0.0
10
-312.438789437634
20
47.652291159957791
10
-326.43808943763406
20
47.652291159957791
10
-326.43808943763406
20
61.651751159957712
10
-312.438789437634
20
61.651751159957712
0
LWPOLYLINE
5
146
100
AcDbEntity
8
0
100
AcDbPolyline
90
4
70
1
43
0.0
10
-270.48854282952431
20
66.70229115995788
10
-270.48854282952431
20
80.701751159957809
10
-256.4892428295243
20
80.701751159957809
10
-256.4892428295243
20
66.70229115995788
0
LWPOLYLINE
5
147
100
AcDbEntity
8
0
100
AcDbPolyline
90
4
70
1
43
0.0
10
-284.09585345783137
20
85.752291159957878
10
-284.09585345783137
20
99.751751159957806
10
-270.09655345783136
20
99.751751159957806
10
-270.09655345783136
20
85.752291159957878
0
LWPOLYLINE
5
148
100
AcDbEntity
8
0
100
AcDbPolyline
90
4
70
1
43
0.0
10
-336.48335345783124
20
104.80229115995789
10
-336.48335345783124
20
118.80175115995782
10
-322.48405345783124
20
118.80175115995782
10
-322.48405345783124
20
104.80229115995789
0
LWPOLYLINE
5
149
100
AcDbEntity
8
0
100
AcDbPolyline
90
4
70
1
43
0.0
10
-353.52465515580178
20
45.425271206994111
10
-353.52465515580178
20
59.424731206994032
10
-339.52535515580178
20
59.424731206994032
10
-339.52535515580178
20
45.425271206994111
0
LWPOLYLINE
5
150
100
AcDbEntity
8
0
100
AcDbPolyline
90
4
70
1
43
0.0
10
-293.62085345783134
20
104.80229115995789
10
-293.62085345783134
20
118.80175115995782
10
-279.62155345783134
20
118.80175115995782
10
-279.62155345783134
20
104.80229115995789
0
LWPOLYLINE
5
151
100
AcDbEntity
8
0
100
AcDbPolyline
90
4
70
1
43
0.0
10
-336.48335345783124
20
85.752291159957878
10
-336.48335345783124
20
99.751751159957806
10
-322.48405345783124
20
99.751751159957806
10
-322.48405345783124
20
85.752291159957878
0
LWPOLYLINE
5
152
100
AcDbEntity
8
0
100
AcDbPolyline
90
12
70
1
43
0.0
10
-296.97014282952421
20
66.702021159957795
10
-330.02014282952422
20
66.702021159957795
10
-330.02014282952422
20
80.702021159957809
10
-328.93314282952423
20
80.702021159957809
10
-328.93314282952423
20
81.702021159957795
10
-321.93314282952429
20
81.702021159957795
10
-321.93314282952429
20
80.702021159957809
10
-305.05714282952425
20
80.702021159957809
10
-305.05714282952425
20
81.702021159957795
10
-298.0571428295242
20
81.702021159957795
10
-298.0571428295242
20
80.702021159957809
10
-296.97014282952421
20
80.702021159957809
0
LWPOLYLINE
5
153
100
AcDbEntity
8
0
100
AcDbPolyline
90
4
70
1
43
0.0
10
-283.57558943763399
20
47.652291159957805
10
-283.57558943763399
20
61.651751159957726
10
-269.57628943763405
20
61.651751159957726
10
-269.57628943763405
20
47.652291159957805
0
LWPOLYLINE
5
154
100
AcDbEntity
8
0
100
AcDbPolyline
90
4
70
1
43
0.0
10
-272.27623535786199
20
28.602291159957794
10
-286.275535357862
20
28.602291159957794
10
-286.275535357862
20
42.601751159957715
10
-272.27623535786199
20
42.601751159957715
0
LWPOLYLINE
5
155
100
AcDbEntity
8
0
100
AcDbPolyline
90
4
70
1
43
0.0
10
-212.46794225881018
20
35.045299434871374
10
-226.1613239657629
20
32.134681301606321
10
-229.07197536489846
20
45.828219512175117
10
-215.37859365794574
20
48.738837645440178
0
LWPOLYLINE
5
156
100
AcDbEntity
8
0
100
AcDbPolyline
90
4
70
1
43
0.0
10
-204.91421743633725
20
56.126481543116491
10
-207.82486883547284
20
69.820019753685301
10
-194.13148712852009
20
72.730637886950348
10
-191.2208357293845
20
59.037099676381537
0
LWPOLYLINE
5
157
100
AcDbEntity
8
0
100
AcDbPolyline
90
4
70
1
43
0.0
10
-229.42433143742483
20
70.39228431708392
10
-232.33498283656041
20
84.085822527652738
10
-218.64160112960764
20
86.996440660917784
10
-215.73094973047208
20
73.302902450348981
0
LWPOLYLINE
5
158
100
AcDbEntity
8
0
100
AcDbPolyline
90
4
70
1
43
0.0
10
-233.09315899738675
20
109.17295530085418
10
-246.7865407043395
20
106.26233716758911
10
-249.69719210347506
20
119.95587537815791
10
-236.00381039652231
20
122.86649351142299
0
LWPOLYLINE
5
159
100
AcDbEntity
8
0
100
AcDbPolyline
90
4
70
1
43
0.0
10
-205.43448145653463
20
94.967072676180379
10
-208.34513285567022
20
108.66061088674918
10
-194.65175114871744
20
111.57122902001421
10
-191.74109974958188
20
97.877690809445426
0
LWPOLYLINE
5
160
100
AcDbEntity
8
0
100
AcDbPolyline
90
4
70
1
43
0.0
10
-248.05804323140379
20
66.431566607005578
10
-250.96869463053935
20
80.125104817574396
10
-237.27531292358663
20
83.035722950839457
10
-234.36466152445107
20
69.342184740270639
0
LWPOLYLINE
5
161
100
AcDbEntity
8
0
100
AcDbPolyline
90
4
70
1
43
0.0
10
-186.28050564235824
20
60.087199253194811
10
-189.19115704149385
20
73.780737463763614
10
-175.49777533454113
20
76.691355597028675
10
-172.58712393540551
20
62.997817386459865
0
LWPOLYLINE
5
162
100
AcDbEntity
8
0
100
AcDbPolyline
90
4
70
1
43
0.0
10
-244.79503575974195
20
28.173963591528015
10
-247.70568715887751
20
41.867501802096818
10
-234.01230545192476
20
44.778119935361865
10
-231.1016540527892
20
31.084581724793061
0
LWPOLYLINE
5
163
100
AcDbEntity
8
0
100
AcDbPolyline
90
4
70
1
43
0.0
10
-267.22553535786199
20
27.861700026893867
10
-267.22553535786199
20
41.861160026893785
10
-253.22623535786198
20
41.861160026893785
10
-253.22623535786198
20
27.861700026893867
0
LWPOLYLINE
5
164
100
AcDbEntity
8
0
100
AcDbPolyline
90
4
70
1
43
0.0
10
-302.62558943763401
20
47.652291159957805
10
-302.62558943763401
20
61.651751159957726
10
-288.62628943763406
20
61.651751159957726
10
-288.62628943763406
20
47.652291159957805
0
LWPOLYLINE
5
165
100
AcDbEntity
8
0
100
AcDbPolyline
90
4
70
1
43
0.0
10
-289.53854282952432
20
66.702291159957866
10
-289.53854282952432
20
80.701751159957794
10
-275.53924282952431
20
80.701751159957794
10
-275.53924282952431
20
66.702291159957866
0
LWPOLYLINE
5
166
100
AcDbEntity
8
0
100
AcDbPolyline
90
4
70
1
43
0.0
10
-310.28960345783133
20
85.752291159957878
10
-310.28960345783133
20
99.751751159957806
10
-296.29030345783133
20
99.751751159957806
10
-296.29030345783133
20
85.752291159957878
0
LWPOLYLINE
5
167
100
AcDbEntity
8
0
100
AcDbPolyline
90
4
70
1
43
0.0
10
-317.43335345783129
20
104.80229115995789
10
-317.43335345783129
20
118.80175115995782
10
-303.43405345783134
20
118.80175115995782
10
-303.43405345783134
20
104.80229115995789
0
LWPOLYLINE
5
168
100
AcDbEntity
8
0
100
AcDbPolyline
90
4
70
1
43
0.0
10
-337.52535515580178
20
26.375271206994103
10
-351.52465515580172
20
26.375271206994103
10
-351.52465515580172
20
40.374731206994028
10
-337.52535515580178
20
40.374731206994028
0
LWPOLYLINE
5
169
100
AcDbEntity
8
0
100
AcDbPolyline
90
69
70
1
43
0.0
10
-229.24335966946194
20
126.73282578457176
42
0.20078555056507516
10
-229.62264923505347
20
126.80453722136191
10
-256.86174445058737
20
121.01468879934569
42
0.41421356237306667
10
-257.24686240554541
20
120.42165915356992
10
-253.77522487457881
20
104.08888869618416
42
-0.47697553269814935
10
-255.24244627567955
20
102.2770211599576
10
-270.83370345783129
20
102.27702115995783
42
-0.41421356237308815
10
-272.33370345783123
20
103.77702115995781
10
-272.33370345783123
20
120.82702115995784
42
0.41421356237310542
10
-272.83370345783123
20
121.32702115995785
10
-357.55870345783137
20
121.32702115995784
42
0.4142135623730534
10
-358.05870345783137
20
120.82702115995784
10
-358.05870345783137
20
102.77702115995783
42
0.4142135623730534
10
-357.55870345783137
20
102.2770211599578
10
-340.50870345783119
20
102.27702115995783
42
-0.41421356237309503
10
-339.00870345783119
20
100.77702115995784
10
-339.00870345783125
20
82.500001206994057
42
-0.41421356237309503
10
-340.50870345783125
20
81.000001206994057
10
-357.55000515580178
20
81.000001206994057
42
0.4142135623730534
10
-358.05000515580173
20
80.500001206994057
10
-358.05000515580173
20
62.450001206994052
42
0.41421356237310542
10
-357.55000515580178
20
61.950001206994038
42
-0.41421356237310897
10
-356.05000515580173
20
60.450001206994052
10
-356.05000515580173
20
43.400001206994048
42
0.41421356237311585
10
-355.55000515580173
20
42.900001206994034
42
-0.41421356237310897
10
-354.05000515580173
20
41.400001206994048
10
-354.05000515580173
20
24.350001206994047
42
0.41421356237311063
10
-353.55000515580173
20
23.850001206994051
10
-335.50000515580166
20
23.850001206994051
42
0.41421356237311063
10
-335.00000515580166
20
24.350001206994047
10
-335.00000515580177
20
24.577021399375482
42
-0.41421351562387609
10
-333.50000539521943
20
26.077021399375461
10
-324.37587797863603
20
26.077022855694185
10
-314.85087798103064
20
26.076873828503135
10
-314.85087798103064
20
26.077021159957745
10
-300.85089273469316
20
26.077021159957745
10
-300.85089273469316
20
26.076680041882145
10
-291.32589273707435
20
26.076529318954655
10
-291.32589273707435
20
26.077021159957745
10
-270.80455498358128
20
26.077021159957742
42
-0.22614700779007013
10
-269.63930276429176
20
25.521577810159787
42
0.22614700779010968
10
-269.25088535786193
20
25.336430026893805
10
-250.73071720095396
20
25.336430026893815
42
-0.0099429646133479908
10
-250.67107710412105
20
25.335243910886675
10
-246.80274510050165
20
25.18131706397017
42
0.062383251103321699
10
-246.67890922281515
20
25.19184789160089
10
-172.69439427223455
20
40.917742006320658
42
0.41421356237302964
10
-172.3092763172765
20
41.510771652096452
10
-175.85417064571928
20
58.188188244607808
42
-0.41421356237309642
10
-174.69881678084519
20
59.967277181935152
10
-170.08099953678783
20
60.948824537752515
42
0.41421356237306162
10
-169.69588158182984
20
61.541854183528301
10
-173.44868760109037
20
79.197418376773513
42
0.40814594918641445
10
-174.03154216921132
20
79.584588958671759
42
-0.40814594918642805
10
-175.78010587357423
20
80.746100704366484
10
-179.11717811738117
20
96.4457912600854
42
-0.41421356237309848
10
-177.96182425250709
20
98.224880197412773
10
-170.6012635569852
20
99.78941567081641
42
0.41421356237305651
10
-170.21614560202721
20
100.38244531659218
10
-177.92966931313396
20
136.67172121804111
42
0.41421361374168503
10
-178.522699044685
20
137.05683915476703
10
-187.49109665676548
20
135.15054575068399
10
-196.80798353592104
20
133.17033266672928
10
-196.80795290398919
20
133.17018855482044
10
-210.50200488300294
20
130.25942795083071
10
-210.50207580543881
20
130.25976161465792
10
-219.81896303715774
20
128.27955018938377
10
-219.81886077766319
20
128.27906909628663
10
-228.10549097268733
20
126.51769147420131
42
-0.2007855505651383
0
ENDSEC
0
SECTION
2
OBJECTS
0
DICTIONARY
5
C
100
AcDbDictionary
3
ACAD_GROUP
350
D
3
ACAD_MLINESTYLE
350
17
0
DICTIONARY
5
D
100
AcDbDictionary
0
DICTIONARY
5
1A
330
C
100
AcDbDictionary
0
DICTIONARY
5
17
100
AcDbDictionary
0
ENDSEC
0
EOF
