0
SECTION
2
HEADER
9
$INSUNITS
70
4
9
$ACADVER
1
AC1014
9
$HANDSEED
5
FFFF
0
ENDSEC
0
SECTION
2
TABLES
0
TABLE
2
VPORT
5
8
100
AcDbSymbolTable
0
ENDTAB
0
TABLE
2
LTYPE
5
5
100
AcDbSymbolTable
0
LTYPE
5
14
100
AcDbSymbolTableRecord
100
AcDbLinetypeTableRecord
2
BYBLOCK
70
0
0
LTYPE
5
15
100
AcDbSymbolTableRecord
100
AcDbLinetypeTableRecord
2
BYLAYER
70
0
0
ENDTAB
0
TABLE
2
LAYER
5
2
100
AcDbSymbolTable
70
2
0
LAYER
5
50
100
AcDbSymbolTableRecord
100
AcDbLayerTableRecord
2
0
70
0
6
CONTINUOUS
0
ENDTAB
0
TABLE
2
STYLE
5
3
100
AcDbSymbolTable
70
1
0
STYLE
5
11
100
AcDbSymbolTableRecord
100
AcDbTextStyleTableRecord
2
STANDARD
70
0
0
ENDTAB
0
TABLE
2
VIEW
5
6
100
AcDbSymbolTable
70
0
0
ENDTAB
0
TABLE
2
UCS
5
7
100
AcDbSymbolTable
70
0
0
ENDTAB
0
TABLE
2
APPID
5
9
100
AcDbSymbolTable
70
2
0
APPID
5
12
100
AcDbSymbolTableRecord
100
AcDbRegAppTableRecord
2
ACAD
70
0
0
ENDTAB
0
TABLE
2
DIMSTYLE
5
A
100
AcDbSymbolTable
70
1
0
ENDTAB
0
TABLE
2
BLOCK_RECORD
5
1
100
AcDbSymbolTable
70
1
0
BLOCK_RECORD
5
1F
100
AcDbSymbolTableRecord
100
AcDbBlockTableRecord
2
*MODEL_SPACE
0
BLOCK_RECORD
5
1B
100
AcDbSymbolTableRecord
100
AcDbBlockTableRecord
2
*PAPER_SPACE
0
ENDTAB
0
ENDSEC
0
SECTION
2
BLOCKS
0
BLOCK
5
20
100
AcDbEntity
100
AcDbBlockBegin
2
*MODEL_SPACE
0
ENDBLK
5
21
100
AcDbEntity
100
AcDbBlockEnd
0
BLOCK
5
1C
100
AcDbEntity
100
AcDbBlockBegin
2
*PAPER_SPACE
0
ENDBLK
5
1D
100
AcDbEntity
100
AcDbBlockEnd
0
ENDSEC
0
SECTION
2
ENTITIES
0
LWPOLYLINE
5
100
100
AcDbEntity
8
0
100
AcDbPolyline
90
73
70
1
43
0.0
10
-151.46614560202718
20
136.67172130381635
10
-159.03107982546675
20
101.08150397999862
42
-0.35411857253069695
10
-160.49830122656746
20
99.893371516225244
10
-168.89751370682578
20
99.893371516225287
42
-0.35411857253069695
10
-170.36473510792649
20
101.08150397999864
10
-177.92966933136603
20
136.67172130381638
42
0.41421356237300494
10
-178.5226989771418
20
137.0568392587744
10
-228.10549097268733
20
126.51769147420129
42
-0.20078555056514985
10
-229.24335966946194
20
126.73282578457173
42
0.20078555056517836
10
-229.62264923505347
20
126.8045372213619
10
-256.86174445058731
20
121.01468879934565
42
0.41421356237311541
10
-257.24686240554541
20
120.42165915356992
10
-253.77522487457881
20
104.08888869618416
42
-0.47697553269815085
10
-255.24244627567955
20
102.27702115995761
10
-270.83370345783129
20
102.27702115995781
42
-0.4142135623730846
10
-272.33370345783129
20
103.77702115995781
10
-272.33370345783129
20
120.82702115995784
42
0.41421356237316787
10
-272.83370345783123
20
121.32702115995785
10
-357.55870345783137
20
121.32702115995787
42
0.41421356237306384
10
-358.05870345783137
20
120.82702115995784
10
-358.05870345783137
20
102.77702115995783
42
0.41421356237303258
10
-357.55870345783137
20
102.27702115995783
10
-340.50870345783125
20
102.27702115995785
42
-0.41421356237307422
10
-339.00870345783119
20
100.77702115995784
10
-339.00870345783113
20
82.500001206994057
42
-0.41421356237309853
10
-340.50870345783107
20
81.000001206994071
10
-357.55000515580178
20
81.000001206994085
42
0.41421356237306384
10
-358.05000515580173
20
80.500001206994057
10
-358.05000515580173
20
62.450001206994052
42
0.41421356237310542
10
-357.55000515580178
20
61.950001206994003
42
-0.41421356237312978
10
-356.05000515580173
20
60.450001206994052
10
-356.05000515580173
20
43.400001206994048
42
0.41421356237312101
10
-355.55000515580173
20
42.900001206993991
42
-0.41421356237312801
10
-354.05000515580173
20
41.400001206994048
10
-354.05000515580173
20
22.350001242036441
42
0.4142135829004891
10
-353.55000512075935
20
21.85000124203642
10
-176.22571701174763
20
21.850013669773443
42
-0.41421358290045363
10
-174.72571690662048
20
20.35001366977346
10
-174.72571690662045
20
16.635023828073951
42
0.41421356237303908
10
-174.22571690662045
20
16.135023828073933
10
-163.79571690662047
20
16.135023828073923
42
0.4142135623729884
10
-163.29571690662047
20
16.635023828073948
10
-163.29571690662047
20
20.350014681097107
42
-0.41421354184572379
10
-161.79571701174766
20
21.85001468109709
10
-31.782723601451153
20
21.850023793031561
42
0.41421356237311846
10
-31.282723636493532
20
22.350023828073958
10
-31.282723741620728
20
23.850023828073951
10
-31.282723741620721
20
43.627021159957806
42
-0.41421356237309331
10
-29.782723741620725
20
45.127021159957806
10
-27.609211865453062
20
45.127021159957827
42
0.41421356237310281
10
-27.109211865453059
20
45.62702115995782
10
-27.109211865453055
20
62.677021159957803
42
-0.41421356237309331
10
-25.609211865453059
20
64.177021159957803
10
-23.544422103869451
20
64.177021159957818
42
0.41421356237310281
10
-23.044422103869447
20
64.677021159957803
10
-23.044422103869429
20
81.727021159957815
42
-0.41421356237309764
10
-21.544422103869447
20
83.227021159957815
10
-19.46211147556194
20
83.227021159957815
42
0.41421356237310675
10
-18.962111475561947
20
83.727021159957815
10
-18.962111475561937
20
120.82702115995784
42
0.41421356237309243
10
-19.46211147556194
20
121.32702115995784
10
-75.612111475561903
20
121.32702115995784
42
0.41421356237308982
10
-76.112111475561903
20
120.82702115995784
10
-76.112111475561917
20
103.77702115995785
42
-0.41421356237310025
10
-77.612111475561903
20
102.27702115995783
10
-79.760554005196724
20
102.27702115995783
42
-0.17167664682206307
10
-80.703833381451034
20
102.61073473787563
42
0.1182053513196108
10
-80.914303994793613
20
102.71104639754847
10
-93.296122735164175
20
105.34288321622316
42
-0.41421356237309503
10
-94.451476600038248
20
107.12197215355053
10
-90.906582271595497
20
123.79938874606191
42
0.41421356237316848
10
-91.291700226553516
20
124.39241839183768
10
-150.87311595625141
20
137.05683925877437
42
0.41421356237308055
0
ENDSEC
0
SECTION
2
OBJECTS
0
DICTIONARY
5
C
100
AcDbDictionary
3
ACAD_GROUP
350
D
3
ACAD_MLINESTYLE
350
17
0
DICTIONARY
5
D
100
AcDbDictionary
0
DICTIONARY
5
1A
330
C
100
AcDbDictionary
0
DICTIONARY
5
17
100
AcDbDictionary
0
ENDSEC
0
EOF
