0
SECTION
2
HEADER
9
$INSUNITS
70
4
9
$ACADVER
1
AC1014
9
$HANDSEED
5
FFFF
0
ENDSEC
0
SECTION
2
TABLES
0
TABLE
2
VPORT
5
8
100
AcDbSymbolTable
0
ENDTAB
0
TABLE
2
LTYPE
5
5
100
AcDbSymbolTable
0
LTYPE
5
14
100
AcDbSymbolTableRecord
100
AcDbLinetypeTableRecord
2
BYBLOCK
70
0
0
LTYPE
5
15
100
AcDbSymbolTableRecord
100
AcDbLinetypeTableRecord
2
BYLAYER
70
0
0
ENDTAB
0
TABLE
2
LAYER
5
2
100
AcDbSymbolTable
70
2
0
LAYER
5
50
100
AcDbSymbolTableRecord
100
AcDbLayerTableRecord
2
0
70
0
6
CONTINUOUS
0
ENDTAB
0
TABLE
2
STYLE
5
3
100
AcDbSymbolTable
70
1
0
STYLE
5
11
100
AcDbSymbolTableRecord
100
AcDbTextStyleTableRecord
2
STANDARD
70
0
0
ENDTAB
0
TABLE
2
VIEW
5
6
100
AcDbSymbolTable
70
0
0
ENDTAB
0
TABLE
2
UCS
5
7
100
AcDbSymbolTable
70
0
0
ENDTAB
0
TABLE
2
APPID
5
9
100
AcDbSymbolTable
70
2
0
APPID
5
12
100
AcDbSymbolTableRecord
100
AcDbRegAppTableRecord
2
ACAD
70
0
0
ENDTAB
0
TABLE
2
DIMSTYLE
5
A
100
AcDbSymbolTable
70
1
0
ENDTAB
0
TABLE
2
BLOCK_RECORD
5
1
100
AcDbSymbolTable
70
1
0
BLOCK_RECORD
5
1F
100
AcDbSymbolTableRecord
100
AcDbBlockTableRecord
2
*MODEL_SPACE
0
BLOCK_RECORD
5
1B
100
AcDbSymbolTableRecord
100
AcDbBlockTableRecord
2
*PAPER_SPACE
0
ENDTAB
0
ENDSEC
0
SECTION
2
BLOCKS
0
BLOCK
5
20
100
AcDbEntity
100
AcDbBlockBegin
2
*MODEL_SPACE
0
ENDBLK
5
21
100
AcDbEntity
100
AcDbBlockEnd
0
BLOCK
5
1C
100
AcDbEntity
100
AcDbBlockBegin
2
*PAPER_SPACE
0
ENDBLK
5
1D
100
AcDbEntity
100
AcDbBlockEnd
0
ENDSEC
0
SECTION
2
ENTITIES
0
LWPOLYLINE
5
100
100
AcDbEntity
8
0
100
AcDbPolyline
90
68
70
1
43
0.0
10
-229.14013707049139
20
126.60243450256598
42
0.20078555056514386
10
-229.89871620167449
20
126.74585737614626
10
-256.37267065022047
20
121.11864464475457
42
0.41421356237305001
10
-257.14290656013657
20
119.93258535320308
10
-253.64685009667824
20
103.48493285077529
42
-0.47697553269814036
10
-254.62499769741203
20
102.2770211599576
10
-271.33370345783123
20
102.2770211599578
42
-0.41421356237309503
10
-272.33370345783123
20
103.2770211599578
10
-272.33370345783123
20
120.32702115995784
42
0.41421356237305862
10
-273.33370345783123
20
121.32702115995784
10
-357.05870345783131
20
121.32702115995784
42
0.41421356237307422
10
-358.05870345783143
20
120.32702115995782
10
-358.05870345783137
20
103.27702115995783
42
0.4142135623730222
10
-357.05870345783137
20
102.27702115995777
10
-340.00870345783119
20
102.27702115995783
42
-0.41421356237309503
10
-339.00870345783119
20
101.27702115995781
10
-339.00870345783125
20
82.000001206994057
42
-0.41421356237309503
10
-340.0087034578313
20
81.000001206994057
10
-357.05000515580173
20
81.000001206994057
42
0.41421356237307422
10
-358.05000515580184
20
80.000001206994042
10
-358.05000515580173
20
62.950001206994052
42
0.41421356237305079
10
-357.05000515580184
20
61.950001206994074
42
-0.41421356237311585
10
-356.05000515580173
20
60.95000120699406
10
-356.05000515580173
20
43.900001206994048
42
0.41421356237304563
10
-355.05000515580178
20
42.900001206994069
42
-0.41421356237311585
10
-354.05000515580173
20
41.900001206994055
10
-354.05000515580173
20
24.850001277078849
42
0.41421358290046179
10
-353.05000508571698
20
23.850001277078835
10
-175.72571697670523
20
23.850013704815879
42
-0.41421358290045007
10
-174.72571690662045
20
22.850013704815872
10
-174.72571690662048
20
19.135023828073948
42
0.41421356237307422
10
-173.72571690662045
20
18.135023828073933
10
-164.29571690662047
20
18.135023828073948
42
0.41421356237307422
10
-163.29571690662047
20
19.135023828073948
10
-163.29571690662038
20
22.850014646054714
42
-0.41421354184574027
10
-162.29571697670519
20
23.85001464605471
10
-32.282723671535933
20
23.850023757989156
42
0.41421354184573894
10
-31.282723741620725
20
24.850023757989153
10
-31.282723741620728
20
44.127021159957813
42
-0.41421356237309503
10
-30.282723741620732
20
45.127021159957806
10
-28.109211865453062
20
45.127021159957806
42
0.41421356237309243
10
-27.109211865453059
20
46.127021159957806
10
-27.109211865453062
20
63.177021159957803
42
-0.41421356237309503
10
-26.109211865453066
20
64.177021159957803
10
-24.044422103869451
20
64.177021159957803
42
0.41421356237309243
10
-23.044422103869447
20
65.177021159957803
10
-23.044422103869451
20
82.227021159957815
42
-0.41421356237309503
10
-22.044422103869454
20
83.227021159957815
10
-19.96211147556194
20
83.227021159957815
42
0.41421356237309631
10
-18.96211147556194
20
84.227021159957829
10
-18.96211147556194
20
120.32702115995784
42
0.4142135623730937
10
-19.962111475561937
20
121.32702115995784
10
-75.112111475561903
20
121.32702115995784
42
0.41421356237309764
10
-76.112111475561917
20
120.32702115995782
10
-76.112111475561903
20
103.27702115995783
42
-0.41421356237309503
10
-77.112111475561903
20
102.27702115995783
10
-79.982716974560006
20
102.27702115995783
42
-0.18134638193953065
10
-80.640285650389032
20
102.52362655115815
42
0.12772471195510868
10
-81.08994263540032
20
102.74837954309223
10
-93.785196535531114
20
105.44683906163203
42
-0.41421356237308998
10
-94.555432445447138
20
106.63289835318359
10
-91.010538117004359
20
123.31031494569501
42
0.41421356237310525
10
-91.780774026920398
20
124.49637423724656
10
-151.25938230106621
20
137.13894270491704
42
0.052407779283046498
10
-151.46729399188396
20
137.16079510418325
10
-177.92852094150933
20
137.16079510418328
42
0.052407779283045158
10
-178.13643263232709
20
137.13894270491707
10
-228.38155793930832
20
126.45901162898568
42
-0.20078555056514166
0
ENDSEC
0
SECTION
2
OBJECTS
0
DICTIONARY
5
C
100
AcDbDictionary
3
ACAD_GROUP
350
D
3
ACAD_MLINESTYLE
350
17
0
DICTIONARY
5
D
100
AcDbDictionary
0
DICTIONARY
5
1A
330
C
100
AcDbDictionary
0
DICTIONARY
5
17
100
AcDbDictionary
0
ENDSEC
0
EOF
