0
SECTION
2
HEADER
9
$INSUNITS
70
4
9
$ACADVER
1
AC1014
9
$HANDSEED
5
FFFF
0
ENDSEC
0
SECTION
2
TABLES
0
TABLE
2
VPORT
5
8
100
AcDbSymbolTable
0
ENDTAB
0
TABLE
2
LTYPE
5
5
100
AcDbSymbolTable
0
LTYPE
5
14
100
AcDbSymbolTableRecord
100
AcDbLinetypeTableRecord
2
BYBLOCK
70
0
0
LTYPE
5
15
100
AcDbSymbolTableRecord
100
AcDbLinetypeTableRecord
2
BYLAYER
70
0
0
ENDTAB
0
TABLE
2
LAYER
5
2
100
AcDbSymbolTable
70
2
0
LAYER
5
50
100
AcDbSymbolTableRecord
100
AcDbLayerTableRecord
2
0
70
0
6
CONTINUOUS
0
ENDTAB
0
TABLE
2
STYLE
5
3
100
AcDbSymbolTable
70
1
0
STYLE
5
11
100
AcDbSymbolTableRecord
100
AcDbTextStyleTableRecord
2
STANDARD
70
0
0
ENDTAB
0
TABLE
2
VIEW
5
6
100
AcDbSymbolTable
70
0
0
ENDTAB
0
TABLE
2
UCS
5
7
100
AcDbSymbolTable
70
0
0
ENDTAB
0
TABLE
2
APPID
5
9
100
AcDbSymbolTable
70
2
0
APPID
5
12
100
AcDbSymbolTableRecord
100
AcDbRegAppTableRecord
2
ACAD
70
0
0
ENDTAB
0
TABLE
2
DIMSTYLE
5
A
100
AcDbSymbolTable
70
1
0
ENDTAB
0
TABLE
2
BLOCK_RECORD
5
1
100
AcDbSymbolTable
70
1
0
BLOCK_RECORD
5
1F
100
AcDbSymbolTableRecord
100
AcDbBlockTableRecord
2
*MODEL_SPACE
0
BLOCK_RECORD
5
1B
100
AcDbSymbolTableRecord
100
AcDbBlockTableRecord
2
*PAPER_SPACE
0
ENDTAB
0
ENDSEC
0
SECTION
2
BLOCKS
0
BLOCK
5
20
100
AcDbEntity
100
AcDbBlockBegin
2
*MODEL_SPACE
0
ENDBLK
5
21
100
AcDbEntity
100
AcDbBlockEnd
0
BLOCK
5
1C
100
AcDbEntity
100
AcDbBlockBegin
2
*PAPER_SPACE
0
ENDBLK
5
1D
100
AcDbEntity
100
AcDbBlockEnd
0
ENDSEC
0
SECTION
2
ENTITIES
0
ARC
5
100
100
AcDbEntity
8
0
100
AcDbCircle
10
-81.01825984020239
20
102.22197259718175
30
0
40
0.49999999999980288
210
0
220
-0
230
1
100
AcDbArc
50
51.034456516534782
51
78.000000000007304
0
LINE
5
101
100
AcDbEntity
8
0
100
AcDbLine
10
-80.914303994793613
20
102.71104639754847
30
0
11
-93.296122735164175
21
105.34288321622314
31
0
0
ARC
5
102
100
AcDbEntity
8
0
100
AcDbCircle
10
-92.984255198937532
20
106.81010461732387
30
0
40
1.5000000000000084
210
0
220
0
230
1
100
AcDbArc
50
167.9999999999994
51
258.00000000000006
0
LINE
5
103
100
AcDbEntity
8
0
100
AcDbLine
10
-94.451476600038248
20
107.12197215355053
30
0
11
-90.906582271595482
21
123.79938874606191
31
0
0
ARC
5
104
100
AcDbEntity
8
0
100
AcDbCircle
10
-91.39565607196235
20
123.90334459147081
30
0
40
0.49999999999998213
210
0
220
0
230
1
100
AcDbArc
50
-12.000000000003682
51
78.00000000000432
0
LINE
5
105
100
AcDbEntity
8
0
100
AcDbLine
10
-91.291700226553516
20
124.39241839183768
30
0
11
-150.87311595625141
21
137.05683925877437
31
0
0
ARC
5
106
100
AcDbEntity
8
0
100
AcDbCircle
10
-150.97707180166029
20
136.56776545840748
30
0
40
0.49999999999999589
210
0
220
-0
230
1
100
AcDbArc
50
78.000000000000213
51
168.00000000000023
0
LINE
5
107
100
AcDbEntity
8
0
100
AcDbLine
10
-151.46614560202718
20
136.67172130381635
30
0
11
-159.03107982546675
21
101.08150397999862
31
0
0
ARC
5
108
100
AcDbEntity
8
0
100
AcDbCircle
10
-160.49830122656746
20
101.39337151622526
30
0
40
1.5000000000000036
210
-0
220
0
230
1
100
AcDbArc
50
270
51
347.99999999999989
0
LINE
5
109
100
AcDbEntity
8
0
100
AcDbLine
10
-160.49830122656746
20
99.893371516225244
30
0
11
-168.89751370682578
21
99.893371516225287
31
0
0
ARC
5
110
100
AcDbEntity
8
0
100
AcDbCircle
10
-168.89751370682578
20
101.39337151622529
30
0
40
1.5000000000000084
210
0
220
0
230
1
100
AcDbArc
50
192.00000000000009
51
270
0
LINE
5
111
100
AcDbEntity
8
0
100
AcDbLine
10
-170.36473510792649
20
101.08150397999864
30
0
11
-177.92966933136603
21
136.67172130381638
31
0
0
ARC
5
112
100
AcDbEntity
8
0
100
AcDbCircle
10
-178.41874313173295
20
136.56776545840745
30
0
40
0.50000000000002798
210
0
220
-0
230
1
100
AcDbArc
50
12.000000000005464
51
101.99999999999524
0
LINE
5
113
100
AcDbEntity
8
0
100
AcDbLine
10
-178.5226989771418
20
137.0568392587744
30
0
11
-228.10549097268733
21
126.51769147420129
31
0
0
ARC
5
114
100
AcDbEntity
8
0
100
AcDbCircle
10
-228.41735850891396
20
127.984912875302
30
0
40
1.5000000000000031
210
0
220
0
230
1
100
AcDbArc
50
236.58718577663126
51
281.99999999999955
0
ARC
5
115
100
AcDbEntity
8
0
100
AcDbCircle
10
-229.51869338964462
20
126.31546342099486
30
0
40
0.50000000000011291
210
0
220
-0
230
1
100
AcDbArc
50
56.587185776636872
51
101.99999999999288
0
LINE
5
116
100
AcDbEntity
8
0
100
AcDbLine
10
-229.62264923505347
20
126.80453722136191
30
0
11
-256.86174445058737
21
121.01468879934569
31
0
0
ARC
5
117
100
AcDbEntity
8
0
100
AcDbCircle
10
-256.75778860517846
20
120.52561499897875
30
0
40
0.50000000000003053
210
0
220
0
230
1
100
AcDbArc
50
102.00000000000198
51
191.99999999999366
0
LINE
5
118
100
AcDbEntity
8
0
100
AcDbLine
10
-257.24686240554541
20
120.42165915356992
30
0
11
-253.77522487457878
21
104.08888869618416
31
0
0
ARC
5
119
100
AcDbEntity
8
0
100
AcDbCircle
10
-255.24244627567953
20
103.7770211599576
30
0
40
1.5000000000000036
210
0
220
0
230
1
100
AcDbArc
50
-90.000000000001123
51
11.999999999996682
0
LINE
5
120
100
AcDbEntity
8
0
100
AcDbLine
10
-255.24244627567955
20
102.2770211599576
30
0
11
-270.83370345783129
21
102.27702115995781
31
0
0
ARC
5
121
100
AcDbEntity
8
0
100
AcDbCircle
10
-270.83370345783129
20
103.77702115995781
30
0
40
1.4999999999999858
210
0
220
0
230
1
100
AcDbArc
50
180
51
270
0
LINE
5
122
100
AcDbEntity
8
0
100
AcDbLine
10
-272.33370345783123
20
103.77702115995781
30
0
11
-272.33370345783123
21
120.82702115995784
31
0
0
ARC
5
123
100
AcDbEntity
8
0
100
AcDbCircle
10
-272.83370345783123
20
120.82702115995785
30
0
40
0.50000000000000711
210
0
220
0
230
1
100
AcDbArc
50
0
51
90
0
LINE
5
124
100
AcDbEntity
8
0
100
AcDbLine
10
-272.83370345783123
20
121.32702115995785
30
0
11
-357.55870345783137
21
121.32702115995784
31
0
0
ARC
5
125
100
AcDbEntity
8
0
100
AcDbCircle
10
-357.55870345783131
20
120.82702115995784
30
0
40
0.50000000000000711
210
0
220
0
230
1
100
AcDbArc
50
90.000000000006523
51
180
0
LINE
5
126
100
AcDbEntity
8
0
100
AcDbLine
10
-358.05870345783137
20
120.82702115995784
30
0
11
-358.05870345783137
21
137.05702115995786
31
0
0
LINE
5
127
100
AcDbEntity
8
0
100
AcDbLine
10
-358.05870345783137
20
137.05702115995786
30
0
11
-365.05870345783137
21
137.05702115995786
31
0
0
LINE
5
128
100
AcDbEntity
8
0
100
AcDbLine
10
-365.05870345783137
20
137.05702115995786
30
0
11
-365.05870345783137
21
16.135021159957841
31
0
0
LINE
5
129
100
AcDbEntity
8
0
100
AcDbLine
10
-365.05870345783137
20
16.135021159957841
30
0
11
-358.05870345783137
21
16.135021159957841
31
0
0
ARC
5
130
100
AcDbEntity
8
0
100
AcDbCircle
10
-357.55870345783131
20
102.77702115995783
30
0
40
0.50000000000004263
210
0
220
0
230
1
100
AcDbArc
50
180
51
269.99999999999346
0
LINE
5
131
100
AcDbEntity
8
0
100
AcDbLine
10
-357.55870345783137
20
102.2770211599578
30
0
11
-340.50870345783119
21
102.27702115995783
31
0
0
ARC
5
132
100
AcDbEntity
8
0
100
AcDbCircle
10
-340.50870345783119
20
100.77702115995784
30
0
40
1.4999999999999858
210
0
220
-0
230
1
100
AcDbArc
50
0
51
90
0
LINE
5
133
100
AcDbEntity
8
0
100
AcDbLine
10
-339.00870345783119
20
100.77702115995784
30
0
11
-339.00870345783119
21
82.500001206994057
31
0
0
ARC
5
134
100
AcDbEntity
8
0
100
AcDbCircle
10
-340.50870345783107
20
82.500001206994057
30
0
40
1.5000000000000036
210
-0
220
0
230
1
100
AcDbArc
50
-90
51
0
0
LINE
5
135
100
AcDbEntity
8
0
100
AcDbLine
10
-340.50870345783107
20
81.000001206994057
30
0
11
-357.55000515580178
21
81.000001206994057
31
0
0
ARC
5
136
100
AcDbEntity
8
0
100
AcDbCircle
10
-357.55000515580173
20
80.500001206994057
30
0
40
0.50000000000000711
210
0
220
0
230
1
100
AcDbArc
50
90.000000000006523
51
180
0
ARC
5
137
100
AcDbEntity
8
0
100
AcDbCircle
10
-357.55000515580178
20
62.450001206994031
30
0
40
0.49999999999997158
210
0
220
0
230
1
100
AcDbArc
50
180
51
270
0
ARC
5
138
100
AcDbEntity
8
0
100
AcDbCircle
10
-357.55000515580173
20
60.450001206994052
30
0
40
1.4999999999999858
210
0
220
0
230
1
100
AcDbArc
50
0
51
90.000000000002174
0
LINE
5
139
100
AcDbEntity
8
0
100
AcDbLine
10
-356.05000515580173
20
60.450001206994052
30
0
11
-356.05000515580173
21
43.400001206994048
31
0
0
ARC
5
140
100
AcDbEntity
8
0
100
AcDbCircle
10
-355.55000515580173
20
43.400001206994013
30
0
40
0.49999999999997158
210
0
220
0
230
1
100
AcDbArc
50
180
51
270
0
ARC
5
141
100
AcDbEntity
8
0
100
AcDbCircle
10
-355.55000515580167
20
41.400001206994048
30
0
40
1.4999999999999858
210
0
220
0
230
1
100
AcDbArc
50
0
51
90.000000000002174
0
LINE
5
142
100
AcDbEntity
8
0
100
AcDbLine
10
-354.05000515580173
20
41.400001206994048
30
0
11
-354.05000515580173
21
22.350001242036441
31
0
0
ARC
5
143
100
AcDbEntity
8
0
100
AcDbCircle
10
-353.55000515580173
20
22.350001242036409
30
0
40
0.49999999999997158
210
0
220
0
230
1
100
AcDbArc
50
180
51
270.00000401556048
0
LINE
5
144
100
AcDbEntity
8
0
100
AcDbLine
10
-353.55000512075935
20
21.850001242036438
30
0
11
-176.22571701174763
21
21.850013669773457
31
0
0
ARC
5
145
100
AcDbEntity
8
0
100
AcDbCircle
10
-176.22571690662045
20
20.35001366977346
30
0
40
1.4999999999999858
210
0
220
-0
230
1
100
AcDbArc
50
0
51
90.000004015562681
0
LINE
5
146
100
AcDbEntity
8
0
100
AcDbLine
10
-174.72571690662048
20
20.35001366977346
30
0
11
-174.72571690662048
21
16.635023828073951
31
0
0
ARC
5
147
100
AcDbEntity
8
0
100
AcDbCircle
10
-174.22571690662039
20
16.635023828074001
30
0
40
0.50000000000007816
210
0
220
0
230
1
100
AcDbArc
50
180
51
269.99999999999346
0
LINE
5
148
100
AcDbEntity
8
0
100
AcDbLine
10
-174.22571690662045
20
16.135023828073923
30
0
11
-163.79571690662047
21
16.135023828073951
31
0
0
ARC
5
149
100
AcDbEntity
8
0
100
AcDbCircle
10
-163.79571690662056
20
16.635023828074001
30
0
40
0.50000000000004929
210
0
220
0
230
1
100
AcDbArc
50
270.00000000000978
51
360
0
LINE
5
150
100
AcDbEntity
8
0
100
AcDbLine
10
-163.2957169066205
20
16.635023828073948
30
0
11
-163.29571690662047
21
20.350014681097107
31
0
0
ARC
5
151
100
AcDbEntity
8
0
100
AcDbCircle
10
-161.79571690662047
20
20.350014681097107
30
0
40
1.4999999999999982
210
0
220
0
230
1
100
AcDbArc
50
90.000004015562681
51
180
0
LINE
5
152
100
AcDbEntity
8
0
100
AcDbLine
10
-161.79571701174766
20
21.850014681097104
30
0
11
-31.782723601451153
21
21.850023793031554
31
0
0
ARC
5
153
100
AcDbEntity
8
0
100
AcDbCircle
10
-31.782723636493525
20
22.350023793031554
30
0
40
0.49999999999999944
210
0
220
0
230
1
100
AcDbArc
50
-89.999995984439892
51
4.0045533657003902e-06
0
LINE
5
154
100
AcDbEntity
8
0
100
AcDbLine
10
-31.282723636493532
20
22.350023828073958
30
0
11
-31.282723741620728
21
23.850023828073951
31
0
0
LINE
5
155
100
AcDbEntity
8
0
100
AcDbLine
10
-31.282723741620728
20
23.850023828073951
30
0
11
-31.282723741620728
21
43.627021159957806
31
0
0
ARC
5
156
100
AcDbEntity
8
0
100
AcDbCircle
10
-29.782723741620725
20
43.627021159957806
30
0
40
1.5000000000000036
210
0
220
-0
230
1
100
AcDbArc
50
90
51
180
0
LINE
5
157
100
AcDbEntity
8
0
100
AcDbLine
10
-29.782723741620725
20
45.127021159957806
30
0
11
-27.609211865453062
21
45.127021159957806
31
0
0
ARC
5
158
100
AcDbEntity
8
0
100
AcDbCircle
10
-27.609211865453055
20
45.62702115995782
30
0
40
0.50000000000000711
210
0
220
0
230
1
100
AcDbArc
50
-90.00000000000081
51
0
0
LINE
5
159
100
AcDbEntity
8
0
100
AcDbLine
10
-27.109211865453059
20
45.62702115995782
30
0
11
-27.109211865453062
21
62.677021159957803
31
0
0
ARC
5
160
100
AcDbEntity
8
0
100
AcDbCircle
10
-25.609211865453059
20
62.677021159957803
30
0
40
1.5000000000000036
210
0
220
-0
230
1
100
AcDbArc
50
90
51
180
0
LINE
5
161
100
AcDbEntity
8
0
100
AcDbLine
10
-25.609211865453059
20
64.177021159957803
30
0
11
-23.544422103869451
21
64.177021159957803
31
0
0
ARC
5
162
100
AcDbEntity
8
0
100
AcDbCircle
10
-23.544422103869444
20
64.677021159957803
30
0
40
0.50000000000000711
210
0
220
0
230
1
100
AcDbArc
50
-90.00000000000081
51
0
0
LINE
5
163
100
AcDbEntity
8
0
100
AcDbLine
10
-23.044422103869447
20
64.677021159957803
30
0
11
-23.044422103869451
21
81.727021159957815
31
0
0
ARC
5
164
100
AcDbEntity
8
0
100
AcDbCircle
10
-21.544422103869447
20
81.727021159957815
30
0
40
1.5000000000000036
210
0
220
-0
230
1
100
AcDbArc
50
90
51
180
0
LINE
5
165
100
AcDbEntity
8
0
100
AcDbLine
10
-21.544422103869447
20
83.227021159957815
30
0
11
-19.46211147556194
21
83.227021159957815
31
0
0
ARC
5
166
100
AcDbEntity
8
0
100
AcDbCircle
10
-19.46211147556194
20
83.727021159957815
30
0
40
0.50000000000000711
210
0
220
0
230
1
100
AcDbArc
50
-90
51
0
0
LINE
5
167
100
AcDbEntity
8
0
100
AcDbLine
10
-18.962111475561933
20
83.727021159957815
30
0
11
-18.96211147556194
21
16.135021159957823
31
0
0
LINE
5
168
100
AcDbEntity
8
0
100
AcDbLine
10
-18.96211147556194
20
16.135021159957823
30
0
11
-11.962111475561938
21
16.135021159957823
31
0
0
LINE
5
169
100
AcDbEntity
8
0
100
AcDbLine
10
-11.962111475561938
20
16.135021159957823
30
0
11
-11.962111475561938
21
137.05702115995786
31
0
0
LINE
5
170
100
AcDbEntity
8
0
100
AcDbLine
10
-11.962111475561938
20
137.05702115995786
30
0
11
-18.96211147556194
21
137.05702115995786
31
0
0
LINE
5
171
100
AcDbEntity
8
0
100
AcDbLine
10
-18.96211147556194
20
137.05702115995786
30
0
11
-18.96211147556194
21
120.82702115995784
31
0
0
ARC
5
172
100
AcDbEntity
8
0
100
AcDbCircle
10
-19.462111475561944
20
120.82702115995784
30
0
40
0.50000000000000266
210
0
220
0
230
1
100
AcDbArc
50
0
51
89.999999999999588
0
LINE
5
173
100
AcDbEntity
8
0
100
AcDbLine
10
-19.46211147556194
20
121.32702115995784
30
0
11
-75.612111475561903
21
121.32702115995784
31
0
0
ARC
5
174
100
AcDbEntity
8
0
100
AcDbCircle
10
-75.612111475561903
20
120.82702115995784
30
0
40
0.50000000000000711
210
0
220
0
230
1
100
AcDbArc
50
90
51
180
0
LINE
5
175
100
AcDbEntity
8
0
100
AcDbLine
10
-76.112111475561903
20
120.82702115995784
30
0
11
-76.112111475561903
21
103.77702115995783
31
0
0
ARC
5
176
100
AcDbEntity
8
0
100
AcDbCircle
10
-77.612111475561903
20
103.77702115995783
30
0
40
1.5000000000000036
210
-0
220
0
230
1
100
AcDbArc
50
-90
51
0
0
LINE
5
177
100
AcDbEntity
8
0
100
AcDbLine
10
-77.612111475561903
20
102.27702115995783
30
0
11
-79.760554005196724
21
102.27702115995783
31
0
0
ARC
5
178
100
AcDbEntity
8
0
100
AcDbCircle
10
-79.760554005196724
20
103.77702115995783
30
0
40
1.5000000000000044
210
0
220
0
230
1
100
AcDbArc
50
231.03445651653891
51
270
0
LINE
5
179
100
AcDbEntity
8
0
100
AcDbLine
10
-358.05870345783137
20
16.135021159957841
30
0
11
-358.05000515580173
21
62.450001206994052
31
0
0
LINE
5
180
100
AcDbEntity
8
0
100
AcDbLine
10
-358.05000515580173
20
80.500001206994057
30
0
11
-358.05870345783137
21
102.77702115995783
31
0
0
LINE
5
181
100
AcDbEntity
8
0
100
AcDbLine
10
-18.96211147556194
20
16.135021159957823
30
0
11
-18.96211147556194
21
137.05702115995786
31
0
0
LINE
5
182
100
AcDbEntity
8
0
100
AcDbLine
10
-358.05870345783137
20
16.135021159957841
30
0
11
-358.05870345783137
21
137.05702115995786
31
0
0
ENDSEC
0
SECTION
2
OBJECTS
0
DICTIONARY
5
C
100
AcDbDictionary
3
ACAD_GROUP
350
D
3
ACAD_MLINESTYLE
350
17
0
DICTIONARY
5
D
100
AcDbDictionary
0
DICTIONARY
5
1A
330
C
100
AcDbDictionary
0
DICTIONARY
5
17
100
AcDbDictionary
0
ENDSEC
0
EOF
