<?xml version="1.0" encoding="UTF-8"?><svg id="_0" xmlns="http://www.w3.org/2000/svg" width="339.35mm" height="113.47mm" viewBox="0 0 961.93 321.64"><defs><style>.cls-1{fill:none;stroke:#000;stroke-linecap:round;stroke-linejoin:round;stroke-width:.71px;}</style></defs><g id="LWPOLYLINE"><rect class="cls-1" x="793.23" y="106.13" width="39.68" height="39.68"/></g><g id="LWPOLYLINE-2"><rect class="cls-1" x="628.81" y="76.32" width="39.68" height="39.68" transform="translate(419.73 710.65) rotate(-78)"/></g><g id="LWPOLYLINE-3"><rect class="cls-1" x="644" y="134.75" width="39.68" height="39.68" transform="translate(374.6 771.78) rotate(-78)"/></g><g id="LWPOLYLINE-4"><rect class="cls-1" x="882.91" y="160.13" width="39.68" height="39.68"/></g><g id="LWPOLYLINE-5"><rect class="cls-1" x="698.79" y="201.61" width="39.68" height="39.68" transform="translate(352.61 878.34) rotate(-78)"/></g><g id="LWPOLYLINE-6"><rect class="cls-1" x="608.34" y="237.59" width="39.68" height="39.68" transform="translate(245.77 818.36) rotate(-78)"/></g><g id="LWPOLYLINE-7"><rect class="cls-1" x="825.81" y="268.13" width="39.68" height="39.68"/></g><g id="LWPOLYLINE-8"><rect class="cls-1" x="771.81" y="271.86" width="39.68" height="39.68"/></g><g id="LWPOLYLINE-9"><rect class="cls-1" x="555.52" y="226.36" width="39.68" height="39.68" transform="translate(214.91 757.8) rotate(-78)"/></g><g id="LWPOLYLINE-10"><rect class="cls-1" x="751.61" y="212.84" width="39.68" height="39.68" transform="translate(383.47 938.9) rotate(-78)"/></g><g id="LWPOLYLINE-11"><rect class="cls-1" x="808.66" y="160.13" width="39.68" height="39.68"/></g><g id="LWPOLYLINE-12"><rect class="cls-1" x="591.18" y="123.53" width="39.68" height="39.68" transform="translate(343.74 711.23) rotate(-78)"/></g><g id="LWPOLYLINE-13"><rect class="cls-1" x="681.63" y="87.55" width="39.68" height="39.68" transform="translate(450.59 771.21) rotate(-78)"/></g><g id="LWPOLYLINE-14"><polygon class="cls-1" points="947.67 145.82 853.98 145.82 853.98 106.13 857.06 106.13 857.06 103.3 876.9 103.3 876.9 106.13 924.74 106.13 924.74 103.3 944.58 103.3 944.58 106.13 947.67 106.13 947.67 145.82"/></g><g id="LWPOLYLINE-15"><rect class="cls-1" x="901.23" y="52.13" width="39.68" height="39.68"/></g><g id="LWPOLYLINE-16"><polygon class="cls-1" points="651.2 21.21 742.84 40.69 734.59 79.51 731.57 78.87 730.98 81.64 711.58 77.51 712.17 74.74 665.37 64.79 664.78 67.57 645.37 63.44 645.96 60.67 642.95 60.03 651.2 21.21"/></g><g id="LWPOLYLINE-17"><rect class="cls-1" x="587.22" y="12.27" width="39.68" height="39.68" transform="translate(449.43 619.23) rotate(-78)"/></g><g id="LWPOLYLINE-18"><rect class="cls-1" x="696.82" y="145.98" width="39.68" height="39.68" transform="translate(405.46 832.34) rotate(-78)"/></g><g id="LWPOLYLINE-19"><rect class="cls-1" x="878.14" y="214.13" width="39.68" height="39.68"/></g><g id="LWPOLYLINE-20"><rect class="cls-1" x="645.97" y="190.38" width="39.68" height="39.68" transform="translate(321.76 817.78) rotate(-78)"/></g><g id="LWPOLYLINE-21"><rect class="cls-1" x="661.16" y="248.81" width="39.68" height="39.68" transform="translate(276.63 878.92) rotate(-78)"/></g><g id="LWPOLYLINE-22"><rect class="cls-1" x="879.81" y="268.13" width="39.68" height="39.68"/></g><g id="LWPOLYLINE-23"><rect class="cls-1" x="713.98" y="260.04" width="39.68" height="39.68" transform="translate(307.48 939.47) rotate(-78)"/></g><g id="LWPOLYLINE-24"><rect class="cls-1" x="593.15" y="179.15" width="39.68" height="39.68" transform="translate(290.9 757.22) rotate(-78)"/></g><g id="LWPOLYLINE-25"><rect class="cls-1" x="810.64" y="214.13" width="39.68" height="39.68"/></g><g id="LWPOLYLINE-26"><rect class="cls-1" x="749.64" y="157.21" width="39.68" height="39.68" transform="translate(436.31 892.9) rotate(-78)"/></g><g id="LWPOLYLINE-27"><rect class="cls-1" x="575.99" y="65.09" width="39.68" height="39.68" transform="translate(388.88 650.09) rotate(-78)"/></g><g id="LWPOLYLINE-28"><rect class="cls-1" x="734.45" y="98.77" width="39.68" height="39.68" transform="translate(481.44 831.77) rotate(-78)"/></g><g id="LWPOLYLINE-29"><rect class="cls-1" x="820.23" y="52.13" width="39.68" height="39.68"/></g><g id="LWPOLYLINE-30"><path class="cls-1" d="m786.56,98.03c-.17-.14-.38-.24-.6-.28l-35.1-7.46c-2.3-.49-3.76-2.75-3.28-5.04l10.05-47.27c.16-.77-.33-1.52-1.09-1.68h0s-12.22-2.6-12.22-2.6l-26.41-5.61h0s-38.82-8.25-38.82-8.25h0s-26.41-5.61-26.41-5.61h0S587.65.39,587.65.39c-.77-.16-1.52.33-1.68,1.09l-21.87,102.87c-.16.77.33,1.52,1.09,1.68l20.86,4.43c2.3.49,3.76,2.75,3.28,5.04l-10.05,47.27c-.16.77.33,1.52,1.09,1.68l7.66,1.63c2.3.49,3.76,2.75,3.28,5.04l-9.46,44.5c-.49,2.3-2.75,3.76-5.04,3.28l-20.86-4.43c-.77-.16-1.52.33-1.68,1.09l-10.64,50.05c-.16.77.33,1.52,1.09,1.68l209.08,44.44c.54.11,1.05.33,1.5.64l8.99,6.08c.23.16.51.24.79.24h52.15c.6,0,1.13-.37,1.33-.93.61-1.68,2.21-2.79,3.99-2.79h102.67c.78,0,1.42-.63,1.42-1.42v-48.33c0-2.35,1.9-4.25,4.25-4.25h6.16c.78,0,1.42-.63,1.42-1.42v-48.33c0-2.35,1.9-4.25,4.25-4.25h5.85c.78,0,1.42-.63,1.42-1.42v-48.33c0-2.35,1.9-4.25,4.25-4.25h5.9c.78,0,1.42-.63,1.42-1.42V46.39c0-.78-.63-1.42-1.42-1.42h-159.17c-.78,0-1.42.63-1.42,1.42v48.33c0,2.35-1.9,4.25-4.25,4.25h-6.09c-.97,0-1.92-.33-2.67-.95Z"/></g><g id="LWPOLYLINE-31"><rect class="cls-1" x="7.54" y="166.45" width="39.68" height="39.68"/></g><g id="LWPOLYLINE-32"><rect class="cls-1" x="7.51" y="52.13" width="39.68" height="39.68"/></g><g id="LWPOLYLINE-33"><rect class="cls-1" x="264.01" y="106.13" width="39.68" height="39.68"/></g><g id="LWPOLYLINE-34"><rect class="cls-1" x="265.49" y="216.23" width="39.68" height="39.68"/></g><g id="LWPOLYLINE-35"><polygon class="cls-1" points="189.52 307.82 95.83 307.82 95.83 268.13 98.91 268.13 98.91 265.3 118.76 265.3 118.76 268.13 166.59 268.13 166.59 265.3 186.44 265.3 186.44 268.13 189.52 268.13 189.52 307.82"/></g><g id="LWPOLYLINE-36"><rect class="cls-1" x="422.5" y="243.2" width="39.68" height="39.68" transform="translate(-45.02 97.72) rotate(-12)"/></g><g id="LWPOLYLINE-37"><rect class="cls-1" x="377.09" y="197.65" width="39.68" height="39.68" transform="translate(-36.54 87.28) rotate(-12)"/></g><g id="LWPOLYLINE-38"><rect class="cls-1" x="413.25" y="134.75" width="39.68" height="39.68" transform="translate(-22.68 93.42) rotate(-12)"/></g><g id="LWPOLYLINE-39"><rect class="cls-1" x="375.61" y="87.55" width="39.68" height="39.68" transform="translate(-13.69 84.57) rotate(-12)"/></g><g id="LWPOLYLINE-40"><polygon class="cls-1" points="485.34 12.79 493.59 51.61 490.58 52.25 491.17 55.02 471.76 59.15 471.17 56.37 424.38 66.32 424.97 69.09 405.56 73.22 404.97 70.45 401.95 71.09 393.7 32.27 485.34 12.79"/></g><g id="LWPOLYLINE-41"><rect class="cls-1" x="481.25" y="65.09" width="39.68" height="39.68" transform="translate(-6.71 106.04) rotate(-12)"/></g><g id="LWPOLYLINE-42"><rect class="cls-1" x="322.79" y="98.77" width="39.68" height="39.68" transform="translate(-17.17 73.83) rotate(-12)"/></g><g id="LWPOLYLINE-43"><rect class="cls-1" x="466.07" y="123.53" width="39.68" height="39.68" transform="translate(-19.19 104.16) rotate(-12)"/></g><g id="LWPOLYLINE-44"><rect class="cls-1" x="324.27" y="208.87" width="39.68" height="39.68" transform="translate(-40.03 76.54) rotate(-12)"/></g><g id="LWPOLYLINE-45"><rect class="cls-1" x="475.32" y="231.97" width="39.68" height="39.68" transform="translate(-41.53 108.45) rotate(-12)"/></g><g id="LWPOLYLINE-46"><rect class="cls-1" x="89.99" y="214.13" width="39.68" height="39.68"/></g><g id="LWPOLYLINE-47"><rect class="cls-1" x="248.58" y="160.13" width="39.68" height="39.68"/></g><g id="LWPOLYLINE-48"><rect class="cls-1" x="210.01" y="106.13" width="39.68" height="39.68"/></g><g id="LWPOLYLINE-49"><rect class="cls-1" x="61.51" y="52.13" width="39.68" height="39.68"/></g><g id="LWPOLYLINE-50"><rect class="cls-1" x="13.21" y="220.45" width="39.68" height="39.68"/></g><g id="LWPOLYLINE-51"><rect class="cls-1" x="183.01" y="52.13" width="39.68" height="39.68"/></g><g id="LWPOLYLINE-52"><rect class="cls-1" x="61.51" y="106.13" width="39.68" height="39.68"/></g><g id="LWPOLYLINE-53"><polygon class="cls-1" points="173.52 199.82 79.83 199.82 79.83 160.13 82.91 160.13 82.91 157.3 102.76 157.3 102.76 160.13 150.59 160.13 150.59 157.3 170.44 157.3 170.44 160.13 173.52 160.13 173.52 199.82"/></g><g id="LWPOLYLINE-54"><rect class="cls-1" x="211.49" y="214.13" width="39.68" height="39.68"/></g><g id="LWPOLYLINE-55"><rect class="cls-1" x="203.83" y="268.13" width="39.68" height="39.68"/></g><g id="LWPOLYLINE-56"><rect class="cls-1" x="369.68" y="254.43" width="39.68" height="39.68" transform="translate(-48.51 86.98) rotate(-12)"/></g><g id="LWPOLYLINE-57"><rect class="cls-1" x="429.91" y="186.42" width="39.68" height="39.68" transform="translate(-33.06 98.02) rotate(-12)"/></g><g id="LWPOLYLINE-58"><rect class="cls-1" x="360.43" y="145.98" width="39.68" height="39.68" transform="translate(-26.17 82.69) rotate(-12)"/></g><g id="LWPOLYLINE-59"><rect class="cls-1" x="311.21" y="44.3" width="39.68" height="39.68" transform="translate(-6.1 70.23) rotate(-12)"/></g><g id="LWPOLYLINE-60"><rect class="cls-1" x="428.43" y="76.32" width="39.68" height="39.68" transform="translate(-10.2 95.3) rotate(-12)"/></g><g id="LWPOLYLINE-61"><rect class="cls-1" x="307.61" y="157.21" width="39.68" height="39.68" transform="translate(-29.66 71.95) rotate(-12)"/></g><g id="LWPOLYLINE-62"><rect class="cls-1" x="482.73" y="175.19" width="39.68" height="39.68" transform="translate(-29.57 108.75) rotate(-12)"/></g><g id="LWPOLYLINE-63"><rect class="cls-1" x="316.86" y="265.65" width="39.68" height="39.68" transform="translate(-52 76.24) rotate(-12)"/></g><g id="LWPOLYLINE-64"><rect class="cls-1" x="257.83" y="270.23" width="39.68" height="39.68"/></g><g id="LWPOLYLINE-65"><rect class="cls-1" x="157.49" y="214.13" width="39.68" height="39.68"/></g><g id="LWPOLYLINE-66"><rect class="cls-1" x="194.58" y="160.13" width="39.68" height="39.68"/></g><g id="LWPOLYLINE-67"><rect class="cls-1" x="135.76" y="106.13" width="39.68" height="39.68"/></g><g id="LWPOLYLINE-68"><rect class="cls-1" x="115.51" y="52.13" width="39.68" height="39.68"/></g><g id="LWPOLYLINE-69"><rect class="cls-1" x="18.88" y="274.45" width="39.68" height="39.68"/></g><g id="LWPOLYLINE-70"><path class="cls-1" d="m365.5,29.65c-.32-.21-.7-.28-1.08-.2l-77.21,16.41c-.77.16-1.25.92-1.09,1.68l9.84,46.3c.06.29.09.59.09.88,0,2.35-1.9,4.25-4.25,4.25h-44.2c-2.35,0-4.25-1.9-4.25-4.25v-48.33c0-.78-.63-1.42-1.42-1.42H1.77c-.78,0-1.42.63-1.42,1.42v51.17c0,.78.63,1.42,1.42,1.42h48.33c2.35,0,4.25,1.9,4.25,4.25v51.81c0,2.35-1.9,4.25-4.25,4.25H1.8c-.78,0-1.42.63-1.42,1.42v51.17c0,.78.63,1.42,1.42,1.42,2.35,0,4.25,1.9,4.25,4.25v48.33c0,.78.63,1.42,1.42,1.42,2.35,0,4.25,1.9,4.25,4.25v48.33c0,.78.63,1.42,1.42,1.42h51.17c.78,0,1.42-.63,1.42-1.42v-.64c0-2.35,1.9-4.25,4.25-4.25h25.86s27,0,27,0h0s39.68,0,39.68,0h0s27,0,27,0h0s58.17,0,58.17,0c1.28,0,2.5.58,3.3,1.57.27.33.67.52,1.1.52h52.5c.06,0,.11,0,.17,0l10.97.44c.12,0,.24,0,.35-.03l209.72-44.58c.77-.16,1.25-.92,1.09-1.68l-10.05-47.27c-.49-2.3.98-4.55,3.28-5.04l13.09-2.78c.77-.16,1.25-.92,1.09-1.68l-10.64-50.05c-.16-.75-.89-1.24-1.65-1.1-2.27.43-4.48-1.03-4.96-3.29l-9.46-44.5c-.49-2.3.98-4.55,3.28-5.04l20.86-4.43c.77-.16,1.25-.92,1.09-1.68L510.96,1.48c-.16-.77-.92-1.25-1.68-1.09h0s-25.42,5.4-25.42,5.4l-26.41,5.61h0s-38.82,8.25-38.82,8.25h0s-26.41,5.61-26.41,5.61h0s-23.49,4.99-23.49,4.99c-1.11.24-2.28.02-3.23-.61Z"/></g></svg>